<svg width="374" height="90" viewBox="0 0 374 90" fill="none" xmlns="http://www.w3.org/2000/svg">
<g filter="url(#filter0_d_7_121)">
<rect x="20" y="60" width="50" height="334" rx="8" transform="rotate(-90 20 60)" fill="#242424"/>
</g>
<path d="M125.563 40L124.213 36.868H117.787L116.437 40H114.565L120.217 27.31H121.765L127.417 40H125.563ZM118.417 35.392H123.583L121.009 29.38L118.417 35.392ZM136.964 27.31V40H135.164V38.488C134.9 39.016 134.516 39.424 134.012 39.712C133.508 39.988 132.926 40.126 132.266 40.126C131.51 40.126 130.832 39.934 130.232 39.55C129.644 39.166 129.182 38.626 128.846 37.93C128.522 37.234 128.36 36.436 128.36 35.536C128.36 34.624 128.522 33.826 128.846 33.142C129.182 32.458 129.644 31.93 130.232 31.558C130.82 31.186 131.498 31 132.266 31C132.926 31 133.502 31.144 133.994 31.432C134.498 31.708 134.882 32.104 135.146 32.62V27.31H136.964ZM132.698 38.686C133.49 38.686 134.096 38.416 134.516 37.876C134.948 37.336 135.164 36.568 135.164 35.572C135.164 34.576 134.948 33.808 134.516 33.268C134.096 32.728 133.49 32.458 132.698 32.458C131.906 32.458 131.288 32.728 130.844 33.268C130.412 33.796 130.196 34.552 130.196 35.536C130.196 36.52 130.418 37.294 130.862 37.858C131.306 38.41 131.918 38.686 132.698 38.686ZM147.598 27.31V40H145.798V38.488C145.534 39.016 145.15 39.424 144.646 39.712C144.142 39.988 143.56 40.126 142.9 40.126C142.144 40.126 141.466 39.934 140.866 39.55C140.278 39.166 139.816 38.626 139.48 37.93C139.156 37.234 138.994 36.436 138.994 35.536C138.994 34.624 139.156 33.826 139.48 33.142C139.816 32.458 140.278 31.93 140.866 31.558C141.454 31.186 142.132 31 142.9 31C143.56 31 144.136 31.144 144.628 31.432C145.132 31.708 145.516 32.104 145.78 32.62V27.31H147.598ZM143.332 38.686C144.124 38.686 144.73 38.416 145.15 37.876C145.582 37.336 145.798 36.568 145.798 35.572C145.798 34.576 145.582 33.808 145.15 33.268C144.73 32.728 144.124 32.458 143.332 32.458C142.54 32.458 141.922 32.728 141.478 33.268C141.046 33.796 140.83 34.552 140.83 35.536C140.83 36.52 141.052 37.294 141.496 37.858C141.94 38.41 142.552 38.686 143.332 38.686ZM158.551 31C159.727 31 160.597 31.294 161.161 31.882C161.737 32.47 162.025 33.364 162.025 34.564V40H160.279V38.542C160.051 39.058 159.709 39.454 159.253 39.73C158.809 39.994 158.287 40.126 157.687 40.126C157.111 40.126 156.583 40.012 156.103 39.784C155.623 39.544 155.245 39.214 154.969 38.794C154.705 38.374 154.573 37.906 154.573 37.39C154.573 36.754 154.735 36.256 155.059 35.896C155.395 35.524 155.941 35.26 156.697 35.104C157.465 34.948 158.515 34.87 159.847 34.87H160.261V34.348C160.261 33.676 160.117 33.19 159.829 32.89C159.553 32.59 159.097 32.44 158.461 32.44C157.465 32.44 156.469 32.746 155.473 33.358L154.933 32.08C155.401 31.756 155.965 31.498 156.625 31.306C157.297 31.102 157.939 31 158.551 31ZM158.011 38.776C158.671 38.776 159.211 38.554 159.631 38.11C160.051 37.654 160.261 37.072 160.261 36.364V35.896H159.937C159.001 35.896 158.281 35.938 157.777 36.022C157.273 36.106 156.913 36.25 156.697 36.454C156.481 36.646 156.373 36.928 156.373 37.3C156.373 37.72 156.523 38.074 156.823 38.362C157.135 38.638 157.531 38.776 158.011 38.776ZM164.512 40V27.31H166.33V40H164.512ZM168.871 40V27.31H170.689V40H168.871ZM182.135 38.722C182.411 38.722 182.681 38.704 182.945 38.668L182.855 40.054C182.555 40.102 182.243 40.126 181.919 40.126C180.779 40.126 179.927 39.85 179.363 39.298C178.811 38.734 178.535 37.924 178.535 36.868V32.62H176.825V31.216H178.535V28.57H180.353V31.216H182.765V32.62H180.353V36.796C180.353 38.08 180.947 38.722 182.135 38.722ZM188.139 40.126C187.275 40.126 186.513 39.94 185.853 39.568C185.205 39.196 184.701 38.668 184.341 37.984C183.993 37.288 183.819 36.484 183.819 35.572C183.819 34.648 183.993 33.844 184.341 33.16C184.701 32.464 185.205 31.93 185.853 31.558C186.513 31.186 187.275 31 188.139 31C189.003 31 189.759 31.186 190.407 31.558C191.067 31.93 191.571 32.464 191.919 33.16C192.279 33.844 192.459 34.648 192.459 35.572C192.459 36.484 192.279 37.288 191.919 37.984C191.571 38.668 191.067 39.196 190.407 39.568C189.759 39.94 189.003 40.126 188.139 40.126ZM188.139 38.686C188.943 38.686 189.555 38.422 189.975 37.894C190.407 37.366 190.623 36.592 190.623 35.572C190.623 34.564 190.407 33.796 189.975 33.268C189.543 32.728 188.931 32.458 188.139 32.458C187.347 32.458 186.735 32.728 186.303 33.268C185.871 33.796 185.655 34.564 185.655 35.572C185.655 36.592 185.865 37.366 186.285 37.894C186.717 38.422 187.335 38.686 188.139 38.686ZM209.309 31C211.277 31 212.261 32.182 212.261 34.546V40H210.443V34.618C210.443 33.874 210.311 33.334 210.047 32.998C209.795 32.65 209.381 32.476 208.805 32.476C208.145 32.476 207.623 32.704 207.239 33.16C206.855 33.616 206.663 34.24 206.663 35.032V40H204.845V34.618C204.845 33.874 204.713 33.334 204.449 32.998C204.185 32.65 203.771 32.476 203.207 32.476C202.535 32.476 202.007 32.704 201.623 33.16C201.239 33.616 201.047 34.24 201.047 35.032V40H199.229V31.216H201.011V32.548C201.287 32.056 201.659 31.678 202.127 31.414C202.595 31.138 203.129 31 203.729 31C205.085 31 205.967 31.564 206.375 32.692C206.651 32.164 207.047 31.75 207.563 31.45C208.079 31.15 208.661 31 209.309 31ZM220.978 31.234H222.796L217.558 43.24H215.722L217.252 39.784L213.562 31.234H215.47L218.206 37.948L220.978 31.234ZM232.7 40.126C231.812 40.126 231.038 39.94 230.378 39.568C229.73 39.196 229.226 38.674 228.866 38.002C228.518 37.318 228.344 36.52 228.344 35.608C228.344 34.696 228.524 33.892 228.884 33.196C229.256 32.5 229.772 31.96 230.432 31.576C231.104 31.192 231.884 31 232.772 31C233.384 31 233.972 31.102 234.536 31.306C235.112 31.51 235.58 31.786 235.94 32.134L235.382 33.43C234.59 32.782 233.768 32.458 232.916 32.458C232.076 32.458 231.416 32.734 230.936 33.286C230.468 33.826 230.234 34.594 230.234 35.59C230.234 36.574 230.468 37.336 230.936 37.876C231.404 38.404 232.064 38.668 232.916 38.668C233.768 38.668 234.59 38.344 235.382 37.696L235.94 39.01C235.556 39.358 235.076 39.634 234.5 39.838C233.924 40.03 233.324 40.126 232.7 40.126ZM241.221 31C242.397 31 243.267 31.294 243.831 31.882C244.407 32.47 244.695 33.364 244.695 34.564V40H242.949V38.542C242.721 39.058 242.379 39.454 241.923 39.73C241.479 39.994 240.957 40.126 240.357 40.126C239.781 40.126 239.253 40.012 238.773 39.784C238.293 39.544 237.915 39.214 237.639 38.794C237.375 38.374 237.243 37.906 237.243 37.39C237.243 36.754 237.405 36.256 237.729 35.896C238.065 35.524 238.611 35.26 239.367 35.104C240.135 34.948 241.185 34.87 242.517 34.87H242.931V34.348C242.931 33.676 242.787 33.19 242.499 32.89C242.223 32.59 241.767 32.44 241.131 32.44C240.135 32.44 239.139 32.746 238.143 33.358L237.603 32.08C238.071 31.756 238.635 31.498 239.295 31.306C239.967 31.102 240.609 31 241.221 31ZM240.681 38.776C241.341 38.776 241.881 38.554 242.301 38.11C242.721 37.654 242.931 37.072 242.931 36.364V35.896H242.607C241.671 35.896 240.951 35.938 240.447 36.022C239.943 36.106 239.583 36.25 239.367 36.454C239.151 36.646 239.043 36.928 239.043 37.3C239.043 37.72 239.193 38.074 239.493 38.362C239.805 38.638 240.201 38.776 240.681 38.776ZM252.528 32.53L251.43 32.638C250.566 32.722 249.942 32.986 249.558 33.43C249.186 33.874 249 34.438 249 35.122V40H247.182V31.216H248.946V32.746C249.414 31.714 250.368 31.144 251.808 31.036L252.402 31L252.528 32.53ZM258.688 38.722C258.964 38.722 259.234 38.704 259.498 38.668L259.408 40.054C259.108 40.102 258.796 40.126 258.472 40.126C257.332 40.126 256.48 39.85 255.916 39.298C255.364 38.734 255.088 37.924 255.088 36.868V32.62H253.378V31.216H255.088V28.57H256.906V31.216H259.318V32.62H256.906V36.796C256.906 38.08 257.5 38.722 258.688 38.722Z" fill="white"/>
<defs>
<filter id="filter0_d_7_121" x="0" y="0" width="374" height="90" filterUnits="userSpaceOnUse" color-interpolation-filters="sRGB">
<feFlood flood-opacity="0" result="BackgroundImageFix"/>
<feColorMatrix in="SourceAlpha" type="matrix" values="0 0 0 0 0 0 0 0 0 0 0 0 0 0 0 0 0 0 127 0" result="hardAlpha"/>
<feOffset dy="10"/>
<feGaussianBlur stdDeviation="10"/>
<feColorMatrix type="matrix" values="0 0 0 0 0.188235 0 0 0 0 0.188235 0 0 0 0 0.188235 0 0 0 0.25 0"/>
<feBlend mode="normal" in2="BackgroundImageFix" result="effect1_dropShadow_7_121"/>
<feBlend mode="normal" in="SourceGraphic" in2="effect1_dropShadow_7_121" result="shape"/>
</filter>
</defs>
</svg>
