<svg width="290" height="100" viewBox="0 0 290 100" fill="none" xmlns="http://www.w3.org/2000/svg">
<g filter="url(#filter0_d_7_325)">
<rect x="20" y="70" width="60" height="250" rx="8" transform="rotate(-90 20 70)" fill="#242424"/>
</g>
<path d="M106.524 46L105.024 42.52H97.8835L96.3835 46H94.3035L100.584 31.9H102.304L108.584 46H106.524ZM98.5835 40.88H104.324L101.464 34.2L98.5835 40.88ZM119.191 31.9V46H117.191V44.32C116.898 44.9067 116.471 45.36 115.911 45.68C115.351 45.9867 114.704 46.14 113.971 46.14C113.131 46.14 112.378 45.9267 111.711 45.5C111.058 45.0733 110.544 44.4733 110.171 43.7C109.811 42.9267 109.631 42.04 109.631 41.04C109.631 40.0267 109.811 39.14 110.171 38.38C110.544 37.62 111.058 37.0333 111.711 36.62C112.364 36.2067 113.118 36 113.971 36C114.704 36 115.344 36.16 115.891 36.48C116.451 36.7867 116.878 37.2267 117.171 37.8V31.9H119.191ZM114.451 44.54C115.331 44.54 116.004 44.24 116.471 43.64C116.951 43.04 117.191 42.1867 117.191 41.08C117.191 39.9733 116.951 39.12 116.471 38.52C116.004 37.92 115.331 37.62 114.451 37.62C113.571 37.62 112.884 37.92 112.391 38.52C111.911 39.1067 111.671 39.9467 111.671 41.04C111.671 42.1333 111.918 42.9933 112.411 43.62C112.904 44.2333 113.584 44.54 114.451 44.54ZM131.007 31.9V46H129.007V44.32C128.714 44.9067 128.287 45.36 127.727 45.68C127.167 45.9867 126.521 46.14 125.787 46.14C124.947 46.14 124.194 45.9267 123.527 45.5C122.874 45.0733 122.361 44.4733 121.987 43.7C121.627 42.9267 121.447 42.04 121.447 41.04C121.447 40.0267 121.627 39.14 121.987 38.38C122.361 37.62 122.874 37.0333 123.527 36.62C124.181 36.2067 124.934 36 125.787 36C126.521 36 127.161 36.16 127.707 36.48C128.267 36.7867 128.694 37.2267 128.987 37.8V31.9H131.007ZM126.267 44.54C127.147 44.54 127.821 44.24 128.287 43.64C128.767 43.04 129.007 42.1867 129.007 41.08C129.007 39.9733 128.767 39.12 128.287 38.52C127.821 37.92 127.147 37.62 126.267 37.62C125.387 37.62 124.701 37.92 124.207 38.52C123.727 39.1067 123.487 39.9467 123.487 41.04C123.487 42.1333 123.734 42.9933 124.227 43.62C124.721 44.2333 125.401 44.54 126.267 44.54ZM143.717 44.58C144.024 44.58 144.324 44.56 144.617 44.52L144.517 46.06C144.184 46.1133 143.837 46.14 143.477 46.14C142.211 46.14 141.264 45.8333 140.637 45.22C140.024 44.5933 139.717 43.6933 139.717 42.52V37.8H137.817V36.24H139.717V33.3H141.737V36.24H144.417V37.8H141.737V42.44C141.737 43.8667 142.397 44.58 143.717 44.58ZM150.388 46.14C149.428 46.14 148.581 45.9333 147.848 45.52C147.128 45.1067 146.568 44.52 146.168 43.76C145.781 42.9867 145.588 42.0933 145.588 41.08C145.588 40.0533 145.781 39.16 146.168 38.4C146.568 37.6267 147.128 37.0333 147.848 36.62C148.581 36.2067 149.428 36 150.388 36C151.348 36 152.188 36.2067 152.908 36.62C153.641 37.0333 154.201 37.6267 154.588 38.4C154.988 39.16 155.188 40.0533 155.188 41.08C155.188 42.0933 154.988 42.9867 154.588 43.76C154.201 44.52 153.641 45.1067 152.908 45.52C152.188 45.9333 151.348 46.14 150.388 46.14ZM150.388 44.54C151.281 44.54 151.961 44.2467 152.428 43.66C152.908 43.0733 153.148 42.2133 153.148 41.08C153.148 39.96 152.908 39.1067 152.428 38.52C151.948 37.92 151.268 37.62 150.388 37.62C149.508 37.62 148.828 37.92 148.348 38.52C147.868 39.1067 147.628 39.96 147.628 41.08C147.628 42.2133 147.861 43.0733 148.328 43.66C148.808 44.2467 149.495 44.54 150.388 44.54ZM166.991 46.14C166.004 46.14 165.144 45.9333 164.411 45.52C163.691 45.1067 163.131 44.5267 162.731 43.78C162.344 43.02 162.151 42.1333 162.151 41.12C162.151 40.1067 162.351 39.2133 162.751 38.44C163.164 37.6667 163.737 37.0667 164.471 36.64C165.217 36.2133 166.084 36 167.071 36C167.751 36 168.404 36.1133 169.031 36.34C169.671 36.5667 170.191 36.8733 170.591 37.26L169.971 38.7C169.091 37.98 168.177 37.62 167.231 37.62C166.297 37.62 165.564 37.9267 165.031 38.54C164.511 39.14 164.251 39.9933 164.251 41.1C164.251 42.1933 164.511 43.04 165.031 43.64C165.551 44.2267 166.284 44.52 167.231 44.52C168.177 44.52 169.091 44.16 169.971 43.44L170.591 44.9C170.164 45.2867 169.631 45.5933 168.991 45.82C168.351 46.0333 167.684 46.14 166.991 46.14ZM176.459 36C177.765 36 178.732 36.3267 179.359 36.98C179.999 37.6333 180.319 38.6267 180.319 39.96V46H178.379V44.38C178.125 44.9533 177.745 45.3933 177.239 45.7C176.745 45.9933 176.165 46.14 175.499 46.14C174.859 46.14 174.272 46.0133 173.739 45.76C173.205 45.4933 172.785 45.1267 172.479 44.66C172.185 44.1933 172.039 43.6733 172.039 43.1C172.039 42.3933 172.219 41.84 172.579 41.44C172.952 41.0267 173.559 40.7333 174.399 40.56C175.252 40.3867 176.419 40.3 177.899 40.3H178.359V39.72C178.359 38.9733 178.199 38.4333 177.879 38.1C177.572 37.7667 177.065 37.6 176.359 37.6C175.252 37.6 174.145 37.94 173.039 38.62L172.439 37.2C172.959 36.84 173.585 36.5533 174.319 36.34C175.065 36.1133 175.779 36 176.459 36ZM175.859 44.64C176.592 44.64 177.192 44.3933 177.659 43.9C178.125 43.3933 178.359 42.7467 178.359 41.96V41.44H177.999C176.959 41.44 176.159 41.4867 175.599 41.58C175.039 41.6733 174.639 41.8333 174.399 42.06C174.159 42.2733 174.039 42.5867 174.039 43C174.039 43.4667 174.205 43.86 174.539 44.18C174.885 44.4867 175.325 44.64 175.859 44.64ZM189.022 37.7L187.802 37.82C186.842 37.9133 186.148 38.2067 185.722 38.7C185.308 39.1933 185.102 39.82 185.102 40.58V46H183.082V36.24H185.042V37.94C185.562 36.7933 186.622 36.16 188.222 36.04L188.882 36L189.022 37.7ZM195.866 44.58C196.172 44.58 196.472 44.56 196.766 44.52L196.666 46.06C196.332 46.1133 195.986 46.14 195.626 46.14C194.359 46.14 193.412 45.8333 192.786 45.22C192.172 44.5933 191.866 43.6933 191.866 42.52V37.8H189.966V36.24H191.866V33.3H193.886V36.24H196.566V37.8H193.886V42.44C193.886 43.8667 194.546 44.58 195.866 44.58Z" fill="white"/>
<defs>
<filter id="filter0_d_7_325" x="0" y="0" width="290" height="100" filterUnits="userSpaceOnUse" color-interpolation-filters="sRGB">
<feFlood flood-opacity="0" result="BackgroundImageFix"/>
<feColorMatrix in="SourceAlpha" type="matrix" values="0 0 0 0 0 0 0 0 0 0 0 0 0 0 0 0 0 0 127 0" result="hardAlpha"/>
<feOffset dy="10"/>
<feGaussianBlur stdDeviation="10"/>
<feColorMatrix type="matrix" values="0 0 0 0 0.188235 0 0 0 0 0.188235 0 0 0 0 0.188235 0 0 0 0.25 0"/>
<feBlend mode="normal" in2="BackgroundImageFix" result="effect1_dropShadow_7_325"/>
<feBlend mode="normal" in="SourceGraphic" in2="effect1_dropShadow_7_325" result="shape"/>
</filter>
</defs>
</svg>
