<svg width="315" height="60" viewBox="0 0 315 60" fill="none" xmlns="http://www.w3.org/2000/svg">
<rect x="0.5" y="59.5" width="59" height="314" rx="7.5" transform="rotate(-90 0.5 59.5)" fill="white" stroke="#303030"/>
<path d="M99.2439 28.466C99.9759 28.67 100.54 29.036 100.936 29.564C101.344 30.092 101.548 30.752 101.548 31.544C101.548 32.636 101.17 33.488 100.414 34.1C99.6699 34.7 98.6259 35 97.2819 35H91.7739V22.31H97.0839C98.3919 22.31 99.4119 22.604 100.144 23.192C100.888 23.768 101.26 24.578 101.26 25.622C101.26 26.294 101.08 26.876 100.72 27.368C100.372 27.86 99.8799 28.226 99.2439 28.466ZM93.5919 27.8H96.7959C98.5719 27.8 99.4599 27.128 99.4599 25.784C99.4599 25.112 99.2379 24.614 98.7939 24.29C98.3619 23.966 97.6959 23.804 96.7959 23.804H93.5919V27.8ZM97.0839 33.506C98.0079 33.506 98.6859 33.338 99.1179 33.002C99.5499 32.666 99.7659 32.144 99.7659 31.436C99.7659 30.716 99.5439 30.182 99.0999 29.834C98.6679 29.474 97.9959 29.294 97.0839 29.294H93.5919V33.506H97.0839ZM113.587 35L112.237 31.868H105.811L104.461 35H102.589L108.241 22.31H109.789L115.441 35H113.587ZM106.441 30.392H111.607L109.033 24.38L106.441 30.392ZM122.262 35.144C121.038 35.144 119.97 34.88 119.058 34.352C118.158 33.824 117.462 33.074 116.97 32.102C116.49 31.118 116.25 29.966 116.25 28.646C116.25 27.326 116.49 26.18 116.97 25.208C117.462 24.224 118.158 23.474 119.058 22.958C119.97 22.43 121.038 22.166 122.262 22.166C123.126 22.166 123.93 22.304 124.674 22.58C125.418 22.844 126.048 23.228 126.564 23.732L125.916 25.1C125.328 24.608 124.74 24.254 124.152 24.038C123.576 23.822 122.952 23.714 122.28 23.714C120.96 23.714 119.94 24.14 119.22 24.992C118.512 25.844 118.158 27.062 118.158 28.646C118.158 30.23 118.512 31.454 119.22 32.318C119.94 33.17 120.96 33.596 122.28 33.596C122.952 33.596 123.576 33.488 124.152 33.272C124.74 33.056 125.328 32.702 125.916 32.21L126.564 33.578C126.048 34.082 125.418 34.472 124.674 34.748C123.93 35.012 123.126 35.144 122.262 35.144ZM139.286 35H136.964L130.718 29.024V35H128.864V22.31H130.718V28.088L136.694 22.31H138.98L132.572 28.448L139.286 35ZM148.183 35V23.858H143.899V22.31H154.357V23.858H150.055V35H148.183ZM160.738 35.144C159.538 35.144 158.494 34.88 157.606 34.352C156.73 33.824 156.052 33.074 155.572 32.102C155.092 31.13 154.852 29.984 154.852 28.664C154.852 27.332 155.086 26.18 155.554 25.208C156.034 24.224 156.718 23.474 157.606 22.958C158.494 22.43 159.538 22.166 160.738 22.166C161.95 22.166 163 22.43 163.888 22.958C164.776 23.474 165.454 24.224 165.922 25.208C166.402 26.18 166.642 27.326 166.642 28.646C166.642 29.966 166.402 31.118 165.922 32.102C165.454 33.074 164.776 33.824 163.888 34.352C163 34.88 161.95 35.144 160.738 35.144ZM160.738 33.632C162.01 33.632 163 33.2 163.708 32.336C164.416 31.472 164.77 30.242 164.77 28.646C164.77 27.05 164.416 25.826 163.708 24.974C163.012 24.11 162.022 23.678 160.738 23.678C159.478 23.678 158.494 24.11 157.786 24.974C157.09 25.826 156.742 27.05 156.742 28.646C156.742 30.242 157.09 31.472 157.786 32.336C158.494 33.2 159.478 33.632 160.738 33.632ZM182.844 22.31H184.68V35H182.844V29.312H175.752V35H173.916V22.31H175.752V27.8H182.844V22.31ZM193.081 35.144C191.881 35.144 190.837 34.88 189.949 34.352C189.073 33.824 188.395 33.074 187.915 32.102C187.435 31.13 187.195 29.984 187.195 28.664C187.195 27.332 187.429 26.18 187.897 25.208C188.377 24.224 189.061 23.474 189.949 22.958C190.837 22.43 191.881 22.166 193.081 22.166C194.293 22.166 195.343 22.43 196.231 22.958C197.119 23.474 197.797 24.224 198.265 25.208C198.745 26.18 198.985 27.326 198.985 28.646C198.985 29.966 198.745 31.118 198.265 32.102C197.797 33.074 197.119 33.824 196.231 34.352C195.343 34.88 194.293 35.144 193.081 35.144ZM193.081 33.632C194.353 33.632 195.343 33.2 196.051 32.336C196.759 31.472 197.113 30.242 197.113 28.646C197.113 27.05 196.759 25.826 196.051 24.974C195.355 24.11 194.365 23.678 193.081 23.678C191.821 23.678 190.837 24.11 190.129 24.974C189.433 25.826 189.085 27.05 189.085 28.646C189.085 30.242 189.433 31.472 190.129 32.336C190.837 33.2 191.821 33.632 193.081 33.632ZM212.206 22.31H213.682V35H212.008L212.026 25.82L208.246 32.966H206.986L203.188 25.91L203.206 35H201.532V22.31H203.026L207.634 31.094L212.206 22.31ZM216.649 35V22.31H224.893V23.804H218.467V27.8H224.533V29.312H218.467V33.506H224.893V35H216.649Z" fill="#303030"/>
</svg>
