<svg width="375" height="100" viewBox="0 0 375 100" fill="none" xmlns="http://www.w3.org/2000/svg">
<g filter="url(#filter0_d_7_307)">
<rect x="20" y="70" width="60" height="335" rx="8" transform="rotate(-90 20 70)" fill="#242424"/>
</g>
<path d="M150.018 47.16C148.658 47.16 147.471 46.8667 146.458 46.28C145.458 45.6933 144.684 44.86 144.138 43.78C143.604 42.6867 143.338 41.4067 143.338 39.94C143.338 38.4733 143.604 37.2 144.138 36.12C144.684 35.0267 145.458 34.1933 146.458 33.62C147.471 33.0333 148.658 32.74 150.018 32.74C150.978 32.74 151.871 32.8933 152.698 33.2C153.524 33.4933 154.224 33.92 154.798 34.48L154.078 36C153.424 35.4533 152.771 35.06 152.118 34.82C151.478 34.58 150.784 34.46 150.038 34.46C148.571 34.46 147.438 34.9333 146.638 35.88C145.851 36.8267 145.458 38.18 145.458 39.94C145.458 41.7 145.851 43.06 146.638 44.02C147.438 44.9667 148.571 45.44 150.038 45.44C150.784 45.44 151.478 45.32 152.118 45.08C152.771 44.84 153.424 44.4467 154.078 43.9L154.798 45.42C154.224 45.98 153.524 46.4133 152.698 46.72C151.871 47.0133 150.978 47.16 150.018 47.16ZM162.373 37C164.706 37 165.873 38.3133 165.873 40.94V47H163.853V41.04C163.853 40.2133 163.686 39.6067 163.353 39.22C163.033 38.8333 162.526 38.64 161.833 38.64C161.02 38.64 160.366 38.8933 159.873 39.4C159.38 39.9067 159.133 40.5867 159.133 41.44V47H157.113V32.9H159.133V38.72C159.466 38.16 159.913 37.7333 160.473 37.44C161.033 37.1467 161.666 37 162.373 37ZM176.996 42.46H170.096C170.243 44.5267 171.27 45.56 173.176 45.56C174.296 45.56 175.31 45.1933 176.216 44.46L176.836 45.88C176.383 46.2667 175.823 46.5733 175.156 46.8C174.49 47.0267 173.81 47.14 173.116 47.14C171.556 47.14 170.323 46.6933 169.416 45.8C168.523 44.9067 168.076 43.6733 168.076 42.1C168.076 41.1 168.27 40.2133 168.656 39.44C169.056 38.6667 169.61 38.0667 170.316 37.64C171.036 37.2133 171.85 37 172.756 37C174.076 37 175.11 37.4267 175.856 38.28C176.616 39.1333 176.996 40.3133 176.996 41.82V42.46ZM172.796 38.48C172.023 38.48 171.403 38.7267 170.936 39.22C170.483 39.7 170.21 40.3933 170.116 41.3H175.256C175.216 40.3933 174.983 39.7 174.556 39.22C174.143 38.7267 173.556 38.48 172.796 38.48ZM183.502 47.14C182.516 47.14 181.656 46.9333 180.922 46.52C180.202 46.1067 179.642 45.5267 179.242 44.78C178.856 44.02 178.662 43.1333 178.662 42.12C178.662 41.1067 178.862 40.2133 179.262 39.44C179.676 38.6667 180.249 38.0667 180.982 37.64C181.729 37.2133 182.596 37 183.582 37C184.262 37 184.916 37.1133 185.542 37.34C186.182 37.5667 186.702 37.8733 187.102 38.26L186.482 39.7C185.602 38.98 184.689 38.62 183.742 38.62C182.809 38.62 182.076 38.9267 181.542 39.54C181.022 40.14 180.762 40.9933 180.762 42.1C180.762 43.1933 181.022 44.04 181.542 44.64C182.062 45.2267 182.796 45.52 183.742 45.52C184.689 45.52 185.602 45.16 186.482 44.44L187.102 45.9C186.676 46.2867 186.142 46.5933 185.502 46.82C184.862 47.0333 184.196 47.14 183.502 47.14ZM198.09 47H195.53L190.91 42.4V47H188.89V32.9H190.91V41.64L195.19 37.26H197.69L193.07 41.94L198.09 47ZM208.736 47.14C207.776 47.14 206.929 46.9333 206.196 46.52C205.476 46.1067 204.916 45.52 204.516 44.76C204.129 43.9867 203.936 43.0933 203.936 42.08C203.936 41.0533 204.129 40.16 204.516 39.4C204.916 38.6267 205.476 38.0333 206.196 37.62C206.929 37.2067 207.776 37 208.736 37C209.696 37 210.536 37.2067 211.256 37.62C211.989 38.0333 212.549 38.6267 212.936 39.4C213.336 40.16 213.536 41.0533 213.536 42.08C213.536 43.0933 213.336 43.9867 212.936 44.76C212.549 45.52 211.989 46.1067 211.256 46.52C210.536 46.9333 209.696 47.14 208.736 47.14ZM208.736 45.54C209.629 45.54 210.309 45.2467 210.776 44.66C211.256 44.0733 211.496 43.2133 211.496 42.08C211.496 40.96 211.256 40.1067 210.776 39.52C210.296 38.92 209.616 38.62 208.736 38.62C207.856 38.62 207.176 38.92 206.696 39.52C206.216 40.1067 205.976 40.96 205.976 42.08C205.976 43.2133 206.209 44.0733 206.676 44.66C207.156 45.2467 207.842 45.54 208.736 45.54ZM224.345 37.24V47H222.385V45.42C222.078 45.98 221.651 46.4067 221.105 46.7C220.571 46.9933 219.971 47.14 219.305 47.14C216.931 47.14 215.745 45.8333 215.745 43.22V37.24H217.765V43.2C217.765 43.9867 217.925 44.5667 218.245 44.94C218.565 45.3133 219.058 45.5 219.725 45.5C220.511 45.5 221.138 45.2467 221.605 44.74C222.085 44.2333 222.325 43.56 222.325 42.72V37.24H224.345ZM231.791 45.58C232.098 45.58 232.398 45.56 232.691 45.52L232.591 47.06C232.258 47.1133 231.911 47.14 231.551 47.14C230.285 47.14 229.338 46.8333 228.711 46.22C228.098 45.5933 227.791 44.6933 227.791 43.52V38.8H225.891V37.24H227.791V34.3H229.811V37.24H232.491V38.8H229.811V43.44C229.811 44.8667 230.471 45.58 231.791 45.58Z" fill="white"/>
<defs>
<filter id="filter0_d_7_307" x="0" y="0" width="375" height="100" filterUnits="userSpaceOnUse" color-interpolation-filters="sRGB">
<feFlood flood-opacity="0" result="BackgroundImageFix"/>
<feColorMatrix in="SourceAlpha" type="matrix" values="0 0 0 0 0 0 0 0 0 0 0 0 0 0 0 0 0 0 127 0" result="hardAlpha"/>
<feOffset dy="10"/>
<feGaussianBlur stdDeviation="10"/>
<feColorMatrix type="matrix" values="0 0 0 0 0.188235 0 0 0 0 0.188235 0 0 0 0 0.188235 0 0 0 0.25 0"/>
<feBlend mode="normal" in2="BackgroundImageFix" result="effect1_dropShadow_7_307"/>
<feBlend mode="normal" in="SourceGraphic" in2="effect1_dropShadow_7_307" result="shape"/>
</filter>
</defs>
</svg>
