<svg width="375" height="135" viewBox="0 0 375 135" fill="none" xmlns="http://www.w3.org/2000/svg">
<path fill-rule="evenodd" clip-rule="evenodd" d="M335.293 17.6855C335.083 17.4755 334.978 17.1835 335.004 16.8875L335.383 12.7175C335.425 12.2605 335.627 11.8295 335.953 11.5035L344.949 2.50749C345.651 1.80249 346.924 1.83749 347.665 2.57649L350.403 5.31449L350.404 5.31549C351.169 6.08149 351.2 7.29949 350.472 8.02949L341.475 17.0265C341.15 17.3515 340.719 17.5535 340.261 17.5955L336.091 17.9745C336.061 17.9765 336.031 17.9775 336 17.9775C335.737 17.9775 335.482 17.8735 335.293 17.6855ZM347.019 8.65649L344.324 5.96149L346.272 4.01249L348.966 6.70649L347.019 8.65649ZM340.08 15.6025L337.103 15.8735L337.367 12.9175L342.984 7.30049L345.68 9.99749L340.08 15.6025ZM350 21.9775C350.55 21.9775 351 21.5275 351 20.9775C351 20.4285 350.55 19.9775 350 19.9775H336C335.451 19.9775 335 20.4285 335 20.9775C335 21.5275 335.451 21.9775 336 21.9775H350Z" fill="#808080"/>
<path d="M21.312 6.72H25.264C27.088 6.72 28.5013 7.21067 29.504 8.192C30.5067 9.17333 31.008 10.56 31.008 12.352C31.008 14.144 30.5067 15.536 29.504 16.528C28.5013 17.5093 27.088 18 25.264 18H21.312V6.72ZM25.168 16.624C27.9413 16.624 29.328 15.2 29.328 12.352C29.328 9.51467 27.9413 8.096 25.168 8.096H22.96V16.624H25.168ZM39.7455 14.368H34.2255C34.3428 16.0213 35.1642 16.848 36.6895 16.848C37.5855 16.848 38.3962 16.5547 39.1215 15.968L39.6175 17.104C39.2548 17.4133 38.8068 17.6587 38.2735 17.84C37.7402 18.0213 37.1962 18.112 36.6415 18.112C35.3935 18.112 34.4068 17.7547 33.6815 17.04C32.9668 16.3253 32.6095 15.3387 32.6095 14.08C32.6095 13.28 32.7642 12.5707 33.0735 11.952C33.3935 11.3333 33.8362 10.8533 34.4015 10.512C34.9775 10.1707 35.6282 10 36.3535 10C37.4095 10 38.2362 10.3413 38.8335 11.024C39.4415 11.7067 39.7455 12.6507 39.7455 13.856V14.368ZM36.3855 11.184C35.7668 11.184 35.2708 11.3813 34.8975 11.776C34.5348 12.16 34.3162 12.7147 34.2415 13.44H38.3535C38.3215 12.7147 38.1348 12.16 37.7935 11.776C37.4628 11.3813 36.9935 11.184 36.3855 11.184ZM41.5263 18V6.72H43.1423V18H41.5263ZM45.4013 18V10.192H47.0173V18H45.4013ZM45.2893 6.704H47.1453V8.384H45.2893V6.704ZM54.8123 10.208H56.4283L53.0363 18H51.5803L48.2203 10.208H49.9163L52.3483 16.176L54.8123 10.208ZM64.1674 14.368H58.6474C58.7647 16.0213 59.586 16.848 61.1114 16.848C62.0074 16.848 62.818 16.5547 63.5434 15.968L64.0394 17.104C63.6767 17.4133 63.2287 17.6587 62.6954 17.84C62.162 18.0213 61.618 18.112 61.0634 18.112C59.8154 18.112 58.8287 17.7547 58.1034 17.04C57.3887 16.3253 57.0314 15.3387 57.0314 14.08C57.0314 13.28 57.186 12.5707 57.4954 11.952C57.8154 11.3333 58.258 10.8533 58.8234 10.512C59.3994 10.1707 60.05 10 60.7754 10C61.8314 10 62.658 10.3413 63.2554 11.024C63.8634 11.7067 64.1674 12.6507 64.1674 13.856V14.368ZM60.8074 11.184C60.1887 11.184 59.6927 11.3813 59.3194 11.776C58.9567 12.16 58.738 12.7147 58.6634 13.44H62.7754C62.7434 12.7147 62.5567 12.16 62.2154 11.776C61.8847 11.3813 61.4154 11.184 60.8074 11.184ZM70.7001 11.36L69.7241 11.456C68.9561 11.5307 68.4015 11.7653 68.0601 12.16C67.7295 12.5547 67.5641 13.056 67.5641 13.664V18H65.9481V10.192H67.5161V11.552C67.9321 10.6347 68.7801 10.128 70.0601 10.032L70.5881 10L70.7001 11.36ZM77.8279 10.208H79.4439L74.7879 20.88H73.1559L74.5159 17.808L71.2359 10.208H72.9319L75.3639 16.176L77.8279 10.208ZM93.7831 10C95.5325 10 96.4071 11.0507 96.4071 13.152V18H94.7911V13.216C94.7911 12.5547 94.6738 12.0747 94.4391 11.776C94.2151 11.4667 93.8471 11.312 93.3351 11.312C92.7485 11.312 92.2845 11.5147 91.9431 11.92C91.6018 12.3253 91.4311 12.88 91.4311 13.584V18H89.8151V13.216C89.8151 12.5547 89.6978 12.0747 89.4631 11.776C89.2285 11.4667 88.8605 11.312 88.3591 11.312C87.7618 11.312 87.2925 11.5147 86.9511 11.92C86.6098 12.3253 86.4391 12.88 86.4391 13.584V18H84.8231V10.192H86.4071V11.376C86.6525 10.9387 86.9831 10.6027 87.3991 10.368C87.8151 10.1227 88.2898 10 88.8231 10C90.0285 10 90.8125 10.5013 91.1751 11.504C91.4205 11.0347 91.7725 10.6667 92.2311 10.4C92.6898 10.1333 93.2071 10 93.7831 10ZM105.308 14.368H99.788C99.9053 16.0213 100.727 16.848 102.252 16.848C103.148 16.848 103.959 16.5547 104.684 15.968L105.18 17.104C104.817 17.4133 104.369 17.6587 103.836 17.84C103.303 18.0213 102.759 18.112 102.204 18.112C100.956 18.112 99.9693 17.7547 99.244 17.04C98.5293 16.3253 98.172 15.3387 98.172 14.08C98.172 13.28 98.3267 12.5707 98.636 11.952C98.956 11.3333 99.3987 10.8533 99.964 10.512C100.54 10.1707 101.191 10 101.916 10C102.972 10 103.799 10.3413 104.396 11.024C105.004 11.7067 105.308 12.6507 105.308 13.856V14.368ZM101.948 11.184C101.329 11.184 100.833 11.3813 100.46 11.776C100.097 12.16 99.8787 12.7147 99.804 13.44H103.916C103.884 12.7147 103.697 12.16 103.356 11.776C103.025 11.3813 102.556 11.184 101.948 11.184ZM110.707 16.864C110.952 16.864 111.192 16.848 111.427 16.816L111.347 18.048C111.08 18.0907 110.803 18.112 110.515 18.112C109.501 18.112 108.744 17.8667 108.243 17.376C107.752 16.8747 107.507 16.1547 107.507 15.216V11.44H105.987V10.192H107.507V7.84H109.123V10.192H111.267V11.44H109.123V15.152C109.123 16.2933 109.651 16.864 110.707 16.864ZM116.859 10C118.726 10 119.659 11.0507 119.659 13.152V18H118.043V13.232C118.043 12.5707 117.91 12.0853 117.643 11.776C117.387 11.4667 116.982 11.312 116.427 11.312C115.777 11.312 115.254 11.5147 114.859 11.92C114.465 12.3253 114.267 12.8693 114.267 13.552V18H112.651V6.72H114.267V11.376C114.534 10.928 114.891 10.5867 115.339 10.352C115.787 10.1173 116.294 10 116.859 10ZM125.262 18.112C124.494 18.112 123.817 17.9467 123.23 17.616C122.654 17.2853 122.206 16.816 121.886 16.208C121.577 15.5893 121.422 14.8747 121.422 14.064C121.422 13.2427 121.577 12.528 121.886 11.92C122.206 11.3013 122.654 10.8267 123.23 10.496C123.817 10.1653 124.494 10 125.262 10C126.03 10 126.702 10.1653 127.278 10.496C127.865 10.8267 128.313 11.3013 128.622 11.92C128.942 12.528 129.102 13.2427 129.102 14.064C129.102 14.8747 128.942 15.5893 128.622 16.208C128.313 16.816 127.865 17.2853 127.278 17.616C126.702 17.9467 126.03 18.112 125.262 18.112ZM125.262 16.832C125.977 16.832 126.521 16.5973 126.894 16.128C127.278 15.6587 127.47 14.9707 127.47 14.064C127.47 13.168 127.278 12.4853 126.894 12.016C126.51 11.536 125.966 11.296 125.262 11.296C124.558 11.296 124.014 11.536 123.63 12.016C123.246 12.4853 123.054 13.168 123.054 14.064C123.054 14.9707 123.241 15.6587 123.614 16.128C123.998 16.5973 124.547 16.832 125.262 16.832ZM138.101 6.72V18H136.501V16.656C136.267 17.1253 135.925 17.488 135.477 17.744C135.029 17.9893 134.512 18.112 133.925 18.112C133.253 18.112 132.651 17.9413 132.117 17.6C131.595 17.2587 131.184 16.7787 130.885 16.16C130.597 15.5413 130.453 14.832 130.453 14.032C130.453 13.2213 130.597 12.512 130.885 11.904C131.184 11.296 131.595 10.8267 132.117 10.496C132.64 10.1653 133.243 10 133.925 10C134.512 10 135.024 10.128 135.461 10.384C135.909 10.6293 136.251 10.9813 136.485 11.44V6.72H138.101ZM134.309 16.832C135.013 16.832 135.552 16.592 135.925 16.112C136.309 15.632 136.501 14.9493 136.501 14.064C136.501 13.1787 136.309 12.496 135.925 12.016C135.552 11.536 135.013 11.296 134.309 11.296C133.605 11.296 133.056 11.536 132.661 12.016C132.277 12.4853 132.085 13.1573 132.085 14.032C132.085 14.9067 132.283 15.5947 132.677 16.096C133.072 16.5867 133.616 16.832 134.309 16.832Z" fill="#909191"/>
<g filter="url(#filter0_d_1_32)">
<rect x="21" y="34" width="335" height="54" rx="4" fill="white"/>
<path d="M146.064 66V56.13H152.532V57.572H147.842V60.26H152.252V61.702H147.842V66H146.064ZM156.575 58.986C157.536 58.986 158.25 59.2193 158.717 59.686C159.183 60.1527 159.417 60.8713 159.417 61.842V66H157.751V64.95C157.592 65.314 157.34 65.5987 156.995 65.804C156.659 66.0093 156.267 66.112 155.819 66.112C155.361 66.112 154.946 66.0187 154.573 65.832C154.199 65.6453 153.905 65.3887 153.691 65.062C153.476 64.7353 153.369 64.3713 153.369 63.97C153.369 63.466 153.495 63.0693 153.747 62.78C154.008 62.4907 154.428 62.2807 155.007 62.15C155.585 62.0193 156.383 61.954 157.401 61.954H157.751V61.632C157.751 61.1653 157.648 60.8293 157.443 60.624C157.247 60.4187 156.915 60.316 156.449 60.316C156.085 60.316 155.702 60.3813 155.301 60.512C154.909 60.6333 154.521 60.806 154.139 61.03L153.649 59.826C154.031 59.5833 154.493 59.3827 155.035 59.224C155.576 59.0653 156.089 58.986 156.575 58.986ZM156.169 64.852C156.635 64.852 157.013 64.698 157.303 64.39C157.601 64.0727 157.751 63.6667 157.751 63.172V62.878H157.499C156.873 62.878 156.388 62.906 156.043 62.962C155.697 63.018 155.45 63.116 155.301 63.256C155.151 63.396 155.077 63.5873 155.077 63.83C155.077 64.1287 155.179 64.376 155.385 64.572C155.59 64.7587 155.851 64.852 156.169 64.852ZM163.715 66.112C163.108 66.112 162.548 66.0373 162.035 65.888C161.531 65.7387 161.102 65.524 160.747 65.244L161.237 64.026C161.965 64.558 162.8 64.824 163.743 64.824C164.144 64.824 164.448 64.7587 164.653 64.628C164.868 64.4973 164.975 64.3107 164.975 64.068C164.975 63.8627 164.9 63.704 164.751 63.592C164.611 63.48 164.354 63.3773 163.981 63.284L162.861 63.032C162.226 62.892 161.755 62.6633 161.447 62.346C161.139 62.0287 160.985 61.618 160.985 61.114C160.985 60.694 161.102 60.3253 161.335 60.008C161.578 59.6813 161.909 59.4293 162.329 59.252C162.758 59.0747 163.253 58.986 163.813 58.986C164.298 58.986 164.765 59.0607 165.213 59.21C165.67 59.3593 166.072 59.5693 166.417 59.84L165.927 61.03C165.218 60.5167 164.508 60.26 163.799 60.26C163.416 60.26 163.118 60.33 162.903 60.47C162.688 60.61 162.581 60.806 162.581 61.058C162.581 61.2447 162.646 61.3987 162.777 61.52C162.917 61.6413 163.136 61.7347 163.435 61.8L164.597 62.066C165.278 62.2153 165.778 62.4533 166.095 62.78C166.412 63.0973 166.571 63.5173 166.571 64.04C166.571 64.6747 166.314 65.1787 165.801 65.552C165.288 65.9253 164.592 66.112 163.715 66.112ZM171.422 64.796C171.627 64.796 171.842 64.782 172.066 64.754L171.982 66.056C171.702 66.084 171.445 66.098 171.212 66.098C170.25 66.098 169.541 65.8787 169.084 65.44C168.626 64.992 168.398 64.3293 168.398 63.452V60.47H167.082V59.154H168.398V57.11H170.148V59.154H171.954V60.47H170.148V63.424C170.148 64.3387 170.572 64.796 171.422 64.796ZM179.256 68.73C178.575 67.5727 178.094 66.49 177.814 65.482C177.534 64.474 177.394 63.4193 177.394 62.318C177.394 61.2167 177.534 60.162 177.814 59.154C178.094 58.146 178.575 57.0633 179.256 55.906L180.418 56.382C179.961 57.5113 179.639 58.538 179.452 59.462C179.275 60.386 179.186 61.338 179.186 62.318C179.186 63.298 179.275 64.25 179.452 65.174C179.639 66.098 179.961 67.1247 180.418 68.254L179.256 68.73ZM188.56 64.544V66H181.924V64.67L185.284 61.058C185.676 60.6287 185.961 60.2367 186.138 59.882C186.325 59.518 186.418 59.1587 186.418 58.804C186.418 58.356 186.288 58.02 186.026 57.796C185.774 57.5627 185.401 57.446 184.906 57.446C184.02 57.446 183.128 57.7867 182.232 58.468L181.63 57.152C182.022 56.8067 182.522 56.5313 183.128 56.326C183.744 56.1113 184.36 56.004 184.976 56.004C185.966 56.004 186.75 56.2467 187.328 56.732C187.907 57.2173 188.196 57.8707 188.196 58.692C188.196 59.2613 188.075 59.798 187.832 60.302C187.59 60.7967 187.179 61.352 186.6 61.968L184.178 64.544H188.56ZM190.263 62.948V61.562H194.435V62.948H190.263ZM201.107 60.932C201.686 61.0813 202.129 61.366 202.437 61.786C202.754 62.1967 202.913 62.71 202.913 63.326C202.913 64.1847 202.596 64.866 201.961 65.37C201.336 65.8647 200.482 66.112 199.399 66.112C198.736 66.112 198.097 66.0093 197.481 65.804C196.874 65.5987 196.37 65.3187 195.969 64.964L196.571 63.648C197.43 64.3293 198.349 64.67 199.329 64.67C199.954 64.67 200.421 64.5487 200.729 64.306C201.037 64.054 201.191 63.676 201.191 63.172C201.191 62.6773 201.032 62.3133 200.715 62.08C200.407 61.8373 199.926 61.716 199.273 61.716H197.971V60.288H199.035C200.314 60.288 200.953 59.8073 200.953 58.846C200.953 58.398 200.813 58.0527 200.533 57.81C200.262 57.5673 199.875 57.446 199.371 57.446C198.932 57.446 198.484 57.5347 198.027 57.712C197.579 57.88 197.14 58.132 196.711 58.468L196.109 57.152C196.501 56.7973 197 56.5173 197.607 56.312C198.223 56.1067 198.848 56.004 199.483 56.004C200.454 56.004 201.228 56.242 201.807 56.718C202.386 57.1847 202.675 57.8193 202.675 58.622C202.666 59.1727 202.521 59.6533 202.241 60.064C201.97 60.4653 201.592 60.7547 201.107 60.932ZM211.293 56.13V66H209.557V64.894C209.352 65.2767 209.053 65.5753 208.661 65.79C208.279 66.0047 207.84 66.112 207.345 66.112C206.757 66.112 206.23 65.9627 205.763 65.664C205.306 65.3653 204.947 64.9453 204.685 64.404C204.433 63.8533 204.307 63.2233 204.307 62.514C204.307 61.8047 204.433 61.184 204.685 60.652C204.947 60.12 205.306 59.7093 205.763 59.42C206.221 59.1307 206.748 58.986 207.345 58.986C207.84 58.986 208.279 59.0887 208.661 59.294C209.044 59.4993 209.338 59.7887 209.543 60.162V56.13H211.293ZM207.807 64.754C208.367 64.754 208.797 64.5627 209.095 64.18C209.403 63.7973 209.557 63.2513 209.557 62.542C209.557 61.8327 209.403 61.2913 209.095 60.918C208.797 60.5353 208.372 60.344 207.821 60.344C207.261 60.344 206.827 60.5307 206.519 60.904C206.211 61.2773 206.057 61.814 206.057 62.514C206.057 63.2233 206.211 63.774 206.519 64.166C206.827 64.558 207.257 64.754 207.807 64.754ZM216.034 58.986C216.995 58.986 217.709 59.2193 218.176 59.686C218.642 60.1527 218.876 60.8713 218.876 61.842V66H217.21V64.95C217.051 65.314 216.799 65.5987 216.454 65.804C216.118 66.0093 215.726 66.112 215.278 66.112C214.82 66.112 214.405 66.0187 214.032 65.832C213.658 65.6453 213.364 65.3887 213.15 65.062C212.935 64.7353 212.828 64.3713 212.828 63.97C212.828 63.466 212.954 63.0693 213.206 62.78C213.467 62.4907 213.887 62.2807 214.466 62.15C215.044 62.0193 215.842 61.954 216.86 61.954H217.21V61.632C217.21 61.1653 217.107 60.8293 216.902 60.624C216.706 60.4187 216.374 60.316 215.908 60.316C215.544 60.316 215.161 60.3813 214.76 60.512C214.368 60.6333 213.98 60.806 213.598 61.03L213.108 59.826C213.49 59.5833 213.952 59.3827 214.494 59.224C215.035 59.0653 215.548 58.986 216.034 58.986ZM215.628 64.852C216.094 64.852 216.472 64.698 216.762 64.39C217.06 64.0727 217.21 63.6667 217.21 63.172V62.878H216.958C216.332 62.878 215.847 62.906 215.502 62.962C215.156 63.018 214.909 63.116 214.76 63.256C214.61 63.396 214.536 63.5873 214.536 63.83C214.536 64.1287 214.638 64.376 214.844 64.572C215.049 64.7587 215.31 64.852 215.628 64.852ZM225.456 59.168H227.178L223.062 68.52H221.298L222.544 65.734L219.688 59.168H221.536L223.468 63.998L225.456 59.168ZM230.448 66.112C229.841 66.112 229.281 66.0373 228.768 65.888C228.264 65.7387 227.834 65.524 227.48 65.244L227.97 64.026C228.698 64.558 229.533 64.824 230.476 64.824C230.877 64.824 231.18 64.7587 231.386 64.628C231.6 64.4973 231.708 64.3107 231.708 64.068C231.708 63.8627 231.633 63.704 231.484 63.592C231.344 63.48 231.087 63.3773 230.714 63.284L229.594 63.032C228.959 62.892 228.488 62.6633 228.18 62.346C227.872 62.0287 227.718 61.618 227.718 61.114C227.718 60.694 227.834 60.3253 228.068 60.008C228.31 59.6813 228.642 59.4293 229.062 59.252C229.491 59.0747 229.986 58.986 230.546 58.986C231.031 58.986 231.498 59.0607 231.946 59.21C232.403 59.3593 232.804 59.5693 233.15 59.84L232.66 61.03C231.95 60.5167 231.241 60.26 230.532 60.26C230.149 60.26 229.85 60.33 229.636 60.47C229.421 60.61 229.314 60.806 229.314 61.058C229.314 61.2447 229.379 61.3987 229.51 61.52C229.65 61.6413 229.869 61.7347 230.168 61.8L231.33 62.066C232.011 62.2153 232.51 62.4533 232.828 62.78C233.145 63.0973 233.304 63.5173 233.304 64.04C233.304 64.6747 233.047 65.1787 232.534 65.552C232.02 65.9253 231.325 66.112 230.448 66.112ZM234.303 68.254C234.76 67.1247 235.077 66.098 235.255 65.174C235.441 64.25 235.535 63.298 235.535 62.318C235.535 61.338 235.441 60.386 235.255 59.462C235.077 58.538 234.76 57.5113 234.303 56.382L235.465 55.906C236.146 57.0633 236.627 58.146 236.907 59.154C237.187 60.162 237.327 61.2167 237.327 62.318C237.327 63.4193 237.187 64.474 236.907 65.482C236.627 66.49 236.146 67.5727 235.465 68.73L234.303 68.254Z" fill="#303030"/>
<g clip-path="url(#clip0_1_32)">
<path d="M129.875 51V71H41.125V51H129.875Z" fill="#FFCC00"/>
<path d="M56.7322 54.5916L53.8967 58.5254H69.3504C70.1316 58.5254 70.1213 58.8285 69.7396 59.3566C69.3519 59.8929 68.7029 60.8253 68.308 61.3697C68.1075 61.6462 67.7452 62.1496 68.946 62.1496H75.2656C75.2656 62.1496 76.2843 60.7342 77.1381 59.5509C78.2998 57.9413 77.2387 54.5916 73.086 54.5916H56.7322Z" fill="#BF190E"/>
<path d="M52.7495 67.4073L58.4448 59.5052C58.4448 59.5052 64.7584 59.5053 65.5124 59.5053C66.2935 59.5053 66.2832 59.8083 65.9015 60.3365C65.5138 60.8728 64.8541 61.7953 64.4592 62.3399C64.2587 62.6162 63.8964 63.1206 65.0971 63.1206H74.5652C73.7779 64.2221 71.2237 67.4073 66.6374 67.4073H52.7495Z" fill="#BF190E"/>
<path d="M85.3665 63.1196L82.2781 67.4072H74.1311C74.1311 67.4072 77.2178 63.1205 77.2206 63.1205L85.3665 63.1196Z" fill="#BF190E"/>
<path d="M97.8476 62.1496H77.9205L83.3697 54.5916H91.5143L88.391 58.9255H92.0266L95.1511 54.5916H103.295L97.8476 62.1496Z" fill="#BF190E"/>
<path d="M97.1479 63.1206L94.0579 67.4073H85.9139C85.9139 67.4073 89.0008 63.1206 89.0036 63.1206H97.1479Z" fill="#BF190E"/>
<path d="M41.125 64.811H53.1267L52.4709 65.7218H41.125V64.811Z" fill="#BF190E"/>
<path d="M41.125 63.1205H54.346L53.6891 64.03H41.125V63.1205Z" fill="#BF190E"/>
<path d="M41.125 66.5023H51.908L51.2555 67.4073H41.125V66.5023Z" fill="#BF190E"/>
<path d="M129.875 65.7218H117.919L118.575 64.811H129.875V65.7218Z" fill="#BF190E"/>
<path d="M129.875 67.4073L116.704 67.4084L117.356 66.5023H129.875V67.4073Z" fill="#BF190E"/>
<path d="M119.793 63.1205H129.875V64.0305L119.138 64.0312L119.793 63.1205Z" fill="#BF190E"/>
<path d="M114.574 54.5916L109.126 62.1496H100.496C100.496 62.1496 105.946 54.5916 105.948 54.5916H114.574Z" fill="#BF190E"/>
<path d="M99.7974 63.1206C99.7974 63.1206 99.2021 63.9514 98.9129 64.3507C97.8899 65.7624 98.7943 67.4073 102.133 67.4073H115.213L118.302 63.1206H99.7974Z" fill="#BF190E"/>
</g>
</g>
<defs>
<filter id="filter0_d_1_32" x="-19" y="1" width="415" height="134" filterUnits="userSpaceOnUse" color-interpolation-filters="sRGB">
<feFlood flood-opacity="0" result="BackgroundImageFix"/>
<feColorMatrix in="SourceAlpha" type="matrix" values="0 0 0 0 0 0 0 0 0 0 0 0 0 0 0 0 0 0 127 0" result="hardAlpha"/>
<feOffset dy="7"/>
<feGaussianBlur stdDeviation="20"/>
<feColorMatrix type="matrix" values="0 0 0 0 0.541176 0 0 0 0 0.584314 0 0 0 0 0.619608 0 0 0 0.2 0"/>
<feBlend mode="normal" in2="BackgroundImageFix" result="effect1_dropShadow_1_32"/>
<feBlend mode="normal" in="SourceGraphic" in2="effect1_dropShadow_1_32" result="shape"/>
</filter>
<clipPath id="clip0_1_32">
<rect width="88.75" height="20" fill="white" transform="translate(41.125 51)"/>
</clipPath>
</defs>
</svg>
