<svg width="335" height="73" viewBox="0 0 335 73" fill="none" xmlns="http://www.w3.org/2000/svg">
<path d="M1.064 1.13H4.704C6.31867 1.13 7.56933 1.564 8.456 2.432C9.352 3.29067 9.8 4.49933 9.8 6.058C9.8 7.61667 9.352 8.83 8.456 9.698C7.56933 10.566 6.31867 11 4.704 11H1.064V1.13ZM4.592 9.53C6.86 9.53 7.994 8.37267 7.994 6.058C7.994 3.75267 6.86 2.6 4.592 2.6H2.87V9.53H4.592ZM11.4647 11V4.154H13.2147V11H11.4647ZM11.3667 0.976H13.2987V2.698H11.3667V0.976ZM17.5394 11.112C16.9327 11.112 16.3727 11.0373 15.8594 10.888C15.3554 10.7387 14.926 10.524 14.5714 10.244L15.0614 9.026C15.7894 9.558 16.6247 9.824 17.5674 9.824C17.9687 9.824 18.272 9.75867 18.4774 9.628C18.692 9.49733 18.7994 9.31067 18.7994 9.068C18.7994 8.86267 18.7247 8.704 18.5754 8.592C18.4354 8.48 18.1787 8.37733 17.8054 8.284L16.6854 8.032C16.0507 7.892 15.5794 7.66333 15.2714 7.346C14.9634 7.02867 14.8094 6.618 14.8094 6.114C14.8094 5.694 14.926 5.32533 15.1594 5.008C15.402 4.68133 15.7334 4.42933 16.1534 4.252C16.5827 4.07467 17.0774 3.986 17.6374 3.986C18.1227 3.986 18.5894 4.06067 19.0374 4.21C19.4947 4.35933 19.896 4.56933 20.2414 4.84L19.7514 6.03C19.042 5.51667 18.3327 5.26 17.6234 5.26C17.2407 5.26 16.942 5.33 16.7274 5.47C16.5127 5.61 16.4054 5.806 16.4054 6.058C16.4054 6.24467 16.4707 6.39867 16.6014 6.52C16.7414 6.64133 16.9607 6.73467 17.2594 6.8L18.4214 7.066C19.1027 7.21533 19.602 7.45333 19.9194 7.78C20.2367 8.09733 20.3954 8.51733 20.3954 9.04C20.3954 9.67467 20.1387 10.1787 19.6254 10.552C19.112 10.9253 18.4167 11.112 17.5394 11.112ZM24.9363 11.112C24.2176 11.112 23.5923 10.9673 23.0603 10.678C22.5376 10.3887 22.1363 9.978 21.8563 9.446C21.5763 8.914 21.4363 8.29333 21.4363 7.584C21.4363 6.87467 21.581 6.24933 21.8703 5.708C22.169 5.15733 22.589 4.73267 23.1303 4.434C23.6716 4.13533 24.297 3.986 25.0063 3.986C25.4916 3.986 25.963 4.06533 26.4203 4.224C26.887 4.37333 27.2603 4.57867 27.5403 4.84L27.0363 6.072C26.747 5.83867 26.439 5.66133 26.1123 5.54C25.795 5.41867 25.4776 5.358 25.1603 5.358C24.5536 5.358 24.0823 5.54933 23.7463 5.932C23.4103 6.30533 23.2423 6.84667 23.2423 7.556C23.2423 8.256 23.4103 8.79733 23.7463 9.18C24.0823 9.55333 24.5536 9.74 25.1603 9.74C25.4776 9.74 25.795 9.67933 26.1123 9.558C26.439 9.43667 26.747 9.25933 27.0363 9.026L27.5403 10.244C27.2416 10.5147 26.859 10.7293 26.3923 10.888C25.9256 11.0373 25.4403 11.112 24.9363 11.112ZM31.7722 11.112C31.0722 11.112 30.4562 10.9673 29.9242 10.678C29.4016 10.3887 28.9956 9.97333 28.7062 9.432C28.4169 8.89067 28.2722 8.26067 28.2722 7.542C28.2722 6.82333 28.4169 6.198 28.7062 5.666C28.9956 5.12467 29.4016 4.70933 29.9242 4.42C30.4562 4.13067 31.0722 3.986 31.7722 3.986C32.4722 3.986 33.0836 4.13067 33.6062 4.42C34.1382 4.70933 34.5442 5.12467 34.8242 5.666C35.1136 6.198 35.2582 6.82333 35.2582 7.542C35.2582 8.26067 35.1136 8.89067 34.8242 9.432C34.5442 9.97333 34.1382 10.3887 33.6062 10.678C33.0836 10.9673 32.4722 11.112 31.7722 11.112ZM31.7582 9.754C32.3276 9.754 32.7616 9.56733 33.0602 9.194C33.3589 8.82067 33.5082 8.27 33.5082 7.542C33.5082 6.82333 33.3589 6.27733 33.0602 5.904C32.7616 5.52133 32.3322 5.33 31.7722 5.33C31.2122 5.33 30.7782 5.52133 30.4702 5.904C30.1716 6.27733 30.0222 6.82333 30.0222 7.542C30.0222 8.27 30.1716 8.82067 30.4702 9.194C30.7689 9.56733 31.1982 9.754 31.7582 9.754ZM41.3956 4.168H43.1176L40.1216 11H38.5956L35.6276 4.168H37.4756L39.4076 8.998L41.3956 4.168ZM49.8594 7.892H45.1974C45.2534 8.52667 45.4447 8.998 45.7714 9.306C46.098 9.614 46.5647 9.768 47.1714 9.768C47.9274 9.768 48.618 9.52533 49.2434 9.04L49.7474 10.244C49.43 10.5053 49.0287 10.7153 48.5434 10.874C48.0674 11.0327 47.5867 11.112 47.1014 11.112C45.9814 11.112 45.0947 10.7947 44.4414 10.16C43.7974 9.52533 43.4754 8.65733 43.4754 7.556C43.4754 6.856 43.6154 6.23533 43.8954 5.694C44.1754 5.15267 44.5674 4.73267 45.0714 4.434C45.5847 4.13533 46.1634 3.986 46.8074 3.986C47.75 3.986 48.492 4.28933 49.0334 4.896C49.584 5.50267 49.8594 6.338 49.8594 7.402V7.892ZM46.8494 5.218C46.3827 5.218 46.0047 5.36733 45.7154 5.666C45.4354 5.96467 45.2627 6.394 45.1974 6.954H48.3614C48.3427 6.38467 48.2027 5.95533 47.9414 5.666C47.68 5.36733 47.316 5.218 46.8494 5.218ZM55.7989 5.442L54.7769 5.54C53.6195 5.66133 53.0409 6.24933 53.0409 7.304V11H51.2909V4.154H52.9569V5.358C53.3115 4.53667 54.0442 4.08867 55.1549 4.014L55.6869 3.972L55.7989 5.442ZM64.427 3.986C65.2483 3.986 65.8597 4.21933 66.261 4.686C66.6623 5.15267 66.863 5.85733 66.863 6.8V11H65.113V6.898C65.113 6.366 65.0103 5.97867 64.805 5.736C64.609 5.49333 64.2963 5.372 63.867 5.372C63.363 5.372 62.957 5.53067 62.649 5.848C62.3503 6.16533 62.201 6.59 62.201 7.122V11H60.451V1.13H62.201V5.106C62.4343 4.742 62.7423 4.46667 63.125 4.28C63.517 4.084 63.951 3.986 64.427 3.986ZM71.7625 11.112C71.0625 11.112 70.4465 10.9673 69.9145 10.678C69.3918 10.3887 68.9858 9.97333 68.6965 9.432C68.4071 8.89067 68.2625 8.26067 68.2625 7.542C68.2625 6.82333 68.4071 6.198 68.6965 5.666C68.9858 5.12467 69.3918 4.70933 69.9145 4.42C70.4465 4.13067 71.0625 3.986 71.7625 3.986C72.4625 3.986 73.0738 4.13067 73.5965 4.42C74.1285 4.70933 74.5345 5.12467 74.8145 5.666C75.1038 6.198 75.2485 6.82333 75.2485 7.542C75.2485 8.26067 75.1038 8.89067 74.8145 9.432C74.5345 9.97333 74.1285 10.3887 73.5965 10.678C73.0738 10.9673 72.4625 11.112 71.7625 11.112ZM71.7485 9.754C72.3178 9.754 72.7518 9.56733 73.0505 9.194C73.3491 8.82067 73.4985 8.27 73.4985 7.542C73.4985 6.82333 73.3491 6.27733 73.0505 5.904C72.7518 5.52133 72.3225 5.33 71.7625 5.33C71.2025 5.33 70.7685 5.52133 70.4605 5.904C70.1618 6.27733 70.0125 6.82333 70.0125 7.542C70.0125 8.27 70.1618 8.82067 70.4605 9.194C70.7591 9.56733 71.1885 9.754 71.7485 9.754ZM80.1522 9.796C80.3575 9.796 80.5722 9.782 80.7962 9.754L80.7122 11.056C80.4322 11.084 80.1755 11.098 79.9422 11.098C78.9809 11.098 78.2715 10.8787 77.8142 10.44C77.3569 9.992 77.1282 9.32933 77.1282 8.452V5.47H75.8122V4.154H77.1282V2.11H78.8782V4.154H80.6842V5.47H78.8782V8.424C78.8782 9.33867 79.3029 9.796 80.1522 9.796ZM88.1409 11.112C87.5343 11.112 86.9743 11.0373 86.4609 10.888C85.9569 10.7387 85.5276 10.524 85.1729 10.244L85.6629 9.026C86.3909 9.558 87.2263 9.824 88.1689 9.824C88.5703 9.824 88.8736 9.75867 89.0789 9.628C89.2936 9.49733 89.4009 9.31067 89.4009 9.068C89.4009 8.86267 89.3263 8.704 89.1769 8.592C89.0369 8.48 88.7803 8.37733 88.4069 8.284L87.2869 8.032C86.6523 7.892 86.1809 7.66333 85.8729 7.346C85.5649 7.02867 85.4109 6.618 85.4109 6.114C85.4109 5.694 85.5276 5.32533 85.7609 5.008C86.0036 4.68133 86.3349 4.42933 86.7549 4.252C87.1843 4.07467 87.6789 3.986 88.2389 3.986C88.7243 3.986 89.1909 4.06067 89.6389 4.21C90.0963 4.35933 90.4976 4.56933 90.8429 4.84L90.3529 6.03C89.6436 5.51667 88.9343 5.26 88.2249 5.26C87.8423 5.26 87.5436 5.33 87.3289 5.47C87.1143 5.61 87.0069 5.806 87.0069 6.058C87.0069 6.24467 87.0723 6.39867 87.2029 6.52C87.3429 6.64133 87.5623 6.73467 87.8609 6.8L89.0229 7.066C89.7043 7.21533 90.2036 7.45333 90.5209 7.78C90.8383 8.09733 90.9969 8.51733 90.9969 9.04C90.9969 9.67467 90.7403 10.1787 90.2269 10.552C89.7136 10.9253 89.0183 11.112 88.1409 11.112ZM95.3559 3.986C96.3172 3.986 97.0312 4.21933 97.4979 4.686C97.9645 5.15267 98.1979 5.87133 98.1979 6.842V11H96.5319V9.95C96.3732 10.314 96.1212 10.5987 95.7759 10.804C95.4399 11.0093 95.0479 11.112 94.5999 11.112C94.1425 11.112 93.7272 11.0187 93.3539 10.832C92.9805 10.6453 92.6865 10.3887 92.4719 10.062C92.2572 9.73533 92.1499 9.37133 92.1499 8.97C92.1499 8.466 92.2759 8.06933 92.5279 7.78C92.7892 7.49067 93.2092 7.28067 93.7879 7.15C94.3665 7.01933 95.1645 6.954 96.1819 6.954H96.5319V6.632C96.5319 6.16533 96.4292 5.82933 96.2239 5.624C96.0279 5.41867 95.6965 5.316 95.2299 5.316C94.8659 5.316 94.4832 5.38133 94.0819 5.512C93.6899 5.63333 93.3025 5.806 92.9199 6.03L92.4299 4.826C92.8125 4.58333 93.2745 4.38267 93.8159 4.224C94.3572 4.06533 94.8705 3.986 95.3559 3.986ZM94.9499 9.852C95.4165 9.852 95.7945 9.698 96.0839 9.39C96.3825 9.07267 96.5319 8.66667 96.5319 8.172V7.878H96.2799C95.6545 7.878 95.1692 7.906 94.8239 7.962C94.4785 8.018 94.2312 8.116 94.0819 8.256C93.9325 8.396 93.8579 8.58733 93.8579 8.83C93.8579 9.12867 93.9605 9.376 94.1659 9.572C94.3712 9.75867 94.6325 9.852 94.9499 9.852ZM99.9764 11V1.13H101.726V11H99.9764ZM109.537 7.892H104.875C104.931 8.52667 105.122 8.998 105.449 9.306C105.776 9.614 106.242 9.768 106.849 9.768C107.605 9.768 108.296 9.52533 108.921 9.04L109.425 10.244C109.108 10.5053 108.706 10.7153 108.221 10.874C107.745 11.0327 107.264 11.112 106.779 11.112C105.659 11.112 104.772 10.7947 104.119 10.16C103.475 9.52533 103.153 8.65733 103.153 7.556C103.153 6.856 103.293 6.23533 103.573 5.694C103.853 5.15267 104.245 4.73267 104.749 4.434C105.262 4.13533 105.841 3.986 106.485 3.986C107.428 3.986 108.17 4.28933 108.711 4.896C109.262 5.50267 109.537 6.338 109.537 7.402V7.892ZM106.527 5.218C106.06 5.218 105.682 5.36733 105.393 5.666C105.113 5.96467 104.94 6.394 104.875 6.954H108.039C108.02 6.38467 107.88 5.95533 107.619 5.666C107.358 5.36733 106.994 5.218 106.527 5.218ZM116.995 4.154H118.801V5.47H116.995V11H115.245V5.47H113.929V4.154H115.245C115.245 3.174 115.497 2.43667 116.001 1.942C116.515 1.44733 117.308 1.172 118.381 1.116L119.067 1.074L119.179 2.376L118.521 2.404C117.971 2.432 117.579 2.558 117.345 2.782C117.112 2.99667 116.995 3.34667 116.995 3.832V4.154ZM126.073 4.154V11H124.365V9.95C124.15 10.3233 123.861 10.6127 123.497 10.818C123.133 11.014 122.722 11.112 122.265 11.112C120.585 11.112 119.745 10.1693 119.745 8.284V4.154H121.495V8.298C121.495 8.78333 121.593 9.14267 121.789 9.376C121.985 9.60933 122.293 9.726 122.713 9.726C123.198 9.726 123.586 9.56733 123.875 9.25C124.174 8.92333 124.323 8.494 124.323 7.962V4.154H126.073ZM132.402 5.442L131.38 5.54C130.223 5.66133 129.644 6.24933 129.644 7.304V11H127.894V4.154H129.56V5.358C129.915 4.53667 130.648 4.08867 131.758 4.014L132.29 3.972L132.402 5.442ZM137.23 3.986C138.051 3.986 138.662 4.21933 139.064 4.686C139.465 5.15267 139.666 5.85733 139.666 6.8V11H137.916V6.898C137.916 6.366 137.813 5.97867 137.608 5.736C137.412 5.49333 137.099 5.372 136.67 5.372C136.166 5.372 135.76 5.53067 135.452 5.848C135.153 6.16533 135.004 6.59 135.004 7.122V11H133.254V4.154H134.962V5.176C135.195 4.79333 135.508 4.49933 135.9 4.294C136.292 4.08867 136.735 3.986 137.23 3.986ZM141.443 11V4.154H143.193V11H141.443ZM141.345 0.976H143.277V2.698H141.345V0.976ZM148.498 9.796C148.703 9.796 148.918 9.782 149.142 9.754L149.058 11.056C148.778 11.084 148.521 11.098 148.288 11.098C147.327 11.098 146.617 10.8787 146.16 10.44C145.703 9.992 145.474 9.32933 145.474 8.452V5.47H144.158V4.154H145.474V2.11H147.224V4.154H149.03V5.47H147.224V8.424C147.224 9.33867 147.649 9.796 148.498 9.796ZM156.452 4.154V11H154.744V9.95C154.529 10.3233 154.24 10.6127 153.876 10.818C153.512 11.014 153.101 11.112 152.644 11.112C150.964 11.112 150.124 10.1693 150.124 8.284V4.154H151.874V8.298C151.874 8.78333 151.972 9.14267 152.168 9.376C152.364 9.60933 152.672 9.726 153.092 9.726C153.577 9.726 153.965 9.56733 154.254 9.25C154.553 8.92333 154.702 8.494 154.702 7.962V4.154H156.452ZM162.781 5.442L161.759 5.54C160.602 5.66133 160.023 6.24933 160.023 7.304V11H158.273V4.154H159.939V5.358C160.294 4.53667 161.027 4.08867 162.137 4.014L162.669 3.972L162.781 5.442ZM169.502 7.892H164.84C164.896 8.52667 165.087 8.998 165.414 9.306C165.741 9.614 166.207 9.768 166.814 9.768C167.57 9.768 168.261 9.52533 168.886 9.04L169.39 10.244C169.073 10.5053 168.671 10.7153 168.186 10.874C167.71 11.0327 167.229 11.112 166.744 11.112C165.624 11.112 164.737 10.7947 164.084 10.16C163.44 9.52533 163.118 8.65733 163.118 7.556C163.118 6.856 163.258 6.23533 163.538 5.694C163.818 5.15267 164.21 4.73267 164.714 4.434C165.227 4.13533 165.806 3.986 166.45 3.986C167.393 3.986 168.135 4.28933 168.676 4.896C169.227 5.50267 169.502 6.338 169.502 7.402V7.892ZM166.492 5.218C166.025 5.218 165.647 5.36733 165.358 5.666C165.078 5.96467 164.905 6.394 164.84 6.954H168.004C167.985 6.38467 167.845 5.95533 167.584 5.666C167.323 5.36733 166.959 5.218 166.492 5.218ZM173.453 11.112C172.847 11.112 172.287 11.0373 171.773 10.888C171.269 10.7387 170.84 10.524 170.485 10.244L170.975 9.026C171.703 9.558 172.539 9.824 173.481 9.824C173.883 9.824 174.186 9.75867 174.391 9.628C174.606 9.49733 174.713 9.31067 174.713 9.068C174.713 8.86267 174.639 8.704 174.489 8.592C174.349 8.48 174.093 8.37733 173.719 8.284L172.599 8.032C171.965 7.892 171.493 7.66333 171.185 7.346C170.877 7.02867 170.723 6.618 170.723 6.114C170.723 5.694 170.84 5.32533 171.073 5.008C171.316 4.68133 171.647 4.42933 172.067 4.252C172.497 4.07467 172.991 3.986 173.551 3.986C174.037 3.986 174.503 4.06067 174.951 4.21C175.409 4.35933 175.81 4.56933 176.155 4.84L175.665 6.03C174.956 5.51667 174.247 5.26 173.537 5.26C173.155 5.26 172.856 5.33 172.641 5.47C172.427 5.61 172.319 5.806 172.319 6.058C172.319 6.24467 172.385 6.39867 172.515 6.52C172.655 6.64133 172.875 6.73467 173.173 6.8L174.335 7.066C175.017 7.21533 175.516 7.45333 175.833 7.78C176.151 8.09733 176.309 8.51733 176.309 9.04C176.309 9.67467 176.053 10.1787 175.539 10.552C175.026 10.9253 174.331 11.112 173.453 11.112ZM185.029 9.796C185.234 9.796 185.449 9.782 185.673 9.754L185.589 11.056C185.309 11.084 185.052 11.098 184.819 11.098C183.858 11.098 183.148 10.8787 182.691 10.44C182.234 9.992 182.005 9.32933 182.005 8.452V5.47H180.689V4.154H182.005V2.11H183.755V4.154H185.561V5.47H183.755V8.424C183.755 9.33867 184.18 9.796 185.029 9.796ZM190.673 3.986C191.494 3.986 192.106 4.21933 192.507 4.686C192.908 5.15267 193.109 5.85733 193.109 6.8V11H191.359V6.898C191.359 6.366 191.256 5.97867 191.051 5.736C190.855 5.49333 190.542 5.372 190.113 5.372C189.609 5.372 189.203 5.53067 188.895 5.848C188.596 6.16533 188.447 6.59 188.447 7.122V11H186.697V1.13H188.447V5.106C188.68 4.742 188.988 4.46667 189.371 4.28C189.763 4.084 190.197 3.986 190.673 3.986ZM194.887 11V4.154H196.637V11H194.887ZM194.789 0.976H196.721V2.698H194.789V0.976ZM200.961 11.112C200.355 11.112 199.795 11.0373 199.281 10.888C198.777 10.7387 198.348 10.524 197.993 10.244L198.483 9.026C199.211 9.558 200.047 9.824 200.989 9.824C201.391 9.824 201.694 9.75867 201.899 9.628C202.114 9.49733 202.221 9.31067 202.221 9.068C202.221 8.86267 202.147 8.704 201.997 8.592C201.857 8.48 201.601 8.37733 201.227 8.284L200.107 8.032C199.473 7.892 199.001 7.66333 198.693 7.346C198.385 7.02867 198.231 6.618 198.231 6.114C198.231 5.694 198.348 5.32533 198.581 5.008C198.824 4.68133 199.155 4.42933 199.575 4.252C200.005 4.07467 200.499 3.986 201.059 3.986C201.545 3.986 202.011 4.06067 202.459 4.21C202.917 4.35933 203.318 4.56933 203.663 4.84L203.173 6.03C202.464 5.51667 201.755 5.26 201.045 5.26C200.663 5.26 200.364 5.33 200.149 5.47C199.935 5.61 199.827 5.806 199.827 6.058C199.827 6.24467 199.893 6.39867 200.023 6.52C200.163 6.64133 200.383 6.73467 200.681 6.8L201.843 7.066C202.525 7.21533 203.024 7.45333 203.341 7.78C203.659 8.09733 203.817 8.51733 203.817 9.04C203.817 9.67467 203.561 10.1787 203.047 10.552C202.534 10.9253 201.839 11.112 200.961 11.112ZM218.277 4.154H219.985L217.297 11H215.771L214.091 6.59L212.453 11H210.941L208.239 4.154H210.031L211.781 8.914L213.531 4.154H214.791L216.541 8.942L218.277 4.154ZM226.924 7.892H222.262C222.318 8.52667 222.509 8.998 222.836 9.306C223.162 9.614 223.629 9.768 224.236 9.768C224.992 9.768 225.682 9.52533 226.308 9.04L226.812 10.244C226.494 10.5053 226.093 10.7153 225.608 10.874C225.132 11.0327 224.651 11.112 224.166 11.112C223.046 11.112 222.159 10.7947 221.506 10.16C220.862 9.52533 220.54 8.65733 220.54 7.556C220.54 6.856 220.68 6.23533 220.96 5.694C221.24 5.15267 221.632 4.73267 222.136 4.434C222.649 4.13533 223.228 3.986 223.872 3.986C224.814 3.986 225.556 4.28933 226.098 4.896C226.648 5.50267 226.924 6.338 226.924 7.402V7.892ZM223.914 5.218C223.447 5.218 223.069 5.36733 222.78 5.666C222.5 5.96467 222.327 6.394 222.262 6.954H225.426C225.407 6.38467 225.267 5.95533 225.006 5.666C224.744 5.36733 224.38 5.218 223.914 5.218ZM234.361 7.892H229.699C229.755 8.52667 229.947 8.998 230.273 9.306C230.6 9.614 231.067 9.768 231.673 9.768C232.429 9.768 233.12 9.52533 233.745 9.04L234.249 10.244C233.932 10.5053 233.531 10.7153 233.045 10.874C232.569 11.0327 232.089 11.112 231.603 11.112C230.483 11.112 229.597 10.7947 228.943 10.16C228.299 9.52533 227.977 8.65733 227.977 7.556C227.977 6.856 228.117 6.23533 228.397 5.694C228.677 5.15267 229.069 4.73267 229.573 4.434C230.087 4.13533 230.665 3.986 231.309 3.986C232.252 3.986 232.994 4.28933 233.535 4.896C234.086 5.50267 234.361 6.338 234.361 7.402V7.892ZM231.351 5.218C230.885 5.218 230.507 5.36733 230.217 5.666C229.937 5.96467 229.765 6.394 229.699 6.954H232.863C232.845 6.38467 232.705 5.95533 232.443 5.666C232.182 5.36733 231.818 5.218 231.351 5.218ZM242.653 11H240.483L237.543 7.878V11H235.793V1.13H237.543V7.15L240.301 4.168H242.429L239.349 7.444L242.653 11ZM243.322 9.068H245.282V11H243.322V9.068Z" fill="#303030"/>
<path d="M0.87 32V24.95H1.69V31.3H5.22V32H0.87ZM8.16063 32.07C7.70063 32.07 7.29396 31.9667 6.94063 31.76C6.59396 31.5533 6.32396 31.26 6.13063 30.88C5.94396 30.4933 5.85063 30.0467 5.85063 29.54C5.85063 29.0333 5.94396 28.59 6.13063 28.21C6.32396 27.8233 6.59396 27.5267 6.94063 27.32C7.29396 27.1133 7.70063 27.01 8.16063 27.01C8.62063 27.01 9.02729 27.1133 9.38063 27.32C9.73396 27.5267 10.004 27.8233 10.1906 28.21C10.384 28.59 10.4806 29.0333 10.4806 29.54C10.4806 30.0467 10.384 30.4933 10.1906 30.88C10.004 31.26 9.73396 31.5533 9.38063 31.76C9.02729 31.9667 8.62063 32.07 8.16063 32.07ZM8.16063 31.4C8.64063 31.4 9.00729 31.2433 9.26063 30.93C9.52063 30.61 9.65063 30.1467 9.65063 29.54C9.65063 28.9467 9.52063 28.49 9.26063 28.17C9.00063 27.8433 8.63396 27.68 8.16063 27.68C7.68729 27.68 7.32063 27.8433 7.06063 28.17C6.80063 28.49 6.67063 28.9467 6.67063 29.54C6.67063 30.14 6.79729 30.6 7.05063 30.92C7.31063 31.24 7.68063 31.4 8.16063 31.4ZM14.4475 27.71L13.9175 27.76C13.4175 27.8067 13.0542 27.9633 12.8275 28.23C12.6075 28.4967 12.4975 28.8267 12.4975 29.22V32H11.6875V27.13H12.4775V27.98C12.7508 27.4133 13.2875 27.0967 14.0875 27.03L14.3775 27.01L14.4475 27.71ZM19.1952 29.69H15.6352C15.6619 30.2567 15.8152 30.6867 16.0952 30.98C16.3752 31.2667 16.7719 31.41 17.2852 31.41C17.8519 31.41 18.3719 31.2167 18.8452 30.83L19.1152 31.42C18.9019 31.62 18.6286 31.78 18.2952 31.9C17.9619 32.0133 17.6219 32.07 17.2752 32.07C16.5152 32.07 15.9152 31.8467 15.4752 31.4C15.0419 30.9533 14.8252 30.3367 14.8252 29.55C14.8252 29.05 14.9219 28.61 15.1152 28.23C15.3086 27.8433 15.5786 27.5433 15.9252 27.33C16.2786 27.1167 16.6786 27.01 17.1252 27.01C17.7719 27.01 18.2786 27.2233 18.6452 27.65C19.0119 28.07 19.1952 28.65 19.1952 29.39V29.69ZM17.1352 27.64C16.7086 27.64 16.3652 27.7733 16.1052 28.04C15.8519 28.3067 15.7019 28.6833 15.6552 29.17H18.4852C18.4719 28.6767 18.3486 28.3 18.1152 28.04C17.8819 27.7733 17.5552 27.64 17.1352 27.64ZM25.8087 27.01C26.8887 27.01 27.4287 27.6533 27.4287 28.94V32H26.6187V28.98C26.6187 28.5333 26.5387 28.2067 26.3787 28C26.2253 27.7933 25.9753 27.69 25.6287 27.69C25.222 27.69 24.902 27.8267 24.6687 28.1C24.4353 28.3733 24.3187 28.7467 24.3187 29.22V32H23.5087V28.98C23.5087 28.5267 23.4287 28.2 23.2687 28C23.1087 27.7933 22.8553 27.69 22.5087 27.69C22.102 27.69 21.782 27.8267 21.5487 28.1C21.3153 28.3733 21.1987 28.7467 21.1987 29.22V32H20.3887V27.13H21.1887V27.9C21.3353 27.6133 21.5387 27.3933 21.7987 27.24C22.0587 27.0867 22.3587 27.01 22.6987 27.01C23.452 27.01 23.9487 27.33 24.1887 27.97C24.3287 27.67 24.542 27.4367 24.8287 27.27C25.1153 27.0967 25.442 27.01 25.8087 27.01ZM31.4824 32V27.13H32.2924V32H31.4824ZM31.4024 25.02H32.3824V25.93H31.4024V25.02ZM36.2566 27.01C36.6833 27.01 37.06 27.1167 37.3866 27.33C37.7133 27.5433 37.9666 27.8433 38.1466 28.23C38.3266 28.61 38.4166 29.0533 38.4166 29.56C38.4166 30.0667 38.3266 30.51 38.1466 30.89C37.9666 31.2633 37.7133 31.5533 37.3866 31.76C37.0666 31.9667 36.69 32.07 36.2566 32.07C35.8766 32.07 35.5433 31.9867 35.2566 31.82C34.9766 31.6533 34.7633 31.4167 34.6166 31.11V33.8H33.8066V27.13H34.6166V27.97C34.7633 27.6633 34.9766 27.4267 35.2566 27.26C35.5433 27.0933 35.8766 27.01 36.2566 27.01ZM36.0966 31.4C36.57 31.4 36.9366 31.24 37.1966 30.92C37.4566 30.6 37.5866 30.1467 37.5866 29.56C37.5866 28.9733 37.4566 28.5167 37.1966 28.19C36.9366 27.8567 36.57 27.69 36.0966 27.69C35.6233 27.69 35.2566 27.85 34.9966 28.17C34.7433 28.49 34.6166 28.9467 34.6166 29.54C34.6166 30.1333 34.7433 30.5933 34.9966 30.92C35.2566 31.24 35.6233 31.4 36.0966 31.4ZM41.277 32.07C40.457 32.07 39.807 31.86 39.327 31.44L39.597 30.84C39.857 31.0467 40.1203 31.1967 40.387 31.29C40.6603 31.3767 40.967 31.42 41.307 31.42C41.667 31.42 41.9403 31.36 42.127 31.24C42.3203 31.1133 42.417 30.9333 42.417 30.7C42.417 30.5067 42.3536 30.3533 42.227 30.24C42.1003 30.1267 41.8903 30.0367 41.597 29.97L40.777 29.78C40.3636 29.6867 40.047 29.5267 39.827 29.3C39.607 29.0733 39.497 28.7933 39.497 28.46C39.497 28.0267 39.667 27.6767 40.007 27.41C40.347 27.1433 40.8003 27.01 41.367 27.01C41.707 27.01 42.0303 27.0667 42.337 27.18C42.6436 27.2867 42.9003 27.4433 43.107 27.65L42.837 28.24C42.3903 27.86 41.9003 27.67 41.367 27.67C41.027 27.67 40.7603 27.7367 40.567 27.87C40.3803 27.9967 40.287 28.1767 40.287 28.41C40.287 28.6033 40.3436 28.76 40.457 28.88C40.577 28.9933 40.767 29.08 41.027 29.14L41.857 29.34C42.3103 29.4467 42.647 29.61 42.867 29.83C43.087 30.0433 43.197 30.3233 43.197 30.67C43.197 31.0967 43.0236 31.4367 42.677 31.69C42.337 31.9433 41.8703 32.07 41.277 32.07ZM48.5316 27.13V32H47.7416V31.17C47.5883 31.4633 47.3716 31.6867 47.0916 31.84C46.8183 31.9933 46.5083 32.07 46.1616 32.07C45.5816 32.07 45.145 31.91 44.8516 31.59C44.5583 31.2633 44.4116 30.7833 44.4116 30.15V27.13H45.2216V30.13C45.2216 30.5633 45.3083 30.8833 45.4816 31.09C45.655 31.29 45.9283 31.39 46.3016 31.39C46.7283 31.39 47.0716 31.2533 47.3316 30.98C47.5916 30.7 47.7216 30.3333 47.7216 29.88V27.13H48.5316ZM55.4571 27.01C56.5371 27.01 57.0771 27.6533 57.0771 28.94V32H56.2671V28.98C56.2671 28.5333 56.1871 28.2067 56.0271 28C55.8738 27.7933 55.6238 27.69 55.2771 27.69C54.8704 27.69 54.5504 27.8267 54.3171 28.1C54.0838 28.3733 53.9671 28.7467 53.9671 29.22V32H53.1571V28.98C53.1571 28.5267 53.0771 28.2 52.9171 28C52.7571 27.7933 52.5038 27.69 52.1571 27.69C51.7504 27.69 51.4304 27.8267 51.1971 28.1C50.9638 28.3733 50.8471 28.7467 50.8471 29.22V32H50.0371V27.13H50.8371V27.9C50.9838 27.6133 51.1871 27.3933 51.4471 27.24C51.7071 27.0867 52.0071 27.01 52.3471 27.01C53.1004 27.01 53.5971 27.33 53.8371 27.97C53.9771 27.67 54.1904 27.4367 54.4771 27.27C54.7638 27.0967 55.0904 27.01 55.4571 27.01ZM65.4509 24.95V32H64.6409V31.11C64.4942 31.4167 64.2775 31.6533 63.9909 31.82C63.7109 31.9867 63.3809 32.07 63.0009 32.07C62.5742 32.07 62.1975 31.9633 61.8709 31.75C61.5442 31.5367 61.2909 31.24 61.1109 30.86C60.9309 30.4733 60.8409 30.0267 60.8409 29.52C60.8409 29.02 60.9309 28.58 61.1109 28.2C61.2909 27.82 61.5442 27.5267 61.8709 27.32C62.1975 27.1133 62.5742 27.01 63.0009 27.01C63.3809 27.01 63.7109 27.0933 63.9909 27.26C64.2775 27.4267 64.4942 27.6633 64.6409 27.97V24.95H65.4509ZM63.1609 31.4C63.6342 31.4 63.9975 31.24 64.2509 30.92C64.5109 30.5933 64.6409 30.1333 64.6409 29.54C64.6409 28.9467 64.5109 28.49 64.2509 28.17C63.9975 27.85 63.6342 27.69 63.1609 27.69C62.6875 27.69 62.3175 27.85 62.0509 28.17C61.7909 28.49 61.6609 28.94 61.6609 29.52C61.6609 30.1133 61.7909 30.5767 62.0509 30.91C62.3175 31.2367 62.6875 31.4 63.1609 31.4ZM68.9712 32.07C68.5112 32.07 68.1045 31.9667 67.7512 31.76C67.4045 31.5533 67.1345 31.26 66.9412 30.88C66.7545 30.4933 66.6612 30.0467 66.6612 29.54C66.6612 29.0333 66.7545 28.59 66.9412 28.21C67.1345 27.8233 67.4045 27.5267 67.7512 27.32C68.1045 27.1133 68.5112 27.01 68.9712 27.01C69.4312 27.01 69.8378 27.1133 70.1912 27.32C70.5445 27.5267 70.8145 27.8233 71.0012 28.21C71.1945 28.59 71.2912 29.0333 71.2912 29.54C71.2912 30.0467 71.1945 30.4933 71.0012 30.88C70.8145 31.26 70.5445 31.5533 70.1912 31.76C69.8378 31.9667 69.4312 32.07 68.9712 32.07ZM68.9712 31.4C69.4512 31.4 69.8178 31.2433 70.0712 30.93C70.3312 30.61 70.4612 30.1467 70.4612 29.54C70.4612 28.9467 70.3312 28.49 70.0712 28.17C69.8112 27.8433 69.4445 27.68 68.9712 27.68C68.4978 27.68 68.1312 27.8433 67.8712 28.17C67.6112 28.49 67.4812 28.9467 67.4812 29.54C67.4812 30.14 67.6078 30.6 67.8612 30.92C68.1212 31.24 68.4912 31.4 68.9712 31.4ZM72.498 32V24.95H73.308V32H72.498ZM76.8423 32.07C76.3823 32.07 75.9756 31.9667 75.6223 31.76C75.2756 31.5533 75.0056 31.26 74.8123 30.88C74.6256 30.4933 74.5323 30.0467 74.5323 29.54C74.5323 29.0333 74.6256 28.59 74.8123 28.21C75.0056 27.8233 75.2756 27.5267 75.6223 27.32C75.9756 27.1133 76.3823 27.01 76.8423 27.01C77.3023 27.01 77.7089 27.1133 78.0623 27.32C78.4156 27.5267 78.6856 27.8233 78.8723 28.21C79.0656 28.59 79.1623 29.0333 79.1623 29.54C79.1623 30.0467 79.0656 30.4933 78.8723 30.88C78.6856 31.26 78.4156 31.5533 78.0623 31.76C77.7089 31.9667 77.3023 32.07 76.8423 32.07ZM76.8423 31.4C77.3223 31.4 77.6889 31.2433 77.9423 30.93C78.2023 30.61 78.3323 30.1467 78.3323 29.54C78.3323 28.9467 78.2023 28.49 77.9423 28.17C77.6823 27.8433 77.3156 27.68 76.8423 27.68C76.3689 27.68 76.0023 27.8433 75.7423 28.17C75.4823 28.49 75.3523 28.9467 75.3523 29.54C75.3523 30.14 75.4789 30.6 75.7323 30.92C75.9923 31.24 76.3623 31.4 76.8423 31.4ZM83.1291 27.71L82.5991 27.76C82.0991 27.8067 81.7358 27.9633 81.5091 28.23C81.2891 28.4967 81.1791 28.8267 81.1791 29.22V32H80.3691V27.13H81.1591V27.98C81.4325 27.4133 81.9691 27.0967 82.7691 27.03L83.0591 27.01L83.1291 27.71ZM88.1227 32.07C87.3027 32.07 86.6527 31.86 86.1727 31.44L86.4427 30.84C86.7027 31.0467 86.966 31.1967 87.2327 31.29C87.506 31.3767 87.8127 31.42 88.1527 31.42C88.5127 31.42 88.786 31.36 88.9727 31.24C89.166 31.1133 89.2627 30.9333 89.2627 30.7C89.2627 30.5067 89.1993 30.3533 89.0727 30.24C88.946 30.1267 88.736 30.0367 88.4427 29.97L87.6227 29.78C87.2093 29.6867 86.8927 29.5267 86.6727 29.3C86.4527 29.0733 86.3427 28.7933 86.3427 28.46C86.3427 28.0267 86.5127 27.6767 86.8527 27.41C87.1927 27.1433 87.646 27.01 88.2127 27.01C88.5527 27.01 88.876 27.0667 89.1827 27.18C89.4893 27.2867 89.746 27.4433 89.9527 27.65L89.6827 28.24C89.236 27.86 88.746 27.67 88.2127 27.67C87.8727 27.67 87.606 27.7367 87.4127 27.87C87.226 27.9967 87.1327 28.1767 87.1327 28.41C87.1327 28.6033 87.1893 28.76 87.3027 28.88C87.4227 28.9933 87.6127 29.08 87.8727 29.14L88.7027 29.34C89.156 29.4467 89.4927 29.61 89.7127 29.83C89.9327 30.0433 90.0427 30.3233 90.0427 30.67C90.0427 31.0967 89.8693 31.4367 89.5227 31.69C89.1827 31.9433 88.716 32.07 88.1227 32.07ZM91.2773 32V27.13H92.0873V32H91.2773ZM91.1973 25.02H92.1773V25.93H91.1973V25.02ZM95.7416 31.42C95.8882 31.42 96.0349 31.41 96.1816 31.39L96.1416 32.03C95.9882 32.0567 95.8216 32.07 95.6416 32.07C95.0549 32.07 94.6116 31.9167 94.3116 31.61C94.0182 31.3033 93.8716 30.8767 93.8716 30.33V27.77H92.9216V27.13H93.8716V25.65H94.6816V27.13H96.0616V27.77H94.6816V30.27C94.6816 31.0367 95.0349 31.42 95.7416 31.42ZM101.558 27.01C102.178 27.01 102.638 27.17 102.938 27.49C103.245 27.8033 103.398 28.2833 103.398 28.93V32H102.608V31.17C102.481 31.4567 102.288 31.68 102.028 31.84C101.768 31.9933 101.468 32.07 101.128 32.07C100.815 32.07 100.525 32.0067 100.258 31.88C99.9981 31.7533 99.7915 31.5767 99.6381 31.35C99.4848 31.1233 99.4081 30.8733 99.4081 30.6C99.4081 30.2333 99.5015 29.95 99.6881 29.75C99.8748 29.5433 100.181 29.3967 100.608 29.31C101.035 29.2167 101.628 29.17 102.388 29.17H102.608V28.84C102.608 28.4333 102.525 28.14 102.358 27.96C102.191 27.7733 101.921 27.68 101.548 27.68C100.988 27.68 100.431 27.8533 99.8781 28.2L99.6081 27.61C99.8615 27.43 100.165 27.2867 100.518 27.18C100.878 27.0667 101.225 27.01 101.558 27.01ZM101.238 31.43C101.638 31.43 101.965 31.2967 102.218 31.03C102.478 30.7567 102.608 30.4067 102.608 29.98V29.69H102.428C101.841 29.69 101.395 29.7167 101.088 29.77C100.781 29.8167 100.561 29.9 100.428 30.02C100.301 30.1333 100.238 30.3033 100.238 30.53C100.238 30.79 100.331 31.0067 100.518 31.18C100.711 31.3467 100.951 31.43 101.238 31.43ZM110.301 27.01C111.381 27.01 111.921 27.6533 111.921 28.94V32H111.111V28.98C111.111 28.5333 111.031 28.2067 110.871 28C110.718 27.7933 110.468 27.69 110.121 27.69C109.714 27.69 109.394 27.8267 109.161 28.1C108.928 28.3733 108.811 28.7467 108.811 29.22V32H108.001V28.98C108.001 28.5267 107.921 28.2 107.761 28C107.601 27.7933 107.348 27.69 107.001 27.69C106.594 27.69 106.274 27.8267 106.041 28.1C105.808 28.3733 105.691 28.7467 105.691 29.22V32H104.881V27.13H105.681V27.9C105.828 27.6133 106.031 27.3933 106.291 27.24C106.551 27.0867 106.851 27.01 107.191 27.01C107.944 27.01 108.441 27.33 108.681 27.97C108.821 27.67 109.034 27.4367 109.321 27.27C109.608 27.0967 109.934 27.01 110.301 27.01ZM117.476 29.69H113.916C113.943 30.2567 114.096 30.6867 114.376 30.98C114.656 31.2667 115.053 31.41 115.566 31.41C116.133 31.41 116.653 31.2167 117.126 30.83L117.396 31.42C117.183 31.62 116.91 31.78 116.576 31.9C116.243 32.0133 115.903 32.07 115.556 32.07C114.796 32.07 114.196 31.8467 113.756 31.4C113.323 30.9533 113.106 30.3367 113.106 29.55C113.106 29.05 113.203 28.61 113.396 28.23C113.59 27.8433 113.86 27.5433 114.206 27.33C114.56 27.1167 114.96 27.01 115.406 27.01C116.053 27.01 116.56 27.2233 116.926 27.65C117.293 28.07 117.476 28.65 117.476 29.39V29.69ZM115.416 27.64C114.99 27.64 114.646 27.7733 114.386 28.04C114.133 28.3067 113.983 28.6833 113.936 29.17H116.766C116.753 28.6767 116.63 28.3 116.396 28.04C116.163 27.7733 115.836 27.64 115.416 27.64ZM120.781 31.42C120.927 31.42 121.074 31.41 121.221 31.39L121.181 32.03C121.027 32.0567 120.861 32.07 120.681 32.07C120.094 32.07 119.651 31.9167 119.351 31.61C119.057 31.3033 118.911 30.8767 118.911 30.33V27.77H117.961V27.13H118.911V25.65H119.721V27.13H121.101V27.77H119.721V30.27C119.721 31.0367 120.074 31.42 120.781 31.42ZM123.076 30.98V31.7C123.076 31.98 123.029 32.2333 122.936 32.46C122.849 32.6933 122.696 32.92 122.476 33.14L122.096 32.85C122.356 32.5633 122.502 32.28 122.536 32H122.056V30.98H123.076ZM129.099 32.07C128.619 32.07 128.202 31.9667 127.849 31.76C127.496 31.5533 127.222 31.2633 127.029 30.89C126.842 30.51 126.749 30.0667 126.749 29.56C126.749 29.0533 126.846 28.61 127.039 28.23C127.239 27.8433 127.516 27.5433 127.869 27.33C128.229 27.1167 128.649 27.01 129.129 27.01C129.456 27.01 129.776 27.07 130.089 27.19C130.402 27.3033 130.656 27.4567 130.849 27.65L130.579 28.25C130.119 27.8767 129.652 27.69 129.179 27.69C128.679 27.69 128.289 27.8533 128.009 28.18C127.729 28.5067 127.589 28.9667 127.589 29.56C127.589 30.1467 127.729 30.6 128.009 30.92C128.289 31.24 128.679 31.4 129.179 31.4C129.652 31.4 130.119 31.2133 130.579 30.84L130.849 31.44C130.642 31.6333 130.382 31.7867 130.069 31.9C129.756 32.0133 129.432 32.07 129.099 32.07ZM133.844 32.07C133.384 32.07 132.978 31.9667 132.624 31.76C132.278 31.5533 132.008 31.26 131.814 30.88C131.628 30.4933 131.534 30.0467 131.534 29.54C131.534 29.0333 131.628 28.59 131.814 28.21C132.008 27.8233 132.278 27.5267 132.624 27.32C132.978 27.1133 133.384 27.01 133.844 27.01C134.304 27.01 134.711 27.1133 135.064 27.32C135.418 27.5267 135.688 27.8233 135.874 28.21C136.068 28.59 136.164 29.0333 136.164 29.54C136.164 30.0467 136.068 30.4933 135.874 30.88C135.688 31.26 135.418 31.5533 135.064 31.76C134.711 31.9667 134.304 32.07 133.844 32.07ZM133.844 31.4C134.324 31.4 134.691 31.2433 134.944 30.93C135.204 30.61 135.334 30.1467 135.334 29.54C135.334 28.9467 135.204 28.49 134.944 28.17C134.684 27.8433 134.318 27.68 133.844 27.68C133.371 27.68 133.004 27.8433 132.744 28.17C132.484 28.49 132.354 28.9467 132.354 29.54C132.354 30.14 132.481 30.6 132.734 30.92C132.994 31.24 133.364 31.4 133.844 31.4ZM139.821 27.01C140.988 27.01 141.571 27.6533 141.571 28.94V32H140.761V28.99C140.761 28.5367 140.671 28.2067 140.491 28C140.318 27.7933 140.038 27.69 139.651 27.69C139.204 27.69 138.848 27.8267 138.581 28.1C138.314 28.3733 138.181 28.7433 138.181 29.21V32H137.371V27.13H138.171V27.93C138.331 27.63 138.554 27.4033 138.841 27.25C139.128 27.09 139.454 27.01 139.821 27.01ZM144.705 32.07C143.885 32.07 143.235 31.86 142.755 31.44L143.025 30.84C143.285 31.0467 143.548 31.1967 143.815 31.29C144.088 31.3767 144.395 31.42 144.735 31.42C145.095 31.42 145.368 31.36 145.555 31.24C145.748 31.1133 145.845 30.9333 145.845 30.7C145.845 30.5067 145.781 30.3533 145.655 30.24C145.528 30.1267 145.318 30.0367 145.025 29.97L144.205 29.78C143.791 29.6867 143.475 29.5267 143.255 29.3C143.035 29.0733 142.925 28.7933 142.925 28.46C142.925 28.0267 143.095 27.6767 143.435 27.41C143.775 27.1433 144.228 27.01 144.795 27.01C145.135 27.01 145.458 27.0667 145.765 27.18C146.071 27.2867 146.328 27.4433 146.535 27.65L146.265 28.24C145.818 27.86 145.328 27.67 144.795 27.67C144.455 27.67 144.188 27.7367 143.995 27.87C143.808 27.9967 143.715 28.1767 143.715 28.41C143.715 28.6033 143.771 28.76 143.885 28.88C144.005 28.9933 144.195 29.08 144.455 29.14L145.285 29.34C145.738 29.4467 146.075 29.61 146.295 29.83C146.515 30.0433 146.625 30.3233 146.625 30.67C146.625 31.0967 146.451 31.4367 146.105 31.69C145.765 31.9433 145.298 32.07 144.705 32.07ZM151.939 29.69H148.379C148.406 30.2567 148.559 30.6867 148.839 30.98C149.119 31.2667 149.516 31.41 150.029 31.41C150.596 31.41 151.116 31.2167 151.589 30.83L151.859 31.42C151.646 31.62 151.373 31.78 151.039 31.9C150.706 32.0133 150.366 32.07 150.019 32.07C149.259 32.07 148.659 31.8467 148.219 31.4C147.786 30.9533 147.569 30.3367 147.569 29.55C147.569 29.05 147.666 28.61 147.859 28.23C148.053 27.8433 148.323 27.5433 148.669 27.33C149.023 27.1167 149.423 27.01 149.869 27.01C150.516 27.01 151.023 27.2233 151.389 27.65C151.756 28.07 151.939 28.65 151.939 29.39V29.69ZM149.879 27.64C149.453 27.64 149.109 27.7733 148.849 28.04C148.596 28.3067 148.446 28.6833 148.399 29.17H151.229C151.216 28.6767 151.093 28.3 150.859 28.04C150.626 27.7733 150.299 27.64 149.879 27.64ZM155.193 32.07C154.713 32.07 154.296 31.9667 153.943 31.76C153.589 31.5533 153.316 31.2633 153.123 30.89C152.936 30.51 152.843 30.0667 152.843 29.56C152.843 29.0533 152.939 28.61 153.133 28.23C153.333 27.8433 153.609 27.5433 153.963 27.33C154.323 27.1167 154.743 27.01 155.223 27.01C155.549 27.01 155.869 27.07 156.183 27.19C156.496 27.3033 156.749 27.4567 156.943 27.65L156.673 28.25C156.213 27.8767 155.746 27.69 155.273 27.69C154.773 27.69 154.383 27.8533 154.103 28.18C153.823 28.5067 153.683 28.9667 153.683 29.56C153.683 30.1467 153.823 30.6 154.103 30.92C154.383 31.24 154.773 31.4 155.273 31.4C155.746 31.4 156.213 31.2133 156.673 30.84L156.943 31.44C156.736 31.6333 156.476 31.7867 156.163 31.9C155.849 32.0133 155.526 32.07 155.193 32.07ZM160.068 31.42C160.214 31.42 160.361 31.41 160.508 31.39L160.468 32.03C160.314 32.0567 160.148 32.07 159.968 32.07C159.381 32.07 158.938 31.9167 158.638 31.61C158.344 31.3033 158.198 30.8767 158.198 30.33V27.77H157.248V27.13H158.198V25.65H159.008V27.13H160.388V27.77H159.008V30.27C159.008 31.0367 159.361 31.42 160.068 31.42ZM165.406 29.69H161.846C161.873 30.2567 162.026 30.6867 162.306 30.98C162.586 31.2667 162.983 31.41 163.496 31.41C164.063 31.41 164.583 31.2167 165.056 30.83L165.326 31.42C165.113 31.62 164.84 31.78 164.506 31.9C164.173 32.0133 163.833 32.07 163.486 32.07C162.726 32.07 162.126 31.8467 161.686 31.4C161.253 30.9533 161.036 30.3367 161.036 29.55C161.036 29.05 161.133 28.61 161.326 28.23C161.52 27.8433 161.79 27.5433 162.136 27.33C162.49 27.1167 162.89 27.01 163.336 27.01C163.983 27.01 164.49 27.2233 164.856 27.65C165.223 28.07 165.406 28.65 165.406 29.39V29.69ZM163.346 27.64C162.92 27.64 162.576 27.7733 162.316 28.04C162.063 28.3067 161.913 28.6833 161.866 29.17H164.696C164.683 28.6767 164.56 28.3 164.326 28.04C164.093 27.7733 163.766 27.64 163.346 27.64ZM168.71 31.42C168.857 31.42 169.004 31.41 169.15 31.39L169.11 32.03C168.957 32.0567 168.79 32.07 168.61 32.07C168.024 32.07 167.58 31.9167 167.28 31.61C166.987 31.3033 166.84 30.8767 166.84 30.33V27.77H165.89V27.13H166.84V25.65H167.65V27.13H169.03V27.77H167.65V30.27C167.65 31.0367 168.004 31.42 168.71 31.42ZM174.069 27.13V32H173.279V31.17C173.125 31.4633 172.909 31.6867 172.629 31.84C172.355 31.9933 172.045 32.07 171.699 32.07C171.119 32.07 170.682 31.91 170.389 31.59C170.095 31.2633 169.949 30.7833 169.949 30.15V27.13H170.759V30.13C170.759 30.5633 170.845 30.8833 171.019 31.09C171.192 31.29 171.465 31.39 171.839 31.39C172.265 31.39 172.609 31.2533 172.869 30.98C173.129 30.7 173.259 30.3333 173.259 29.88V27.13H174.069ZM178.334 27.71L177.804 27.76C177.304 27.8067 176.941 27.9633 176.714 28.23C176.494 28.4967 176.384 28.8267 176.384 29.22V32H175.574V27.13H176.364V27.98C176.638 27.4133 177.174 27.0967 177.974 27.03L178.264 27.01L178.334 27.71ZM183.658 27.01C184.278 27.01 184.738 27.17 185.038 27.49C185.344 27.8033 185.498 28.2833 185.498 28.93V32H184.708V31.17C184.581 31.4567 184.388 31.68 184.128 31.84C183.868 31.9933 183.568 32.07 183.228 32.07C182.914 32.07 182.624 32.0067 182.358 31.88C182.098 31.7533 181.891 31.5767 181.738 31.35C181.584 31.1233 181.508 30.8733 181.508 30.6C181.508 30.2333 181.601 29.95 181.788 29.75C181.974 29.5433 182.281 29.3967 182.708 29.31C183.134 29.2167 183.728 29.17 184.488 29.17H184.708V28.84C184.708 28.4333 184.624 28.14 184.458 27.96C184.291 27.7733 184.021 27.68 183.648 27.68C183.088 27.68 182.531 27.8533 181.978 28.2L181.708 27.61C181.961 27.43 182.264 27.2867 182.618 27.18C182.978 27.0667 183.324 27.01 183.658 27.01ZM183.338 31.43C183.738 31.43 184.064 31.2967 184.318 31.03C184.578 30.7567 184.708 30.4067 184.708 29.98V29.69H184.528C183.941 29.69 183.494 29.7167 183.188 29.77C182.881 29.8167 182.661 29.9 182.528 30.02C182.401 30.1333 182.338 30.3033 182.338 30.53C182.338 30.79 182.431 31.0067 182.618 31.18C182.811 31.3467 183.051 31.43 183.338 31.43ZM191.3 24.95V32H190.49V31.11C190.344 31.4167 190.127 31.6533 189.84 31.82C189.56 31.9867 189.23 32.07 188.85 32.07C188.424 32.07 188.047 31.9633 187.72 31.75C187.394 31.5367 187.14 31.24 186.96 30.86C186.78 30.4733 186.69 30.0267 186.69 29.52C186.69 29.02 186.78 28.58 186.96 28.2C187.14 27.82 187.394 27.5267 187.72 27.32C188.047 27.1133 188.424 27.01 188.85 27.01C189.23 27.01 189.56 27.0933 189.84 27.26C190.127 27.4267 190.344 27.6633 190.49 27.97V24.95H191.3ZM189.01 31.4C189.484 31.4 189.847 31.24 190.1 30.92C190.36 30.5933 190.49 30.1333 190.49 29.54C190.49 28.9467 190.36 28.49 190.1 28.17C189.847 27.85 189.484 27.69 189.01 27.69C188.537 27.69 188.167 27.85 187.9 28.17C187.64 28.49 187.51 28.94 187.51 29.52C187.51 30.1133 187.64 30.5767 187.9 30.91C188.167 31.2367 188.537 31.4 189.01 31.4ZM192.801 32V27.13H193.611V32H192.801ZM192.721 25.02H193.701V25.93H192.721V25.02ZM197.575 27.01C198.002 27.01 198.378 27.1167 198.705 27.33C199.032 27.5433 199.285 27.8433 199.465 28.23C199.645 28.61 199.735 29.0533 199.735 29.56C199.735 30.0667 199.645 30.51 199.465 30.89C199.285 31.2633 199.032 31.5533 198.705 31.76C198.385 31.9667 198.008 32.07 197.575 32.07C197.195 32.07 196.862 31.9867 196.575 31.82C196.295 31.6533 196.082 31.4167 195.935 31.11V33.8H195.125V27.13H195.935V27.97C196.082 27.6633 196.295 27.4267 196.575 27.26C196.862 27.0933 197.195 27.01 197.575 27.01ZM197.415 31.4C197.888 31.4 198.255 31.24 198.515 30.92C198.775 30.6 198.905 30.1467 198.905 29.56C198.905 28.9733 198.775 28.5167 198.515 28.19C198.255 27.8567 197.888 27.69 197.415 27.69C196.942 27.69 196.575 27.85 196.315 28.17C196.062 28.49 195.935 28.9467 195.935 29.54C195.935 30.1333 196.062 30.5933 196.315 30.92C196.575 31.24 196.942 31.4 197.415 31.4ZM200.945 32V27.13H201.755V32H200.945ZM200.865 25.02H201.845V25.93H200.865V25.02ZM204.92 32.07C204.1 32.07 203.45 31.86 202.97 31.44L203.24 30.84C203.5 31.0467 203.763 31.1967 204.03 31.29C204.303 31.3767 204.61 31.42 204.95 31.42C205.31 31.42 205.583 31.36 205.77 31.24C205.963 31.1133 206.06 30.9333 206.06 30.7C206.06 30.5067 205.996 30.3533 205.87 30.24C205.743 30.1267 205.533 30.0367 205.24 29.97L204.42 29.78C204.006 29.6867 203.69 29.5267 203.47 29.3C203.25 29.0733 203.14 28.7933 203.14 28.46C203.14 28.0267 203.31 27.6767 203.65 27.41C203.99 27.1433 204.443 27.01 205.01 27.01C205.35 27.01 205.673 27.0667 205.98 27.18C206.286 27.2867 206.543 27.4433 206.75 27.65L206.48 28.24C206.033 27.86 205.543 27.67 205.01 27.67C204.67 27.67 204.403 27.7367 204.21 27.87C204.023 27.9967 203.93 28.1767 203.93 28.41C203.93 28.6033 203.986 28.76 204.1 28.88C204.22 28.9933 204.41 29.08 204.67 29.14L205.5 29.34C205.953 29.4467 206.29 29.61 206.51 29.83C206.73 30.0433 206.84 30.3233 206.84 30.67C206.84 31.0967 206.666 31.4367 206.32 31.69C205.98 31.9433 205.513 32.07 204.92 32.07ZM210.134 32.07C209.654 32.07 209.238 31.9667 208.884 31.76C208.531 31.5533 208.258 31.2633 208.064 30.89C207.878 30.51 207.784 30.0667 207.784 29.56C207.784 29.0533 207.881 28.61 208.074 28.23C208.274 27.8433 208.551 27.5433 208.904 27.33C209.264 27.1167 209.684 27.01 210.164 27.01C210.491 27.01 210.811 27.07 211.124 27.19C211.438 27.3033 211.691 27.4567 211.884 27.65L211.614 28.25C211.154 27.8767 210.688 27.69 210.214 27.69C209.714 27.69 209.324 27.8533 209.044 28.18C208.764 28.5067 208.624 28.9667 208.624 29.56C208.624 30.1467 208.764 30.6 209.044 30.92C209.324 31.24 209.714 31.4 210.214 31.4C210.688 31.4 211.154 31.2133 211.614 30.84L211.884 31.44C211.678 31.6333 211.418 31.7867 211.104 31.9C210.791 32.0133 210.468 32.07 210.134 32.07ZM212.859 32V27.13H213.669V32H212.859ZM212.779 25.02H213.759V25.93H212.779V25.02ZM217.634 27.01C218.8 27.01 219.384 27.6533 219.384 28.94V32H218.574V28.99C218.574 28.5367 218.484 28.2067 218.304 28C218.13 27.7933 217.85 27.69 217.464 27.69C217.017 27.69 216.66 27.8267 216.394 28.1C216.127 28.3733 215.994 28.7433 215.994 29.21V32H215.184V27.13H215.984V27.93C216.144 27.63 216.367 27.4033 216.654 27.25C216.94 27.09 217.267 27.01 217.634 27.01ZM225.227 27.13V31.67C225.227 32.3967 225.041 32.9433 224.667 33.31C224.294 33.6833 223.741 33.87 223.007 33.87C222.154 33.87 221.437 33.65 220.857 33.21L221.127 32.61C221.454 32.8233 221.761 32.9767 222.047 33.07C222.334 33.1633 222.654 33.21 223.007 33.21C223.474 33.21 223.827 33.0833 224.067 32.83C224.307 32.5833 224.427 32.22 224.427 31.74V30.88C224.287 31.1933 224.071 31.4333 223.777 31.6C223.491 31.7667 223.151 31.85 222.757 31.85C222.331 31.85 221.951 31.75 221.617 31.55C221.291 31.35 221.034 31.0667 220.847 30.7C220.667 30.3333 220.577 29.91 220.577 29.43C220.577 28.95 220.667 28.5267 220.847 28.16C221.034 27.7933 221.291 27.51 221.617 27.31C221.951 27.11 222.331 27.01 222.757 27.01C223.144 27.01 223.481 27.0933 223.767 27.26C224.054 27.4267 224.271 27.6633 224.417 27.97V27.13H225.227ZM222.917 31.18C223.384 31.18 223.751 31.0267 224.017 30.72C224.284 30.4067 224.417 29.9767 224.417 29.43C224.417 28.89 224.284 28.4667 224.017 28.16C223.757 27.8467 223.391 27.69 222.917 27.69C222.444 27.69 222.071 27.8467 221.797 28.16C221.531 28.4667 221.397 28.89 221.397 29.43C221.397 29.9767 221.531 30.4067 221.797 30.72C222.071 31.0267 222.444 31.18 222.917 31.18ZM233.385 29.69H229.825C229.851 30.2567 230.005 30.6867 230.285 30.98C230.565 31.2667 230.961 31.41 231.475 31.41C232.041 31.41 232.561 31.2167 233.035 30.83L233.305 31.42C233.091 31.62 232.818 31.78 232.485 31.9C232.151 32.0133 231.811 32.07 231.465 32.07C230.705 32.07 230.105 31.8467 229.665 31.4C229.231 30.9533 229.015 30.3367 229.015 29.55C229.015 29.05 229.111 28.61 229.305 28.23C229.498 27.8433 229.768 27.5433 230.115 27.33C230.468 27.1167 230.868 27.01 231.315 27.01C231.961 27.01 232.468 27.2233 232.835 27.65C233.201 28.07 233.385 28.65 233.385 29.39V29.69ZM231.325 27.64C230.898 27.64 230.555 27.7733 230.295 28.04C230.041 28.3067 229.891 28.6833 229.845 29.17H232.675C232.661 28.6767 232.538 28.3 232.305 28.04C232.071 27.7733 231.745 27.64 231.325 27.64ZM234.578 32V24.95H235.388V32H234.578ZM236.902 32V27.13H237.712V32H236.902ZM236.822 25.02H237.802V25.93H236.822V25.02ZM241.367 31.42C241.513 31.42 241.66 31.41 241.807 31.39L241.767 32.03C241.613 32.0567 241.447 32.07 241.267 32.07C240.68 32.07 240.237 31.9167 239.937 31.61C239.643 31.3033 239.497 30.8767 239.497 30.33V27.77H238.547V27.13H239.497V25.65H240.307V27.13H241.687V27.77H240.307V30.27C240.307 31.0367 240.66 31.42 241.367 31.42ZM242.642 30.98H243.662V32H242.642V30.98ZM249.445 32V25.65H246.995V24.95H252.735V25.65H250.275V32H249.445ZM256.969 27.13V32H256.179V31.17C256.026 31.4633 255.809 31.6867 255.529 31.84C255.256 31.9933 254.946 32.07 254.599 32.07C254.019 32.07 253.582 31.91 253.289 31.59C252.996 31.2633 252.849 30.7833 252.849 30.15V27.13H253.659V30.13C253.659 30.5633 253.746 30.8833 253.919 31.09C254.092 31.29 254.366 31.39 254.739 31.39C255.166 31.39 255.509 31.2533 255.769 30.98C256.029 30.7 256.159 30.3333 256.159 29.88V27.13H256.969ZM261.235 27.71L260.705 27.76C260.205 27.8067 259.841 27.9633 259.615 28.23C259.395 28.4967 259.285 28.8267 259.285 29.22V32H258.475V27.13H259.265V27.98C259.538 27.4133 260.075 27.0967 260.875 27.03L261.165 27.01L261.235 27.71ZM264.45 27.01C264.877 27.01 265.253 27.1167 265.58 27.33C265.907 27.5433 266.16 27.8433 266.34 28.23C266.52 28.61 266.61 29.0533 266.61 29.56C266.61 30.0667 266.52 30.51 266.34 30.89C266.16 31.2633 265.907 31.5533 265.58 31.76C265.26 31.9667 264.883 32.07 264.45 32.07C264.07 32.07 263.737 31.9867 263.45 31.82C263.17 31.6533 262.957 31.4167 262.81 31.11V33.8H262V27.13H262.81V27.97C262.957 27.6633 263.17 27.4267 263.45 27.26C263.737 27.0933 264.07 27.01 264.45 27.01ZM264.29 31.4C264.763 31.4 265.13 31.24 265.39 30.92C265.65 30.6 265.78 30.1467 265.78 29.56C265.78 28.9733 265.65 28.5167 265.39 28.19C265.13 27.8567 264.763 27.69 264.29 27.69C263.817 27.69 263.45 27.85 263.19 28.17C262.937 28.49 262.81 28.9467 262.81 29.54C262.81 30.1333 262.937 30.5933 263.19 30.92C263.45 31.24 263.817 31.4 264.29 31.4ZM267.82 32V27.13H268.63V32H267.82ZM267.74 25.02H268.72V25.93H267.74V25.02ZM271.795 32.07C270.975 32.07 270.325 31.86 269.845 31.44L270.115 30.84C270.375 31.0467 270.638 31.1967 270.905 31.29C271.178 31.3767 271.485 31.42 271.825 31.42C272.185 31.42 272.458 31.36 272.645 31.24C272.838 31.1133 272.935 30.9333 272.935 30.7C272.935 30.5067 272.871 30.3533 272.745 30.24C272.618 30.1267 272.408 30.0367 272.115 29.97L271.295 29.78C270.881 29.6867 270.565 29.5267 270.345 29.3C270.125 29.0733 270.015 28.7933 270.015 28.46C270.015 28.0267 270.185 27.6767 270.525 27.41C270.865 27.1433 271.318 27.01 271.885 27.01C272.225 27.01 272.548 27.0667 272.855 27.18C273.161 27.2867 273.418 27.4433 273.625 27.65L273.355 28.24C272.908 27.86 272.418 27.67 271.885 27.67C271.545 27.67 271.278 27.7367 271.085 27.87C270.898 27.9967 270.805 28.1767 270.805 28.41C270.805 28.6033 270.861 28.76 270.975 28.88C271.095 28.9933 271.285 29.08 271.545 29.14L272.375 29.34C272.828 29.4467 273.165 29.61 273.385 29.83C273.605 30.0433 273.715 30.3233 273.715 30.67C273.715 31.0967 273.541 31.4367 273.195 31.69C272.855 31.9433 272.388 32.07 271.795 32.07ZM279.977 27.01C280.404 27.01 280.781 27.1167 281.107 27.33C281.434 27.5433 281.687 27.8433 281.867 28.23C282.047 28.61 282.137 29.0533 282.137 29.56C282.137 30.0667 282.047 30.51 281.867 30.89C281.687 31.2633 281.434 31.5533 281.107 31.76C280.787 31.9667 280.411 32.07 279.977 32.07C279.597 32.07 279.264 31.9867 278.977 31.82C278.697 31.6533 278.484 31.4167 278.337 31.11V33.8H277.527V27.13H278.337V27.97C278.484 27.6633 278.697 27.4267 278.977 27.26C279.264 27.0933 279.597 27.01 279.977 27.01ZM279.817 31.4C280.291 31.4 280.657 31.24 280.917 30.92C281.177 30.6 281.307 30.1467 281.307 29.56C281.307 28.9733 281.177 28.5167 280.917 28.19C280.657 27.8567 280.291 27.69 279.817 27.69C279.344 27.69 278.977 27.85 278.717 28.17C278.464 28.49 278.337 28.9467 278.337 29.54C278.337 30.1333 278.464 30.5933 278.717 30.92C278.977 31.24 279.344 31.4 279.817 31.4ZM286.108 27.71L285.578 27.76C285.078 27.8067 284.714 27.9633 284.488 28.23C284.268 28.4967 284.158 28.8267 284.158 29.22V32H283.348V27.13H284.138V27.98C284.411 27.4133 284.948 27.0967 285.748 27.03L286.038 27.01L286.108 27.71ZM290.855 29.69H287.295C287.322 30.2567 287.475 30.6867 287.755 30.98C288.035 31.2667 288.432 31.41 288.945 31.41C289.512 31.41 290.032 31.2167 290.505 30.83L290.775 31.42C290.562 31.62 290.289 31.78 289.955 31.9C289.622 32.0133 289.282 32.07 288.935 32.07C288.175 32.07 287.575 31.8467 287.135 31.4C286.702 30.9533 286.485 30.3367 286.485 29.55C286.485 29.05 286.582 28.61 286.775 28.23C286.969 27.8433 287.239 27.5433 287.585 27.33C287.939 27.1167 288.339 27.01 288.785 27.01C289.432 27.01 289.939 27.2233 290.305 27.65C290.672 28.07 290.855 28.65 290.855 29.39V29.69ZM288.795 27.64C288.369 27.64 288.025 27.7733 287.765 28.04C287.512 28.3067 287.362 28.6833 287.315 29.17H290.145C290.132 28.6767 290.009 28.3 289.775 28.04C289.542 27.7733 289.215 27.64 288.795 27.64ZM294.16 31.42C294.306 31.42 294.453 31.41 294.6 31.39L294.56 32.03C294.406 32.0567 294.24 32.07 294.06 32.07C293.473 32.07 293.03 31.9167 292.73 31.61C292.436 31.3033 292.29 30.8767 292.29 30.33V27.77H291.34V27.13H292.29V25.65H293.1V27.13H294.48V27.77H293.1V30.27C293.1 31.0367 293.453 31.42 294.16 31.42ZM295.418 32V27.13H296.228V32H295.418ZM295.338 25.02H296.318V25.93H295.338V25.02ZM301.842 27.13V32H301.052V31.17C300.899 31.4633 300.682 31.6867 300.402 31.84C300.129 31.9933 299.819 32.07 299.472 32.07C298.892 32.07 298.456 31.91 298.162 31.59C297.869 31.2633 297.722 30.7833 297.722 30.15V27.13H298.532V30.13C298.532 30.5633 298.619 30.8833 298.792 31.09C298.966 31.29 299.239 31.39 299.612 31.39C300.039 31.39 300.382 31.2533 300.642 30.98C300.902 30.7 301.032 30.3333 301.032 29.88V27.13H301.842ZM308.768 27.01C309.848 27.01 310.388 27.6533 310.388 28.94V32H309.578V28.98C309.578 28.5333 309.498 28.2067 309.338 28C309.184 27.7933 308.934 27.69 308.588 27.69C308.181 27.69 307.861 27.8267 307.628 28.1C307.394 28.3733 307.278 28.7467 307.278 29.22V32H306.468V28.98C306.468 28.5267 306.388 28.2 306.228 28C306.068 27.7933 305.814 27.69 305.468 27.69C305.061 27.69 304.741 27.8267 304.508 28.1C304.274 28.3733 304.158 28.7467 304.158 29.22V32H303.348V27.13H304.148V27.9C304.294 27.6133 304.498 27.3933 304.758 27.24C305.018 27.0867 305.318 27.01 305.658 27.01C306.411 27.01 306.908 27.33 307.148 27.97C307.288 27.67 307.501 27.4367 307.788 27.27C308.074 27.0967 308.401 27.01 308.768 27.01ZM318.521 29.69H314.961C314.988 30.2567 315.141 30.6867 315.421 30.98C315.701 31.2667 316.098 31.41 316.611 31.41C317.178 31.41 317.698 31.2167 318.171 30.83L318.441 31.42C318.228 31.62 317.955 31.78 317.621 31.9C317.288 32.0133 316.948 32.07 316.601 32.07C315.841 32.07 315.241 31.8467 314.801 31.4C314.368 30.9533 314.151 30.3367 314.151 29.55C314.151 29.05 314.248 28.61 314.441 28.23C314.635 27.8433 314.905 27.5433 315.251 27.33C315.605 27.1167 316.005 27.01 316.451 27.01C317.098 27.01 317.605 27.2233 317.971 27.65C318.338 28.07 318.521 28.65 318.521 29.39V29.69ZM316.461 27.64C316.035 27.64 315.691 27.7733 315.431 28.04C315.178 28.3067 315.028 28.6833 314.981 29.17H317.811C317.798 28.6767 317.675 28.3 317.441 28.04C317.208 27.7733 316.881 27.64 316.461 27.64ZM321.826 31.42C321.972 31.42 322.119 31.41 322.266 31.39L322.226 32.03C322.072 32.0567 321.906 32.07 321.726 32.07C321.139 32.07 320.696 31.9167 320.396 31.61C320.102 31.3033 319.956 30.8767 319.956 30.33V27.77H319.006V27.13H319.956V25.65H320.766V27.13H322.146V27.77H320.766V30.27C320.766 31.0367 321.119 31.42 321.826 31.42ZM325.662 32V27.13H326.472V32H325.662ZM325.582 25.02H326.562V25.93H325.582V25.02ZM330.436 27.01C331.603 27.01 332.186 27.6533 332.186 28.94V32H331.376V28.99C331.376 28.5367 331.286 28.2067 331.106 28C330.933 27.7933 330.653 27.69 330.266 27.69C329.82 27.69 329.463 27.8267 329.196 28.1C328.93 28.3733 328.796 28.7433 328.796 29.21V32H327.986V27.13H328.786V27.93C328.946 27.63 329.17 27.4033 329.456 27.25C329.743 27.09 330.07 27.01 330.436 27.01ZM2.73 42.01C3.35 42.01 3.81 42.17 4.11 42.49C4.41667 42.8033 4.57 43.2833 4.57 43.93V47H3.78V46.17C3.65333 46.4567 3.46 46.68 3.2 46.84C2.94 46.9933 2.64 47.07 2.3 47.07C1.98667 47.07 1.69667 47.0067 1.43 46.88C1.17 46.7533 0.963333 46.5767 0.81 46.35C0.656667 46.1233 0.58 45.8733 0.58 45.6C0.58 45.2333 0.673333 44.95 0.86 44.75C1.04667 44.5433 1.35333 44.3967 1.78 44.31C2.20667 44.2167 2.8 44.17 3.56 44.17H3.78V43.84C3.78 43.4333 3.69667 43.14 3.53 42.96C3.36333 42.7733 3.09333 42.68 2.72 42.68C2.16 42.68 1.60333 42.8533 1.05 43.2L0.78 42.61C1.03333 42.43 1.33667 42.2867 1.69 42.18C2.05 42.0667 2.39667 42.01 2.73 42.01ZM2.41 46.43C2.81 46.43 3.13667 46.2967 3.39 46.03C3.65 45.7567 3.78 45.4067 3.78 44.98V44.69H3.6C3.01333 44.69 2.56667 44.7167 2.26 44.77C1.95333 44.8167 1.73333 44.9 1.6 45.02C1.47333 45.1333 1.41 45.3033 1.41 45.53C1.41 45.79 1.50333 46.0067 1.69 46.18C1.88333 46.3467 2.12333 46.43 2.41 46.43ZM8.81273 42.71L8.28273 42.76C7.78273 42.8067 7.4194 42.9633 7.19273 43.23C6.97273 43.4967 6.86273 43.8267 6.86273 44.22V47H6.05273V42.13H6.84273V42.98C7.11607 42.4133 7.65273 42.0967 8.45273 42.03L8.74273 42.01L8.81273 42.71ZM11.5405 47.07C11.0605 47.07 10.6438 46.9667 10.2905 46.76C9.93714 46.5533 9.6638 46.2633 9.47047 45.89C9.2838 45.51 9.19047 45.0667 9.19047 44.56C9.19047 44.0533 9.28714 43.61 9.48047 43.23C9.68047 42.8433 9.95714 42.5433 10.3105 42.33C10.6705 42.1167 11.0905 42.01 11.5705 42.01C11.8971 42.01 12.2171 42.07 12.5305 42.19C12.8438 42.3033 13.0971 42.4567 13.2905 42.65L13.0205 43.25C12.5605 42.8767 12.0938 42.69 11.6205 42.69C11.1205 42.69 10.7305 42.8533 10.4505 43.18C10.1705 43.5067 10.0305 43.9667 10.0305 44.56C10.0305 45.1467 10.1705 45.6 10.4505 45.92C10.7305 46.24 11.1205 46.4 11.6205 46.4C12.0938 46.4 12.5605 46.2133 13.0205 45.84L13.2905 46.44C13.0838 46.6333 12.8238 46.7867 12.5105 46.9C12.1971 47.0133 11.8738 47.07 11.5405 47.07ZM18.3656 42.13V47H17.5756V46.17C17.4223 46.4633 17.2056 46.6867 16.9256 46.84C16.6523 46.9933 16.3423 47.07 15.9956 47.07C15.4156 47.07 14.979 46.91 14.6856 46.59C14.3923 46.2633 14.2456 45.7833 14.2456 45.15V42.13H15.0556V45.13C15.0556 45.5633 15.1423 45.8833 15.3156 46.09C15.489 46.29 15.7623 46.39 16.1356 46.39C16.5623 46.39 16.9056 46.2533 17.1656 45.98C17.4256 45.7 17.5556 45.3333 17.5556 44.88V42.13H18.3656ZM24.4292 42.01C25.0492 42.01 25.5092 42.17 25.8092 42.49C26.1159 42.8033 26.2692 43.2833 26.2692 43.93V47H25.4792V46.17C25.3526 46.4567 25.1592 46.68 24.8992 46.84C24.6392 46.9933 24.3392 47.07 23.9992 47.07C23.6859 47.07 23.3959 47.0067 23.1292 46.88C22.8692 46.7533 22.6626 46.5767 22.5092 46.35C22.3559 46.1233 22.2792 45.8733 22.2792 45.6C22.2792 45.2333 22.3726 44.95 22.5592 44.75C22.7459 44.5433 23.0526 44.3967 23.4792 44.31C23.9059 44.2167 24.4992 44.17 25.2592 44.17H25.4792V43.84C25.4792 43.4333 25.3959 43.14 25.2292 42.96C25.0626 42.7733 24.7926 42.68 24.4192 42.68C23.8592 42.68 23.3026 42.8533 22.7492 43.2L22.4792 42.61C22.7326 42.43 23.0359 42.2867 23.3892 42.18C23.7492 42.0667 24.0959 42.01 24.4292 42.01ZM24.1092 46.43C24.5092 46.43 24.8359 46.2967 25.0892 46.03C25.3492 45.7567 25.4792 45.4067 25.4792 44.98V44.69H25.2992C24.7126 44.69 24.2659 44.7167 23.9592 44.77C23.6526 44.8167 23.4326 44.9 23.2992 45.02C23.1726 45.1333 23.1092 45.3033 23.1092 45.53C23.1092 45.79 23.2026 46.0067 23.3892 46.18C23.5826 46.3467 23.8226 46.43 24.1092 46.43ZM32.072 39.95V47H31.262V46.11C31.1153 46.4167 30.8986 46.6533 30.612 46.82C30.332 46.9867 30.002 47.07 29.622 47.07C29.1953 47.07 28.8186 46.9633 28.492 46.75C28.1653 46.5367 27.912 46.24 27.732 45.86C27.552 45.4733 27.462 45.0267 27.462 44.52C27.462 44.02 27.552 43.58 27.732 43.2C27.912 42.82 28.1653 42.5267 28.492 42.32C28.8186 42.1133 29.1953 42.01 29.622 42.01C30.002 42.01 30.332 42.0933 30.612 42.26C30.8986 42.4267 31.1153 42.6633 31.262 42.97V39.95H32.072ZM29.782 46.4C30.2553 46.4 30.6186 46.24 30.872 45.92C31.132 45.5933 31.262 45.1333 31.262 44.54C31.262 43.9467 31.132 43.49 30.872 43.17C30.6186 42.85 30.2553 42.69 29.782 42.69C29.3086 42.69 28.9386 42.85 28.672 43.17C28.412 43.49 28.282 43.94 28.282 44.52C28.282 45.1133 28.412 45.5767 28.672 45.91C28.9386 46.2367 29.3086 46.4 29.782 46.4ZM33.5723 47V42.13H34.3823V47H33.5723ZM33.4923 40.02H34.4723V40.93H33.4923V40.02ZM38.3465 42.01C38.7732 42.01 39.1498 42.1167 39.4765 42.33C39.8032 42.5433 40.0565 42.8433 40.2365 43.23C40.4165 43.61 40.5065 44.0533 40.5065 44.56C40.5065 45.0667 40.4165 45.51 40.2365 45.89C40.0565 46.2633 39.8032 46.5533 39.4765 46.76C39.1565 46.9667 38.7798 47.07 38.3465 47.07C37.9665 47.07 37.6332 46.9867 37.3465 46.82C37.0665 46.6533 36.8532 46.4167 36.7065 46.11V48.8H35.8965V42.13H36.7065V42.97C36.8532 42.6633 37.0665 42.4267 37.3465 42.26C37.6332 42.0933 37.9665 42.01 38.3465 42.01ZM38.1865 46.4C38.6598 46.4 39.0265 46.24 39.2865 45.92C39.5465 45.6 39.6765 45.1467 39.6765 44.56C39.6765 43.9733 39.5465 43.5167 39.2865 43.19C39.0265 42.8567 38.6598 42.69 38.1865 42.69C37.7132 42.69 37.3465 42.85 37.0865 43.17C36.8332 43.49 36.7065 43.9467 36.7065 44.54C36.7065 45.1333 36.8332 45.5933 37.0865 45.92C37.3465 46.24 37.7132 46.4 38.1865 46.4ZM41.7168 47V42.13H42.5268V47H41.7168ZM41.6368 40.02H42.6168V40.93H41.6368V40.02ZM45.691 47.07C44.871 47.07 44.221 46.86 43.741 46.44L44.011 45.84C44.271 46.0467 44.5343 46.1967 44.801 46.29C45.0743 46.3767 45.381 46.42 45.721 46.42C46.081 46.42 46.3543 46.36 46.541 46.24C46.7343 46.1133 46.831 45.9333 46.831 45.7C46.831 45.5067 46.7677 45.3533 46.641 45.24C46.5143 45.1267 46.3043 45.0367 46.011 44.97L45.191 44.78C44.7777 44.6867 44.461 44.5267 44.241 44.3C44.021 44.0733 43.911 43.7933 43.911 43.46C43.911 43.0267 44.081 42.6767 44.421 42.41C44.761 42.1433 45.2143 42.01 45.781 42.01C46.121 42.01 46.4443 42.0667 46.751 42.18C47.0577 42.2867 47.3143 42.4433 47.521 42.65L47.251 43.24C46.8043 42.86 46.3143 42.67 45.781 42.67C45.441 42.67 45.1743 42.7367 44.981 42.87C44.7943 42.9967 44.701 43.1767 44.701 43.41C44.701 43.6033 44.7577 43.76 44.871 43.88C44.991 43.9933 45.181 44.08 45.441 44.14L46.271 44.34C46.7243 44.4467 47.061 44.61 47.281 44.83C47.501 45.0433 47.611 45.3233 47.611 45.67C47.611 46.0967 47.4377 46.4367 47.091 46.69C46.751 46.9433 46.2843 47.07 45.691 47.07ZM50.9057 47.07C50.4257 47.07 50.009 46.9667 49.6557 46.76C49.3024 46.5533 49.029 46.2633 48.8357 45.89C48.649 45.51 48.5557 45.0667 48.5557 44.56C48.5557 44.0533 48.6524 43.61 48.8457 43.23C49.0457 42.8433 49.3224 42.5433 49.6757 42.33C50.0357 42.1167 50.4557 42.01 50.9357 42.01C51.2624 42.01 51.5824 42.07 51.8957 42.19C52.209 42.3033 52.4624 42.4567 52.6557 42.65L52.3857 43.25C51.9257 42.8767 51.459 42.69 50.9857 42.69C50.4857 42.69 50.0957 42.8533 49.8157 43.18C49.5357 43.5067 49.3957 43.9667 49.3957 44.56C49.3957 45.1467 49.5357 45.6 49.8157 45.92C50.0957 46.24 50.4857 46.4 50.9857 46.4C51.459 46.4 51.9257 46.2133 52.3857 45.84L52.6557 46.44C52.449 46.6333 52.189 46.7867 51.8757 46.9C51.5624 47.0133 51.239 47.07 50.9057 47.07ZM53.6309 47V42.13H54.4409V47H53.6309ZM53.5509 40.02H54.5309V40.93H53.5509V40.02ZM58.4051 42.01C59.5717 42.01 60.1551 42.6533 60.1551 43.94V47H59.3451V43.99C59.3451 43.5367 59.2551 43.2067 59.0751 43C58.9017 42.7933 58.6217 42.69 58.2351 42.69C57.7884 42.69 57.4317 42.8267 57.1651 43.1C56.8984 43.3733 56.7651 43.7433 56.7651 44.21V47H55.9551V42.13H56.7551V42.93C56.9151 42.63 57.1384 42.4033 57.4251 42.25C57.7117 42.09 58.0384 42.01 58.4051 42.01ZM65.9987 42.13V46.67C65.9987 47.3967 65.812 47.9433 65.4387 48.31C65.0653 48.6833 64.512 48.87 63.7787 48.87C62.9253 48.87 62.2087 48.65 61.6287 48.21L61.8987 47.61C62.2253 47.8233 62.532 47.9767 62.8187 48.07C63.1053 48.1633 63.4253 48.21 63.7787 48.21C64.2453 48.21 64.5987 48.0833 64.8387 47.83C65.0787 47.5833 65.1987 47.22 65.1987 46.74V45.88C65.0587 46.1933 64.842 46.4333 64.5487 46.6C64.262 46.7667 63.922 46.85 63.5287 46.85C63.102 46.85 62.722 46.75 62.3887 46.55C62.062 46.35 61.8053 46.0667 61.6187 45.7C61.4387 45.3333 61.3487 44.91 61.3487 44.43C61.3487 43.95 61.4387 43.5267 61.6187 43.16C61.8053 42.7933 62.062 42.51 62.3887 42.31C62.722 42.11 63.102 42.01 63.5287 42.01C63.9153 42.01 64.252 42.0933 64.5387 42.26C64.8253 42.4267 65.042 42.6633 65.1887 42.97V42.13H65.9987ZM63.6887 46.18C64.1553 46.18 64.522 46.0267 64.7887 45.72C65.0553 45.4067 65.1887 44.9767 65.1887 44.43C65.1887 43.89 65.0553 43.4667 64.7887 43.16C64.5287 42.8467 64.162 42.69 63.6887 42.69C63.2153 42.69 62.842 42.8467 62.5687 43.16C62.302 43.4667 62.1687 43.89 62.1687 44.43C62.1687 44.9767 62.302 45.4067 62.5687 45.72C62.842 46.0267 63.2153 46.18 63.6887 46.18ZM72.5262 42.01C73.6928 42.01 74.2762 42.6533 74.2762 43.94V47H73.4662V43.99C73.4662 43.5367 73.3762 43.2067 73.1962 43C73.0228 42.7933 72.7428 42.69 72.3562 42.69C71.9095 42.69 71.5528 42.8267 71.2862 43.1C71.0195 43.3733 70.8862 43.7433 70.8862 44.21V47H70.0762V42.13H70.8762V42.93C71.0362 42.63 71.2595 42.4033 71.5462 42.25C71.8328 42.09 72.1595 42.01 72.5262 42.01ZM79.8398 44.69H76.2798C76.3064 45.2567 76.4598 45.6867 76.7398 45.98C77.0198 46.2667 77.4164 46.41 77.9298 46.41C78.4964 46.41 79.0164 46.2167 79.4898 45.83L79.7598 46.42C79.5464 46.62 79.2731 46.78 78.9398 46.9C78.6064 47.0133 78.2664 47.07 77.9198 47.07C77.1598 47.07 76.5598 46.8467 76.1198 46.4C75.6864 45.9533 75.4698 45.3367 75.4698 44.55C75.4698 44.05 75.5664 43.61 75.7598 43.23C75.9531 42.8433 76.2231 42.5433 76.5698 42.33C76.9231 42.1167 77.3231 42.01 77.7698 42.01C78.4164 42.01 78.9231 42.2233 79.2898 42.65C79.6564 43.07 79.8398 43.65 79.8398 44.39V44.69ZM77.7798 42.64C77.3531 42.64 77.0098 42.7733 76.7498 43.04C76.4964 43.3067 76.3464 43.6833 76.2998 44.17H79.1298C79.1164 43.6767 78.9931 43.3 78.7598 43.04C78.5264 42.7733 78.1998 42.64 77.7798 42.64ZM83.0932 47.07C82.6132 47.07 82.1965 46.9667 81.8432 46.76C81.4899 46.5533 81.2165 46.2633 81.0232 45.89C80.8365 45.51 80.7432 45.0667 80.7432 44.56C80.7432 44.0533 80.8399 43.61 81.0332 43.23C81.2332 42.8433 81.5099 42.5433 81.8632 42.33C82.2232 42.1167 82.6432 42.01 83.1232 42.01C83.4499 42.01 83.7699 42.07 84.0832 42.19C84.3965 42.3033 84.6499 42.4567 84.8432 42.65L84.5732 43.25C84.1132 42.8767 83.6465 42.69 83.1732 42.69C82.6732 42.69 82.2832 42.8533 82.0032 43.18C81.7232 43.5067 81.5832 43.9667 81.5832 44.56C81.5832 45.1467 81.7232 45.6 82.0032 45.92C82.2832 46.24 82.6732 46.4 83.1732 46.4C83.6465 46.4 84.1132 46.2133 84.5732 45.84L84.8432 46.44C84.6365 46.6333 84.3765 46.7867 84.0632 46.9C83.7499 47.0133 83.4265 47.07 83.0932 47.07ZM85.796 45.98H86.816V47H85.796V45.98ZM92.5993 47V40.65H90.1493V39.95H95.8893V40.65H93.4293V47H92.5993ZM100.123 42.13V47H99.3334V46.17C99.1801 46.4633 98.9634 46.6867 98.6834 46.84C98.4101 46.9933 98.1001 47.07 97.7534 47.07C97.1734 47.07 96.7368 46.91 96.4434 46.59C96.1501 46.2633 96.0034 45.7833 96.0034 45.15V42.13H96.8134V45.13C96.8134 45.5633 96.9001 45.8833 97.0734 46.09C97.2468 46.29 97.5201 46.39 97.8934 46.39C98.3201 46.39 98.6634 46.2533 98.9234 45.98C99.1834 45.7 99.3134 45.3333 99.3134 44.88V42.13H100.123ZM104.389 42.71L103.859 42.76C103.359 42.8067 102.996 42.9633 102.769 43.23C102.549 43.4967 102.439 43.8267 102.439 44.22V47H101.629V42.13H102.419V42.98C102.692 42.4133 103.229 42.0967 104.029 42.03L104.319 42.01L104.389 42.71ZM107.604 42.01C108.031 42.01 108.408 42.1167 108.734 42.33C109.061 42.5433 109.314 42.8433 109.494 43.23C109.674 43.61 109.764 44.0533 109.764 44.56C109.764 45.0667 109.674 45.51 109.494 45.89C109.314 46.2633 109.061 46.5533 108.734 46.76C108.414 46.9667 108.038 47.07 107.604 47.07C107.224 47.07 106.891 46.9867 106.604 46.82C106.324 46.6533 106.111 46.4167 105.964 46.11V48.8H105.154V42.13H105.964V42.97C106.111 42.6633 106.324 42.4267 106.604 42.26C106.891 42.0933 107.224 42.01 107.604 42.01ZM107.444 46.4C107.918 46.4 108.284 46.24 108.544 45.92C108.804 45.6 108.934 45.1467 108.934 44.56C108.934 43.9733 108.804 43.5167 108.544 43.19C108.284 42.8567 107.918 42.69 107.444 42.69C106.971 42.69 106.604 42.85 106.344 43.17C106.091 43.49 105.964 43.9467 105.964 44.54C105.964 45.1333 106.091 45.5933 106.344 45.92C106.604 46.24 106.971 46.4 107.444 46.4ZM110.975 47V42.13H111.785V47H110.975ZM110.895 40.02H111.875V40.93H110.895V40.02ZM114.949 47.07C114.129 47.07 113.479 46.86 112.999 46.44L113.269 45.84C113.529 46.0467 113.792 46.1967 114.059 46.29C114.332 46.3767 114.639 46.42 114.979 46.42C115.339 46.42 115.612 46.36 115.799 46.24C115.992 46.1133 116.089 45.9333 116.089 45.7C116.089 45.5067 116.025 45.3533 115.899 45.24C115.772 45.1267 115.562 45.0367 115.269 44.97L114.449 44.78C114.035 44.6867 113.719 44.5267 113.499 44.3C113.279 44.0733 113.169 43.7933 113.169 43.46C113.169 43.0267 113.339 42.6767 113.679 42.41C114.019 42.1433 114.472 42.01 115.039 42.01C115.379 42.01 115.702 42.0667 116.009 42.18C116.315 42.2867 116.572 42.4433 116.779 42.65L116.509 43.24C116.062 42.86 115.572 42.67 115.039 42.67C114.699 42.67 114.432 42.7367 114.239 42.87C114.052 42.9967 113.959 43.1767 113.959 43.41C113.959 43.6033 114.015 43.76 114.129 43.88C114.249 43.9933 114.439 44.08 114.699 44.14L115.529 44.34C115.982 44.4467 116.319 44.61 116.539 44.83C116.759 45.0433 116.869 45.3233 116.869 45.67C116.869 46.0967 116.695 46.4367 116.349 46.69C116.009 46.9433 115.542 47.07 114.949 47.07ZM123.132 42.01C123.558 42.01 123.935 42.1167 124.262 42.33C124.588 42.5433 124.842 42.8433 125.022 43.23C125.202 43.61 125.292 44.0533 125.292 44.56C125.292 45.0667 125.202 45.51 125.022 45.89C124.842 46.2633 124.588 46.5533 124.262 46.76C123.942 46.9667 123.565 47.07 123.132 47.07C122.752 47.07 122.418 46.9867 122.132 46.82C121.852 46.6533 121.638 46.4167 121.492 46.11V48.8H120.682V42.13H121.492V42.97C121.638 42.6633 121.852 42.4267 122.132 42.26C122.418 42.0933 122.752 42.01 123.132 42.01ZM122.972 46.4C123.445 46.4 123.812 46.24 124.072 45.92C124.332 45.6 124.462 45.1467 124.462 44.56C124.462 43.9733 124.332 43.5167 124.072 43.19C123.812 42.8567 123.445 42.69 122.972 42.69C122.498 42.69 122.132 42.85 121.872 43.17C121.618 43.49 121.492 43.9467 121.492 44.54C121.492 45.1333 121.618 45.5933 121.872 45.92C122.132 46.24 122.498 46.4 122.972 46.4ZM129.262 42.71L128.732 42.76C128.232 42.8067 127.869 42.9633 127.642 43.23C127.422 43.4967 127.312 43.8267 127.312 44.22V47H126.502V42.13H127.292V42.98C127.565 42.4133 128.102 42.0967 128.902 42.03L129.192 42.01L129.262 42.71ZM134.01 44.69H130.45C130.476 45.2567 130.63 45.6867 130.91 45.98C131.19 46.2667 131.586 46.41 132.1 46.41C132.666 46.41 133.186 46.2167 133.66 45.83L133.93 46.42C133.716 46.62 133.443 46.78 133.11 46.9C132.776 47.0133 132.436 47.07 132.09 47.07C131.33 47.07 130.73 46.8467 130.29 46.4C129.856 45.9533 129.64 45.3367 129.64 44.55C129.64 44.05 129.736 43.61 129.93 43.23C130.123 42.8433 130.393 42.5433 130.74 42.33C131.093 42.1167 131.493 42.01 131.94 42.01C132.586 42.01 133.093 42.2233 133.46 42.65C133.826 43.07 134.01 43.65 134.01 44.39V44.69ZM131.95 42.64C131.523 42.64 131.18 42.7733 130.92 43.04C130.666 43.3067 130.516 43.6833 130.47 44.17H133.3C133.286 43.6767 133.163 43.3 132.93 43.04C132.696 42.7733 132.37 42.64 131.95 42.64ZM137.314 46.42C137.46 46.42 137.607 46.41 137.754 46.39L137.714 47.03C137.56 47.0567 137.394 47.07 137.214 47.07C136.627 47.07 136.184 46.9167 135.884 46.61C135.59 46.3033 135.444 45.8767 135.444 45.33V42.77H134.494V42.13H135.444V40.65H136.254V42.13H137.634V42.77H136.254V45.27C136.254 46.0367 136.607 46.42 137.314 46.42ZM138.572 47V42.13H139.382V47H138.572ZM138.492 40.02H139.472V40.93H138.492V40.02ZM144.996 42.13V47H144.206V46.17C144.053 46.4633 143.836 46.6867 143.556 46.84C143.283 46.9933 142.973 47.07 142.626 47.07C142.046 47.07 141.61 46.91 141.316 46.59C141.023 46.2633 140.876 45.7833 140.876 45.15V42.13H141.686V45.13C141.686 45.5633 141.773 45.8833 141.946 46.09C142.12 46.29 142.393 46.39 142.766 46.39C143.193 46.39 143.536 46.2533 143.796 45.98C144.056 45.7 144.186 45.3333 144.186 44.88V42.13H144.996ZM151.922 42.01C153.002 42.01 153.542 42.6533 153.542 43.94V47H152.732V43.98C152.732 43.5333 152.652 43.2067 152.492 43C152.339 42.7933 152.089 42.69 151.742 42.69C151.335 42.69 151.015 42.8267 150.782 43.1C150.549 43.3733 150.432 43.7467 150.432 44.22V47H149.622V43.98C149.622 43.5267 149.542 43.2 149.382 43C149.222 42.7933 148.969 42.69 148.622 42.69C148.215 42.69 147.895 42.8267 147.662 43.1C147.429 43.3733 147.312 43.7467 147.312 44.22V47H146.502V42.13H147.302V42.9C147.449 42.6133 147.652 42.3933 147.912 42.24C148.172 42.0867 148.472 42.01 148.812 42.01C149.565 42.01 150.062 42.33 150.302 42.97C150.442 42.67 150.655 42.4367 150.942 42.27C151.229 42.0967 151.555 42.01 151.922 42.01ZM161.676 44.69H158.116C158.142 45.2567 158.296 45.6867 158.576 45.98C158.856 46.2667 159.252 46.41 159.766 46.41C160.332 46.41 160.852 46.2167 161.326 45.83L161.596 46.42C161.382 46.62 161.109 46.78 160.776 46.9C160.442 47.0133 160.102 47.07 159.756 47.07C158.996 47.07 158.396 46.8467 157.956 46.4C157.522 45.9533 157.306 45.3367 157.306 44.55C157.306 44.05 157.402 43.61 157.596 43.23C157.789 42.8433 158.059 42.5433 158.406 42.33C158.759 42.1167 159.159 42.01 159.606 42.01C160.252 42.01 160.759 42.2233 161.126 42.65C161.492 43.07 161.676 43.65 161.676 44.39V44.69ZM159.616 42.64C159.189 42.64 158.846 42.7733 158.586 43.04C158.332 43.3067 158.182 43.6833 158.136 44.17H160.966C160.952 43.6767 160.829 43.3 160.596 43.04C160.362 42.7733 160.036 42.64 159.616 42.64ZM164.98 46.42C165.127 46.42 165.273 46.41 165.42 46.39L165.38 47.03C165.227 47.0567 165.06 47.07 164.88 47.07C164.293 47.07 163.85 46.9167 163.55 46.61C163.257 46.3033 163.11 45.8767 163.11 45.33V42.77H162.16V42.13H163.11V40.65H163.92V42.13H165.3V42.77H163.92V45.27C163.92 46.0367 164.273 46.42 164.98 46.42ZM168.816 47V42.13H169.626V47H168.816ZM168.736 40.02H169.716V40.93H168.736V40.02ZM173.591 42.01C174.757 42.01 175.341 42.6533 175.341 43.94V47H174.531V43.99C174.531 43.5367 174.441 43.2067 174.261 43C174.087 42.7933 173.807 42.69 173.421 42.69C172.974 42.69 172.617 42.8267 172.351 43.1C172.084 43.3733 171.951 43.7433 171.951 44.21V47H171.141V42.13H171.941V42.93C172.101 42.63 172.324 42.4033 172.611 42.25C172.897 42.09 173.224 42.01 173.591 42.01ZM181.382 42.01C182.002 42.01 182.462 42.17 182.762 42.49C183.069 42.8033 183.222 43.2833 183.222 43.93V47H182.432V46.17C182.306 46.4567 182.112 46.68 181.852 46.84C181.592 46.9933 181.292 47.07 180.952 47.07C180.639 47.07 180.349 47.0067 180.082 46.88C179.822 46.7533 179.616 46.5767 179.462 46.35C179.309 46.1233 179.232 45.8733 179.232 45.6C179.232 45.2333 179.326 44.95 179.512 44.75C179.699 44.5433 180.006 44.3967 180.432 44.31C180.859 44.2167 181.452 44.17 182.212 44.17H182.432V43.84C182.432 43.4333 182.349 43.14 182.182 42.96C182.016 42.7733 181.746 42.68 181.372 42.68C180.812 42.68 180.256 42.8533 179.702 43.2L179.432 42.61C179.686 42.43 179.989 42.2867 180.342 42.18C180.702 42.0667 181.049 42.01 181.382 42.01ZM181.062 46.43C181.462 46.43 181.789 46.2967 182.042 46.03C182.302 45.7567 182.432 45.4067 182.432 44.98V44.69H182.252C181.666 44.69 181.219 44.7167 180.912 44.77C180.606 44.8167 180.386 44.9 180.252 45.02C180.126 45.1333 180.062 45.3033 180.062 45.53C180.062 45.79 180.156 46.0067 180.342 46.18C180.536 46.3467 180.776 46.43 181.062 46.43ZM187.465 42.71L186.935 42.76C186.435 42.8067 186.072 42.9633 185.845 43.23C185.625 43.4967 185.515 43.8267 185.515 44.22V47H184.705V42.13H185.495V42.98C185.768 42.4133 186.305 42.0967 187.105 42.03L187.395 42.01L187.465 42.71ZM190.193 47.07C189.713 47.07 189.296 46.9667 188.943 46.76C188.589 46.5533 188.316 46.2633 188.123 45.89C187.936 45.51 187.843 45.0667 187.843 44.56C187.843 44.0533 187.939 43.61 188.133 43.23C188.333 42.8433 188.609 42.5433 188.963 42.33C189.323 42.1167 189.743 42.01 190.223 42.01C190.549 42.01 190.869 42.07 191.183 42.19C191.496 42.3033 191.749 42.4567 191.943 42.65L191.673 43.25C191.213 42.8767 190.746 42.69 190.273 42.69C189.773 42.69 189.383 42.8533 189.103 43.18C188.823 43.5067 188.683 43.9667 188.683 44.56C188.683 45.1467 188.823 45.6 189.103 45.92C189.383 46.24 189.773 46.4 190.273 46.4C190.746 46.4 191.213 46.2133 191.673 45.84L191.943 46.44C191.736 46.6333 191.476 46.7867 191.163 46.9C190.849 47.0133 190.526 47.07 190.193 47.07ZM197.018 42.13V47H196.228V46.17C196.075 46.4633 195.858 46.6867 195.578 46.84C195.305 46.9933 194.995 47.07 194.648 47.07C194.068 47.07 193.631 46.91 193.338 46.59C193.045 46.2633 192.898 45.7833 192.898 45.15V42.13H193.708V45.13C193.708 45.5633 193.795 45.8833 193.968 46.09C194.141 46.29 194.415 46.39 194.788 46.39C195.215 46.39 195.558 46.2533 195.818 45.98C196.078 45.7 196.208 45.3333 196.208 44.88V42.13H197.018ZM203.082 42.01C203.702 42.01 204.162 42.17 204.462 42.49C204.768 42.8033 204.922 43.2833 204.922 43.93V47H204.132V46.17C204.005 46.4567 203.812 46.68 203.552 46.84C203.292 46.9933 202.992 47.07 202.652 47.07C202.338 47.07 202.048 47.0067 201.782 46.88C201.522 46.7533 201.315 46.5767 201.162 46.35C201.008 46.1233 200.932 45.8733 200.932 45.6C200.932 45.2333 201.025 44.95 201.212 44.75C201.398 44.5433 201.705 44.3967 202.132 44.31C202.558 44.2167 203.152 44.17 203.912 44.17H204.132V43.84C204.132 43.4333 204.048 43.14 203.882 42.96C203.715 42.7733 203.445 42.68 203.072 42.68C202.512 42.68 201.955 42.8533 201.402 43.2L201.132 42.61C201.385 42.43 201.688 42.2867 202.042 42.18C202.402 42.0667 202.748 42.01 203.082 42.01ZM202.762 46.43C203.162 46.43 203.488 46.2967 203.742 46.03C204.002 45.7567 204.132 45.4067 204.132 44.98V44.69H203.952C203.365 44.69 202.918 44.7167 202.612 44.77C202.305 44.8167 202.085 44.9 201.952 45.02C201.825 45.1333 201.762 45.3033 201.762 45.53C201.762 45.79 201.855 46.0067 202.042 46.18C202.235 46.3467 202.475 46.43 202.762 46.43ZM210.724 39.95V47H209.914V46.11C209.768 46.4167 209.551 46.6533 209.264 46.82C208.984 46.9867 208.654 47.07 208.274 47.07C207.848 47.07 207.471 46.9633 207.144 46.75C206.818 46.5367 206.564 46.24 206.384 45.86C206.204 45.4733 206.114 45.0267 206.114 44.52C206.114 44.02 206.204 43.58 206.384 43.2C206.564 42.82 206.818 42.5267 207.144 42.32C207.471 42.1133 207.848 42.01 208.274 42.01C208.654 42.01 208.984 42.0933 209.264 42.26C209.551 42.4267 209.768 42.6633 209.914 42.97V39.95H210.724ZM208.434 46.4C208.908 46.4 209.271 46.24 209.524 45.92C209.784 45.5933 209.914 45.1333 209.914 44.54C209.914 43.9467 209.784 43.49 209.524 43.17C209.271 42.85 208.908 42.69 208.434 42.69C207.961 42.69 207.591 42.85 207.324 43.17C207.064 43.49 206.934 43.94 206.934 44.52C206.934 45.1133 207.064 45.5767 207.324 45.91C207.591 46.2367 207.961 46.4 208.434 46.4ZM212.225 47V42.13H213.035V47H212.225ZM212.145 40.02H213.125V40.93H212.145V40.02ZM216.999 42.01C217.425 42.01 217.802 42.1167 218.129 42.33C218.455 42.5433 218.709 42.8433 218.889 43.23C219.069 43.61 219.159 44.0533 219.159 44.56C219.159 45.0667 219.069 45.51 218.889 45.89C218.709 46.2633 218.455 46.5533 218.129 46.76C217.809 46.9667 217.432 47.07 216.999 47.07C216.619 47.07 216.285 46.9867 215.999 46.82C215.719 46.6533 215.505 46.4167 215.359 46.11V48.8H214.549V42.13H215.359V42.97C215.505 42.6633 215.719 42.4267 215.999 42.26C216.285 42.0933 216.619 42.01 216.999 42.01ZM216.839 46.4C217.312 46.4 217.679 46.24 217.939 45.92C218.199 45.6 218.329 45.1467 218.329 44.56C218.329 43.9733 218.199 43.5167 217.939 43.19C217.679 42.8567 217.312 42.69 216.839 42.69C216.365 42.69 215.999 42.85 215.739 43.17C215.485 43.49 215.359 43.9467 215.359 44.54C215.359 45.1333 215.485 45.5933 215.739 45.92C215.999 46.24 216.365 46.4 216.839 46.4ZM220.369 47V42.13H221.179V47H220.369ZM220.289 40.02H221.269V40.93H220.289V40.02ZM224.343 47.07C223.523 47.07 222.873 46.86 222.393 46.44L222.663 45.84C222.923 46.0467 223.187 46.1967 223.453 46.29C223.727 46.3767 224.033 46.42 224.373 46.42C224.733 46.42 225.007 46.36 225.193 46.24C225.387 46.1133 225.483 45.9333 225.483 45.7C225.483 45.5067 225.42 45.3533 225.293 45.24C225.167 45.1267 224.957 45.0367 224.663 44.97L223.843 44.78C223.43 44.6867 223.113 44.5267 222.893 44.3C222.673 44.0733 222.563 43.7933 222.563 43.46C222.563 43.0267 222.733 42.6767 223.073 42.41C223.413 42.1433 223.867 42.01 224.433 42.01C224.773 42.01 225.097 42.0667 225.403 42.18C225.71 42.2867 225.967 42.4433 226.173 42.65L225.903 43.24C225.457 42.86 224.967 42.67 224.433 42.67C224.093 42.67 223.827 42.7367 223.633 42.87C223.447 42.9967 223.353 43.1767 223.353 43.41C223.353 43.6033 223.41 43.76 223.523 43.88C223.643 43.9933 223.833 44.08 224.093 44.14L224.923 44.34C225.377 44.4467 225.713 44.61 225.933 44.83C226.153 45.0433 226.263 45.3233 226.263 45.67C226.263 46.0967 226.09 46.4367 225.743 46.69C225.403 46.9433 224.937 47.07 224.343 47.07ZM229.558 47.07C229.078 47.07 228.661 46.9667 228.308 46.76C227.955 46.5533 227.681 46.2633 227.488 45.89C227.301 45.51 227.208 45.0667 227.208 44.56C227.208 44.0533 227.305 43.61 227.498 43.23C227.698 42.8433 227.975 42.5433 228.328 42.33C228.688 42.1167 229.108 42.01 229.588 42.01C229.915 42.01 230.235 42.07 230.548 42.19C230.861 42.3033 231.115 42.4567 231.308 42.65L231.038 43.25C230.578 42.8767 230.111 42.69 229.638 42.69C229.138 42.69 228.748 42.8533 228.468 43.18C228.188 43.5067 228.048 43.9667 228.048 44.56C228.048 45.1467 228.188 45.6 228.468 45.92C228.748 46.24 229.138 46.4 229.638 46.4C230.111 46.4 230.578 46.2133 231.038 45.84L231.308 46.44C231.101 46.6333 230.841 46.7867 230.528 46.9C230.215 47.0133 229.891 47.07 229.558 47.07ZM232.283 47V42.13H233.093V47H232.283ZM232.203 40.02H233.183V40.93H232.203V40.02ZM237.057 42.01C238.224 42.01 238.807 42.6533 238.807 43.94V47H237.997V43.99C237.997 43.5367 237.907 43.2067 237.727 43C237.554 42.7933 237.274 42.69 236.887 42.69C236.441 42.69 236.084 42.8267 235.817 43.1C235.551 43.3733 235.417 43.7433 235.417 44.21V47H234.607V42.13H235.407V42.93C235.567 42.63 235.791 42.4033 236.077 42.25C236.364 42.09 236.691 42.01 237.057 42.01ZM244.651 42.13V46.67C244.651 47.3967 244.464 47.9433 244.091 48.31C243.718 48.6833 243.164 48.87 242.431 48.87C241.578 48.87 240.861 48.65 240.281 48.21L240.551 47.61C240.878 47.8233 241.184 47.9767 241.471 48.07C241.758 48.1633 242.078 48.21 242.431 48.21C242.898 48.21 243.251 48.0833 243.491 47.83C243.731 47.5833 243.851 47.22 243.851 46.74V45.88C243.711 46.1933 243.494 46.4333 243.201 46.6C242.914 46.7667 242.574 46.85 242.181 46.85C241.754 46.85 241.374 46.75 241.041 46.55C240.714 46.35 240.458 46.0667 240.271 45.7C240.091 45.3333 240.001 44.91 240.001 44.43C240.001 43.95 240.091 43.5267 240.271 43.16C240.458 42.7933 240.714 42.51 241.041 42.31C241.374 42.11 241.754 42.01 242.181 42.01C242.568 42.01 242.904 42.0933 243.191 42.26C243.478 42.4267 243.694 42.6633 243.841 42.97V42.13H244.651ZM242.341 46.18C242.808 46.18 243.174 46.0267 243.441 45.72C243.708 45.4067 243.841 44.9767 243.841 44.43C243.841 43.89 243.708 43.4667 243.441 43.16C243.181 42.8467 242.814 42.69 242.341 42.69C241.868 42.69 241.494 42.8467 241.221 43.16C240.954 43.4667 240.821 43.89 240.821 44.43C240.821 44.9767 240.954 45.4067 241.221 45.72C241.494 46.0267 241.868 46.18 242.341 46.18ZM251.179 42.01C252.345 42.01 252.929 42.6533 252.929 43.94V47H252.119V43.99C252.119 43.5367 252.029 43.2067 251.849 43C251.675 42.7933 251.395 42.69 251.009 42.69C250.562 42.69 250.205 42.8267 249.939 43.1C249.672 43.3733 249.539 43.7433 249.539 44.21V47H248.729V42.13H249.529V42.93C249.689 42.63 249.912 42.4033 250.199 42.25C250.485 42.09 250.812 42.01 251.179 42.01ZM258.492 44.69H254.932C254.959 45.2567 255.112 45.6867 255.392 45.98C255.672 46.2667 256.069 46.41 256.582 46.41C257.149 46.41 257.669 46.2167 258.142 45.83L258.412 46.42C258.199 46.62 257.925 46.78 257.592 46.9C257.259 47.0133 256.919 47.07 256.572 47.07C255.812 47.07 255.212 46.8467 254.772 46.4C254.339 45.9533 254.122 45.3367 254.122 44.55C254.122 44.05 254.219 43.61 254.412 43.23C254.605 42.8433 254.875 42.5433 255.222 42.33C255.575 42.1167 255.975 42.01 256.422 42.01C257.069 42.01 257.575 42.2233 257.942 42.65C258.309 43.07 258.492 43.65 258.492 44.39V44.69ZM256.432 42.64C256.005 42.64 255.662 42.7733 255.402 43.04C255.149 43.3067 254.999 43.6833 254.952 44.17H257.782C257.769 43.6767 257.645 43.3 257.412 43.04C257.179 42.7733 256.852 42.64 256.432 42.64ZM261.746 47.07C261.266 47.07 260.849 46.9667 260.496 46.76C260.142 46.5533 259.869 46.2633 259.676 45.89C259.489 45.51 259.396 45.0667 259.396 44.56C259.396 44.0533 259.492 43.61 259.686 43.23C259.886 42.8433 260.162 42.5433 260.516 42.33C260.876 42.1167 261.296 42.01 261.776 42.01C262.102 42.01 262.422 42.07 262.736 42.19C263.049 42.3033 263.302 42.4567 263.496 42.65L263.226 43.25C262.766 42.8767 262.299 42.69 261.826 42.69C261.326 42.69 260.936 42.8533 260.656 43.18C260.376 43.5067 260.236 43.9667 260.236 44.56C260.236 45.1467 260.376 45.6 260.656 45.92C260.936 46.24 261.326 46.4 261.826 46.4C262.299 46.4 262.766 46.2133 263.226 45.84L263.496 46.44C263.289 46.6333 263.029 46.7867 262.716 46.9C262.402 47.0133 262.079 47.07 261.746 47.07ZM264.448 45.98H265.468V47H264.448V45.98ZM271.252 47V40.65H268.802V39.95H274.542V40.65H272.082V47H271.252ZM278.776 42.13V47H277.986V46.17C277.832 46.4633 277.616 46.6867 277.336 46.84C277.062 46.9933 276.752 47.07 276.406 47.07C275.826 47.07 275.389 46.91 275.096 46.59C274.802 46.2633 274.656 45.7833 274.656 45.15V42.13H275.466V45.13C275.466 45.5633 275.552 45.8833 275.726 46.09C275.899 46.29 276.172 46.39 276.546 46.39C276.972 46.39 277.316 46.2533 277.576 45.98C277.836 45.7 277.966 45.3333 277.966 44.88V42.13H278.776ZM283.041 42.71L282.511 42.76C282.011 42.8067 281.648 42.9633 281.421 43.23C281.201 43.4967 281.091 43.8267 281.091 44.22V47H280.281V42.13H281.071V42.98C281.345 42.4133 281.881 42.0967 282.681 42.03L282.971 42.01L283.041 42.71ZM286.257 42.01C286.683 42.01 287.06 42.1167 287.387 42.33C287.713 42.5433 287.967 42.8433 288.147 43.23C288.327 43.61 288.417 44.0533 288.417 44.56C288.417 45.0667 288.327 45.51 288.147 45.89C287.967 46.2633 287.713 46.5533 287.387 46.76C287.067 46.9667 286.69 47.07 286.257 47.07C285.877 47.07 285.543 46.9867 285.257 46.82C284.977 46.6533 284.763 46.4167 284.617 46.11V48.8H283.807V42.13H284.617V42.97C284.763 42.6633 284.977 42.4267 285.257 42.26C285.543 42.0933 285.877 42.01 286.257 42.01ZM286.097 46.4C286.57 46.4 286.937 46.24 287.197 45.92C287.457 45.6 287.587 45.1467 287.587 44.56C287.587 43.9733 287.457 43.5167 287.197 43.19C286.937 42.8567 286.57 42.69 286.097 42.69C285.623 42.69 285.257 42.85 284.997 43.17C284.743 43.49 284.617 43.9467 284.617 44.54C284.617 45.1333 284.743 45.5933 284.997 45.92C285.257 46.24 285.623 46.4 286.097 46.4ZM289.627 47V42.13H290.437V47H289.627ZM289.547 40.02H290.527V40.93H289.547V40.02ZM293.601 47.07C292.781 47.07 292.131 46.86 291.651 46.44L291.921 45.84C292.181 46.0467 292.445 46.1967 292.711 46.29C292.985 46.3767 293.291 46.42 293.631 46.42C293.991 46.42 294.265 46.36 294.451 46.24C294.645 46.1133 294.741 45.9333 294.741 45.7C294.741 45.5067 294.678 45.3533 294.551 45.24C294.425 45.1267 294.215 45.0367 293.921 44.97L293.101 44.78C292.688 44.6867 292.371 44.5267 292.151 44.3C291.931 44.0733 291.821 43.7933 291.821 43.46C291.821 43.0267 291.991 42.6767 292.331 42.41C292.671 42.1433 293.125 42.01 293.691 42.01C294.031 42.01 294.355 42.0667 294.661 42.18C294.968 42.2867 295.225 42.4433 295.431 42.65L295.161 43.24C294.715 42.86 294.225 42.67 293.691 42.67C293.351 42.67 293.085 42.7367 292.891 42.87C292.705 42.9967 292.611 43.1767 292.611 43.41C292.611 43.6033 292.668 43.76 292.781 43.88C292.901 43.9933 293.091 44.08 293.351 44.14L294.181 44.34C294.635 44.4467 294.971 44.61 295.191 44.83C295.411 45.0433 295.521 45.3233 295.521 45.67C295.521 46.0967 295.348 46.4367 295.001 46.69C294.661 46.9433 294.195 47.07 293.601 47.07ZM301.784 42.01C302.211 42.01 302.587 42.1167 302.914 42.33C303.241 42.5433 303.494 42.8433 303.674 43.23C303.854 43.61 303.944 44.0533 303.944 44.56C303.944 45.0667 303.854 45.51 303.674 45.89C303.494 46.2633 303.241 46.5533 302.914 46.76C302.594 46.9667 302.217 47.07 301.784 47.07C301.404 47.07 301.071 46.9867 300.784 46.82C300.504 46.6533 300.291 46.4167 300.144 46.11V48.8H299.334V42.13H300.144V42.97C300.291 42.6633 300.504 42.4267 300.784 42.26C301.071 42.0933 301.404 42.01 301.784 42.01ZM301.624 46.4C302.097 46.4 302.464 46.24 302.724 45.92C302.984 45.6 303.114 45.1467 303.114 44.56C303.114 43.9733 302.984 43.5167 302.724 43.19C302.464 42.8567 302.097 42.69 301.624 42.69C301.151 42.69 300.784 42.85 300.524 43.17C300.271 43.49 300.144 43.9467 300.144 44.54C300.144 45.1333 300.271 45.5933 300.524 45.92C300.784 46.24 301.151 46.4 301.624 46.4ZM307.914 42.71L307.384 42.76C306.884 42.8067 306.521 42.9633 306.294 43.23C306.074 43.4967 305.964 43.8267 305.964 44.22V47H305.154V42.13H305.944V42.98C306.218 42.4133 306.754 42.0967 307.554 42.03L307.844 42.01L307.914 42.71ZM312.662 44.69H309.102C309.129 45.2567 309.282 45.6867 309.562 45.98C309.842 46.2667 310.239 46.41 310.752 46.41C311.319 46.41 311.839 46.2167 312.312 45.83L312.582 46.42C312.369 46.62 312.095 46.78 311.762 46.9C311.429 47.0133 311.089 47.07 310.742 47.07C309.982 47.07 309.382 46.8467 308.942 46.4C308.509 45.9533 308.292 45.3367 308.292 44.55C308.292 44.05 308.389 43.61 308.582 43.23C308.775 42.8433 309.045 42.5433 309.392 42.33C309.745 42.1167 310.145 42.01 310.592 42.01C311.239 42.01 311.745 42.2233 312.112 42.65C312.479 43.07 312.662 43.65 312.662 44.39V44.69ZM310.602 42.64C310.175 42.64 309.832 42.7733 309.572 43.04C309.319 43.3067 309.169 43.6833 309.122 44.17H311.952C311.939 43.6767 311.815 43.3 311.582 43.04C311.349 42.7733 311.022 42.64 310.602 42.64ZM315.966 46.42C316.113 46.42 316.26 46.41 316.406 46.39L316.366 47.03C316.213 47.0567 316.046 47.07 315.866 47.07C315.28 47.07 314.836 46.9167 314.536 46.61C314.243 46.3033 314.096 45.8767 314.096 45.33V42.77H313.146V42.13H314.096V40.65H314.906V42.13H316.286V42.77H314.906V45.27C314.906 46.0367 315.26 46.42 315.966 46.42ZM317.225 47V42.13H318.035V47H317.225ZM317.145 40.02H318.125V40.93H317.145V40.02ZM323.649 42.13V47H322.859V46.17C322.705 46.4633 322.489 46.6867 322.209 46.84C321.935 46.9933 321.625 47.07 321.279 47.07C320.699 47.07 320.262 46.91 319.969 46.59C319.675 46.2633 319.529 45.7833 319.529 45.15V42.13H320.339V45.13C320.339 45.5633 320.425 45.8833 320.599 46.09C320.772 46.29 321.045 46.39 321.419 46.39C321.845 46.39 322.189 46.2533 322.449 45.98C322.709 45.7 322.839 45.3333 322.839 44.88V42.13H323.649ZM330.574 42.01C331.654 42.01 332.194 42.6533 332.194 43.94V47H331.384V43.98C331.384 43.5333 331.304 43.2067 331.144 43C330.991 42.7933 330.741 42.69 330.394 42.69C329.988 42.69 329.668 42.8267 329.434 43.1C329.201 43.3733 329.084 43.7467 329.084 44.22V47H328.274V43.98C328.274 43.5267 328.194 43.2 328.034 43C327.874 42.7933 327.621 42.69 327.274 42.69C326.868 42.69 326.548 42.8267 326.314 43.1C326.081 43.3733 325.964 43.7467 325.964 44.22V47H325.154V42.13H325.954V42.9C326.101 42.6133 326.304 42.3933 326.564 42.24C326.824 42.0867 327.124 42.01 327.464 42.01C328.218 42.01 328.714 42.33 328.954 42.97C329.094 42.67 329.308 42.4367 329.594 42.27C329.881 42.0967 330.208 42.01 330.574 42.01ZM4.83 59.69H1.27C1.29667 60.2567 1.45 60.6867 1.73 60.98C2.01 61.2667 2.40667 61.41 2.92 61.41C3.48667 61.41 4.00667 61.2167 4.48 60.83L4.75 61.42C4.53667 61.62 4.26333 61.78 3.93 61.9C3.59667 62.0133 3.25667 62.07 2.91 62.07C2.15 62.07 1.55 61.8467 1.11 61.4C0.676667 60.9533 0.46 60.3367 0.46 59.55C0.46 59.05 0.556667 58.61 0.75 58.23C0.943333 57.8433 1.21333 57.5433 1.56 57.33C1.91333 57.1167 2.31333 57.01 2.76 57.01C3.40667 57.01 3.91333 57.2233 4.28 57.65C4.64667 58.07 4.83 58.65 4.83 59.39V59.69ZM2.77 57.64C2.34333 57.64 2 57.7733 1.74 58.04C1.48667 58.3067 1.33667 58.6833 1.29 59.17H4.12C4.10667 58.6767 3.98333 58.3 3.75 58.04C3.51667 57.7733 3.19 57.64 2.77 57.64ZM8.13414 61.42C8.28081 61.42 8.42747 61.41 8.57414 61.39L8.53414 62.03C8.38081 62.0567 8.21414 62.07 8.03414 62.07C7.44747 62.07 7.00414 61.9167 6.70414 61.61C6.41081 61.3033 6.26414 60.8767 6.26414 60.33V57.77H5.31414V57.13H6.26414V55.65H7.07414V57.13H8.45414V57.77H7.07414V60.27C7.07414 61.0367 7.42747 61.42 8.13414 61.42ZM11.9707 62V57.13H12.7807V62H11.9707ZM11.8907 55.02H12.8707V55.93H11.8907V55.02ZM16.7449 57.01C17.9116 57.01 18.4949 57.6533 18.4949 58.94V62H17.6849V58.99C17.6849 58.5367 17.5949 58.2067 17.4149 58C17.2416 57.7933 16.9616 57.69 16.5749 57.69C16.1283 57.69 15.7716 57.8267 15.5049 58.1C15.2383 58.3733 15.1049 58.7433 15.1049 59.21V62H14.2949V57.13H15.0949V57.93C15.2549 57.63 15.4783 57.4033 15.7649 57.25C16.0516 57.09 16.3783 57.01 16.7449 57.01ZM24.5366 57.01C25.1566 57.01 25.6166 57.17 25.9166 57.49C26.2233 57.8033 26.3766 58.2833 26.3766 58.93V62H25.5866V61.17C25.46 61.4567 25.2666 61.68 25.0066 61.84C24.7466 61.9933 24.4466 62.07 24.1066 62.07C23.7933 62.07 23.5033 62.0067 23.2366 61.88C22.9766 61.7533 22.77 61.5767 22.6166 61.35C22.4633 61.1233 22.3866 60.8733 22.3866 60.6C22.3866 60.2333 22.48 59.95 22.6666 59.75C22.8533 59.5433 23.16 59.3967 23.5866 59.31C24.0133 59.2167 24.6066 59.17 25.3666 59.17H25.5866V58.84C25.5866 58.4333 25.5033 58.14 25.3366 57.96C25.17 57.7733 24.9 57.68 24.5266 57.68C23.9666 57.68 23.41 57.8533 22.8566 58.2L22.5866 57.61C22.84 57.43 23.1433 57.2867 23.4966 57.18C23.8566 57.0667 24.2033 57.01 24.5366 57.01ZM24.2166 61.43C24.6166 61.43 24.9433 61.2967 25.1966 61.03C25.4566 60.7567 25.5866 60.4067 25.5866 59.98V59.69H25.4066C24.82 59.69 24.3733 59.7167 24.0666 59.77C23.76 59.8167 23.54 59.9 23.4066 60.02C23.28 60.1333 23.2166 60.3033 23.2166 60.53C23.2166 60.79 23.31 61.0067 23.4966 61.18C23.69 61.3467 23.93 61.43 24.2166 61.43ZM30.6194 57.71L30.0894 57.76C29.5894 57.8067 29.226 57.9633 28.9994 58.23C28.7794 58.4967 28.6694 58.8267 28.6694 59.22V62H27.8594V57.13H28.6494V57.98C28.9227 57.4133 29.4594 57.0967 30.2594 57.03L30.5494 57.01L30.6194 57.71ZM33.3471 62.07C32.8671 62.07 32.4504 61.9667 32.0971 61.76C31.7438 61.5533 31.4704 61.2633 31.2771 60.89C31.0904 60.51 30.9971 60.0667 30.9971 59.56C30.9971 59.0533 31.0938 58.61 31.2871 58.23C31.4871 57.8433 31.7638 57.5433 32.1171 57.33C32.4771 57.1167 32.8971 57.01 33.3771 57.01C33.7038 57.01 34.0238 57.07 34.3371 57.19C34.6504 57.3033 34.9038 57.4567 35.0971 57.65L34.8271 58.25C34.3671 57.8767 33.9004 57.69 33.4271 57.69C32.9271 57.69 32.5371 57.8533 32.2571 58.18C31.9771 58.5067 31.8371 58.9667 31.8371 59.56C31.8371 60.1467 31.9771 60.6 32.2571 60.92C32.5371 61.24 32.9271 61.4 33.4271 61.4C33.9004 61.4 34.3671 61.2133 34.8271 60.84L35.0971 61.44C34.8904 61.6333 34.6304 61.7867 34.3171 61.9C34.0038 62.0133 33.6804 62.07 33.3471 62.07ZM40.1723 57.13V62H39.3823V61.17C39.2289 61.4633 39.0123 61.6867 38.7323 61.84C38.4589 61.9933 38.1489 62.07 37.8023 62.07C37.2223 62.07 36.7856 61.91 36.4923 61.59C36.1989 61.2633 36.0523 60.7833 36.0523 60.15V57.13H36.8623V60.13C36.8623 60.5633 36.9489 60.8833 37.1223 61.09C37.2956 61.29 37.5689 61.39 37.9423 61.39C38.3689 61.39 38.7123 61.2533 38.9723 60.98C39.2323 60.7 39.3623 60.3333 39.3623 59.88V57.13H40.1723ZM46.2359 57.01C46.8559 57.01 47.3159 57.17 47.6159 57.49C47.9225 57.8033 48.0759 58.2833 48.0759 58.93V62H47.2859V61.17C47.1592 61.4567 46.9659 61.68 46.7059 61.84C46.4459 61.9933 46.1459 62.07 45.8059 62.07C45.4925 62.07 45.2025 62.0067 44.9359 61.88C44.6759 61.7533 44.4692 61.5767 44.3159 61.35C44.1625 61.1233 44.0859 60.8733 44.0859 60.6C44.0859 60.2333 44.1792 59.95 44.3659 59.75C44.5525 59.5433 44.8592 59.3967 45.2859 59.31C45.7125 59.2167 46.3059 59.17 47.0659 59.17H47.2859V58.84C47.2859 58.4333 47.2025 58.14 47.0359 57.96C46.8692 57.7733 46.5992 57.68 46.2259 57.68C45.6659 57.68 45.1092 57.8533 44.5559 58.2L44.2859 57.61C44.5392 57.43 44.8425 57.2867 45.1959 57.18C45.5559 57.0667 45.9025 57.01 46.2359 57.01ZM45.9159 61.43C46.3159 61.43 46.6425 61.2967 46.8959 61.03C47.1559 60.7567 47.2859 60.4067 47.2859 59.98V59.69H47.1059C46.5192 59.69 46.0725 59.7167 45.7659 59.77C45.4592 59.8167 45.2392 59.9 45.1059 60.02C44.9792 60.1333 44.9159 60.3033 44.9159 60.53C44.9159 60.79 45.0092 61.0067 45.1959 61.18C45.3892 61.3467 45.6292 61.43 45.9159 61.43ZM53.8786 54.95V62H53.0686V61.11C52.9219 61.4167 52.7053 61.6533 52.4186 61.82C52.1386 61.9867 51.8086 62.07 51.4286 62.07C51.0019 62.07 50.6253 61.9633 50.2986 61.75C49.9719 61.5367 49.7186 61.24 49.5386 60.86C49.3586 60.4733 49.2686 60.0267 49.2686 59.52C49.2686 59.02 49.3586 58.58 49.5386 58.2C49.7186 57.82 49.9719 57.5267 50.2986 57.32C50.6253 57.1133 51.0019 57.01 51.4286 57.01C51.8086 57.01 52.1386 57.0933 52.4186 57.26C52.7053 57.4267 52.9219 57.6633 53.0686 57.97V54.95H53.8786ZM51.5886 61.4C52.0619 61.4 52.4253 61.24 52.6786 60.92C52.9386 60.5933 53.0686 60.1333 53.0686 59.54C53.0686 58.9467 52.9386 58.49 52.6786 58.17C52.4253 57.85 52.0619 57.69 51.5886 57.69C51.1153 57.69 50.7453 57.85 50.4786 58.17C50.2186 58.49 50.0886 58.94 50.0886 59.52C50.0886 60.1133 50.2186 60.5767 50.4786 60.91C50.7453 61.2367 51.1153 61.4 51.5886 61.4ZM55.3789 62V57.13H56.1889V62H55.3789ZM55.2989 55.02H56.2789V55.93H55.2989V55.02ZM60.1531 57.01C60.5798 57.01 60.9565 57.1167 61.2831 57.33C61.6098 57.5433 61.8631 57.8433 62.0431 58.23C62.2231 58.61 62.3131 59.0533 62.3131 59.56C62.3131 60.0667 62.2231 60.51 62.0431 60.89C61.8631 61.2633 61.6098 61.5533 61.2831 61.76C60.9631 61.9667 60.5865 62.07 60.1531 62.07C59.7731 62.07 59.4398 61.9867 59.1531 61.82C58.8731 61.6533 58.6598 61.4167 58.5131 61.11V63.8H57.7031V57.13H58.5131V57.97C58.6598 57.6633 58.8731 57.4267 59.1531 57.26C59.4398 57.0933 59.7731 57.01 60.1531 57.01ZM59.9931 61.4C60.4665 61.4 60.8331 61.24 61.0931 60.92C61.3531 60.6 61.4831 60.1467 61.4831 59.56C61.4831 58.9733 61.3531 58.5167 61.0931 58.19C60.8331 57.8567 60.4665 57.69 59.9931 57.69C59.5198 57.69 59.1531 57.85 58.8931 58.17C58.6398 58.49 58.5131 58.9467 58.5131 59.54C58.5131 60.1333 58.6398 60.5933 58.8931 60.92C59.1531 61.24 59.5198 61.4 59.9931 61.4ZM63.5234 62V57.13H64.3334V62H63.5234ZM63.4434 55.02H64.4234V55.93H63.4434V55.02ZM67.4977 62.07C66.6777 62.07 66.0277 61.86 65.5477 61.44L65.8177 60.84C66.0777 61.0467 66.341 61.1967 66.6077 61.29C66.881 61.3767 67.1877 61.42 67.5277 61.42C67.8877 61.42 68.161 61.36 68.3477 61.24C68.541 61.1133 68.6377 60.9333 68.6377 60.7C68.6377 60.5067 68.5743 60.3533 68.4477 60.24C68.321 60.1267 68.111 60.0367 67.8177 59.97L66.9977 59.78C66.5843 59.6867 66.2677 59.5267 66.0477 59.3C65.8277 59.0733 65.7177 58.7933 65.7177 58.46C65.7177 58.0267 65.8877 57.6767 66.2277 57.41C66.5677 57.1433 67.021 57.01 67.5877 57.01C67.9277 57.01 68.251 57.0667 68.5577 57.18C68.8643 57.2867 69.121 57.4433 69.3277 57.65L69.0577 58.24C68.611 57.86 68.121 57.67 67.5877 57.67C67.2477 57.67 66.981 57.7367 66.7877 57.87C66.601 57.9967 66.5077 58.1767 66.5077 58.41C66.5077 58.6033 66.5643 58.76 66.6777 58.88C66.7977 58.9933 66.9877 59.08 67.2477 59.14L68.0777 59.34C68.531 59.4467 68.8677 59.61 69.0877 59.83C69.3077 60.0433 69.4177 60.3233 69.4177 60.67C69.4177 61.0967 69.2443 61.4367 68.8977 61.69C68.5577 61.9433 68.091 62.07 67.4977 62.07ZM72.7123 62.07C72.2323 62.07 71.8157 61.9667 71.4623 61.76C71.109 61.5533 70.8357 61.2633 70.6423 60.89C70.4557 60.51 70.3623 60.0667 70.3623 59.56C70.3623 59.0533 70.459 58.61 70.6523 58.23C70.8523 57.8433 71.129 57.5433 71.4823 57.33C71.8423 57.1167 72.2623 57.01 72.7423 57.01C73.069 57.01 73.389 57.07 73.7023 57.19C74.0157 57.3033 74.269 57.4567 74.4623 57.65L74.1923 58.25C73.7323 57.8767 73.2657 57.69 72.7923 57.69C72.2923 57.69 71.9023 57.8533 71.6223 58.18C71.3423 58.5067 71.2023 58.9667 71.2023 59.56C71.2023 60.1467 71.3423 60.6 71.6223 60.92C71.9023 61.24 72.2923 61.4 72.7923 61.4C73.2657 61.4 73.7323 61.2133 74.1923 60.84L74.4623 61.44C74.2557 61.6333 73.9957 61.7867 73.6823 61.9C73.369 62.0133 73.0457 62.07 72.7123 62.07ZM75.4375 62V57.13H76.2475V62H75.4375ZM75.3575 55.02H76.3375V55.93H75.3575V55.02ZM80.2117 57.01C81.3784 57.01 81.9617 57.6533 81.9617 58.94V62H81.1517V58.99C81.1517 58.5367 81.0617 58.2067 80.8817 58C80.7084 57.7933 80.4284 57.69 80.0417 57.69C79.5951 57.69 79.2384 57.8267 78.9717 58.1C78.7051 58.3733 78.5717 58.7433 78.5717 59.21V62H77.7617V57.13H78.5617V57.93C78.7217 57.63 78.9451 57.4033 79.2317 57.25C79.5184 57.09 79.8451 57.01 80.2117 57.01ZM87.8053 57.13V61.67C87.8053 62.3967 87.6186 62.9433 87.2453 63.31C86.872 63.6833 86.3186 63.87 85.5853 63.87C84.732 63.87 84.0153 63.65 83.4353 63.21L83.7053 62.61C84.032 62.8233 84.3386 62.9767 84.6253 63.07C84.912 63.1633 85.232 63.21 85.5853 63.21C86.052 63.21 86.4053 63.0833 86.6453 62.83C86.8853 62.5833 87.0053 62.22 87.0053 61.74V60.88C86.8653 61.1933 86.6486 61.4333 86.3553 61.6C86.0686 61.7667 85.7286 61.85 85.3353 61.85C84.9086 61.85 84.5286 61.75 84.1953 61.55C83.8686 61.35 83.612 61.0667 83.4253 60.7C83.2453 60.3333 83.1553 59.91 83.1553 59.43C83.1553 58.95 83.2453 58.5267 83.4253 58.16C83.612 57.7933 83.8686 57.51 84.1953 57.31C84.5286 57.11 84.9086 57.01 85.3353 57.01C85.722 57.01 86.0586 57.0933 86.3453 57.26C86.632 57.4267 86.8486 57.6633 86.9953 57.97V57.13H87.8053ZM85.4953 61.18C85.962 61.18 86.3286 61.0267 86.5953 60.72C86.862 60.4067 86.9953 59.9767 86.9953 59.43C86.9953 58.89 86.862 58.4667 86.5953 58.16C86.3353 57.8467 85.9686 57.69 85.4953 57.69C85.022 57.69 84.6486 57.8467 84.3753 58.16C84.1086 58.4667 83.9753 58.89 83.9753 59.43C83.9753 59.9767 84.1086 60.4067 84.3753 60.72C84.6486 61.0267 85.022 61.18 85.4953 61.18ZM94.3328 57.01C95.4995 57.01 96.0828 57.6533 96.0828 58.94V62H95.2728V58.99C95.2728 58.5367 95.1828 58.2067 95.0028 58C94.8295 57.7933 94.5495 57.69 94.1628 57.69C93.7161 57.69 93.3595 57.8267 93.0928 58.1C92.8261 58.3733 92.6928 58.7433 92.6928 59.21V62H91.8828V57.13H92.6828V57.93C92.8428 57.63 93.0661 57.4033 93.3528 57.25C93.6395 57.09 93.9661 57.01 94.3328 57.01ZM101.646 59.69H98.0864C98.1131 60.2567 98.2664 60.6867 98.5464 60.98C98.8264 61.2667 99.2231 61.41 99.7364 61.41C100.303 61.41 100.823 61.2167 101.296 60.83L101.566 61.42C101.353 61.62 101.08 61.78 100.746 61.9C100.413 62.0133 100.073 62.07 99.7264 62.07C98.9664 62.07 98.3664 61.8467 97.9264 61.4C97.4931 60.9533 97.2764 60.3367 97.2764 59.55C97.2764 59.05 97.3731 58.61 97.5664 58.23C97.7597 57.8433 98.0297 57.5433 98.3764 57.33C98.7297 57.1167 99.1297 57.01 99.5764 57.01C100.223 57.01 100.73 57.2233 101.096 57.65C101.463 58.07 101.646 58.65 101.646 59.39V59.69ZM99.5864 57.64C99.1597 57.64 98.8164 57.7733 98.5564 58.04C98.3031 58.3067 98.1531 58.6833 98.1064 59.17H100.936C100.923 58.6767 100.8 58.3 100.566 58.04C100.333 57.7733 100.006 57.64 99.5864 57.64ZM104.9 62.07C104.42 62.07 104.003 61.9667 103.65 61.76C103.297 61.5533 103.023 61.2633 102.83 60.89C102.643 60.51 102.55 60.0667 102.55 59.56C102.55 59.0533 102.647 58.61 102.84 58.23C103.04 57.8433 103.317 57.5433 103.67 57.33C104.03 57.1167 104.45 57.01 104.93 57.01C105.257 57.01 105.577 57.07 105.89 57.19C106.203 57.3033 106.457 57.4567 106.65 57.65L106.38 58.25C105.92 57.8767 105.453 57.69 104.98 57.69C104.48 57.69 104.09 57.8533 103.81 58.18C103.53 58.5067 103.39 58.9667 103.39 59.56C103.39 60.1467 103.53 60.6 103.81 60.92C104.09 61.24 104.48 61.4 104.98 61.4C105.453 61.4 105.92 61.2133 106.38 60.84L106.65 61.44C106.443 61.6333 106.183 61.7867 105.87 61.9C105.557 62.0133 105.233 62.07 104.9 62.07ZM107.603 60.98H108.623V62H107.603V60.98Z" fill="#808080"/>
<path d="M308.93 62.13H311.072V72H308.93V67.856H304.38V72H302.238V62.13H304.38V66.12H308.93V62.13ZM317.575 72.126C316.595 72.126 315.741 71.9207 315.013 71.51C314.294 71.09 313.739 70.502 313.347 69.746C312.955 68.9807 312.759 68.0847 312.759 67.058C312.759 66.0313 312.955 65.14 313.347 64.384C313.739 63.6187 314.294 63.0307 315.013 62.62C315.741 62.2093 316.595 62.004 317.575 62.004C318.555 62.004 319.404 62.2093 320.123 62.62C320.851 63.0307 321.411 63.6187 321.803 64.384C322.195 65.14 322.391 66.0313 322.391 67.058C322.391 68.0847 322.195 68.9807 321.803 69.746C321.411 70.502 320.851 71.09 320.123 71.51C319.404 71.9207 318.555 72.126 317.575 72.126ZM317.575 70.432C318.396 70.432 319.04 70.1427 319.507 69.564C319.983 68.9853 320.221 68.15 320.221 67.058C320.221 65.966 319.987 65.1353 319.521 64.566C319.054 63.9873 318.405 63.698 317.575 63.698C316.744 63.698 316.095 63.9873 315.629 64.566C315.171 65.1353 314.943 65.966 314.943 67.058C314.943 68.15 315.176 68.9853 315.643 69.564C316.109 70.1427 316.753 70.432 317.575 70.432ZM325.78 72V63.908H322.686V62.13H331.058V63.908H327.964V72H325.78ZM332.539 68.808L331.881 62.116L334.485 62.13L333.813 68.808H332.539ZM332.049 69.76H334.317V72H332.049V69.76Z" fill="#EB5757"/>
</svg>
