<svg width="375" height="44" viewBox="0 0 375 44" fill="none" xmlns="http://www.w3.org/2000/svg">
<rect width="375" height="44" fill="white"/>
<path d="M25.1666 13.6667C29.3066 13.6667 32.6666 17.0267 32.6666 21.1667C32.6666 25.3067 29.3066 28.6667 25.1666 28.6667C21.0266 28.6667 17.6666 25.3067 17.6666 21.1667C17.6666 17.0267 21.0266 13.6667 25.1666 13.6667ZM25.1666 27C28.3891 27 31 24.3892 31 21.1667C31 17.9434 28.3891 15.3334 25.1666 15.3334C21.9433 15.3334 19.3333 17.9434 19.3333 21.1667C19.3333 24.3892 21.9433 27 25.1666 27ZM32.2375 27.0592L34.595 29.4159L33.4158 30.595L31.0591 28.2375L32.2375 27.0592Z" fill="#242424"/>
<path d="M140.677 17.312L139.413 17.104V16.112H143.045L147.813 23.312L148.709 25.136V17.312L147.333 17.104V16.112H151.301V17.104L150.069 17.312V28H148.133L143.157 20.432L142.037 18.32V26.88L143.653 27.04V28H139.413V27.04L140.677 26.88V17.312ZM152.337 23.568C152.337 22.5653 152.535 21.712 152.929 21.008C153.335 20.304 153.873 19.776 154.545 19.424C155.217 19.0613 155.948 18.88 156.737 18.88C158.081 18.88 159.116 19.296 159.841 20.128C160.577 20.9493 160.945 22.0693 160.945 23.488C160.945 24.5013 160.743 25.3653 160.337 26.08C159.943 26.784 159.409 27.312 158.737 27.664C158.076 28.0053 157.345 28.176 156.545 28.176C155.212 28.176 154.177 27.7653 153.441 26.944C152.705 26.112 152.337 24.9867 152.337 23.568ZM156.673 27.136C157.879 27.136 158.481 25.9733 158.481 23.648C158.481 22.432 158.337 21.5093 158.049 20.88C157.761 20.24 157.292 19.92 156.641 19.92C155.404 19.92 154.785 21.0827 154.785 23.408C154.785 24.624 154.935 25.552 155.233 26.192C155.543 26.8213 156.023 27.136 156.673 27.136ZM165.088 28.144C164.416 28.144 163.92 27.9893 163.6 27.68C163.28 27.3707 163.12 26.88 163.12 26.208V20.336H162.08V19.504C162.165 19.472 162.32 19.4187 162.544 19.344C162.768 19.2587 162.938 19.1893 163.056 19.136C163.237 18.9973 163.392 18.7573 163.52 18.416C163.616 18.192 163.792 17.6373 164.048 16.752H165.328L165.392 19.104H167.84V20.336H165.408V24.832C165.408 25.4293 165.424 25.8507 165.456 26.096C165.488 26.3413 165.557 26.5013 165.664 26.576C165.77 26.64 165.957 26.672 166.224 26.672C166.49 26.672 166.768 26.6453 167.056 26.592C167.344 26.528 167.584 26.4533 167.776 26.368L168.08 27.264C167.781 27.488 167.344 27.6907 166.768 27.872C166.192 28.0533 165.632 28.144 165.088 28.144ZM170.835 17.648C170.451 17.648 170.147 17.536 169.923 17.312C169.699 17.088 169.587 16.8 169.587 16.448C169.587 16.0427 169.715 15.7067 169.971 15.44C170.227 15.1733 170.568 15.04 170.995 15.04C171.422 15.04 171.747 15.1573 171.971 15.392C172.195 15.616 172.307 15.8987 172.307 16.24C172.307 16.6667 172.179 17.008 171.923 17.264C171.667 17.52 171.31 17.648 170.851 17.648H170.835ZM169.987 20.624L168.851 20.32V19.248L171.779 18.896H171.811L172.259 19.216V26.912L173.331 27.04V28H168.867V27.04L169.987 26.896V20.624ZM175.582 20.352H174.238V19.456L175.582 19.136V18.432C175.582 17.7387 175.763 17.104 176.126 16.528C176.499 15.952 176.995 15.4987 177.614 15.168C178.232 14.8267 178.888 14.656 179.582 14.656C179.944 14.656 180.286 14.7093 180.606 14.816V16.864C180.499 16.7573 180.286 16.6507 179.966 16.544C179.656 16.4373 179.331 16.384 178.99 16.384C178.574 16.384 178.275 16.4907 178.094 16.704C177.923 16.9067 177.838 17.2587 177.838 17.76V19.12H179.87V20.352H177.838V26.912L179.518 27.04V28H174.318V27.04L175.582 26.896V20.352ZM182.91 17.648C182.526 17.648 182.222 17.536 181.998 17.312C181.774 17.088 181.662 16.8 181.662 16.448C181.662 16.0427 181.79 15.7067 182.046 15.44C182.302 15.1733 182.643 15.04 183.07 15.04C183.496 15.04 183.822 15.1573 184.046 15.392C184.27 15.616 184.382 15.8987 184.382 16.24C184.382 16.6667 184.254 17.008 183.998 17.264C183.742 17.52 183.384 17.648 182.926 17.648H182.91ZM182.062 20.624L180.926 20.32V19.248L183.854 18.896H183.886L184.334 19.216V26.912L185.406 27.04V28H180.942V27.04L182.062 26.896V20.624ZM186.348 23.6C186.348 22.6827 186.529 21.8667 186.892 21.152C187.265 20.4373 187.793 19.8827 188.476 19.488C189.169 19.0827 189.975 18.88 190.892 18.88C191.319 18.88 191.687 18.912 191.996 18.976C192.305 19.04 192.652 19.1253 193.036 19.232L193.5 19.36L193.404 22.096H192.012L191.612 20.336C191.548 20.0587 191.233 19.92 190.668 19.92C190.071 19.92 189.601 20.1813 189.26 20.704C188.929 21.2267 188.759 22.0427 188.748 23.152C188.748 24.3253 188.951 25.2267 189.356 25.856C189.761 26.4747 190.3 26.784 190.972 26.784C191.783 26.784 192.529 26.5653 193.212 26.128L193.58 26.96C193.303 27.2587 192.876 27.536 192.3 27.792C191.735 28.048 191.121 28.176 190.46 28.176C189.095 28.176 188.065 27.7547 187.372 26.912C186.689 26.0693 186.348 24.9653 186.348 23.6ZM194.677 25.504C194.677 24.5333 195.162 23.8027 196.133 23.312C197.114 22.8213 198.378 22.5707 199.925 22.56V22.192C199.925 21.7547 199.877 21.4133 199.781 21.168C199.695 20.9227 199.53 20.7413 199.285 20.624C199.05 20.496 198.703 20.432 198.245 20.432C197.722 20.432 197.253 20.5013 196.837 20.64C196.421 20.768 195.989 20.9387 195.541 21.152L195.045 20.128C195.205 19.9893 195.471 19.824 195.845 19.632C196.229 19.44 196.682 19.2747 197.205 19.136C197.727 18.9867 198.266 18.912 198.821 18.912C199.642 18.912 200.282 19.0187 200.741 19.232C201.21 19.4453 201.546 19.7867 201.749 20.256C201.951 20.7253 202.053 21.3547 202.053 22.144V27.04H202.917V27.936C202.703 27.9893 202.399 28.0427 202.005 28.096C201.61 28.1493 201.263 28.176 200.965 28.176C200.602 28.176 200.357 28.1227 200.229 28.016C200.111 27.9093 200.053 27.6907 200.053 27.36V26.928C199.765 27.248 199.391 27.536 198.933 27.792C198.474 28.048 197.957 28.176 197.381 28.176C196.89 28.176 196.437 28.0747 196.021 27.872C195.615 27.6587 195.29 27.3547 195.045 26.96C194.799 26.5547 194.677 26.0693 194.677 25.504ZM198.405 26.848C198.629 26.848 198.885 26.784 199.173 26.656C199.461 26.5173 199.711 26.352 199.925 26.16V23.536C198.965 23.536 198.245 23.7013 197.765 24.032C197.295 24.352 197.061 24.768 197.061 25.28C197.061 25.792 197.178 26.1813 197.413 26.448C197.658 26.7147 197.989 26.848 198.405 26.848ZM206.603 28.144C205.931 28.144 205.435 27.9893 205.115 27.68C204.795 27.3707 204.635 26.88 204.635 26.208V20.336H203.595V19.504C203.681 19.472 203.835 19.4187 204.059 19.344C204.283 19.2587 204.454 19.1893 204.571 19.136C204.753 18.9973 204.907 18.7573 205.035 18.416C205.131 18.192 205.307 17.6373 205.563 16.752H206.843L206.907 19.104H209.355V20.336H206.923V24.832C206.923 25.4293 206.939 25.8507 206.971 26.096C207.003 26.3413 207.073 26.5013 207.179 26.576C207.286 26.64 207.473 26.672 207.739 26.672C208.006 26.672 208.283 26.6453 208.571 26.592C208.859 26.528 209.099 26.4533 209.291 26.368L209.595 27.264C209.297 27.488 208.859 27.6907 208.283 27.872C207.707 28.0533 207.147 28.144 206.603 28.144ZM212.351 17.648C211.967 17.648 211.663 17.536 211.439 17.312C211.215 17.088 211.103 16.8 211.103 16.448C211.103 16.0427 211.231 15.7067 211.487 15.44C211.743 15.1733 212.084 15.04 212.511 15.04C212.937 15.04 213.263 15.1573 213.487 15.392C213.711 15.616 213.823 15.8987 213.823 16.24C213.823 16.6667 213.695 17.008 213.439 17.264C213.183 17.52 212.825 17.648 212.367 17.648H212.351ZM211.503 20.624L210.367 20.32V19.248L213.295 18.896H213.327L213.775 19.216V26.912L214.847 27.04V28H210.383V27.04L211.503 26.896V20.624ZM215.993 23.568C215.993 22.5653 216.191 21.712 216.585 21.008C216.991 20.304 217.529 19.776 218.201 19.424C218.873 19.0613 219.604 18.88 220.393 18.88C221.737 18.88 222.772 19.296 223.497 20.128C224.233 20.9493 224.601 22.0693 224.601 23.488C224.601 24.5013 224.399 25.3653 223.993 26.08C223.599 26.784 223.065 27.312 222.393 27.664C221.732 28.0053 221.001 28.176 220.201 28.176C218.868 28.176 217.833 27.7653 217.097 26.944C216.361 26.112 215.993 24.9867 215.993 23.568ZM220.329 27.136C221.535 27.136 222.137 25.9733 222.137 23.648C222.137 22.432 221.993 21.5093 221.705 20.88C221.417 20.24 220.948 19.92 220.297 19.92C219.06 19.92 218.441 21.0827 218.441 23.408C218.441 24.624 218.591 25.552 218.889 26.192C219.199 26.8213 219.679 27.136 220.329 27.136ZM226.952 20.624L225.928 20.336V19.232L228.584 18.896H228.632L229.032 19.216V19.84L229.016 20.224C229.389 19.872 229.875 19.568 230.472 19.312C231.069 19.056 231.672 18.928 232.28 18.928C232.931 18.928 233.437 19.0507 233.8 19.296C234.173 19.5307 234.44 19.904 234.6 20.416C234.76 20.928 234.84 21.6213 234.84 22.496V26.912L235.816 27.04V28H231.688V27.04L232.552 26.912V22.496C232.552 21.9413 232.515 21.5093 232.44 21.2C232.365 20.88 232.227 20.6507 232.024 20.512C231.832 20.3627 231.555 20.288 231.192 20.288C230.584 20.288 229.933 20.5493 229.24 21.072V26.896L230.2 27.04V28H226.024V27.04L226.952 26.896V20.624Z" fill="#303030"/>
</svg>
