<svg width="375" height="150" viewBox="0 0 375 150" fill="none" xmlns="http://www.w3.org/2000/svg">
<path d="M22.476 5.31H27.732C29.076 5.31 30.12 5.64 30.864 6.3C31.608 6.96 31.98 7.896 31.98 9.108C31.98 10.308 31.608 11.244 30.864 11.916C30.12 12.588 29.076 12.924 27.732 12.924H24.33V18H22.476V5.31ZM27.534 11.43C29.31 11.43 30.198 10.656 30.198 9.108C30.198 7.572 29.31 6.804 27.534 6.804H24.33V11.43H27.534ZM37.4633 9C38.6393 9 39.5093 9.294 40.0733 9.882C40.6493 10.47 40.9373 11.364 40.9373 12.564V18H39.1913V16.542C38.9633 17.058 38.6213 17.454 38.1653 17.73C37.7213 17.994 37.1993 18.126 36.5993 18.126C36.0233 18.126 35.4953 18.012 35.0153 17.784C34.5353 17.544 34.1573 17.214 33.8813 16.794C33.6173 16.374 33.4853 15.906 33.4853 15.39C33.4853 14.754 33.6473 14.256 33.9713 13.896C34.3073 13.524 34.8533 13.26 35.6093 13.104C36.3773 12.948 37.4273 12.87 38.7593 12.87H39.1733V12.348C39.1733 11.676 39.0293 11.19 38.7413 10.89C38.4653 10.59 38.0093 10.44 37.3733 10.44C36.3773 10.44 35.3813 10.746 34.3853 11.358L33.8453 10.08C34.3133 9.756 34.8773 9.498 35.5373 9.306C36.2093 9.102 36.8513 9 37.4633 9ZM36.9233 16.776C37.5833 16.776 38.1233 16.554 38.5433 16.11C38.9633 15.654 39.1733 15.072 39.1733 14.364V13.896H38.8493C37.9133 13.896 37.1933 13.938 36.6893 14.022C36.1853 14.106 35.8253 14.25 35.6093 14.454C35.3933 14.646 35.2853 14.928 35.2853 15.3C35.2853 15.72 35.4353 16.074 35.7353 16.362C36.0473 16.638 36.4433 16.776 36.9233 16.776ZM49.6521 9.234H51.4701L46.2321 21.24H44.3961L45.9261 17.784L42.2361 9.234H44.1441L46.8801 15.948L49.6521 9.234ZM62.8556 9C64.8236 9 65.8076 10.182 65.8076 12.546V18H63.9896V12.618C63.9896 11.874 63.8576 11.334 63.5936 10.998C63.3416 10.65 62.9276 10.476 62.3516 10.476C61.6916 10.476 61.1696 10.704 60.7856 11.16C60.4016 11.616 60.2096 12.24 60.2096 13.032V18H58.3916V12.618C58.3916 11.874 58.2596 11.334 57.9956 10.998C57.7316 10.65 57.3176 10.476 56.7536 10.476C56.0816 10.476 55.5536 10.704 55.1696 11.16C54.7856 11.616 54.5936 12.24 54.5936 13.032V18H52.7756V9.216H54.5576V10.548C54.8336 10.056 55.2056 9.678 55.6736 9.414C56.1416 9.138 56.6756 9 57.2756 9C58.6316 9 59.5136 9.564 59.9216 10.692C60.1976 10.164 60.5936 9.75 61.1096 9.45C61.6256 9.15 62.2076 9 62.8556 9ZM75.8211 13.914H69.6111C69.7431 15.774 70.6671 16.704 72.3831 16.704C73.3911 16.704 74.3031 16.374 75.1191 15.714L75.6771 16.992C75.2691 17.34 74.7651 17.616 74.1651 17.82C73.5651 18.024 72.9531 18.126 72.3291 18.126C70.9251 18.126 69.8151 17.724 68.9991 16.92C68.1951 16.116 67.7931 15.006 67.7931 13.59C67.7931 12.69 67.9671 11.892 68.3151 11.196C68.6751 10.5 69.1731 9.96 69.8091 9.576C70.4571 9.192 71.1891 9 72.0051 9C73.1931 9 74.1231 9.384 74.7951 10.152C75.4791 10.92 75.8211 11.982 75.8211 13.338V13.914ZM72.0411 10.332C71.3451 10.332 70.7871 10.554 70.3671 10.998C69.9591 11.43 69.7131 12.054 69.6291 12.87H74.2551C74.2191 12.054 74.0091 11.43 73.6251 10.998C73.2531 10.554 72.7251 10.332 72.0411 10.332ZM82.5585 9C84.6585 9 85.7085 10.182 85.7085 12.546V18H83.8905V12.636C83.8905 11.892 83.7405 11.346 83.4405 10.998C83.1525 10.65 82.6965 10.476 82.0725 10.476C81.3405 10.476 80.7525 10.704 80.3085 11.16C79.8645 11.616 79.6425 12.228 79.6425 12.996V18H77.8245V9.216H79.6065V10.62C79.8945 10.092 80.2965 9.69 80.8125 9.414C81.3285 9.138 81.9105 9 82.5585 9ZM92.3535 16.722C92.6295 16.722 92.8995 16.704 93.1635 16.668L93.0735 18.054C92.7735 18.102 92.4615 18.126 92.1375 18.126C90.9975 18.126 90.1455 17.85 89.5815 17.298C89.0295 16.734 88.7535 15.924 88.7535 14.868V10.62H87.0435V9.216H88.7535V6.57H90.5715V9.216H92.9835V10.62H90.5715V14.796C90.5715 16.08 91.1655 16.722 92.3535 16.722Z" fill="#909090"/>
<g filter="url(#filter0_d_1_32)">
<rect x="20" y="34" width="335" height="68" rx="8" fill="white"/>
</g>
<path d="M126.866 66.048V67.084L124.906 67L125.956 68.652L125.06 69.17L124.15 67.42L123.24 69.17L122.358 68.652L123.408 67L121.448 67.084V66.048L123.422 66.146L122.372 64.48L123.254 63.962L124.164 65.712L125.06 63.962L125.956 64.494L124.906 66.146L126.866 66.048ZM133.032 66.048V67.084L131.072 67L132.122 68.652L131.226 69.17L130.316 67.42L129.406 69.17L128.524 68.652L129.574 67L127.614 67.084V66.048L129.588 66.146L128.538 64.48L129.42 63.962L130.33 65.712L131.226 63.962L132.122 64.494L131.072 66.146L133.032 66.048ZM139.199 66.048V67.084L137.239 67L138.289 68.652L137.393 69.17L136.483 67.42L135.573 69.17L134.691 68.652L135.741 67L133.781 67.084V66.048L135.755 66.146L134.705 64.48L135.587 63.962L136.497 65.712L137.393 63.962L138.289 64.494L137.239 66.146L139.199 66.048ZM145.365 66.048V67.084L143.405 67L144.455 68.652L143.559 69.17L142.649 67.42L141.739 69.17L140.857 68.652L141.907 67L139.947 67.084V66.048L141.921 66.146L140.871 64.48L141.753 63.962L142.663 65.712L143.559 63.962L144.455 64.494L143.405 66.146L145.365 66.048ZM155.073 66.048V67.084L153.113 67L154.163 68.652L153.267 69.17L152.357 67.42L151.447 69.17L150.565 68.652L151.615 67L149.655 67.084V66.048L151.629 66.146L150.579 64.48L151.461 63.962L152.371 65.712L153.267 63.962L154.163 64.494L153.113 66.146L155.073 66.048ZM161.239 66.048V67.084L159.279 67L160.329 68.652L159.433 69.17L158.523 67.42L157.613 69.17L156.731 68.652L157.781 67L155.821 67.084V66.048L157.795 66.146L156.745 64.48L157.627 63.962L158.537 65.712L159.433 63.962L160.329 64.494L159.279 66.146L161.239 66.048ZM167.406 66.048V67.084L165.446 67L166.496 68.652L165.6 69.17L164.69 67.42L163.78 69.17L162.898 68.652L163.948 67L161.988 67.084V66.048L163.962 66.146L162.912 64.48L163.794 63.962L164.704 65.712L165.6 63.962L166.496 64.494L165.446 66.146L167.406 66.048ZM173.572 66.048V67.084L171.612 67L172.662 68.652L171.766 69.17L170.856 67.42L169.946 69.17L169.064 68.652L170.114 67L168.154 67.084V66.048L170.128 66.146L169.078 64.48L169.96 63.962L170.87 65.712L171.766 63.962L172.662 64.494L171.612 66.146L173.572 66.048ZM183.28 66.048V67.084L181.32 67L182.37 68.652L181.474 69.17L180.564 67.42L179.654 69.17L178.772 68.652L179.822 67L177.862 67.084V66.048L179.836 66.146L178.786 64.48L179.668 63.962L180.578 65.712L181.474 63.962L182.37 64.494L181.32 66.146L183.28 66.048ZM189.446 66.048V67.084L187.486 67L188.536 68.652L187.64 69.17L186.73 67.42L185.82 69.17L184.938 68.652L185.988 67L184.028 67.084V66.048L186.002 66.146L184.952 64.48L185.834 63.962L186.744 65.712L187.64 63.962L188.536 64.494L187.486 66.146L189.446 66.048ZM195.613 66.048V67.084L193.653 67L194.703 68.652L193.807 69.17L192.897 67.42L191.987 69.17L191.105 68.652L192.155 67L190.195 67.084V66.048L192.169 66.146L191.119 64.48L192.001 63.962L192.911 65.712L193.807 63.962L194.703 64.494L193.653 66.146L195.613 66.048ZM201.779 66.048V67.084L199.819 67L200.869 68.652L199.973 69.17L199.063 67.42L198.153 69.17L197.271 68.652L198.321 67L196.361 67.084V66.048L198.335 66.146L197.285 64.48L198.167 63.962L199.077 65.712L199.973 63.962L200.869 64.494L199.819 66.146L201.779 66.048ZM211.277 68.932C211.856 69.1 212.294 69.3893 212.593 69.8C212.901 70.2013 213.055 70.71 213.055 71.326C213.055 72.1847 212.752 72.8613 212.145 73.356C211.538 73.8507 210.717 74.098 209.681 74.098C209.028 74.098 208.402 73.9953 207.805 73.79C207.208 73.5753 206.708 73.2813 206.307 72.908L206.825 71.844C207.712 72.5627 208.65 72.922 209.639 72.922C210.302 72.922 210.801 72.782 211.137 72.502C211.482 72.2127 211.655 71.788 211.655 71.228C211.655 70.6773 211.478 70.2667 211.123 69.996C210.778 69.716 210.25 69.576 209.541 69.576H208.323V68.414H209.317C209.998 68.414 210.516 68.274 210.871 67.994C211.235 67.7047 211.417 67.2847 211.417 66.734C211.417 66.2393 211.268 65.8613 210.969 65.6C210.67 65.3293 210.25 65.194 209.709 65.194C208.766 65.194 207.852 65.5533 206.965 66.272L206.461 65.208C206.853 64.8347 207.343 64.5453 207.931 64.34C208.528 64.1253 209.144 64.018 209.779 64.018C210.703 64.018 211.44 64.2467 211.991 64.704C212.542 65.1613 212.817 65.782 212.817 66.566C212.817 67.1167 212.682 67.602 212.411 68.022C212.14 68.442 211.762 68.7453 211.277 68.932ZM217.758 64.018C218.98 64.018 219.918 64.438 220.572 65.278C221.234 66.1087 221.566 67.2987 221.566 68.848C221.566 69.9493 221.407 70.8967 221.09 71.69C220.782 72.474 220.334 73.076 219.746 73.496C219.167 73.9067 218.467 74.112 217.646 74.112C217.067 74.112 216.502 74.0093 215.952 73.804C215.41 73.5987 214.934 73.3047 214.524 72.922L215.028 71.858C215.924 72.5767 216.782 72.936 217.604 72.936C218.406 72.936 219.027 72.586 219.466 71.886C219.904 71.1767 220.124 70.1733 220.124 68.876V68.848C219.918 69.324 219.582 69.702 219.116 69.982C218.658 70.2527 218.14 70.388 217.562 70.388C216.974 70.388 216.446 70.2573 215.98 69.996C215.513 69.7253 215.149 69.352 214.888 68.876C214.636 68.4 214.51 67.854 214.51 67.238C214.51 66.622 214.65 66.0713 214.93 65.586C215.21 65.0913 215.592 64.7087 216.078 64.438C216.572 64.158 217.132 64.018 217.758 64.018ZM217.828 69.212C218.416 69.212 218.892 69.03 219.256 68.666C219.629 68.2927 219.816 67.8073 219.816 67.21C219.816 66.6033 219.634 66.118 219.27 65.754C218.906 65.3807 218.425 65.194 217.828 65.194C217.249 65.194 216.782 65.3807 216.428 65.754C216.082 66.118 215.91 66.6033 215.91 67.21C215.91 67.8073 216.082 68.2927 216.428 68.666C216.782 69.03 217.249 69.212 217.828 69.212ZM230.062 70.808V71.956H228.62V74H227.206V71.956H222.768V70.878L227.444 64.13H228.62V70.808H230.062ZM224.182 70.808H227.206V66.44L224.182 70.808ZM231.223 64.13H237.901V65.208L233.337 74H231.797L236.333 65.32H231.223V64.13Z" fill="#242424"/>
<g filter="url(#filter1_d_1_32)">
<rect x="40" y="49" width="64" height="38" rx="8" fill="white"/>
</g>
<g clip-path="url(#clip0_1_32)">
<path d="M61.8174 80.8758V79.2211C61.8174 78.5868 61.4333 78.1731 60.7747 78.1731C60.4454 78.1731 60.0887 78.2834 59.8417 78.642C59.6496 78.3386 59.3752 78.1731 58.9636 78.1731C58.6892 78.1731 58.4148 78.2559 58.1953 78.5592V78.2283H57.619V80.8758H58.1953V79.4142C58.1953 78.9453 58.4422 78.7247 58.8264 78.7247C59.2106 78.7247 59.4027 78.9729 59.4027 79.4142V80.8758H59.9789V79.4142C59.9789 78.9453 60.2533 78.7247 60.61 78.7247C60.9942 78.7247 61.1863 78.9729 61.1863 79.4142V80.8758H61.8174ZM70.3515 78.2283H69.4185V77.4285H68.8422V78.2283H68.3208V78.7523H68.8422V79.9657C68.8422 80.5725 69.0892 80.931 69.7478 80.931C69.9947 80.931 70.2691 80.8482 70.4612 80.7379L70.2966 80.2415C70.1319 80.3518 69.9398 80.3794 69.8026 80.3794C69.5282 80.3794 69.4185 80.2139 69.4185 79.9381V78.7523H70.3515V78.2283ZM75.2359 78.1731C74.9066 78.1731 74.6871 78.3386 74.5499 78.5592V78.2283H73.9736V80.8758H74.5499V79.3866C74.5499 78.9453 74.7419 78.6971 75.0987 78.6971C75.2084 78.6971 75.3456 78.7247 75.4554 78.7523L75.62 78.2007C75.5103 78.1731 75.3456 78.1731 75.2359 78.1731ZM67.8544 78.4489C67.58 78.2559 67.1958 78.1731 66.7842 78.1731C66.1256 78.1731 65.6866 78.5041 65.6866 79.0281C65.6866 79.4693 66.0158 79.7175 66.5921 79.8003L66.8665 79.8278C67.1683 79.883 67.333 79.9657 67.333 80.1036C67.333 80.2967 67.1135 80.4346 66.7293 80.4346C66.3451 80.4346 66.0433 80.2967 65.8512 80.1588L65.5768 80.6C65.8786 80.8207 66.2902 80.931 66.7019 80.931C67.4702 80.931 67.9092 80.5725 67.9092 80.076C67.9092 79.6072 67.5525 79.359 67.0037 79.2763L66.7293 79.2487C66.4823 79.2211 66.2902 79.1659 66.2902 79.0005C66.2902 78.8074 66.4823 78.6971 66.7842 78.6971C67.1135 78.6971 67.4427 78.835 67.6074 78.9177L67.8544 78.4489ZM83.1662 78.1731C82.8369 78.1731 82.6174 78.3386 82.4802 78.5592V78.2283H81.9039V80.8758H82.4802V79.3866C82.4802 78.9453 82.6723 78.6971 83.029 78.6971C83.1388 78.6971 83.276 78.7247 83.3857 78.7523L83.5504 78.2007C83.4406 78.1731 83.276 78.1731 83.1662 78.1731ZM75.8121 79.552C75.8121 80.3518 76.3609 80.931 77.2116 80.931C77.5958 80.931 77.8702 80.8482 78.1446 80.6276L77.8702 80.1588C77.6507 80.3242 77.4311 80.407 77.1842 80.407C76.7177 80.407 76.3884 80.076 76.3884 79.552C76.3884 79.0556 76.7177 78.7247 77.1842 78.6971C77.4311 78.6971 77.6507 78.7798 77.8702 78.9453L78.1446 78.4765C77.8702 78.2559 77.5958 78.1731 77.2116 78.1731C76.3609 78.1731 75.8121 78.7523 75.8121 79.552ZM81.1356 79.552V78.2283H80.5594V78.5592C80.3673 78.311 80.0929 78.1731 79.7361 78.1731C78.9952 78.1731 78.419 78.7523 78.419 79.552C78.419 80.3518 78.9952 80.931 79.7361 80.931C80.1203 80.931 80.3947 80.7931 80.5594 80.5449V80.8758H81.1356V79.552ZM79.0227 79.552C79.0227 79.0832 79.3245 78.6971 79.8185 78.6971C80.2849 78.6971 80.6142 79.0556 80.6142 79.552C80.6142 80.0209 80.2849 80.407 79.8185 80.407C79.3245 80.3794 79.0227 80.0209 79.0227 79.552ZM72.1351 78.1731C71.3668 78.1731 70.8179 78.7247 70.8179 79.552C70.8179 80.3794 71.3668 80.931 72.1625 80.931C72.5467 80.931 72.9309 80.8207 73.2327 80.5725L72.9583 80.1588C72.7388 80.3242 72.4644 80.4346 72.19 80.4346C71.8332 80.4346 71.4765 80.2691 71.3942 79.8003H73.3425V79.5796C73.3699 78.7247 72.876 78.1731 72.1351 78.1731ZM72.1351 78.6695C72.4918 78.6695 72.7388 78.8902 72.7937 79.3038H71.4216C71.4765 78.9453 71.7235 78.6695 72.1351 78.6695ZM86.4316 79.552V77.1803H85.8554V78.5592C85.6633 78.311 85.3889 78.1731 85.0322 78.1731C84.2913 78.1731 83.715 78.7523 83.715 79.552C83.715 80.3518 84.2913 80.931 85.0322 80.931C85.4163 80.931 85.6907 80.7931 85.8554 80.5449V80.8758H86.4316V79.552ZM84.3187 79.552C84.3187 79.0832 84.6206 78.6971 85.1145 78.6971C85.581 78.6971 85.9103 79.0556 85.9103 79.552C85.9103 80.0209 85.581 80.407 85.1145 80.407C84.6206 80.3794 84.3187 80.0209 84.3187 79.552ZM65.0554 79.552V78.2283H64.4792V78.5592C64.2871 78.311 64.0127 78.1731 63.6559 78.1731C62.9151 78.1731 62.3388 78.7523 62.3388 79.552C62.3388 80.3518 62.9151 80.931 63.6559 80.931C64.0401 80.931 64.3145 80.7931 64.4792 80.5449V80.8758H65.0554V79.552ZM62.9151 79.552C62.9151 79.0832 63.2169 78.6971 63.7108 78.6971C64.1773 78.6971 64.5066 79.0556 64.5066 79.552C64.5066 80.0209 64.1773 80.407 63.7108 80.407C63.2169 80.3794 62.9151 80.0209 62.9151 79.552Z" fill="#242424"/>
<path d="M76.306 58.1237H67.6622V73.7331H76.306V58.1237Z" fill="#828282"/>
<path d="M68.2111 65.9283C68.2111 62.7567 69.6929 59.9437 71.9704 58.1235C70.2965 56.7998 68.1836 56 65.8786 56C60.4179 56 56 60.4401 56 65.9283C56 71.4164 60.4179 75.8565 65.8786 75.8565C68.1836 75.8565 70.2965 75.0567 71.9704 73.733C69.6929 71.9404 68.2111 69.0998 68.2111 65.9283Z" fill="#242424"/>
<path d="M87.9684 65.9283C87.9684 71.4164 83.5504 75.8565 78.0897 75.8565C75.7847 75.8565 73.6718 75.0567 71.9979 73.733C74.3029 71.9128 75.7573 69.0998 75.7573 65.9283C75.7573 62.7567 74.2755 59.9437 71.9979 58.1235C73.6718 56.7998 75.7847 56 78.0897 56C83.5504 56 87.9684 60.4677 87.9684 65.9283Z" fill="#BDBDBD"/>
</g>
<path fill-rule="evenodd" clip-rule="evenodd" d="M335.293 17.6855C335.083 17.4755 334.978 17.1835 335.004 16.8875L335.383 12.7175C335.425 12.2605 335.627 11.8295 335.953 11.5035L344.949 2.50752C345.651 1.80252 346.924 1.83752 347.665 2.57652L350.403 5.31452L350.404 5.31552C351.169 6.08152 351.2 7.29952 350.472 8.02952L341.475 17.0265C341.15 17.3515 340.719 17.5535 340.261 17.5955L336.091 17.9745C336.061 17.9765 336.031 17.9775 336 17.9775C335.737 17.9775 335.482 17.8735 335.293 17.6855ZM347.019 8.65652L344.324 5.96152L346.272 4.01252L348.966 6.70652L347.019 8.65652ZM340.08 15.6025L337.103 15.8735L337.367 12.9175L342.984 7.30052L345.68 9.99752L340.08 15.6025ZM350 21.9775C350.55 21.9775 351 21.5275 351 20.9775C351 20.4285 350.55 19.9775 350 19.9775H336C335.451 19.9775 335 20.4285 335 20.9775C335 21.5275 335.451 21.9775 336 21.9775H350Z" fill="#808080"/>
<defs>
<filter id="filter0_d_1_32" x="-20" y="2" width="415" height="148" filterUnits="userSpaceOnUse" color-interpolation-filters="sRGB">
<feFlood flood-opacity="0" result="BackgroundImageFix"/>
<feColorMatrix in="SourceAlpha" type="matrix" values="0 0 0 0 0 0 0 0 0 0 0 0 0 0 0 0 0 0 127 0" result="hardAlpha"/>
<feOffset dy="8"/>
<feGaussianBlur stdDeviation="20"/>
<feColorMatrix type="matrix" values="0 0 0 0 0.541176 0 0 0 0 0.584314 0 0 0 0 0.619608 0 0 0 0.2 0"/>
<feBlend mode="normal" in2="BackgroundImageFix" result="effect1_dropShadow_1_32"/>
<feBlend mode="normal" in="SourceGraphic" in2="effect1_dropShadow_1_32" result="shape"/>
</filter>
<filter id="filter1_d_1_32" x="15" y="25" width="114" height="88" filterUnits="userSpaceOnUse" color-interpolation-filters="sRGB">
<feFlood flood-opacity="0" result="BackgroundImageFix"/>
<feColorMatrix in="SourceAlpha" type="matrix" values="0 0 0 0 0 0 0 0 0 0 0 0 0 0 0 0 0 0 127 0" result="hardAlpha"/>
<feOffset dy="1"/>
<feGaussianBlur stdDeviation="12.5"/>
<feColorMatrix type="matrix" values="0 0 0 0 0 0 0 0 0 0 0 0 0 0 0 0 0 0 0.08 0"/>
<feBlend mode="normal" in2="BackgroundImageFix" result="effect1_dropShadow_1_32"/>
<feBlend mode="normal" in="SourceGraphic" in2="effect1_dropShadow_1_32" result="shape"/>
</filter>
<clipPath id="clip0_1_32">
<rect width="32" height="25" fill="white" transform="translate(56 56)"/>
</clipPath>
</defs>
</svg>
