<svg width="375" height="540" viewBox="0 0 375 540" fill="none" xmlns="http://www.w3.org/2000/svg">
<g filter="url(#filter0_d_1_32)">
<rect x="20" y="33" width="335" height="80" fill="white"/>
</g>
<path d="M51.934 56.31H53.752V69H51.7V60.612L48.352 66.948H46.804L43.438 60.702L43.456 69H41.404V56.31H43.24L47.596 64.608L51.934 56.31ZM62.4788 60.216H64.6928L59.4008 72.24H57.1328L58.7348 68.658L55.0628 60.216H57.4388L59.9228 66.426L62.4788 60.216ZM74.6801 69.144C73.7801 69.144 72.9881 68.958 72.3041 68.586C71.6321 68.214 71.1101 67.68 70.7381 66.984C70.3661 66.288 70.1801 65.478 70.1801 64.554C70.1801 63.63 70.3661 62.826 70.7381 62.142C71.1101 61.446 71.6321 60.912 72.3041 60.54C72.9881 60.168 73.7801 59.982 74.6801 59.982C75.5801 59.982 76.3661 60.168 77.0381 60.54C77.7221 60.912 78.2441 61.446 78.6041 62.142C78.9761 62.826 79.1621 63.63 79.1621 64.554C79.1621 65.478 78.9761 66.288 78.6041 66.984C78.2441 67.68 77.7221 68.214 77.0381 68.586C76.3661 68.958 75.5801 69.144 74.6801 69.144ZM74.6621 67.398C75.3941 67.398 75.9521 67.158 76.3361 66.678C76.7201 66.198 76.9121 65.49 76.9121 64.554C76.9121 63.63 76.7201 62.928 76.3361 62.448C75.9521 61.956 75.4001 61.71 74.6801 61.71C73.9601 61.71 73.4021 61.956 73.0061 62.448C72.6221 62.928 72.4301 63.63 72.4301 64.554C72.4301 65.49 72.6221 66.198 73.0061 66.678C73.3901 67.158 73.9421 67.398 74.6621 67.398ZM86.8156 61.854L85.5016 61.98C84.0136 62.136 83.2696 62.892 83.2696 64.248V69H81.0196V60.198H83.1616V61.746C83.6176 60.69 84.5596 60.114 85.9876 60.018L86.6716 59.964L86.8156 61.854ZM96.2305 56.31V69H93.9985V67.578C93.7345 68.07 93.3505 68.454 92.8465 68.73C92.3545 69.006 91.7905 69.144 91.1545 69.144C90.3985 69.144 89.7205 68.952 89.1205 68.568C88.5325 68.184 88.0705 67.644 87.7345 66.948C87.4105 66.24 87.2485 65.43 87.2485 64.518C87.2485 63.606 87.4105 62.808 87.7345 62.124C88.0705 61.44 88.5325 60.912 89.1205 60.54C89.7085 60.168 90.3865 59.982 91.1545 59.982C91.7905 59.982 92.3545 60.114 92.8465 60.378C93.3385 60.642 93.7165 61.014 93.9805 61.494V56.31H96.2305ZM91.7485 67.398C92.4685 67.398 93.0205 67.152 93.4045 66.66C93.8005 66.168 93.9985 65.466 93.9985 64.554C93.9985 63.642 93.8005 62.946 93.4045 62.466C93.0205 61.974 92.4745 61.728 91.7665 61.728C91.0465 61.728 90.4885 61.968 90.0925 62.448C89.6965 62.928 89.4985 63.618 89.4985 64.518C89.4985 65.43 89.6965 66.138 90.0925 66.642C90.4885 67.146 91.0405 67.398 91.7485 67.398ZM106.267 65.004H100.273C100.345 65.82 100.591 66.426 101.011 66.822C101.431 67.218 102.031 67.416 102.811 67.416C103.783 67.416 104.671 67.104 105.475 66.48L106.123 68.028C105.715 68.364 105.199 68.634 104.575 68.838C103.963 69.042 103.345 69.144 102.721 69.144C101.281 69.144 100.141 68.736 99.301 67.92C98.473 67.104 98.059 65.988 98.059 64.572C98.059 63.672 98.239 62.874 98.599 62.178C98.959 61.482 99.463 60.942 100.111 60.558C100.771 60.174 101.515 59.982 102.343 59.982C103.555 59.982 104.509 60.372 105.205 61.152C105.913 61.932 106.267 63.006 106.267 64.374V65.004ZM102.397 61.566C101.797 61.566 101.311 61.758 100.939 62.142C100.579 62.526 100.357 63.078 100.273 63.798H104.341C104.317 63.066 104.137 62.514 103.801 62.142C103.465 61.758 102.997 61.566 102.397 61.566ZM113.904 61.854L112.59 61.98C111.102 62.136 110.358 62.892 110.358 64.248V69H108.108V60.198H110.25V61.746C110.706 60.69 111.648 60.114 113.076 60.018L113.76 59.964L113.904 61.854ZM118.15 69.144C117.37 69.144 116.65 69.048 115.99 68.856C115.342 68.664 114.79 68.388 114.334 68.028L114.964 66.462C115.9 67.146 116.974 67.488 118.186 67.488C118.702 67.488 119.092 67.404 119.356 67.236C119.632 67.068 119.77 66.828 119.77 66.516C119.77 66.252 119.674 66.048 119.482 65.904C119.302 65.76 118.972 65.628 118.492 65.508L117.052 65.184C116.236 65.004 115.63 64.71 115.234 64.302C114.838 63.894 114.64 63.366 114.64 62.718C114.64 62.178 114.79 61.704 115.09 61.296C115.402 60.876 115.828 60.552 116.368 60.324C116.92 60.096 117.556 59.982 118.276 59.982C118.9 59.982 119.5 60.078 120.076 60.27C120.664 60.462 121.18 60.732 121.624 61.08L120.994 62.61C120.082 61.95 119.17 61.62 118.258 61.62C117.766 61.62 117.382 61.71 117.106 61.89C116.83 62.07 116.692 62.322 116.692 62.646C116.692 62.886 116.776 63.084 116.944 63.24C117.124 63.396 117.406 63.516 117.79 63.6L119.284 63.942C120.16 64.134 120.802 64.44 121.21 64.86C121.618 65.268 121.822 65.808 121.822 66.48C121.822 67.296 121.492 67.944 120.832 68.424C120.172 68.904 119.278 69.144 118.15 69.144Z" fill="#242424"/>
<path d="M47.512 92L46.576 89.828H42.16L41.224 92H40.216L43.936 83.54H44.788L48.508 92H47.512ZM42.508 89.012H46.228L44.368 84.68L42.508 89.012ZM49.6188 92V83.54H50.5908V92H49.6188ZM55.7198 86.852L55.0838 86.912C54.4838 86.968 54.0478 87.156 53.7758 87.476C53.5118 87.796 53.3798 88.192 53.3798 88.664V92H52.4078V86.156H53.3558V87.176C53.6838 86.496 54.3278 86.116 55.2878 86.036L55.6358 86.012L55.7198 86.852ZM61.4171 89.228H57.1451C57.1771 89.908 57.3611 90.424 57.6971 90.776C58.0331 91.12 58.5091 91.292 59.1251 91.292C59.8051 91.292 60.4291 91.06 60.9971 90.596L61.3211 91.304C61.0651 91.544 60.7371 91.736 60.3371 91.88C59.9371 92.016 59.5291 92.084 59.1131 92.084C58.2011 92.084 57.4811 91.816 56.9531 91.28C56.4331 90.744 56.1731 90.004 56.1731 89.06C56.1731 88.46 56.2891 87.932 56.5211 87.476C56.7531 87.012 57.0771 86.652 57.4931 86.396C57.9171 86.14 58.3971 86.012 58.9331 86.012C59.7091 86.012 60.3171 86.268 60.7571 86.78C61.1971 87.284 61.4171 87.98 61.4171 88.868V89.228ZM58.9451 86.768C58.4331 86.768 58.0211 86.928 57.7091 87.248C57.4051 87.568 57.2251 88.02 57.1691 88.604H60.5651C60.5491 88.012 60.4011 87.56 60.1211 87.248C59.8411 86.928 59.4491 86.768 58.9451 86.768ZM65.2252 86.012C65.9692 86.012 66.5212 86.204 66.8812 86.588C67.2492 86.964 67.4332 87.54 67.4332 88.316V92H66.4852V91.004C66.3332 91.348 66.1012 91.616 65.7892 91.808C65.4772 91.992 65.1172 92.084 64.7092 92.084C64.3332 92.084 63.9852 92.008 63.6652 91.856C63.3532 91.704 63.1052 91.492 62.9212 91.22C62.7372 90.948 62.6452 90.648 62.6452 90.32C62.6452 89.88 62.7572 89.54 62.9812 89.3C63.2052 89.052 63.5732 88.876 64.0852 88.772C64.5972 88.66 65.3092 88.604 66.2212 88.604H66.4852V88.208C66.4852 87.72 66.3852 87.368 66.1852 87.152C65.9852 86.928 65.6612 86.816 65.2132 86.816C64.5412 86.816 63.8732 87.024 63.2092 87.44L62.8852 86.732C63.1892 86.516 63.5532 86.344 63.9772 86.216C64.4092 86.08 64.8252 86.012 65.2252 86.012ZM64.8412 91.316C65.3212 91.316 65.7132 91.156 66.0172 90.836C66.3292 90.508 66.4852 90.088 66.4852 89.576V89.228H66.2692C65.5652 89.228 65.0292 89.26 64.6612 89.324C64.2932 89.38 64.0292 89.48 63.8692 89.624C63.7172 89.76 63.6412 89.964 63.6412 90.236C63.6412 90.548 63.7532 90.808 63.9772 91.016C64.2092 91.216 64.4972 91.316 64.8412 91.316ZM74.3965 83.54V92H73.4245V90.932C73.2485 91.3 72.9885 91.584 72.6445 91.784C72.3085 91.984 71.9125 92.084 71.4565 92.084C70.9445 92.084 70.4925 91.956 70.1005 91.7C69.7085 91.444 69.4045 91.088 69.1885 90.632C68.9725 90.168 68.8645 89.632 68.8645 89.024C68.8645 88.424 68.9725 87.896 69.1885 87.44C69.4045 86.984 69.7085 86.632 70.1005 86.384C70.4925 86.136 70.9445 86.012 71.4565 86.012C71.9125 86.012 72.3085 86.112 72.6445 86.312C72.9885 86.512 73.2485 86.796 73.4245 87.164V83.54H74.3965ZM71.6485 91.28C72.2165 91.28 72.6525 91.088 72.9565 90.704C73.2685 90.312 73.4245 89.76 73.4245 89.048C73.4245 88.336 73.2685 87.788 72.9565 87.404C72.6525 87.02 72.2165 86.828 71.6485 86.828C71.0805 86.828 70.6365 87.02 70.3165 87.404C70.0045 87.788 69.8485 88.328 69.8485 89.024C69.8485 89.736 70.0045 90.292 70.3165 90.692C70.6365 91.084 71.0805 91.28 71.6485 91.28ZM80.3849 86.168H81.3569L77.9009 94.16H76.9049L77.8889 91.928L75.4169 86.168H76.4489L78.4049 90.944L80.3849 86.168ZM88.3947 86.012C89.7947 86.012 90.4947 86.784 90.4947 88.328V92H89.5227V88.388C89.5227 87.844 89.4147 87.448 89.1987 87.2C88.9907 86.952 88.6547 86.828 88.1907 86.828C87.6547 86.828 87.2267 86.992 86.9067 87.32C86.5867 87.648 86.4267 88.092 86.4267 88.652V92H85.4547V83.54H86.4267V87.092C86.6187 86.74 86.8827 86.472 87.2187 86.288C87.5627 86.104 87.9547 86.012 88.3947 86.012ZM94.651 86.012C95.395 86.012 95.947 86.204 96.307 86.588C96.675 86.964 96.859 87.54 96.859 88.316V92H95.911V91.004C95.759 91.348 95.527 91.616 95.215 91.808C94.903 91.992 94.543 92.084 94.135 92.084C93.759 92.084 93.411 92.008 93.091 91.856C92.779 91.704 92.531 91.492 92.347 91.22C92.163 90.948 92.071 90.648 92.071 90.32C92.071 89.88 92.183 89.54 92.407 89.3C92.631 89.052 92.999 88.876 93.511 88.772C94.023 88.66 94.735 88.604 95.647 88.604H95.911V88.208C95.911 87.72 95.811 87.368 95.611 87.152C95.411 86.928 95.087 86.816 94.639 86.816C93.967 86.816 93.299 87.024 92.635 87.44L92.311 86.732C92.615 86.516 92.979 86.344 93.403 86.216C93.835 86.08 94.251 86.012 94.651 86.012ZM94.267 91.316C94.747 91.316 95.139 91.156 95.443 90.836C95.755 90.508 95.911 90.088 95.911 89.576V89.228H95.695C94.991 89.228 94.455 89.26 94.087 89.324C93.719 89.38 93.455 89.48 93.295 89.624C93.143 89.76 93.067 89.964 93.067 90.236C93.067 90.548 93.179 90.808 93.403 91.016C93.635 91.216 93.923 91.316 94.267 91.316ZM102.826 86.168H103.798L101.278 92H100.366L97.8583 86.168H98.8903L100.846 90.944L102.826 86.168ZM109.628 89.228H105.356C105.388 89.908 105.572 90.424 105.908 90.776C106.244 91.12 106.72 91.292 107.336 91.292C108.016 91.292 108.64 91.06 109.208 90.596L109.532 91.304C109.276 91.544 108.948 91.736 108.548 91.88C108.148 92.016 107.74 92.084 107.324 92.084C106.412 92.084 105.692 91.816 105.164 91.28C104.644 90.744 104.384 90.004 104.384 89.06C104.384 88.46 104.5 87.932 104.732 87.476C104.964 87.012 105.288 86.652 105.704 86.396C106.128 86.14 106.608 86.012 107.144 86.012C107.92 86.012 108.528 86.268 108.968 86.78C109.408 87.284 109.628 87.98 109.628 88.868V89.228ZM107.156 86.768C106.644 86.768 106.232 86.928 105.92 87.248C105.616 87.568 105.436 88.02 105.38 88.604H108.776C108.76 88.012 108.612 87.56 108.332 87.248C108.052 86.928 107.66 86.768 107.156 86.768ZM117.658 91.172H119.518V92H114.814V91.172H116.674V84.764L115.186 85.7L114.73 84.944L116.95 83.54H117.658V91.172ZM124.049 92.096C123.081 92.096 122.345 91.728 121.841 90.992C121.337 90.256 121.085 89.184 121.085 87.776C121.085 86.36 121.337 85.284 121.841 84.548C122.345 83.812 123.081 83.444 124.049 83.444C125.017 83.444 125.753 83.812 126.257 84.548C126.761 85.276 127.013 86.348 127.013 87.764C127.013 89.18 126.761 90.256 126.257 90.992C125.753 91.728 125.017 92.096 124.049 92.096ZM124.049 91.268C124.721 91.268 125.217 90.984 125.537 90.416C125.857 89.848 126.017 88.964 126.017 87.764C126.017 86.556 125.857 85.676 125.537 85.124C125.225 84.564 124.729 84.284 124.049 84.284C123.377 84.284 122.881 84.564 122.561 85.124C122.241 85.684 122.081 86.564 122.081 87.764C122.081 88.964 122.241 89.848 122.561 90.416C122.881 90.984 123.377 91.268 124.049 91.268ZM134.062 92.084C133.51 92.084 133.022 91.96 132.598 91.712C132.182 91.464 131.858 91.112 131.626 90.656C131.402 90.192 131.29 89.656 131.29 89.048C131.29 88.44 131.402 87.908 131.626 87.452C131.858 86.988 132.182 86.632 132.598 86.384C133.022 86.136 133.51 86.012 134.062 86.012C134.614 86.012 135.102 86.136 135.526 86.384C135.95 86.632 136.274 86.988 136.498 87.452C136.73 87.908 136.846 88.44 136.846 89.048C136.846 89.656 136.73 90.192 136.498 90.656C136.274 91.112 135.95 91.464 135.526 91.712C135.102 91.96 134.614 92.084 134.062 92.084ZM134.062 91.28C134.638 91.28 135.078 91.092 135.382 90.716C135.694 90.332 135.85 89.776 135.85 89.048C135.85 88.336 135.694 87.788 135.382 87.404C135.07 87.012 134.63 86.816 134.062 86.816C133.494 86.816 133.054 87.012 132.742 87.404C132.43 87.788 132.274 88.336 132.274 89.048C132.274 89.768 132.426 90.32 132.73 90.704C133.042 91.088 133.486 91.28 134.062 91.28ZM141.607 86.852L140.971 86.912C140.371 86.968 139.935 87.156 139.663 87.476C139.399 87.796 139.267 88.192 139.267 88.664V92H138.295V86.156H139.243V87.176C139.571 86.496 140.215 86.116 141.175 86.036L141.523 86.012L141.607 86.852ZM147.592 83.54V92H146.62V90.932C146.444 91.3 146.184 91.584 145.84 91.784C145.504 91.984 145.108 92.084 144.652 92.084C144.14 92.084 143.688 91.956 143.296 91.7C142.904 91.444 142.6 91.088 142.384 90.632C142.168 90.168 142.06 89.632 142.06 89.024C142.06 88.424 142.168 87.896 142.384 87.44C142.6 86.984 142.904 86.632 143.296 86.384C143.688 86.136 144.14 86.012 144.652 86.012C145.108 86.012 145.504 86.112 145.84 86.312C146.184 86.512 146.444 86.796 146.62 87.164V83.54H147.592ZM144.844 91.28C145.412 91.28 145.848 91.088 146.152 90.704C146.464 90.312 146.62 89.76 146.62 89.048C146.62 88.336 146.464 87.788 146.152 87.404C145.848 87.02 145.412 86.828 144.844 86.828C144.276 86.828 143.832 87.02 143.512 87.404C143.2 87.788 143.044 88.328 143.044 89.024C143.044 89.736 143.2 90.292 143.512 90.692C143.832 91.084 144.276 91.28 144.844 91.28ZM154.288 89.228H150.016C150.048 89.908 150.232 90.424 150.568 90.776C150.904 91.12 151.38 91.292 151.996 91.292C152.676 91.292 153.3 91.06 153.868 90.596L154.192 91.304C153.936 91.544 153.608 91.736 153.208 91.88C152.808 92.016 152.4 92.084 151.984 92.084C151.072 92.084 150.352 91.816 149.824 91.28C149.304 90.744 149.044 90.004 149.044 89.06C149.044 88.46 149.16 87.932 149.392 87.476C149.624 87.012 149.948 86.652 150.364 86.396C150.788 86.14 151.268 86.012 151.804 86.012C152.58 86.012 153.188 86.268 153.628 86.78C154.068 87.284 154.288 87.98 154.288 88.868V89.228ZM151.816 86.768C151.304 86.768 150.892 86.928 150.58 87.248C150.276 87.568 150.096 88.02 150.04 88.604H153.436C153.42 88.012 153.272 87.56 152.992 87.248C152.712 86.928 152.32 86.768 151.816 86.768ZM159.032 86.852L158.396 86.912C157.796 86.968 157.36 87.156 157.088 87.476C156.824 87.796 156.692 88.192 156.692 88.664V92H155.72V86.156H156.668V87.176C156.996 86.496 157.64 86.116 158.6 86.036L158.948 86.012L159.032 86.852ZM161.872 92.084C160.888 92.084 160.108 91.832 159.532 91.328L159.856 90.608C160.168 90.856 160.484 91.036 160.804 91.148C161.132 91.252 161.5 91.304 161.908 91.304C162.34 91.304 162.668 91.232 162.892 91.088C163.124 90.936 163.24 90.72 163.24 90.44C163.24 90.208 163.164 90.024 163.012 89.888C162.86 89.752 162.608 89.644 162.256 89.564L161.272 89.336C160.776 89.224 160.396 89.032 160.132 88.76C159.868 88.488 159.736 88.152 159.736 87.752C159.736 87.232 159.94 86.812 160.348 86.492C160.756 86.172 161.3 86.012 161.98 86.012C162.388 86.012 162.776 86.08 163.144 86.216C163.512 86.344 163.82 86.532 164.068 86.78L163.744 87.488C163.208 87.032 162.62 86.804 161.98 86.804C161.572 86.804 161.252 86.884 161.02 87.044C160.796 87.196 160.684 87.412 160.684 87.692C160.684 87.924 160.752 88.112 160.888 88.256C161.032 88.392 161.26 88.496 161.572 88.568L162.568 88.808C163.112 88.936 163.516 89.132 163.78 89.396C164.044 89.652 164.176 89.988 164.176 90.404C164.176 90.916 163.968 91.324 163.552 91.628C163.144 91.932 162.584 92.084 161.872 92.084Z" fill="#808080"/>
<path d="M330 79L336 73L330 67" stroke="#242424" stroke-width="1.5" stroke-linecap="round" stroke-linejoin="round"/>
<g filter="url(#filter1_d_1_32)">
<rect x="20" y="128" width="335" height="80" fill="white"/>
</g>
<path d="M45.67 164.162C44.698 164.162 43.786 164.03 42.934 163.766C42.082 163.502 41.362 163.13 40.774 162.65L41.548 160.958C42.16 161.426 42.802 161.768 43.474 161.984C44.158 162.2 44.896 162.308 45.688 162.308C46.564 162.308 47.236 162.158 47.704 161.858C48.184 161.546 48.424 161.114 48.424 160.562C48.424 160.082 48.202 159.716 47.758 159.464C47.326 159.212 46.6 158.972 45.58 158.744C44.524 158.516 43.666 158.252 43.006 157.952C42.346 157.652 41.848 157.268 41.512 156.8C41.176 156.332 41.008 155.738 41.008 155.018C41.008 154.274 41.212 153.608 41.62 153.02C42.028 152.432 42.604 151.976 43.348 151.652C44.092 151.316 44.95 151.148 45.922 151.148C46.81 151.148 47.656 151.286 48.46 151.562C49.264 151.826 49.924 152.192 50.44 152.66L49.666 154.352C48.538 153.452 47.29 153.002 45.922 153.002C45.106 153.002 44.458 153.17 43.978 153.506C43.51 153.83 43.276 154.286 43.276 154.874C43.276 155.366 43.486 155.744 43.906 156.008C44.326 156.272 45.04 156.518 46.048 156.746C47.116 156.986 47.98 157.256 48.64 157.556C49.312 157.844 49.822 158.216 50.17 158.672C50.53 159.128 50.71 159.704 50.71 160.4C50.71 161.156 50.506 161.822 50.098 162.398C49.702 162.962 49.12 163.4 48.352 163.712C47.596 164.012 46.702 164.162 45.67 164.162ZM57.7605 154.982C58.8165 154.982 59.6025 155.282 60.1185 155.882C60.6345 156.482 60.8925 157.388 60.8925 158.6V164H58.6425V158.726C58.6425 158.042 58.5105 157.544 58.2465 157.232C57.9945 156.92 57.5925 156.764 57.0405 156.764C56.3925 156.764 55.8705 156.968 55.4745 157.376C55.0905 157.784 54.8985 158.33 54.8985 159.014V164H52.6485V151.31H54.8985V156.422C55.1985 155.954 55.5945 155.6 56.0865 155.36C56.5905 155.108 57.1485 154.982 57.7605 154.982ZM63.1778 164V155.198H65.4278V164H63.1778ZM63.0518 151.112H65.5358V153.326H63.0518V151.112ZM72.8061 154.982C73.5621 154.982 74.2341 155.174 74.8221 155.558C75.4221 155.942 75.8841 156.488 76.2081 157.196C76.5441 157.892 76.7121 158.696 76.7121 159.608C76.7121 160.52 76.5441 161.318 76.2081 162.002C75.8841 162.686 75.4281 163.214 74.8401 163.586C74.2521 163.958 73.5741 164.144 72.8061 164.144C72.1821 164.144 71.6241 164.012 71.1321 163.748C70.6401 163.484 70.2621 163.118 69.9981 162.65V167.24H67.7481V155.198H69.9621V156.53C70.2261 156.038 70.6041 155.66 71.0961 155.396C71.6001 155.12 72.1701 154.982 72.8061 154.982ZM72.2121 162.398C72.9201 162.398 73.4721 162.158 73.8681 161.678C74.2641 161.186 74.4621 160.496 74.4621 159.608C74.4621 158.696 74.2641 157.988 73.8681 157.484C73.4721 156.98 72.9201 156.728 72.2121 156.728C71.4921 156.728 70.9341 156.974 70.5381 157.466C70.1541 157.958 69.9621 158.66 69.9621 159.572C69.9621 160.472 70.1541 161.168 70.5381 161.66C70.9341 162.152 71.4921 162.398 72.2121 162.398ZM83.6167 154.982C84.3727 154.982 85.0447 155.174 85.6327 155.558C86.2327 155.942 86.6947 156.488 87.0187 157.196C87.3547 157.892 87.5227 158.696 87.5227 159.608C87.5227 160.52 87.3547 161.318 87.0187 162.002C86.6947 162.686 86.2387 163.214 85.6507 163.586C85.0627 163.958 84.3847 164.144 83.6167 164.144C82.9927 164.144 82.4347 164.012 81.9427 163.748C81.4507 163.484 81.0727 163.118 80.8087 162.65V167.24H78.5587V155.198H80.7727V156.53C81.0367 156.038 81.4147 155.66 81.9067 155.396C82.4107 155.12 82.9807 154.982 83.6167 154.982ZM83.0227 162.398C83.7307 162.398 84.2827 162.158 84.6787 161.678C85.0747 161.186 85.2727 160.496 85.2727 159.608C85.2727 158.696 85.0747 157.988 84.6787 157.484C84.2827 156.98 83.7307 156.728 83.0227 156.728C82.3027 156.728 81.7447 156.974 81.3487 157.466C80.9647 157.958 80.7727 158.66 80.7727 159.572C80.7727 160.472 80.9647 161.168 81.3487 161.66C81.7447 162.152 82.3027 162.398 83.0227 162.398ZM89.3692 164V155.198H91.6192V164H89.3692ZM89.2432 151.112H91.7272V153.326H89.2432V151.112ZM99.0515 154.982C100.108 154.982 100.894 155.282 101.41 155.882C101.926 156.482 102.184 157.388 102.184 158.6V164H99.9335V158.726C99.9335 158.042 99.8015 157.544 99.5375 157.232C99.2855 156.92 98.8835 156.764 98.3315 156.764C97.6835 156.764 97.1615 156.968 96.7655 157.376C96.3815 157.784 96.1895 158.33 96.1895 159.014V164H93.9395V155.198H96.1355V156.512C96.4355 156.02 96.8375 155.642 97.3415 155.378C97.8455 155.114 98.4155 154.982 99.0515 154.982ZM113.037 155.198V163.19C113.037 164.57 112.653 165.614 111.885 166.322C111.129 167.03 110.007 167.384 108.519 167.384C107.751 167.384 107.013 167.282 106.305 167.078C105.597 166.886 104.979 166.61 104.451 166.25L105.081 164.666C106.173 165.326 107.301 165.656 108.465 165.656C110.025 165.656 110.805 164.888 110.805 163.352V162.2C110.541 162.692 110.157 163.076 109.653 163.352C109.149 163.616 108.573 163.748 107.925 163.748C107.157 163.748 106.473 163.568 105.873 163.208C105.285 162.836 104.823 162.32 104.487 161.66C104.151 161 103.983 160.238 103.983 159.374C103.983 158.51 104.145 157.748 104.469 157.088C104.805 156.416 105.273 155.9 105.873 155.54C106.473 155.168 107.157 154.982 107.925 154.982C108.573 154.982 109.149 155.12 109.653 155.396C110.157 155.66 110.541 156.038 110.805 156.53V155.198H113.037ZM108.519 162.002C109.239 162.002 109.797 161.768 110.193 161.3C110.601 160.832 110.805 160.19 110.805 159.374C110.805 158.546 110.601 157.898 110.193 157.43C109.797 156.962 109.239 156.728 108.519 156.728C107.811 156.728 107.253 156.962 106.845 157.43C106.437 157.898 106.233 158.546 106.233 159.374C106.233 160.178 106.437 160.82 106.845 161.3C107.253 161.768 107.811 162.002 108.519 162.002ZM130.154 164L128.876 161.03H122.702L121.424 164H119.084L124.826 151.31H126.716L132.458 164H130.154ZM123.458 159.23H128.102L125.78 153.83L123.458 159.23ZM142.109 151.31V164H139.877V162.578C139.613 163.07 139.229 163.454 138.725 163.73C138.233 164.006 137.669 164.144 137.033 164.144C136.277 164.144 135.599 163.952 134.999 163.568C134.411 163.184 133.949 162.644 133.613 161.948C133.289 161.24 133.127 160.43 133.127 159.518C133.127 158.606 133.289 157.808 133.613 157.124C133.949 156.44 134.411 155.912 134.999 155.54C135.587 155.168 136.265 154.982 137.033 154.982C137.669 154.982 138.233 155.114 138.725 155.378C139.217 155.642 139.595 156.014 139.859 156.494V151.31H142.109ZM137.627 162.398C138.347 162.398 138.899 162.152 139.283 161.66C139.679 161.168 139.877 160.466 139.877 159.554C139.877 158.642 139.679 157.946 139.283 157.466C138.899 156.974 138.353 156.728 137.645 156.728C136.925 156.728 136.367 156.968 135.971 157.448C135.575 157.928 135.377 158.618 135.377 159.518C135.377 160.43 135.575 161.138 135.971 161.642C136.367 162.146 136.919 162.398 137.627 162.398ZM152.92 151.31V164H150.688V162.578C150.424 163.07 150.04 163.454 149.536 163.73C149.044 164.006 148.48 164.144 147.844 164.144C147.088 164.144 146.41 163.952 145.81 163.568C145.222 163.184 144.76 162.644 144.424 161.948C144.1 161.24 143.938 160.43 143.938 159.518C143.938 158.606 144.1 157.808 144.424 157.124C144.76 156.44 145.222 155.912 145.81 155.54C146.398 155.168 147.076 154.982 147.844 154.982C148.48 154.982 149.044 155.114 149.536 155.378C150.028 155.642 150.406 156.014 150.67 156.494V151.31H152.92ZM148.438 162.398C149.158 162.398 149.71 162.152 150.094 161.66C150.49 161.168 150.688 160.466 150.688 159.554C150.688 158.642 150.49 157.946 150.094 157.466C149.71 156.974 149.164 156.728 148.456 156.728C147.736 156.728 147.178 156.968 146.782 157.448C146.386 157.928 146.188 158.618 146.188 159.518C146.188 160.43 146.386 161.138 146.782 161.642C147.178 162.146 147.73 162.398 148.438 162.398ZM161.03 156.854L159.716 156.98C158.228 157.136 157.484 157.892 157.484 159.248V164H155.234V155.198H157.376V156.746C157.832 155.69 158.774 155.114 160.202 155.018L160.886 154.964L161.03 156.854ZM169.671 160.004H163.677C163.749 160.82 163.995 161.426 164.415 161.822C164.835 162.218 165.435 162.416 166.215 162.416C167.187 162.416 168.075 162.104 168.879 161.48L169.527 163.028C169.119 163.364 168.603 163.634 167.979 163.838C167.367 164.042 166.749 164.144 166.125 164.144C164.685 164.144 163.545 163.736 162.705 162.92C161.877 162.104 161.463 160.988 161.463 159.572C161.463 158.672 161.643 157.874 162.003 157.178C162.363 156.482 162.867 155.942 163.515 155.558C164.175 155.174 164.919 154.982 165.747 154.982C166.959 154.982 167.913 155.372 168.609 156.152C169.317 156.932 169.671 158.006 169.671 159.374V160.004ZM165.801 156.566C165.201 156.566 164.715 156.758 164.343 157.142C163.983 157.526 163.761 158.078 163.677 158.798H167.745C167.721 158.066 167.541 157.514 167.205 157.142C166.869 156.758 166.401 156.566 165.801 156.566ZM174.752 164.144C173.972 164.144 173.252 164.048 172.592 163.856C171.944 163.664 171.392 163.388 170.936 163.028L171.566 161.462C172.502 162.146 173.576 162.488 174.788 162.488C175.304 162.488 175.694 162.404 175.958 162.236C176.234 162.068 176.372 161.828 176.372 161.516C176.372 161.252 176.276 161.048 176.084 160.904C175.904 160.76 175.574 160.628 175.094 160.508L173.654 160.184C172.838 160.004 172.232 159.71 171.836 159.302C171.44 158.894 171.242 158.366 171.242 157.718C171.242 157.178 171.392 156.704 171.692 156.296C172.004 155.876 172.43 155.552 172.97 155.324C173.522 155.096 174.158 154.982 174.878 154.982C175.502 154.982 176.102 155.078 176.678 155.27C177.266 155.462 177.782 155.732 178.226 156.08L177.596 157.61C176.684 156.95 175.772 156.62 174.86 156.62C174.368 156.62 173.984 156.71 173.708 156.89C173.432 157.07 173.294 157.322 173.294 157.646C173.294 157.886 173.378 158.084 173.546 158.24C173.726 158.396 174.008 158.516 174.392 158.6L175.886 158.942C176.762 159.134 177.404 159.44 177.812 159.86C178.22 160.268 178.424 160.808 178.424 161.48C178.424 162.296 178.094 162.944 177.434 163.424C176.774 163.904 175.88 164.144 174.752 164.144ZM183.488 164.144C182.708 164.144 181.988 164.048 181.328 163.856C180.68 163.664 180.128 163.388 179.672 163.028L180.302 161.462C181.238 162.146 182.312 162.488 183.524 162.488C184.04 162.488 184.43 162.404 184.694 162.236C184.97 162.068 185.108 161.828 185.108 161.516C185.108 161.252 185.012 161.048 184.82 160.904C184.64 160.76 184.31 160.628 183.83 160.508L182.39 160.184C181.574 160.004 180.968 159.71 180.572 159.302C180.176 158.894 179.978 158.366 179.978 157.718C179.978 157.178 180.128 156.704 180.428 156.296C180.74 155.876 181.166 155.552 181.706 155.324C182.258 155.096 182.894 154.982 183.614 154.982C184.238 154.982 184.838 155.078 185.414 155.27C186.002 155.462 186.518 155.732 186.962 156.08L186.332 157.61C185.42 156.95 184.508 156.62 183.596 156.62C183.104 156.62 182.72 156.71 182.444 156.89C182.168 157.07 182.03 157.322 182.03 157.646C182.03 157.886 182.114 158.084 182.282 158.24C182.462 158.396 182.744 158.516 183.128 158.6L184.622 158.942C185.498 159.134 186.14 159.44 186.548 159.86C186.956 160.268 187.16 160.808 187.16 161.48C187.16 162.296 186.83 162.944 186.17 163.424C185.51 163.904 184.616 164.144 183.488 164.144ZM196.706 160.004H190.712C190.784 160.82 191.03 161.426 191.45 161.822C191.87 162.218 192.47 162.416 193.25 162.416C194.222 162.416 195.11 162.104 195.914 161.48L196.562 163.028C196.154 163.364 195.638 163.634 195.014 163.838C194.402 164.042 193.784 164.144 193.16 164.144C191.72 164.144 190.58 163.736 189.74 162.92C188.912 162.104 188.498 160.988 188.498 159.572C188.498 158.672 188.678 157.874 189.038 157.178C189.398 156.482 189.902 155.942 190.55 155.558C191.21 155.174 191.954 154.982 192.782 154.982C193.994 154.982 194.948 155.372 195.644 156.152C196.352 156.932 196.706 158.006 196.706 159.374V160.004ZM192.836 156.566C192.236 156.566 191.75 156.758 191.378 157.142C191.018 157.526 190.796 158.078 190.712 158.798H194.78C194.756 158.066 194.576 157.514 194.24 157.142C193.904 156.758 193.436 156.566 192.836 156.566ZM201.787 164.144C201.007 164.144 200.287 164.048 199.627 163.856C198.979 163.664 198.427 163.388 197.971 163.028L198.601 161.462C199.537 162.146 200.611 162.488 201.823 162.488C202.339 162.488 202.729 162.404 202.993 162.236C203.269 162.068 203.407 161.828 203.407 161.516C203.407 161.252 203.311 161.048 203.119 160.904C202.939 160.76 202.609 160.628 202.129 160.508L200.689 160.184C199.873 160.004 199.267 159.71 198.871 159.302C198.475 158.894 198.277 158.366 198.277 157.718C198.277 157.178 198.427 156.704 198.727 156.296C199.039 155.876 199.465 155.552 200.005 155.324C200.557 155.096 201.193 154.982 201.913 154.982C202.537 154.982 203.137 155.078 203.713 155.27C204.301 155.462 204.817 155.732 205.261 156.08L204.631 157.61C203.719 156.95 202.807 156.62 201.895 156.62C201.403 156.62 201.019 156.71 200.743 156.89C200.467 157.07 200.329 157.322 200.329 157.646C200.329 157.886 200.413 158.084 200.581 158.24C200.761 158.396 201.043 158.516 201.427 158.6L202.921 158.942C203.797 159.134 204.439 159.44 204.847 159.86C205.255 160.268 205.459 160.808 205.459 161.48C205.459 162.296 205.129 162.944 204.469 163.424C203.809 163.904 202.915 164.144 201.787 164.144Z" fill="#242424"/>
<path d="M43.6 187.096C42.632 187.096 41.896 186.728 41.392 185.992C40.888 185.256 40.636 184.184 40.636 182.776C40.636 181.36 40.888 180.284 41.392 179.548C41.896 178.812 42.632 178.444 43.6 178.444C44.568 178.444 45.304 178.812 45.808 179.548C46.312 180.276 46.564 181.348 46.564 182.764C46.564 184.18 46.312 185.256 45.808 185.992C45.304 186.728 44.568 187.096 43.6 187.096ZM43.6 186.268C44.272 186.268 44.768 185.984 45.088 185.416C45.408 184.848 45.568 183.964 45.568 182.764C45.568 181.556 45.408 180.676 45.088 180.124C44.776 179.564 44.28 179.284 43.6 179.284C42.928 179.284 42.432 179.564 42.112 180.124C41.792 180.684 41.632 181.564 41.632 182.764C41.632 183.964 41.792 184.848 42.112 185.416C42.432 185.984 42.928 186.268 43.6 186.268ZM51.9593 182.656C52.4553 182.8 52.8353 183.048 53.0993 183.4C53.3633 183.744 53.4953 184.18 53.4953 184.708C53.4953 185.444 53.2433 186.024 52.7393 186.448C52.2433 186.872 51.5673 187.084 50.7113 187.084C50.1673 187.084 49.6433 186.992 49.1393 186.808C48.6353 186.624 48.2113 186.368 47.8673 186.04L48.2393 185.284C49.0073 185.932 49.8233 186.256 50.6873 186.256C51.2873 186.256 51.7433 186.124 52.0553 185.86C52.3673 185.588 52.5233 185.192 52.5233 184.672C52.5233 183.64 51.8753 183.124 50.5793 183.124H49.6073V182.296H50.3873C51.0113 182.296 51.4913 182.16 51.8273 181.888C52.1633 181.608 52.3313 181.208 52.3313 180.688C52.3313 180.232 52.1953 179.884 51.9233 179.644C51.6513 179.396 51.2633 179.272 50.7593 179.272C49.9433 179.272 49.1433 179.596 48.3593 180.244L47.9873 179.488C48.3313 179.16 48.7513 178.904 49.2473 178.72C49.7433 178.536 50.2593 178.444 50.7953 178.444C51.5633 178.444 52.1713 178.64 52.6193 179.032C53.0753 179.416 53.3033 179.936 53.3033 180.592C53.3033 181.08 53.1833 181.508 52.9433 181.876C52.7113 182.236 52.3833 182.496 51.9593 182.656ZM64.9964 187L64.0604 184.828H59.6444L58.7084 187H57.7004L61.4204 178.54H62.2724L65.9924 187H64.9964ZM59.9924 184.012H63.7124L61.8524 179.68L59.9924 184.012ZM72.2871 178.54V187H71.3151V185.932C71.1391 186.3 70.8791 186.584 70.5351 186.784C70.1991 186.984 69.8031 187.084 69.3471 187.084C68.8351 187.084 68.3831 186.956 67.9911 186.7C67.5991 186.444 67.2951 186.088 67.0791 185.632C66.8631 185.168 66.7551 184.632 66.7551 184.024C66.7551 183.424 66.8631 182.896 67.0791 182.44C67.2951 181.984 67.5991 181.632 67.9911 181.384C68.3831 181.136 68.8351 181.012 69.3471 181.012C69.8031 181.012 70.1991 181.112 70.5351 181.312C70.8791 181.512 71.1391 181.796 71.3151 182.164V178.54H72.2871ZM69.5391 186.28C70.1071 186.28 70.5431 186.088 70.8471 185.704C71.1591 185.312 71.3151 184.76 71.3151 184.048C71.3151 183.336 71.1591 182.788 70.8471 182.404C70.5431 182.02 70.1071 181.828 69.5391 181.828C68.9711 181.828 68.5271 182.02 68.2071 182.404C67.8951 182.788 67.7391 183.328 67.7391 184.024C67.7391 184.736 67.8951 185.292 68.2071 185.692C68.5271 186.084 68.9711 186.28 69.5391 186.28ZM79.2715 178.54V187H78.2995V185.932C78.1235 186.3 77.8635 186.584 77.5195 186.784C77.1835 186.984 76.7875 187.084 76.3315 187.084C75.8195 187.084 75.3675 186.956 74.9755 186.7C74.5835 186.444 74.2795 186.088 74.0635 185.632C73.8475 185.168 73.7395 184.632 73.7395 184.024C73.7395 183.424 73.8475 182.896 74.0635 182.44C74.2795 181.984 74.5835 181.632 74.9755 181.384C75.3675 181.136 75.8195 181.012 76.3315 181.012C76.7875 181.012 77.1835 181.112 77.5195 181.312C77.8635 181.512 78.1235 181.796 78.2995 182.164V178.54H79.2715ZM76.5235 186.28C77.0915 186.28 77.5275 186.088 77.8315 185.704C78.1435 185.312 78.2995 184.76 78.2995 184.048C78.2995 183.336 78.1435 182.788 77.8315 182.404C77.5275 182.02 77.0915 181.828 76.5235 181.828C75.9555 181.828 75.5115 182.02 75.1915 182.404C74.8795 182.788 74.7235 183.328 74.7235 184.024C74.7235 184.736 74.8795 185.292 75.1915 185.692C75.5115 186.084 75.9555 186.28 76.5235 186.28ZM84.3839 181.852L83.7479 181.912C83.1479 181.968 82.7119 182.156 82.4399 182.476C82.1759 182.796 82.0439 183.192 82.0439 183.664V187H81.0719V181.156H82.0199V182.176C82.3479 181.496 82.9919 181.116 83.9519 181.036L84.2999 181.012L84.3839 181.852ZM90.0812 184.228H85.8092C85.8412 184.908 86.0252 185.424 86.3612 185.776C86.6972 186.12 87.1732 186.292 87.7892 186.292C88.4692 186.292 89.0932 186.06 89.6612 185.596L89.9852 186.304C89.7292 186.544 89.4012 186.736 89.0012 186.88C88.6012 187.016 88.1932 187.084 87.7772 187.084C86.8652 187.084 86.1452 186.816 85.6172 186.28C85.0972 185.744 84.8372 185.004 84.8372 184.06C84.8372 183.46 84.9532 182.932 85.1852 182.476C85.4172 182.012 85.7412 181.652 86.1572 181.396C86.5812 181.14 87.0612 181.012 87.5972 181.012C88.3732 181.012 88.9812 181.268 89.4212 181.78C89.8612 182.284 90.0812 182.98 90.0812 183.868V184.228ZM87.6092 181.768C87.0972 181.768 86.6852 181.928 86.3732 182.248C86.0692 182.568 85.8892 183.02 85.8332 183.604H89.2292C89.2132 183.012 89.0652 182.56 88.7852 182.248C88.5052 181.928 88.1132 181.768 87.6092 181.768ZM93.4933 187.084C92.5093 187.084 91.7293 186.832 91.1533 186.328L91.4773 185.608C91.7893 185.856 92.1053 186.036 92.4253 186.148C92.7533 186.252 93.1213 186.304 93.5293 186.304C93.9613 186.304 94.2893 186.232 94.5133 186.088C94.7453 185.936 94.8613 185.72 94.8613 185.44C94.8613 185.208 94.7853 185.024 94.6333 184.888C94.4813 184.752 94.2293 184.644 93.8773 184.564L92.8933 184.336C92.3973 184.224 92.0173 184.032 91.7533 183.76C91.4893 183.488 91.3573 183.152 91.3573 182.752C91.3573 182.232 91.5613 181.812 91.9693 181.492C92.3773 181.172 92.9213 181.012 93.6013 181.012C94.0093 181.012 94.3973 181.08 94.7653 181.216C95.1333 181.344 95.4413 181.532 95.6893 181.78L95.3653 182.488C94.8293 182.032 94.2413 181.804 93.6013 181.804C93.1933 181.804 92.8733 181.884 92.6413 182.044C92.4173 182.196 92.3053 182.412 92.3053 182.692C92.3053 182.924 92.3733 183.112 92.5093 183.256C92.6533 183.392 92.8813 183.496 93.1933 183.568L94.1893 183.808C94.7333 183.936 95.1373 184.132 95.4013 184.396C95.6653 184.652 95.7973 184.988 95.7973 185.404C95.7973 185.916 95.5893 186.324 95.1733 186.628C94.7653 186.932 94.2053 187.084 93.4933 187.084ZM99.2589 187.084C98.2749 187.084 97.4949 186.832 96.9189 186.328L97.2429 185.608C97.5549 185.856 97.8709 186.036 98.1909 186.148C98.5189 186.252 98.8869 186.304 99.2949 186.304C99.7269 186.304 100.055 186.232 100.279 186.088C100.511 185.936 100.627 185.72 100.627 185.44C100.627 185.208 100.551 185.024 100.399 184.888C100.247 184.752 99.9949 184.644 99.6429 184.564L98.6589 184.336C98.1629 184.224 97.7829 184.032 97.5189 183.76C97.2549 183.488 97.1229 183.152 97.1229 182.752C97.1229 182.232 97.3269 181.812 97.7349 181.492C98.1429 181.172 98.6869 181.012 99.3669 181.012C99.7749 181.012 100.163 181.08 100.531 181.216C100.899 181.344 101.207 181.532 101.455 181.78L101.131 182.488C100.595 182.032 100.007 181.804 99.3669 181.804C98.9589 181.804 98.6389 181.884 98.4069 182.044C98.1829 182.196 98.0709 182.412 98.0709 182.692C98.0709 182.924 98.1389 183.112 98.2749 183.256C98.4189 183.392 98.6469 183.496 98.9589 183.568L99.9549 183.808C100.499 183.936 100.903 184.132 101.167 184.396C101.431 184.652 101.563 184.988 101.563 185.404C101.563 185.916 101.355 186.324 100.939 186.628C100.531 186.932 99.9709 187.084 99.2589 187.084ZM107.941 184.228H103.669C103.701 184.908 103.885 185.424 104.221 185.776C104.557 186.12 105.033 186.292 105.649 186.292C106.329 186.292 106.953 186.06 107.521 185.596L107.845 186.304C107.589 186.544 107.261 186.736 106.861 186.88C106.461 187.016 106.053 187.084 105.637 187.084C104.725 187.084 104.005 186.816 103.477 186.28C102.957 185.744 102.697 185.004 102.697 184.06C102.697 183.46 102.813 182.932 103.045 182.476C103.277 182.012 103.601 181.652 104.017 181.396C104.441 181.14 104.921 181.012 105.457 181.012C106.233 181.012 106.841 181.268 107.281 181.78C107.721 182.284 107.941 182.98 107.941 183.868V184.228ZM105.469 181.768C104.957 181.768 104.545 181.928 104.233 182.248C103.929 182.568 103.749 183.02 103.693 183.604H107.089C107.073 183.012 106.925 182.56 106.645 182.248C106.365 181.928 105.973 181.768 105.469 181.768ZM111.353 187.084C110.369 187.084 109.589 186.832 109.013 186.328L109.337 185.608C109.649 185.856 109.965 186.036 110.285 186.148C110.613 186.252 110.981 186.304 111.389 186.304C111.821 186.304 112.149 186.232 112.373 186.088C112.605 185.936 112.721 185.72 112.721 185.44C112.721 185.208 112.645 185.024 112.493 184.888C112.341 184.752 112.089 184.644 111.737 184.564L110.753 184.336C110.257 184.224 109.877 184.032 109.613 183.76C109.349 183.488 109.217 183.152 109.217 182.752C109.217 182.232 109.421 181.812 109.829 181.492C110.237 181.172 110.781 181.012 111.461 181.012C111.869 181.012 112.257 181.08 112.625 181.216C112.993 181.344 113.301 181.532 113.549 181.78L113.225 182.488C112.689 182.032 112.101 181.804 111.461 181.804C111.053 181.804 110.733 181.884 110.501 182.044C110.277 182.196 110.165 182.412 110.165 182.692C110.165 182.924 110.233 183.112 110.369 183.256C110.513 183.392 110.741 183.496 111.053 183.568L112.049 183.808C112.593 183.936 112.997 184.132 113.261 184.396C113.525 184.652 113.657 184.988 113.657 185.404C113.657 185.916 113.449 186.324 113.033 186.628C112.625 186.932 112.065 187.084 111.353 187.084Z" fill="#808080"/>
<path d="M330 174L336 168L330 162" stroke="#242424" stroke-width="1.5" stroke-linecap="round" stroke-linejoin="round"/>
<g filter="url(#filter2_d_1_32)">
<rect x="20" y="223" width="335" height="80" fill="white"/>
</g>
<path d="M41.368 246.31H46.912C48.268 246.31 49.324 246.652 50.08 247.336C50.836 248.008 51.214 248.956 51.214 250.18C51.214 251.404 50.836 252.358 50.08 253.042C49.324 253.726 48.268 254.068 46.912 254.068H43.69V259H41.368V246.31ZM46.624 252.286C48.22 252.286 49.018 251.59 49.018 250.198C49.018 249.49 48.82 248.968 48.424 248.632C48.028 248.284 47.428 248.11 46.624 248.11H43.69V252.286H46.624ZM56.6043 249.982C57.8403 249.982 58.7583 250.282 59.3583 250.882C59.9583 251.482 60.2583 252.406 60.2583 253.654V259H58.1163V257.65C57.9123 258.118 57.5883 258.484 57.1443 258.748C56.7123 259.012 56.2083 259.144 55.6323 259.144C55.0443 259.144 54.5103 259.024 54.0303 258.784C53.5503 258.544 53.1723 258.214 52.8963 257.794C52.6203 257.374 52.4823 256.906 52.4823 256.39C52.4823 255.742 52.6443 255.232 52.9683 254.86C53.3043 254.488 53.8443 254.218 54.5883 254.05C55.3323 253.882 56.3583 253.798 57.6663 253.798H58.1163V253.384C58.1163 252.784 57.9843 252.352 57.7203 252.088C57.4683 251.824 57.0423 251.692 56.4423 251.692C55.9743 251.692 55.4823 251.776 54.9663 251.944C54.4623 252.1 53.9643 252.322 53.4723 252.61L52.8423 251.062C53.3343 250.75 53.9283 250.492 54.6243 250.288C55.3203 250.084 55.9803 249.982 56.6043 249.982ZM56.0823 257.524C56.6823 257.524 57.1683 257.326 57.5403 256.93C57.9243 256.522 58.1163 256 58.1163 255.364V254.986H57.7923C56.9883 254.986 56.3643 255.022 55.9203 255.094C55.4763 255.166 55.1583 255.292 54.9663 255.472C54.7743 255.652 54.6783 255.898 54.6783 256.21C54.6783 256.594 54.8103 256.912 55.0743 257.164C55.3383 257.404 55.6743 257.524 56.0823 257.524ZM68.719 250.216H70.933L65.641 262.24H63.373L64.975 258.658L61.303 250.216H63.679L66.163 256.426L68.719 250.216ZM82.4776 249.982C83.4736 249.982 84.2176 250.282 84.7096 250.882C85.2016 251.47 85.4476 252.376 85.4476 253.6V259H83.1976V253.69C83.1976 253.018 83.0836 252.532 82.8556 252.232C82.6276 251.92 82.2616 251.764 81.7576 251.764C81.1576 251.764 80.6896 251.968 80.3536 252.376C80.0176 252.784 79.8496 253.354 79.8496 254.086V259H77.5996V253.69C77.5996 253.018 77.4856 252.532 77.2576 252.232C77.0416 251.92 76.6756 251.764 76.1596 251.764C75.5716 251.764 75.1096 251.968 74.7736 252.376C74.4376 252.784 74.2696 253.354 74.2696 254.086V259H72.0196V250.198H74.2156V251.44C74.4796 250.96 74.8456 250.6 75.3136 250.36C75.7816 250.108 76.3156 249.982 76.9156 249.982C78.2476 249.982 79.1296 250.534 79.5616 251.638C79.8376 251.122 80.2336 250.72 80.7496 250.432C81.2656 250.132 81.8416 249.982 82.4776 249.982ZM95.4565 255.004H89.4625C89.5345 255.82 89.7805 256.426 90.2005 256.822C90.6205 257.218 91.2205 257.416 92.0005 257.416C92.9725 257.416 93.8605 257.104 94.6645 256.48L95.3125 258.028C94.9045 258.364 94.3885 258.634 93.7645 258.838C93.1525 259.042 92.5345 259.144 91.9105 259.144C90.4705 259.144 89.3305 258.736 88.4905 257.92C87.6625 257.104 87.2485 255.988 87.2485 254.572C87.2485 253.672 87.4285 252.874 87.7885 252.178C88.1485 251.482 88.6525 250.942 89.3005 250.558C89.9605 250.174 90.7045 249.982 91.5325 249.982C92.7445 249.982 93.6985 250.372 94.3945 251.152C95.1025 251.932 95.4565 253.006 95.4565 254.374V255.004ZM91.5865 251.566C90.9865 251.566 90.5005 251.758 90.1285 252.142C89.7685 252.526 89.5465 253.078 89.4625 253.798H93.5305C93.5065 253.066 93.3265 252.514 92.9905 252.142C92.6545 251.758 92.1865 251.566 91.5865 251.566ZM102.409 249.982C103.465 249.982 104.251 250.282 104.767 250.882C105.283 251.482 105.541 252.388 105.541 253.6V259H103.291V253.726C103.291 253.042 103.159 252.544 102.895 252.232C102.643 251.92 102.241 251.764 101.689 251.764C101.041 251.764 100.519 251.968 100.123 252.376C99.739 252.784 99.547 253.33 99.547 254.014V259H97.297V250.198H99.493V251.512C99.793 251.02 100.195 250.642 100.699 250.378C101.203 250.114 101.773 249.982 102.409 249.982ZM112.326 257.452C112.59 257.452 112.866 257.434 113.154 257.398L113.046 259.072C112.686 259.108 112.356 259.126 112.056 259.126C110.82 259.126 109.908 258.844 109.32 258.28C108.732 257.704 108.438 256.852 108.438 255.724V251.89H106.746V250.198H108.438V247.57H110.688V250.198H113.01V251.89H110.688V255.688C110.688 256.864 111.234 257.452 112.326 257.452ZM130.122 246.31H131.94V259H129.888V250.612L126.54 256.948H124.992L121.626 250.702L121.644 259H119.592V246.31H121.428L125.784 254.608L130.122 246.31ZM142.214 255.004H136.22C136.292 255.82 136.538 256.426 136.958 256.822C137.378 257.218 137.978 257.416 138.758 257.416C139.73 257.416 140.618 257.104 141.422 256.48L142.07 258.028C141.662 258.364 141.146 258.634 140.522 258.838C139.91 259.042 139.292 259.144 138.668 259.144C137.228 259.144 136.088 258.736 135.248 257.92C134.42 257.104 134.006 255.988 134.006 254.572C134.006 253.672 134.186 252.874 134.546 252.178C134.906 251.482 135.41 250.942 136.058 250.558C136.718 250.174 137.462 249.982 138.29 249.982C139.502 249.982 140.456 250.372 141.152 251.152C141.86 251.932 142.214 253.006 142.214 254.374V255.004ZM138.344 251.566C137.744 251.566 137.258 251.758 136.886 252.142C136.526 252.526 136.304 253.078 136.22 253.798H140.288C140.264 253.066 140.084 252.514 139.748 252.142C139.412 251.758 138.944 251.566 138.344 251.566ZM148.432 257.452C148.696 257.452 148.972 257.434 149.26 257.398L149.152 259.072C148.792 259.108 148.462 259.126 148.162 259.126C146.926 259.126 146.014 258.844 145.426 258.28C144.838 257.704 144.544 256.852 144.544 255.724V251.89H142.852V250.198H144.544V247.57H146.794V250.198H149.116V251.89H146.794V255.688C146.794 256.864 147.34 257.452 148.432 257.452ZM155.688 249.982C156.744 249.982 157.53 250.282 158.046 250.882C158.562 251.482 158.82 252.388 158.82 253.6V259H156.57V253.726C156.57 253.042 156.438 252.544 156.174 252.232C155.922 251.92 155.52 251.764 154.968 251.764C154.32 251.764 153.798 251.968 153.402 252.376C153.018 252.784 152.826 253.33 152.826 254.014V259H150.576V246.31H152.826V251.422C153.126 250.954 153.522 250.6 154.014 250.36C154.518 250.108 155.076 249.982 155.688 249.982ZM165.12 259.144C164.22 259.144 163.428 258.958 162.744 258.586C162.072 258.214 161.55 257.68 161.178 256.984C160.806 256.288 160.62 255.478 160.62 254.554C160.62 253.63 160.806 252.826 161.178 252.142C161.55 251.446 162.072 250.912 162.744 250.54C163.428 250.168 164.22 249.982 165.12 249.982C166.02 249.982 166.806 250.168 167.478 250.54C168.162 250.912 168.684 251.446 169.044 252.142C169.416 252.826 169.602 253.63 169.602 254.554C169.602 255.478 169.416 256.288 169.044 256.984C168.684 257.68 168.162 258.214 167.478 258.586C166.806 258.958 166.02 259.144 165.12 259.144ZM165.102 257.398C165.834 257.398 166.392 257.158 166.776 256.678C167.16 256.198 167.352 255.49 167.352 254.554C167.352 253.63 167.16 252.928 166.776 252.448C166.392 251.956 165.84 251.71 165.12 251.71C164.4 251.71 163.842 251.956 163.446 252.448C163.062 252.928 162.87 253.63 162.87 254.554C162.87 255.49 163.062 256.198 163.446 256.678C163.83 257.158 164.382 257.398 165.102 257.398ZM179.955 246.31V259H177.723V257.578C177.459 258.07 177.075 258.454 176.571 258.73C176.079 259.006 175.515 259.144 174.879 259.144C174.123 259.144 173.445 258.952 172.845 258.568C172.257 258.184 171.795 257.644 171.459 256.948C171.135 256.24 170.973 255.43 170.973 254.518C170.973 253.606 171.135 252.808 171.459 252.124C171.795 251.44 172.257 250.912 172.845 250.54C173.433 250.168 174.111 249.982 174.879 249.982C175.515 249.982 176.079 250.114 176.571 250.378C177.063 250.642 177.441 251.014 177.705 251.494V246.31H179.955ZM175.473 257.398C176.193 257.398 176.745 257.152 177.129 256.66C177.525 256.168 177.723 255.466 177.723 254.554C177.723 253.642 177.525 252.946 177.129 252.466C176.745 251.974 176.199 251.728 175.491 251.728C174.771 251.728 174.213 251.968 173.817 252.448C173.421 252.928 173.223 253.618 173.223 254.518C173.223 255.43 173.421 256.138 173.817 256.642C174.213 257.146 174.765 257.398 175.473 257.398Z" fill="#242424"/>
<path d="M47.416 273.54L44.092 278.004V282H43.108V277.992L39.784 273.54H40.924L43.612 277.188L46.3 273.54H47.416ZM49.617 282.084C49.065 282.084 48.577 281.96 48.153 281.712C47.737 281.464 47.413 281.112 47.181 280.656C46.957 280.192 46.845 279.656 46.845 279.048C46.845 278.44 46.957 277.908 47.181 277.452C47.413 276.988 47.737 276.632 48.153 276.384C48.577 276.136 49.065 276.012 49.617 276.012C50.169 276.012 50.657 276.136 51.081 276.384C51.505 276.632 51.829 276.988 52.053 277.452C52.285 277.908 52.401 278.44 52.401 279.048C52.401 279.656 52.285 280.192 52.053 280.656C51.829 281.112 51.505 281.464 51.081 281.712C50.657 281.96 50.169 282.084 49.617 282.084ZM49.617 281.28C50.193 281.28 50.633 281.092 50.937 280.716C51.249 280.332 51.405 279.776 51.405 279.048C51.405 278.336 51.249 277.788 50.937 277.404C50.625 277.012 50.185 276.816 49.617 276.816C49.049 276.816 48.609 277.012 48.297 277.404C47.985 277.788 47.829 278.336 47.829 279.048C47.829 279.768 47.981 280.32 48.285 280.704C48.597 281.088 49.041 281.28 49.617 281.28ZM58.7692 276.156V282H57.8212V281.004C57.6372 281.356 57.3772 281.624 57.0412 281.808C56.7132 281.992 56.3412 282.084 55.9252 282.084C55.2292 282.084 54.7052 281.892 54.3532 281.508C54.0012 281.116 53.8252 280.54 53.8252 279.78V276.156H54.7972V279.756C54.7972 280.276 54.9012 280.66 55.1092 280.908C55.3172 281.148 55.6452 281.268 56.0932 281.268C56.6052 281.268 57.0172 281.104 57.3292 280.776C57.6412 280.44 57.7972 280 57.7972 279.456V276.156H58.7692ZM66.6095 276.012C68.0095 276.012 68.7095 276.784 68.7095 278.328V282H67.7375V278.388C67.7375 277.844 67.6295 277.448 67.4135 277.2C67.2055 276.952 66.8695 276.828 66.4055 276.828C65.8695 276.828 65.4415 276.992 65.1215 277.32C64.8015 277.648 64.6415 278.092 64.6415 278.652V282H63.6695V273.54H64.6415V277.092C64.8335 276.74 65.0975 276.472 65.4335 276.288C65.7775 276.104 66.1695 276.012 66.6095 276.012ZM72.8658 276.012C73.6098 276.012 74.1618 276.204 74.5218 276.588C74.8898 276.964 75.0738 277.54 75.0738 278.316V282H74.1258V281.004C73.9738 281.348 73.7418 281.616 73.4298 281.808C73.1178 281.992 72.7578 282.084 72.3498 282.084C71.9738 282.084 71.6258 282.008 71.3058 281.856C70.9938 281.704 70.7458 281.492 70.5618 281.22C70.3778 280.948 70.2858 280.648 70.2858 280.32C70.2858 279.88 70.3978 279.54 70.6218 279.3C70.8458 279.052 71.2138 278.876 71.7258 278.772C72.2378 278.66 72.9498 278.604 73.8618 278.604H74.1258V278.208C74.1258 277.72 74.0258 277.368 73.8258 277.152C73.6258 276.928 73.3018 276.816 72.8538 276.816C72.1818 276.816 71.5138 277.024 70.8498 277.44L70.5258 276.732C70.8298 276.516 71.1938 276.344 71.6178 276.216C72.0498 276.08 72.4658 276.012 72.8658 276.012ZM72.4818 281.316C72.9618 281.316 73.3538 281.156 73.6578 280.836C73.9698 280.508 74.1258 280.088 74.1258 279.576V279.228H73.9098C73.2058 279.228 72.6698 279.26 72.3018 279.324C71.9338 279.38 71.6698 279.48 71.5098 279.624C71.3578 279.76 71.2818 279.964 71.2818 280.236C71.2818 280.548 71.3938 280.808 71.6178 281.016C71.8498 281.216 72.1378 281.316 72.4818 281.316ZM81.0411 276.168H82.0131L79.4931 282H78.5811L76.0731 276.168H77.1051L79.0611 280.944L81.0411 276.168ZM87.8429 279.228H83.5709C83.6029 279.908 83.7869 280.424 84.1229 280.776C84.4589 281.12 84.9349 281.292 85.5509 281.292C86.2309 281.292 86.8549 281.06 87.4229 280.596L87.7469 281.304C87.4909 281.544 87.1629 281.736 86.7629 281.88C86.3629 282.016 85.9549 282.084 85.5389 282.084C84.6269 282.084 83.9069 281.816 83.3789 281.28C82.8589 280.744 82.5989 280.004 82.5989 279.06C82.5989 278.46 82.7149 277.932 82.9469 277.476C83.1789 277.012 83.5029 276.652 83.9189 276.396C84.3429 276.14 84.8229 276.012 85.3589 276.012C86.1349 276.012 86.7429 276.268 87.1829 276.78C87.6229 277.284 87.8429 277.98 87.8429 278.868V279.228ZM85.3709 276.768C84.8589 276.768 84.4469 276.928 84.1349 277.248C83.8309 277.568 83.6509 278.02 83.5949 278.604H86.9909C86.9749 278.012 86.8269 277.56 86.5469 277.248C86.2669 276.928 85.8749 276.768 85.3709 276.768ZM97.9368 281.172V282H92.4888V281.256L95.4528 277.992C95.8528 277.544 96.1408 277.144 96.3168 276.792C96.5008 276.432 96.5928 276.072 96.5928 275.712C96.5928 275.248 96.4568 274.892 96.1848 274.644C95.9128 274.396 95.5288 274.272 95.0328 274.272C94.2168 274.272 93.4168 274.596 92.6328 275.244L92.2607 274.488C92.5968 274.168 93.0168 273.916 93.5208 273.732C94.0328 273.54 94.5448 273.444 95.0568 273.444C95.8328 273.444 96.4448 273.644 96.8928 274.044C97.3488 274.444 97.5768 274.984 97.5768 275.664C97.5768 276.152 97.4648 276.62 97.2408 277.068C97.0248 277.516 96.6648 278.016 96.1608 278.568L93.7608 281.172H97.9368ZM105.13 282.084C104.554 282.084 104.054 281.96 103.63 281.712C103.206 281.464 102.878 281.116 102.646 280.668C102.422 280.212 102.31 279.68 102.31 279.072C102.31 278.464 102.426 277.932 102.658 277.476C102.898 277.012 103.23 276.652 103.654 276.396C104.086 276.14 104.59 276.012 105.166 276.012C105.558 276.012 105.942 276.084 106.318 276.228C106.694 276.364 106.998 276.548 107.23 276.78L106.906 277.5C106.354 277.052 105.794 276.828 105.226 276.828C104.626 276.828 104.158 277.024 103.822 277.416C103.486 277.808 103.318 278.36 103.318 279.072C103.318 279.776 103.486 280.32 103.822 280.704C104.158 281.088 104.626 281.28 105.226 281.28C105.794 281.28 106.354 281.056 106.906 280.608L107.23 281.328C106.982 281.56 106.67 281.744 106.294 281.88C105.918 282.016 105.53 282.084 105.13 282.084ZM110.776 276.012C111.52 276.012 112.072 276.204 112.432 276.588C112.8 276.964 112.984 277.54 112.984 278.316V282H112.036V281.004C111.884 281.348 111.652 281.616 111.34 281.808C111.028 281.992 110.668 282.084 110.26 282.084C109.884 282.084 109.536 282.008 109.216 281.856C108.904 281.704 108.656 281.492 108.472 281.22C108.288 280.948 108.196 280.648 108.196 280.32C108.196 279.88 108.308 279.54 108.532 279.3C108.756 279.052 109.124 278.876 109.636 278.772C110.148 278.66 110.86 278.604 111.772 278.604H112.036V278.208C112.036 277.72 111.936 277.368 111.736 277.152C111.536 276.928 111.212 276.816 110.764 276.816C110.092 276.816 109.424 277.024 108.76 277.44L108.436 276.732C108.74 276.516 109.104 276.344 109.528 276.216C109.96 276.08 110.376 276.012 110.776 276.012ZM110.392 281.316C110.872 281.316 111.264 281.156 111.568 280.836C111.88 280.508 112.036 280.088 112.036 279.576V279.228H111.82C111.116 279.228 110.58 279.26 110.212 279.324C109.844 279.38 109.58 279.48 109.42 279.624C109.268 279.76 109.192 279.964 109.192 280.236C109.192 280.548 109.304 280.808 109.528 281.016C109.76 281.216 110.048 281.316 110.392 281.316ZM118.075 276.852L117.439 276.912C116.839 276.968 116.403 277.156 116.131 277.476C115.867 277.796 115.735 278.192 115.735 278.664V282H114.763V276.156H115.711V277.176C116.039 276.496 116.683 276.116 117.643 276.036L117.991 276.012L118.075 276.852ZM124.061 273.54V282H123.089V280.932C122.913 281.3 122.653 281.584 122.309 281.784C121.973 281.984 121.577 282.084 121.121 282.084C120.609 282.084 120.157 281.956 119.765 281.7C119.373 281.444 119.069 281.088 118.853 280.632C118.637 280.168 118.529 279.632 118.529 279.024C118.529 278.424 118.637 277.896 118.853 277.44C119.069 276.984 119.373 276.632 119.765 276.384C120.157 276.136 120.609 276.012 121.121 276.012C121.577 276.012 121.973 276.112 122.309 276.312C122.653 276.512 122.913 276.796 123.089 277.164V273.54H124.061ZM121.313 281.28C121.881 281.28 122.317 281.088 122.621 280.704C122.933 280.312 123.089 279.76 123.089 279.048C123.089 278.336 122.933 277.788 122.621 277.404C122.317 277.02 121.881 276.828 121.313 276.828C120.745 276.828 120.301 277.02 119.981 277.404C119.669 277.788 119.513 278.328 119.513 279.024C119.513 279.736 119.669 280.292 119.981 280.692C120.301 281.084 120.745 281.28 121.313 281.28ZM127.841 282.084C126.857 282.084 126.077 281.832 125.501 281.328L125.825 280.608C126.137 280.856 126.453 281.036 126.773 281.148C127.101 281.252 127.469 281.304 127.877 281.304C128.309 281.304 128.637 281.232 128.861 281.088C129.093 280.936 129.209 280.72 129.209 280.44C129.209 280.208 129.133 280.024 128.981 279.888C128.829 279.752 128.577 279.644 128.225 279.564L127.241 279.336C126.745 279.224 126.365 279.032 126.101 278.76C125.837 278.488 125.705 278.152 125.705 277.752C125.705 277.232 125.909 276.812 126.317 276.492C126.725 276.172 127.269 276.012 127.949 276.012C128.357 276.012 128.745 276.08 129.113 276.216C129.481 276.344 129.789 276.532 130.037 276.78L129.713 277.488C129.177 277.032 128.589 276.804 127.949 276.804C127.541 276.804 127.221 276.884 126.989 277.044C126.765 277.196 126.653 277.412 126.653 277.692C126.653 277.924 126.721 278.112 126.857 278.256C127.001 278.392 127.229 278.496 127.541 278.568L128.537 278.808C129.081 278.936 129.485 279.132 129.749 279.396C130.013 279.652 130.145 279.988 130.145 280.404C130.145 280.916 129.937 281.324 129.521 281.628C129.113 281.932 128.553 282.084 127.841 282.084Z" fill="#808080"/>
<path d="M330 269L336 263L330 257" stroke="#242424" stroke-width="1.5" stroke-linecap="round" stroke-linejoin="round"/>
<g filter="url(#filter3_d_1_32)">
<rect x="20" y="318" width="335" height="80" fill="white"/>
</g>
<path d="M51.934 341.31H53.752V354H51.7V345.612L48.352 351.948H46.804L43.438 345.702L43.456 354H41.404V341.31H43.24L47.596 349.608L51.934 341.31ZM62.4788 345.216H64.6928L59.4008 357.24H57.1328L58.7348 353.658L55.0628 345.216H57.4388L59.9228 351.426L62.4788 345.216ZM76.4621 346.854L75.1481 346.98C73.6601 347.136 72.9161 347.892 72.9161 349.248V354H70.6661V345.198H72.8081V346.746C73.2641 345.69 74.2061 345.114 75.6341 345.018L76.3181 344.964L76.4621 346.854ZM85.1029 350.004H79.1089C79.1809 350.82 79.4269 351.426 79.8469 351.822C80.2669 352.218 80.8669 352.416 81.6469 352.416C82.6189 352.416 83.5069 352.104 84.3109 351.48L84.9589 353.028C84.5509 353.364 84.0349 353.634 83.4109 353.838C82.7989 354.042 82.1809 354.144 81.5569 354.144C80.1169 354.144 78.9769 353.736 78.1369 352.92C77.3089 352.104 76.8949 350.988 76.8949 349.572C76.8949 348.672 77.0749 347.874 77.4349 347.178C77.7949 346.482 78.2989 345.942 78.9469 345.558C79.6069 345.174 80.3509 344.982 81.1789 344.982C82.3909 344.982 83.3449 345.372 84.0409 346.152C84.7489 346.932 85.1029 348.006 85.1029 349.374V350.004ZM81.2329 346.566C80.6329 346.566 80.1469 346.758 79.7749 347.142C79.4149 347.526 79.1929 348.078 79.1089 348.798H83.1769C83.1529 348.066 82.9729 347.514 82.6369 347.142C82.3009 346.758 81.8329 346.566 81.2329 346.566ZM92.9768 345.216H95.1908L91.3388 354H89.3768L85.5608 345.216H87.9368L90.4208 351.426L92.9768 345.216ZM96.2774 354V345.198H98.5274V354H96.2774ZM96.1514 341.112H98.6354V343.326H96.1514V341.112ZM108.57 350.004H102.576C102.648 350.82 102.894 351.426 103.314 351.822C103.734 352.218 104.334 352.416 105.114 352.416C106.086 352.416 106.974 352.104 107.778 351.48L108.426 353.028C108.018 353.364 107.502 353.634 106.878 353.838C106.266 354.042 105.648 354.144 105.024 354.144C103.584 354.144 102.444 353.736 101.604 352.92C100.776 352.104 100.362 350.988 100.362 349.572C100.362 348.672 100.542 347.874 100.902 347.178C101.262 346.482 101.766 345.942 102.414 345.558C103.074 345.174 103.818 344.982 104.646 344.982C105.858 344.982 106.812 345.372 107.508 346.152C108.216 346.932 108.57 348.006 108.57 349.374V350.004ZM104.7 346.566C104.1 346.566 103.614 346.758 103.242 347.142C102.882 347.526 102.66 348.078 102.576 348.798H106.644C106.62 348.066 106.44 347.514 106.104 347.142C105.768 346.758 105.3 346.566 104.7 346.566ZM122.15 345.198H124.346L120.89 354H118.928L116.768 348.33L114.662 354H112.718L109.244 345.198H111.548L113.798 351.318L116.048 345.198H117.668L119.918 351.354L122.15 345.198ZM128.803 354.144C128.023 354.144 127.303 354.048 126.643 353.856C125.995 353.664 125.443 353.388 124.987 353.028L125.617 351.462C126.553 352.146 127.627 352.488 128.839 352.488C129.355 352.488 129.745 352.404 130.009 352.236C130.285 352.068 130.423 351.828 130.423 351.516C130.423 351.252 130.327 351.048 130.135 350.904C129.955 350.76 129.625 350.628 129.145 350.508L127.705 350.184C126.889 350.004 126.283 349.71 125.887 349.302C125.491 348.894 125.293 348.366 125.293 347.718C125.293 347.178 125.443 346.704 125.743 346.296C126.055 345.876 126.481 345.552 127.021 345.324C127.573 345.096 128.209 344.982 128.929 344.982C129.553 344.982 130.153 345.078 130.729 345.27C131.317 345.462 131.833 345.732 132.277 346.08L131.647 347.61C130.735 346.95 129.823 346.62 128.911 346.62C128.419 346.62 128.035 346.71 127.759 346.89C127.483 347.07 127.345 347.322 127.345 347.646C127.345 347.886 127.429 348.084 127.597 348.24C127.777 348.396 128.059 348.516 128.443 348.6L129.937 348.942C130.813 349.134 131.455 349.44 131.863 349.86C132.271 350.268 132.475 350.808 132.475 351.48C132.475 352.296 132.145 352.944 131.485 353.424C130.825 353.904 129.931 354.144 128.803 354.144Z" fill="#242424"/>
<path d="M47.704 377H46.624L45.184 374.288C45.008 373.96 44.8 373.736 44.56 373.616C44.328 373.488 44.008 373.424 43.6 373.424H42.016V377H41.044V368.54H44.524C45.444 368.54 46.144 368.744 46.624 369.152C47.112 369.56 47.356 370.16 47.356 370.952C47.356 371.608 47.168 372.14 46.792 372.548C46.424 372.948 45.896 373.2 45.208 373.304C45.424 373.368 45.612 373.476 45.772 373.628C45.94 373.78 46.092 373.984 46.228 374.24L47.704 377ZM44.44 372.608C45.096 372.608 45.584 372.472 45.904 372.2C46.232 371.928 46.396 371.516 46.396 370.964C46.396 370.42 46.236 370.016 45.916 369.752C45.596 369.488 45.104 369.356 44.44 369.356H42.016V372.608H44.44ZM54.0226 374.228H49.7506C49.7826 374.908 49.9666 375.424 50.3026 375.776C50.6386 376.12 51.1146 376.292 51.7306 376.292C52.4106 376.292 53.0346 376.06 53.6026 375.596L53.9266 376.304C53.6706 376.544 53.3426 376.736 52.9426 376.88C52.5426 377.016 52.1346 377.084 51.7186 377.084C50.8066 377.084 50.0866 376.816 49.5586 376.28C49.0386 375.744 48.7786 375.004 48.7786 374.06C48.7786 373.46 48.8946 372.932 49.1266 372.476C49.3586 372.012 49.6826 371.652 50.0986 371.396C50.5226 371.14 51.0026 371.012 51.5386 371.012C52.3146 371.012 52.9226 371.268 53.3626 371.78C53.8026 372.284 54.0226 372.98 54.0226 373.868V374.228ZM51.5506 371.768C51.0386 371.768 50.6266 371.928 50.3146 372.248C50.0106 372.568 49.8306 373.02 49.7746 373.604H53.1706C53.1546 373.012 53.0066 372.56 52.7266 372.248C52.4466 371.928 52.0546 371.768 51.5506 371.768ZM59.5724 371.168H60.5444L58.0244 377H57.1124L54.6044 371.168H55.6364L57.5924 375.944L59.5724 371.168ZM61.5484 377V371.156H62.5204V377H61.5484ZM61.4524 368.624H62.6284V369.716H61.4524V368.624ZM69.2335 374.228H64.9615C64.9935 374.908 65.1775 375.424 65.5135 375.776C65.8495 376.12 66.3255 376.292 66.9415 376.292C67.6215 376.292 68.2455 376.06 68.8135 375.596L69.1375 376.304C68.8815 376.544 68.5535 376.736 68.1535 376.88C67.7535 377.016 67.3455 377.084 66.9295 377.084C66.0175 377.084 65.2975 376.816 64.7695 376.28C64.2495 375.744 63.9895 375.004 63.9895 374.06C63.9895 373.46 64.1055 372.932 64.3375 372.476C64.5695 372.012 64.8935 371.652 65.3095 371.396C65.7335 371.14 66.2135 371.012 66.7495 371.012C67.5255 371.012 68.1335 371.268 68.5735 371.78C69.0135 372.284 69.2335 372.98 69.2335 373.868V374.228ZM66.7615 371.768C66.2495 371.768 65.8375 371.928 65.5255 372.248C65.2215 372.568 65.0415 373.02 64.9855 373.604H68.3815C68.3655 373.012 68.2175 372.56 67.9375 372.248C67.6575 371.928 67.2655 371.768 66.7615 371.768ZM78.5273 371.156H79.4993L77.3273 377H76.3913L74.7473 372.476L73.0913 377H72.1673L69.9953 371.156H71.0033L72.6593 375.848L74.3513 371.156H75.1913L76.8593 375.848L78.5273 371.156ZM82.5714 377.084C81.5874 377.084 80.8074 376.832 80.2314 376.328L80.5554 375.608C80.8674 375.856 81.1834 376.036 81.5034 376.148C81.8314 376.252 82.1994 376.304 82.6074 376.304C83.0394 376.304 83.3674 376.232 83.5914 376.088C83.8234 375.936 83.9394 375.72 83.9394 375.44C83.9394 375.208 83.8634 375.024 83.7114 374.888C83.5594 374.752 83.3074 374.644 82.9554 374.564L81.9714 374.336C81.4754 374.224 81.0954 374.032 80.8314 373.76C80.5674 373.488 80.4354 373.152 80.4354 372.752C80.4354 372.232 80.6394 371.812 81.0474 371.492C81.4554 371.172 81.9994 371.012 82.6794 371.012C83.0874 371.012 83.4754 371.08 83.8434 371.216C84.2114 371.344 84.5194 371.532 84.7674 371.78L84.4434 372.488C83.9074 372.032 83.3194 371.804 82.6794 371.804C82.2714 371.804 81.9514 371.884 81.7194 372.044C81.4954 372.196 81.3834 372.412 81.3834 372.692C81.3834 372.924 81.4514 373.112 81.5874 373.256C81.7314 373.392 81.9594 373.496 82.2714 373.568L83.2674 373.808C83.8114 373.936 84.2154 374.132 84.4794 374.396C84.7434 374.652 84.8754 374.988 84.8754 375.404C84.8754 375.916 84.6674 376.324 84.2514 376.628C83.8434 376.932 83.2834 377.084 82.5714 377.084ZM90.7468 371.156H92.4028V371.924H90.7468V377H89.7748V371.924H88.6348V371.156H89.7748V370.964C89.7748 370.188 89.9668 369.6 90.3508 369.2C90.7428 368.8 91.3428 368.576 92.1508 368.528L92.6308 368.504L92.7028 369.26L92.1508 369.296C91.6628 369.328 91.3068 369.468 91.0828 369.716C90.8588 369.956 90.7468 370.328 90.7468 370.832V371.156ZM95.7537 377.084C95.2017 377.084 94.7137 376.96 94.2897 376.712C93.8737 376.464 93.5497 376.112 93.3177 375.656C93.0937 375.192 92.9817 374.656 92.9817 374.048C92.9817 373.44 93.0937 372.908 93.3177 372.452C93.5497 371.988 93.8737 371.632 94.2897 371.384C94.7137 371.136 95.2017 371.012 95.7537 371.012C96.3057 371.012 96.7937 371.136 97.2177 371.384C97.6417 371.632 97.9657 371.988 98.1897 372.452C98.4217 372.908 98.5377 373.44 98.5377 374.048C98.5377 374.656 98.4217 375.192 98.1897 375.656C97.9657 376.112 97.6417 376.464 97.2177 376.712C96.7937 376.96 96.3057 377.084 95.7537 377.084ZM95.7537 376.28C96.3297 376.28 96.7697 376.092 97.0737 375.716C97.3857 375.332 97.5417 374.776 97.5417 374.048C97.5417 373.336 97.3857 372.788 97.0737 372.404C96.7617 372.012 96.3217 371.816 95.7537 371.816C95.1857 371.816 94.7457 372.012 94.4337 372.404C94.1217 372.788 93.9657 373.336 93.9657 374.048C93.9657 374.768 94.1177 375.32 94.4217 375.704C94.7337 376.088 95.1777 376.28 95.7537 376.28ZM103.298 371.852L102.662 371.912C102.062 371.968 101.626 372.156 101.354 372.476C101.09 372.796 100.958 373.192 100.958 373.664V377H99.9859V371.156H100.934V372.176C101.262 371.496 101.906 371.116 102.866 371.036L103.214 371.012L103.298 371.852ZM110.37 371.696C110.906 371.696 111.37 371.808 111.762 372.032C112.162 372.256 112.47 372.572 112.686 372.98C112.902 373.38 113.01 373.844 113.01 374.372C113.01 374.908 112.89 375.38 112.65 375.788C112.418 376.196 112.086 376.516 111.654 376.748C111.222 376.972 110.718 377.084 110.142 377.084C109.63 377.084 109.122 376.992 108.618 376.808C108.122 376.616 107.702 376.36 107.358 376.04L107.73 375.284C108.514 375.932 109.318 376.256 110.142 376.256C110.734 376.256 111.198 376.088 111.534 375.752C111.87 375.416 112.038 374.96 112.038 374.384C112.038 373.824 111.87 373.372 111.534 373.028C111.206 372.684 110.766 372.512 110.214 372.512C109.406 372.512 108.762 372.84 108.282 373.496H107.598V368.54H112.674V369.356H108.57V372.368C108.794 372.152 109.058 371.988 109.362 371.876C109.674 371.756 110.01 371.696 110.37 371.696ZM117.599 377V371.156H118.571V377H117.599ZM117.503 368.624H118.679V369.716H117.503V368.624ZM122.956 376.304C123.132 376.304 123.308 376.292 123.484 376.268L123.436 377.036C123.252 377.068 123.052 377.084 122.836 377.084C122.132 377.084 121.6 376.9 121.24 376.532C120.888 376.164 120.712 375.652 120.712 374.996V371.924H119.572V371.156H120.712V369.38H121.684V371.156H123.34V371.924H121.684V374.924C121.684 375.844 122.108 376.304 122.956 376.304ZM129.362 374.228H125.09C125.122 374.908 125.306 375.424 125.642 375.776C125.978 376.12 126.454 376.292 127.07 376.292C127.75 376.292 128.374 376.06 128.942 375.596L129.266 376.304C129.01 376.544 128.682 376.736 128.282 376.88C127.882 377.016 127.474 377.084 127.058 377.084C126.146 377.084 125.426 376.816 124.898 376.28C124.378 375.744 124.118 375.004 124.118 374.06C124.118 373.46 124.234 372.932 124.466 372.476C124.698 372.012 125.022 371.652 125.438 371.396C125.862 371.14 126.342 371.012 126.878 371.012C127.654 371.012 128.262 371.268 128.702 371.78C129.142 372.284 129.362 372.98 129.362 373.868V374.228ZM126.89 371.768C126.378 371.768 125.966 371.928 125.654 372.248C125.35 372.568 125.17 373.02 125.114 373.604H128.51C128.494 373.012 128.346 372.56 128.066 372.248C127.786 371.928 127.394 371.768 126.89 371.768ZM137.299 371.012C138.595 371.012 139.243 371.784 139.243 373.328V377H138.271V373.376C138.271 372.84 138.175 372.448 137.983 372.2C137.799 371.952 137.499 371.828 137.083 371.828C136.595 371.828 136.211 371.992 135.931 372.32C135.651 372.648 135.511 373.096 135.511 373.664V377H134.539V373.376C134.539 372.832 134.443 372.44 134.251 372.2C134.059 371.952 133.755 371.828 133.339 371.828C132.851 371.828 132.467 371.992 132.187 372.32C131.907 372.648 131.767 373.096 131.767 373.664V377H130.795V371.156H131.755V372.08C131.931 371.736 132.175 371.472 132.487 371.288C132.799 371.104 133.159 371.012 133.567 371.012C134.471 371.012 135.067 371.396 135.355 372.164C135.523 371.804 135.779 371.524 136.123 371.324C136.467 371.116 136.859 371.012 137.299 371.012ZM142.993 377.084C142.009 377.084 141.229 376.832 140.653 376.328L140.977 375.608C141.289 375.856 141.605 376.036 141.925 376.148C142.253 376.252 142.621 376.304 143.029 376.304C143.461 376.304 143.789 376.232 144.013 376.088C144.245 375.936 144.361 375.72 144.361 375.44C144.361 375.208 144.285 375.024 144.133 374.888C143.981 374.752 143.729 374.644 143.377 374.564L142.393 374.336C141.897 374.224 141.517 374.032 141.253 373.76C140.989 373.488 140.857 373.152 140.857 372.752C140.857 372.232 141.061 371.812 141.469 371.492C141.877 371.172 142.421 371.012 143.101 371.012C143.509 371.012 143.897 371.08 144.265 371.216C144.633 371.344 144.941 371.532 145.189 371.78L144.865 372.488C144.329 372.032 143.741 371.804 143.101 371.804C142.693 371.804 142.373 371.884 142.141 372.044C141.917 372.196 141.805 372.412 141.805 372.692C141.805 372.924 141.873 373.112 142.009 373.256C142.153 373.392 142.381 373.496 142.693 373.568L143.689 373.808C144.233 373.936 144.637 374.132 144.901 374.396C145.165 374.652 145.297 374.988 145.297 375.404C145.297 375.916 145.089 376.324 144.673 376.628C144.265 376.932 143.705 377.084 142.993 377.084Z" fill="#808080"/>
<path d="M330 364L336 358L330 352" stroke="#242424" stroke-width="1.5" stroke-linecap="round" stroke-linejoin="round"/>
<g filter="url(#filter4_d_1_32)">
<rect x="20" y="413" width="335" height="80" fill="white"/>
</g>
<path d="M45.67 449.162C44.698 449.162 43.786 449.03 42.934 448.766C42.082 448.502 41.362 448.13 40.774 447.65L41.548 445.958C42.16 446.426 42.802 446.768 43.474 446.984C44.158 447.2 44.896 447.308 45.688 447.308C46.564 447.308 47.236 447.158 47.704 446.858C48.184 446.546 48.424 446.114 48.424 445.562C48.424 445.082 48.202 444.716 47.758 444.464C47.326 444.212 46.6 443.972 45.58 443.744C44.524 443.516 43.666 443.252 43.006 442.952C42.346 442.652 41.848 442.268 41.512 441.8C41.176 441.332 41.008 440.738 41.008 440.018C41.008 439.274 41.212 438.608 41.62 438.02C42.028 437.432 42.604 436.976 43.348 436.652C44.092 436.316 44.95 436.148 45.922 436.148C46.81 436.148 47.656 436.286 48.46 436.562C49.264 436.826 49.924 437.192 50.44 437.66L49.666 439.352C48.538 438.452 47.29 438.002 45.922 438.002C45.106 438.002 44.458 438.17 43.978 438.506C43.51 438.83 43.276 439.286 43.276 439.874C43.276 440.366 43.486 440.744 43.906 441.008C44.326 441.272 45.04 441.518 46.048 441.746C47.116 441.986 47.98 442.256 48.64 442.556C49.312 442.844 49.822 443.216 50.17 443.672C50.53 444.128 50.71 444.704 50.71 445.4C50.71 446.156 50.506 446.822 50.098 447.398C49.702 447.962 49.12 448.4 48.352 448.712C47.596 449.012 46.702 449.162 45.67 449.162ZM60.3705 445.004H54.3765C54.4485 445.82 54.6945 446.426 55.1145 446.822C55.5345 447.218 56.1345 447.416 56.9145 447.416C57.8865 447.416 58.7745 447.104 59.5785 446.48L60.2265 448.028C59.8185 448.364 59.3025 448.634 58.6785 448.838C58.0665 449.042 57.4485 449.144 56.8245 449.144C55.3845 449.144 54.2445 448.736 53.4045 447.92C52.5765 447.104 52.1625 445.988 52.1625 444.572C52.1625 443.672 52.3425 442.874 52.7025 442.178C53.0625 441.482 53.5665 440.942 54.2145 440.558C54.8745 440.174 55.6185 439.982 56.4465 439.982C57.6585 439.982 58.6125 440.372 59.3085 441.152C60.0165 441.932 60.3705 443.006 60.3705 444.374V445.004ZM56.5005 441.566C55.9005 441.566 55.4145 441.758 55.0425 442.142C54.6825 442.526 54.4605 443.078 54.3765 443.798H58.4445C58.4205 443.066 58.2405 442.514 57.9045 442.142C57.5685 441.758 57.1005 441.566 56.5005 441.566ZM66.588 447.452C66.852 447.452 67.128 447.434 67.416 447.398L67.308 449.072C66.948 449.108 66.618 449.126 66.318 449.126C65.082 449.126 64.17 448.844 63.582 448.28C62.994 447.704 62.7 446.852 62.7 445.724V441.89H61.008V440.198H62.7V437.57H64.95V440.198H67.272V441.89H64.95V445.688C64.95 446.864 65.496 447.452 66.588 447.452ZM73.1095 447.452C73.3735 447.452 73.6495 447.434 73.9375 447.398L73.8295 449.072C73.4695 449.108 73.1395 449.126 72.8395 449.126C71.6035 449.126 70.6915 448.844 70.1035 448.28C69.5155 447.704 69.2215 446.852 69.2215 445.724V441.89H67.5295V440.198H69.2215V437.57H71.4715V440.198H73.7935V441.89H71.4715V445.688C71.4715 446.864 72.0175 447.452 73.1095 447.452ZM75.254 449V440.198H77.504V449H75.254ZM75.128 436.112H77.612V438.326H75.128V436.112ZM84.9363 439.982C85.9923 439.982 86.7783 440.282 87.2943 440.882C87.8103 441.482 88.0683 442.388 88.0683 443.6V449H85.8183V443.726C85.8183 443.042 85.6863 442.544 85.4223 442.232C85.1703 441.92 84.7683 441.764 84.2163 441.764C83.5683 441.764 83.0463 441.968 82.6503 442.376C82.2663 442.784 82.0743 443.33 82.0743 444.014V449H79.8243V440.198H82.0203V441.512C82.3203 441.02 82.7223 440.642 83.2263 440.378C83.7303 440.114 84.3003 439.982 84.9363 439.982ZM98.9216 440.198V448.19C98.9216 449.57 98.5376 450.614 97.7696 451.322C97.0136 452.03 95.8916 452.384 94.4036 452.384C93.6356 452.384 92.8976 452.282 92.1896 452.078C91.4816 451.886 90.8636 451.61 90.3356 451.25L90.9656 449.666C92.0576 450.326 93.1856 450.656 94.3496 450.656C95.9096 450.656 96.6896 449.888 96.6896 448.352V447.2C96.4256 447.692 96.0416 448.076 95.5376 448.352C95.0336 448.616 94.4576 448.748 93.8096 448.748C93.0416 448.748 92.3576 448.568 91.7576 448.208C91.1696 447.836 90.7076 447.32 90.3716 446.66C90.0356 446 89.8676 445.238 89.8676 444.374C89.8676 443.51 90.0296 442.748 90.3536 442.088C90.6896 441.416 91.1576 440.9 91.7576 440.54C92.3576 440.168 93.0416 439.982 93.8096 439.982C94.4576 439.982 95.0336 440.12 95.5376 440.396C96.0416 440.66 96.4256 441.038 96.6896 441.53V440.198H98.9216ZM94.4036 447.002C95.1236 447.002 95.6816 446.768 96.0776 446.3C96.4856 445.832 96.6896 445.19 96.6896 444.374C96.6896 443.546 96.4856 442.898 96.0776 442.43C95.6816 441.962 95.1236 441.728 94.4036 441.728C93.6956 441.728 93.1376 441.962 92.7296 442.43C92.3216 442.898 92.1176 443.546 92.1176 444.374C92.1176 445.178 92.3216 445.82 92.7296 446.3C93.1376 446.768 93.6956 447.002 94.4036 447.002Z" fill="#242424"/>
<path d="M46.9 463.54H47.824V472H47.068L41.968 465.196V472H41.044V463.54H41.8L46.9 470.344V463.54ZM52.1951 472.084C51.6431 472.084 51.1551 471.96 50.7311 471.712C50.3151 471.464 49.9911 471.112 49.7591 470.656C49.5351 470.192 49.4231 469.656 49.4231 469.048C49.4231 468.44 49.5351 467.908 49.7591 467.452C49.9911 466.988 50.3151 466.632 50.7311 466.384C51.1551 466.136 51.6431 466.012 52.1951 466.012C52.7471 466.012 53.2351 466.136 53.6591 466.384C54.0831 466.632 54.4071 466.988 54.6311 467.452C54.8631 467.908 54.9791 468.44 54.9791 469.048C54.9791 469.656 54.8631 470.192 54.6311 470.656C54.4071 471.112 54.0831 471.464 53.6591 471.712C53.2351 471.96 52.7471 472.084 52.1951 472.084ZM52.1951 471.28C52.7711 471.28 53.2111 471.092 53.5151 470.716C53.8271 470.332 53.9831 469.776 53.9831 469.048C53.9831 468.336 53.8271 467.788 53.5151 467.404C53.2031 467.012 52.7631 466.816 52.1951 466.816C51.6271 466.816 51.1871 467.012 50.8751 467.404C50.5631 467.788 50.4071 468.336 50.4071 469.048C50.4071 469.768 50.5591 470.32 50.8631 470.704C51.1751 471.088 51.6191 471.28 52.1951 471.28ZM58.9836 471.304C59.1596 471.304 59.3356 471.292 59.5116 471.268L59.4636 472.036C59.2796 472.068 59.0796 472.084 58.8636 472.084C58.1596 472.084 57.6276 471.9 57.2676 471.532C56.9156 471.164 56.7396 470.652 56.7396 469.996V466.924H55.5996V466.156H56.7396V464.38H57.7116V466.156H59.3676V466.924H57.7116V469.924C57.7116 470.844 58.1356 471.304 58.9836 471.304ZM60.4938 472V466.156H61.4658V472H60.4938ZM60.3978 463.624H61.5738V464.716H60.3978V463.624ZM64.5788 466.156H68.1788V472H67.2068V466.924H64.5788V472H63.6068V466.924H62.4668V466.156H63.6068V465.964C63.6068 465.18 63.8028 464.588 64.1948 464.188C64.5868 463.788 65.1868 463.568 65.9948 463.528L66.4388 463.504L66.4988 464.26L65.9468 464.296C65.4668 464.328 65.1188 464.468 64.9028 464.716C64.6868 464.964 64.5788 465.336 64.5788 465.832V466.156ZM67.0988 463.612H68.2988V464.728H67.0988V463.612ZM72.4579 472.084C71.8819 472.084 71.3819 471.96 70.9579 471.712C70.5339 471.464 70.2059 471.116 69.9739 470.668C69.7499 470.212 69.6379 469.68 69.6379 469.072C69.6379 468.464 69.7539 467.932 69.9859 467.476C70.2259 467.012 70.5579 466.652 70.9819 466.396C71.4139 466.14 71.9179 466.012 72.4939 466.012C72.8859 466.012 73.2699 466.084 73.6459 466.228C74.0219 466.364 74.3259 466.548 74.5579 466.78L74.2339 467.5C73.6819 467.052 73.1219 466.828 72.5539 466.828C71.9539 466.828 71.4859 467.024 71.1499 467.416C70.8139 467.808 70.6459 468.36 70.6459 469.072C70.6459 469.776 70.8139 470.32 71.1499 470.704C71.4859 471.088 71.9539 471.28 72.5539 471.28C73.1219 471.28 73.6819 471.056 74.2339 470.608L74.5579 471.328C74.3099 471.56 73.9979 471.744 73.6219 471.88C73.2459 472.016 72.8579 472.084 72.4579 472.084ZM78.1041 466.012C78.8481 466.012 79.4001 466.204 79.7601 466.588C80.1281 466.964 80.3121 467.54 80.3121 468.316V472H79.3641V471.004C79.2121 471.348 78.9801 471.616 78.6681 471.808C78.3561 471.992 77.9961 472.084 77.5881 472.084C77.2121 472.084 76.8641 472.008 76.5441 471.856C76.2321 471.704 75.9841 471.492 75.8001 471.22C75.6161 470.948 75.5241 470.648 75.5241 470.32C75.5241 469.88 75.6361 469.54 75.8601 469.3C76.0841 469.052 76.4521 468.876 76.9641 468.772C77.4761 468.66 78.1881 468.604 79.1001 468.604H79.3641V468.208C79.3641 467.72 79.2641 467.368 79.0641 467.152C78.8641 466.928 78.5401 466.816 78.0921 466.816C77.4201 466.816 76.7521 467.024 76.0881 467.44L75.7641 466.732C76.0681 466.516 76.4321 466.344 76.8561 466.216C77.2881 466.08 77.7041 466.012 78.1041 466.012ZM77.7201 471.316C78.2001 471.316 78.5921 471.156 78.8961 470.836C79.2081 470.508 79.3641 470.088 79.3641 469.576V469.228H79.1481C78.4441 469.228 77.9081 469.26 77.5401 469.324C77.1721 469.38 76.9081 469.48 76.7481 469.624C76.5961 469.76 76.5201 469.964 76.5201 470.236C76.5201 470.548 76.6321 470.808 76.8561 471.016C77.0881 471.216 77.3761 471.316 77.7201 471.316ZM84.6594 471.304C84.8354 471.304 85.0114 471.292 85.1874 471.268L85.1394 472.036C84.9554 472.068 84.7554 472.084 84.5394 472.084C83.8354 472.084 83.3034 471.9 82.9434 471.532C82.5914 471.164 82.4154 470.652 82.4154 469.996V466.924H81.2754V466.156H82.4154V464.38H83.3874V466.156H85.0434V466.924H83.3874V469.924C83.3874 470.844 83.8114 471.304 84.6594 471.304ZM86.1695 472V466.156H87.1415V472H86.1695ZM86.0735 463.624H87.2495V464.716H86.0735V463.624ZM91.3826 472.084C90.8306 472.084 90.3426 471.96 89.9186 471.712C89.5026 471.464 89.1786 471.112 88.9466 470.656C88.7226 470.192 88.6106 469.656 88.6106 469.048C88.6106 468.44 88.7226 467.908 88.9466 467.452C89.1786 466.988 89.5026 466.632 89.9186 466.384C90.3426 466.136 90.8306 466.012 91.3826 466.012C91.9346 466.012 92.4226 466.136 92.8466 466.384C93.2706 466.632 93.5946 466.988 93.8186 467.452C94.0506 467.908 94.1666 468.44 94.1666 469.048C94.1666 469.656 94.0506 470.192 93.8186 470.656C93.5946 471.112 93.2706 471.464 92.8466 471.712C92.4226 471.96 91.9346 472.084 91.3826 472.084ZM91.3826 471.28C91.9586 471.28 92.3986 471.092 92.7026 470.716C93.0146 470.332 93.1706 469.776 93.1706 469.048C93.1706 468.336 93.0146 467.788 92.7026 467.404C92.3906 467.012 91.9506 466.816 91.3826 466.816C90.8146 466.816 90.3746 467.012 90.0626 467.404C89.7506 467.788 89.5946 468.336 89.5946 469.048C89.5946 469.768 89.7466 470.32 90.0506 470.704C90.3626 471.088 90.8066 471.28 91.3826 471.28ZM98.5548 466.012C99.9548 466.012 100.655 466.784 100.655 468.328V472H99.6828V468.388C99.6828 467.844 99.5748 467.448 99.3588 467.2C99.1508 466.952 98.8148 466.828 98.3508 466.828C97.8148 466.828 97.3868 466.992 97.0668 467.32C96.7468 467.648 96.5868 468.092 96.5868 468.652V472H95.6148V466.156H96.5748V467.116C96.7668 466.756 97.0348 466.484 97.3788 466.3C97.7228 466.108 98.1148 466.012 98.5548 466.012ZM103.515 470.776V471.64C103.515 471.976 103.459 472.28 103.347 472.552C103.243 472.832 103.059 473.104 102.795 473.368L102.339 473.02C102.651 472.676 102.827 472.336 102.867 472H102.291V470.776H103.515ZM108.415 463.54H111.763C112.651 463.54 113.339 463.756 113.827 464.188C114.323 464.62 114.571 465.232 114.571 466.024C114.571 466.816 114.323 467.432 113.827 467.872C113.331 468.312 112.643 468.532 111.763 468.532H109.399V472H108.415V463.54ZM111.667 467.716C112.955 467.716 113.599 467.152 113.599 466.024C113.599 464.912 112.955 464.356 111.667 464.356H109.399V467.716H111.667ZM118.253 466.012C118.997 466.012 119.549 466.204 119.909 466.588C120.277 466.964 120.461 467.54 120.461 468.316V472H119.513V471.004C119.361 471.348 119.129 471.616 118.817 471.808C118.505 471.992 118.145 472.084 117.737 472.084C117.361 472.084 117.013 472.008 116.693 471.856C116.381 471.704 116.133 471.492 115.949 471.22C115.765 470.948 115.673 470.648 115.673 470.32C115.673 469.88 115.785 469.54 116.009 469.3C116.233 469.052 116.601 468.876 117.113 468.772C117.625 468.66 118.337 468.604 119.249 468.604H119.513V468.208C119.513 467.72 119.413 467.368 119.213 467.152C119.013 466.928 118.689 466.816 118.241 466.816C117.569 466.816 116.901 467.024 116.237 467.44L115.913 466.732C116.217 466.516 116.581 466.344 117.005 466.216C117.437 466.08 117.853 466.012 118.253 466.012ZM117.869 471.316C118.349 471.316 118.741 471.156 119.045 470.836C119.357 470.508 119.513 470.088 119.513 469.576V469.228H119.297C118.593 469.228 118.057 469.26 117.689 469.324C117.321 469.38 117.057 469.48 116.897 469.624C116.745 469.76 116.669 469.964 116.669 470.236C116.669 470.548 116.781 470.808 117.005 471.016C117.237 471.216 117.525 471.316 117.869 471.316ZM124.22 472.084C123.236 472.084 122.456 471.832 121.88 471.328L122.204 470.608C122.516 470.856 122.832 471.036 123.152 471.148C123.48 471.252 123.848 471.304 124.256 471.304C124.688 471.304 125.016 471.232 125.24 471.088C125.472 470.936 125.588 470.72 125.588 470.44C125.588 470.208 125.512 470.024 125.36 469.888C125.208 469.752 124.956 469.644 124.604 469.564L123.62 469.336C123.124 469.224 122.744 469.032 122.48 468.76C122.216 468.488 122.084 468.152 122.084 467.752C122.084 467.232 122.288 466.812 122.696 466.492C123.104 466.172 123.648 466.012 124.328 466.012C124.736 466.012 125.124 466.08 125.492 466.216C125.86 466.344 126.168 466.532 126.416 466.78L126.092 467.488C125.556 467.032 124.968 466.804 124.328 466.804C123.92 466.804 123.6 466.884 123.368 467.044C123.144 467.196 123.032 467.412 123.032 467.692C123.032 467.924 123.1 468.112 123.236 468.256C123.38 468.392 123.608 468.496 123.92 468.568L124.916 468.808C125.46 468.936 125.864 469.132 126.128 469.396C126.392 469.652 126.524 469.988 126.524 470.404C126.524 470.916 126.316 471.324 125.9 471.628C125.492 471.932 124.932 472.084 124.22 472.084ZM129.985 472.084C129.001 472.084 128.221 471.832 127.645 471.328L127.969 470.608C128.281 470.856 128.597 471.036 128.917 471.148C129.245 471.252 129.613 471.304 130.021 471.304C130.453 471.304 130.781 471.232 131.005 471.088C131.237 470.936 131.353 470.72 131.353 470.44C131.353 470.208 131.277 470.024 131.125 469.888C130.973 469.752 130.721 469.644 130.369 469.564L129.385 469.336C128.889 469.224 128.509 469.032 128.245 468.76C127.981 468.488 127.849 468.152 127.849 467.752C127.849 467.232 128.053 466.812 128.461 466.492C128.869 466.172 129.413 466.012 130.093 466.012C130.501 466.012 130.889 466.08 131.257 466.216C131.625 466.344 131.933 466.532 132.181 466.78L131.857 467.488C131.321 467.032 130.733 466.804 130.093 466.804C129.685 466.804 129.365 466.884 129.133 467.044C128.909 467.196 128.797 467.412 128.797 467.692C128.797 467.924 128.865 468.112 129.001 468.256C129.145 468.392 129.373 468.496 129.685 468.568L130.681 468.808C131.225 468.936 131.629 469.132 131.893 469.396C132.157 469.652 132.289 469.988 132.289 470.404C132.289 470.916 132.081 471.324 131.665 471.628C131.257 471.932 130.697 472.084 129.985 472.084ZM141.598 466.156H142.57L140.398 472H139.462L137.818 467.476L136.162 472H135.238L133.066 466.156H134.074L135.73 470.848L137.422 466.156H138.262L139.93 470.848L141.598 466.156ZM146.121 472.084C145.569 472.084 145.081 471.96 144.657 471.712C144.241 471.464 143.917 471.112 143.685 470.656C143.461 470.192 143.349 469.656 143.349 469.048C143.349 468.44 143.461 467.908 143.685 467.452C143.917 466.988 144.241 466.632 144.657 466.384C145.081 466.136 145.569 466.012 146.121 466.012C146.673 466.012 147.161 466.136 147.585 466.384C148.009 466.632 148.333 466.988 148.557 467.452C148.789 467.908 148.905 468.44 148.905 469.048C148.905 469.656 148.789 470.192 148.557 470.656C148.333 471.112 148.009 471.464 147.585 471.712C147.161 471.96 146.673 472.084 146.121 472.084ZM146.121 471.28C146.697 471.28 147.137 471.092 147.441 470.716C147.753 470.332 147.909 469.776 147.909 469.048C147.909 468.336 147.753 467.788 147.441 467.404C147.129 467.012 146.689 466.816 146.121 466.816C145.553 466.816 145.113 467.012 144.801 467.404C144.489 467.788 144.333 468.336 144.333 469.048C144.333 469.768 144.485 470.32 144.789 470.704C145.101 471.088 145.545 471.28 146.121 471.28ZM153.665 466.852L153.029 466.912C152.429 466.968 151.993 467.156 151.721 467.476C151.457 467.796 151.325 468.192 151.325 468.664V472H150.353V466.156H151.301V467.176C151.629 466.496 152.273 466.116 153.233 466.036L153.581 466.012L153.665 466.852ZM159.65 463.54V472H158.678V470.932C158.502 471.3 158.242 471.584 157.898 471.784C157.562 471.984 157.166 472.084 156.71 472.084C156.198 472.084 155.746 471.956 155.354 471.7C154.962 471.444 154.658 471.088 154.442 470.632C154.226 470.168 154.118 469.632 154.118 469.024C154.118 468.424 154.226 467.896 154.442 467.44C154.658 466.984 154.962 466.632 155.354 466.384C155.746 466.136 156.198 466.012 156.71 466.012C157.166 466.012 157.562 466.112 157.898 466.312C158.242 466.512 158.502 466.796 158.678 467.164V463.54H159.65ZM156.902 471.28C157.47 471.28 157.906 471.088 158.21 470.704C158.522 470.312 158.678 469.76 158.678 469.048C158.678 468.336 158.522 467.788 158.21 467.404C157.906 467.02 157.47 466.828 156.902 466.828C156.334 466.828 155.89 467.02 155.57 467.404C155.258 467.788 155.102 468.328 155.102 469.024C155.102 469.736 155.258 470.292 155.57 470.692C155.89 471.084 156.334 471.28 156.902 471.28ZM162.531 470.776V471.64C162.531 471.976 162.475 472.28 162.363 472.552C162.259 472.832 162.075 473.104 161.811 473.368L161.355 473.02C161.667 472.676 161.843 472.336 161.883 472H161.307V470.776H162.531ZM167.431 472V463.54H172.663V464.368H168.403V467.284H172.423V468.112H168.403V472H167.431ZM179.84 472L178.904 469.828H174.488L173.552 472H172.544L176.264 463.54H177.116L180.836 472H179.84ZM174.836 469.012H178.556L176.696 464.68L174.836 469.012ZM186.814 471.844C186.99 471.9 187.146 471.992 187.282 472.12C187.418 472.256 187.558 472.44 187.702 472.672L188.506 473.968L187.678 474.4L186.682 472.78C186.402 472.324 185.954 472.096 185.338 472.096C184.554 472.096 183.87 471.92 183.286 471.568C182.71 471.216 182.266 470.716 181.954 470.068C181.642 469.42 181.486 468.656 181.486 467.776C181.486 466.888 181.638 466.12 181.942 465.472C182.254 464.816 182.698 464.316 183.274 463.972C183.858 463.62 184.546 463.444 185.338 463.444C186.122 463.444 186.802 463.62 187.378 463.972C187.962 464.316 188.41 464.816 188.722 465.472C189.034 466.12 189.19 466.884 189.19 467.764C189.19 468.788 188.982 469.656 188.566 470.368C188.158 471.072 187.574 471.564 186.814 471.844ZM182.494 467.764C182.494 468.876 182.742 469.736 183.238 470.344C183.742 470.952 184.442 471.256 185.338 471.256C186.234 471.256 186.93 470.956 187.426 470.356C187.93 469.748 188.182 468.884 188.182 467.764C188.182 466.644 187.934 465.784 187.438 465.184C186.942 464.584 186.242 464.284 185.338 464.284C184.442 464.284 183.742 464.588 183.238 465.196C182.742 465.796 182.494 466.652 182.494 467.764ZM191.523 470.776V471.64C191.523 471.976 191.467 472.28 191.355 472.552C191.251 472.832 191.067 473.104 190.803 473.368L190.347 473.02C190.659 472.676 190.835 472.336 190.875 472H190.299V470.776H191.523ZM200.035 472.096C199.235 472.096 198.539 471.924 197.947 471.58C197.355 471.228 196.899 470.728 196.579 470.08C196.267 469.424 196.111 468.652 196.111 467.764C196.111 466.876 196.267 466.108 196.579 465.46C196.899 464.812 197.355 464.316 197.947 463.972C198.539 463.62 199.235 463.444 200.035 463.444C200.619 463.444 201.155 463.536 201.643 463.72C202.131 463.896 202.555 464.16 202.915 464.512L202.543 465.268C202.135 464.924 201.735 464.676 201.343 464.524C200.951 464.372 200.519 464.296 200.047 464.296C199.119 464.296 198.399 464.6 197.887 465.208C197.383 465.808 197.131 466.66 197.131 467.764C197.131 468.876 197.383 469.736 197.887 470.344C198.399 470.944 199.119 471.244 200.047 471.244C200.519 471.244 200.951 471.168 201.343 471.016C201.735 470.864 202.135 470.616 202.543 470.272L202.915 471.028C202.555 471.38 202.131 471.648 201.643 471.832C201.155 472.008 200.619 472.096 200.035 472.096ZM206.707 472.084C206.155 472.084 205.667 471.96 205.243 471.712C204.827 471.464 204.503 471.112 204.271 470.656C204.047 470.192 203.935 469.656 203.935 469.048C203.935 468.44 204.047 467.908 204.271 467.452C204.503 466.988 204.827 466.632 205.243 466.384C205.667 466.136 206.155 466.012 206.707 466.012C207.259 466.012 207.747 466.136 208.171 466.384C208.595 466.632 208.919 466.988 209.143 467.452C209.375 467.908 209.491 468.44 209.491 469.048C209.491 469.656 209.375 470.192 209.143 470.656C208.919 471.112 208.595 471.464 208.171 471.712C207.747 471.96 207.259 472.084 206.707 472.084ZM206.707 471.28C207.283 471.28 207.723 471.092 208.027 470.716C208.339 470.332 208.495 469.776 208.495 469.048C208.495 468.336 208.339 467.788 208.027 467.404C207.715 467.012 207.275 466.816 206.707 466.816C206.139 466.816 205.699 467.012 205.387 467.404C205.075 467.788 204.919 468.336 204.919 469.048C204.919 469.768 205.071 470.32 205.375 470.704C205.687 471.088 206.131 471.28 206.707 471.28ZM213.879 466.012C215.279 466.012 215.979 466.784 215.979 468.328V472H215.007V468.388C215.007 467.844 214.899 467.448 214.683 467.2C214.475 466.952 214.139 466.828 213.675 466.828C213.139 466.828 212.711 466.992 212.391 467.32C212.071 467.648 211.911 468.092 211.911 468.652V472H210.939V466.156H211.899V467.116C212.091 466.756 212.359 466.484 212.703 466.3C213.047 466.108 213.439 466.012 213.879 466.012ZM220.327 471.304C220.503 471.304 220.679 471.292 220.855 471.268L220.807 472.036C220.623 472.068 220.423 472.084 220.207 472.084C219.503 472.084 218.971 471.9 218.611 471.532C218.259 471.164 218.083 470.652 218.083 469.996V466.924H216.943V466.156H218.083V464.38H219.055V466.156H220.711V466.924H219.055V469.924C219.055 470.844 219.479 471.304 220.327 471.304ZM224.214 466.012C224.958 466.012 225.51 466.204 225.87 466.588C226.238 466.964 226.422 467.54 226.422 468.316V472H225.474V471.004C225.322 471.348 225.09 471.616 224.778 471.808C224.466 471.992 224.106 472.084 223.698 472.084C223.322 472.084 222.974 472.008 222.654 471.856C222.342 471.704 222.094 471.492 221.91 471.22C221.726 470.948 221.634 470.648 221.634 470.32C221.634 469.88 221.746 469.54 221.97 469.3C222.194 469.052 222.562 468.876 223.074 468.772C223.586 468.66 224.298 468.604 225.21 468.604H225.474V468.208C225.474 467.72 225.374 467.368 225.174 467.152C224.974 466.928 224.65 466.816 224.202 466.816C223.53 466.816 222.862 467.024 222.198 467.44L221.874 466.732C222.178 466.516 222.542 466.344 222.966 466.216C223.398 466.08 223.814 466.012 224.214 466.012ZM223.83 471.316C224.31 471.316 224.702 471.156 225.006 470.836C225.318 470.508 225.474 470.088 225.474 469.576V469.228H225.258C224.554 469.228 224.018 469.26 223.65 469.324C223.282 469.38 223.018 469.48 222.858 469.624C222.706 469.76 222.63 469.964 222.63 470.236C222.63 470.548 222.742 470.808 222.966 471.016C223.198 471.216 223.486 471.316 223.83 471.316ZM230.673 472.084C230.097 472.084 229.597 471.96 229.173 471.712C228.749 471.464 228.421 471.116 228.189 470.668C227.965 470.212 227.853 469.68 227.853 469.072C227.853 468.464 227.969 467.932 228.201 467.476C228.441 467.012 228.773 466.652 229.197 466.396C229.629 466.14 230.133 466.012 230.709 466.012C231.101 466.012 231.485 466.084 231.861 466.228C232.237 466.364 232.541 466.548 232.773 466.78L232.449 467.5C231.897 467.052 231.337 466.828 230.769 466.828C230.169 466.828 229.701 467.024 229.365 467.416C229.029 467.808 228.861 468.36 228.861 469.072C228.861 469.776 229.029 470.32 229.365 470.704C229.701 471.088 230.169 471.28 230.769 471.28C231.337 471.28 231.897 471.056 232.449 470.608L232.773 471.328C232.525 471.56 232.213 471.744 231.837 471.88C231.461 472.016 231.073 472.084 230.673 472.084ZM236.523 471.304C236.699 471.304 236.875 471.292 237.051 471.268L237.003 472.036C236.819 472.068 236.619 472.084 236.403 472.084C235.699 472.084 235.167 471.9 234.807 471.532C234.455 471.164 234.279 470.652 234.279 469.996V466.924H233.139V466.156H234.279V464.38H235.251V466.156H236.907V466.924H235.251V469.924C235.251 470.844 235.675 471.304 236.523 471.304Z" fill="#808080"/>
<path d="M330 459L336 453L330 447" stroke="#242424" stroke-width="1.5" stroke-linecap="round" stroke-linejoin="round"/>
<defs>
<filter id="filter0_d_1_32" x="-20" y="0" width="415" height="160" filterUnits="userSpaceOnUse" color-interpolation-filters="sRGB">
<feFlood flood-opacity="0" result="BackgroundImageFix"/>
<feColorMatrix in="SourceAlpha" type="matrix" values="0 0 0 0 0 0 0 0 0 0 0 0 0 0 0 0 0 0 127 0" result="hardAlpha"/>
<feOffset dy="7"/>
<feGaussianBlur stdDeviation="20"/>
<feColorMatrix type="matrix" values="0 0 0 0 0.541176 0 0 0 0 0.584314 0 0 0 0 0.619608 0 0 0 0.2 0"/>
<feBlend mode="normal" in2="BackgroundImageFix" result="effect1_dropShadow_1_32"/>
<feBlend mode="normal" in="SourceGraphic" in2="effect1_dropShadow_1_32" result="shape"/>
</filter>
<filter id="filter1_d_1_32" x="-20" y="95" width="415" height="160" filterUnits="userSpaceOnUse" color-interpolation-filters="sRGB">
<feFlood flood-opacity="0" result="BackgroundImageFix"/>
<feColorMatrix in="SourceAlpha" type="matrix" values="0 0 0 0 0 0 0 0 0 0 0 0 0 0 0 0 0 0 127 0" result="hardAlpha"/>
<feOffset dy="7"/>
<feGaussianBlur stdDeviation="20"/>
<feColorMatrix type="matrix" values="0 0 0 0 0.541176 0 0 0 0 0.584314 0 0 0 0 0.619608 0 0 0 0.2 0"/>
<feBlend mode="normal" in2="BackgroundImageFix" result="effect1_dropShadow_1_32"/>
<feBlend mode="normal" in="SourceGraphic" in2="effect1_dropShadow_1_32" result="shape"/>
</filter>
<filter id="filter2_d_1_32" x="-20" y="190" width="415" height="160" filterUnits="userSpaceOnUse" color-interpolation-filters="sRGB">
<feFlood flood-opacity="0" result="BackgroundImageFix"/>
<feColorMatrix in="SourceAlpha" type="matrix" values="0 0 0 0 0 0 0 0 0 0 0 0 0 0 0 0 0 0 127 0" result="hardAlpha"/>
<feOffset dy="7"/>
<feGaussianBlur stdDeviation="20"/>
<feColorMatrix type="matrix" values="0 0 0 0 0.541176 0 0 0 0 0.584314 0 0 0 0 0.619608 0 0 0 0.2 0"/>
<feBlend mode="normal" in2="BackgroundImageFix" result="effect1_dropShadow_1_32"/>
<feBlend mode="normal" in="SourceGraphic" in2="effect1_dropShadow_1_32" result="shape"/>
</filter>
<filter id="filter3_d_1_32" x="-20" y="285" width="415" height="160" filterUnits="userSpaceOnUse" color-interpolation-filters="sRGB">
<feFlood flood-opacity="0" result="BackgroundImageFix"/>
<feColorMatrix in="SourceAlpha" type="matrix" values="0 0 0 0 0 0 0 0 0 0 0 0 0 0 0 0 0 0 127 0" result="hardAlpha"/>
<feOffset dy="7"/>
<feGaussianBlur stdDeviation="20"/>
<feColorMatrix type="matrix" values="0 0 0 0 0.541176 0 0 0 0 0.584314 0 0 0 0 0.619608 0 0 0 0.2 0"/>
<feBlend mode="normal" in2="BackgroundImageFix" result="effect1_dropShadow_1_32"/>
<feBlend mode="normal" in="SourceGraphic" in2="effect1_dropShadow_1_32" result="shape"/>
</filter>
<filter id="filter4_d_1_32" x="-20" y="380" width="415" height="160" filterUnits="userSpaceOnUse" color-interpolation-filters="sRGB">
<feFlood flood-opacity="0" result="BackgroundImageFix"/>
<feColorMatrix in="SourceAlpha" type="matrix" values="0 0 0 0 0 0 0 0 0 0 0 0 0 0 0 0 0 0 127 0" result="hardAlpha"/>
<feOffset dy="7"/>
<feGaussianBlur stdDeviation="20"/>
<feColorMatrix type="matrix" values="0 0 0 0 0.541176 0 0 0 0 0.584314 0 0 0 0 0.619608 0 0 0 0.2 0"/>
<feBlend mode="normal" in2="BackgroundImageFix" result="effect1_dropShadow_1_32"/>
<feBlend mode="normal" in="SourceGraphic" in2="effect1_dropShadow_1_32" result="shape"/>
</filter>
</defs>
</svg>
