<svg width="375" height="100" viewBox="0 0 375 100" fill="none" xmlns="http://www.w3.org/2000/svg">
<g filter="url(#filter0_d_7_174)">
<rect x="20" y="70" width="60" height="335" rx="8" transform="rotate(-90 20 70)" fill="#242424"/>
</g>
<path d="M118.338 47.16C117.245 47.16 116.238 47.0133 115.318 46.72C114.411 46.4267 113.631 45.9933 112.978 45.42L113.718 43.9C114.411 44.46 115.125 44.8667 115.858 45.12C116.605 45.36 117.438 45.48 118.358 45.48C119.411 45.48 120.225 45.2867 120.798 44.9C121.371 44.5 121.658 43.94 121.658 43.22C121.658 42.6067 121.391 42.1533 120.858 41.86C120.325 41.5533 119.471 41.2667 118.298 41C117.178 40.76 116.258 40.4867 115.538 40.18C114.818 39.8733 114.251 39.46 113.838 38.94C113.438 38.4067 113.238 37.7333 113.238 36.92C113.238 36.0933 113.451 35.3667 113.878 34.74C114.318 34.1133 114.938 33.6267 115.738 33.28C116.538 32.92 117.465 32.74 118.518 32.74C119.505 32.74 120.431 32.8933 121.298 33.2C122.178 33.4933 122.898 33.92 123.458 34.48L122.738 36C122.085 35.4667 121.411 35.0733 120.718 34.82C120.038 34.5533 119.311 34.42 118.538 34.42C117.525 34.42 116.725 34.6333 116.138 35.06C115.565 35.4733 115.278 36.0533 115.278 36.8C115.278 37.44 115.531 37.9267 116.038 38.26C116.545 38.58 117.358 38.8733 118.478 39.14C119.651 39.4067 120.598 39.6867 121.318 39.98C122.051 40.26 122.631 40.6533 123.058 41.16C123.498 41.6533 123.718 42.3 123.718 43.1C123.718 43.9133 123.498 44.6267 123.058 45.24C122.631 45.8533 122.011 46.3267 121.198 46.66C120.398 46.9933 119.445 47.16 118.338 47.16ZM131.897 47.16C130.017 47.16 128.591 46.6733 127.617 45.7C126.644 44.7267 126.157 43.2933 126.157 41.4V32.9H128.197V41.54C128.197 42.8333 128.504 43.8133 129.117 44.48C129.744 45.1467 130.671 45.48 131.897 45.48C133.111 45.48 134.031 45.1467 134.657 44.48C135.284 43.8133 135.597 42.8333 135.597 41.54V32.9H137.637V41.4C137.637 43.28 137.144 44.7133 136.157 45.7C135.184 46.6733 133.764 47.16 131.897 47.16ZM149.108 39.74C149.921 39.9667 150.548 40.3733 150.988 40.96C151.441 41.5467 151.668 42.28 151.668 43.16C151.668 44.3733 151.248 45.32 150.408 46C149.581 46.6667 148.421 47 146.928 47H140.808V32.9H146.708C148.161 32.9 149.295 33.2267 150.108 33.88C150.935 34.52 151.348 35.42 151.348 36.58C151.348 37.3267 151.148 37.9733 150.748 38.52C150.361 39.0667 149.815 39.4733 149.108 39.74ZM142.828 39H146.388C148.361 39 149.348 38.2533 149.348 36.76C149.348 36.0133 149.101 35.46 148.608 35.1C148.128 34.74 147.388 34.56 146.388 34.56H142.828V39ZM146.708 45.34C147.735 45.34 148.488 45.1533 148.968 44.78C149.448 44.4067 149.688 43.8267 149.688 43.04C149.688 42.24 149.441 41.6467 148.948 41.26C148.468 40.86 147.721 40.66 146.708 40.66H142.828V45.34H146.708ZM166.243 32.9H167.883V47H166.023L166.043 36.8L161.843 44.74H160.443L156.223 36.9L156.243 47H154.383V32.9H156.043L161.163 42.66L166.243 32.9ZM171.179 47V32.9H173.239V47H171.179ZM179.871 47V34.62H175.111V32.9H186.731V34.62H181.951V47H179.871ZM199.954 47.16C198.621 47.16 197.461 46.8667 196.474 46.28C195.501 45.6933 194.747 44.86 194.214 43.78C193.681 42.7 193.414 41.4267 193.414 39.96C193.414 38.48 193.674 37.2 194.194 36.12C194.727 35.0267 195.487 34.1933 196.474 33.62C197.461 33.0333 198.621 32.74 199.954 32.74C201.301 32.74 202.467 33.0333 203.454 33.62C204.441 34.1933 205.194 35.0267 205.714 36.12C206.247 37.2 206.514 38.4733 206.514 39.94C206.514 41.4067 206.247 42.6867 205.714 43.78C205.194 44.86 204.441 45.6933 203.454 46.28C202.467 46.8667 201.301 47.16 199.954 47.16ZM199.954 45.48C201.367 45.48 202.467 45 203.254 44.04C204.041 43.08 204.434 41.7133 204.434 39.94C204.434 38.1667 204.041 36.8067 203.254 35.86C202.481 34.9 201.381 34.42 199.954 34.42C198.554 34.42 197.461 34.9 196.674 35.86C195.901 36.8067 195.514 38.1667 195.514 39.94C195.514 41.7133 195.901 43.08 196.674 44.04C197.461 45 198.554 45.48 199.954 45.48ZM220.764 47H218.484L216.084 42.48C215.817 42 215.497 41.6667 215.124 41.48C214.764 41.28 214.284 41.18 213.684 41.18H211.364V47H209.324V32.9H215.324C216.884 32.9 218.07 33.2467 218.884 33.94C219.71 34.6333 220.124 35.6467 220.124 36.98C220.124 38.06 219.817 38.9467 219.204 39.64C218.604 40.3333 217.744 40.7733 216.624 40.96C217.317 41.1733 217.89 41.6933 218.344 42.52L220.764 47ZM215.084 39.52C216.124 39.52 216.89 39.32 217.384 38.92C217.89 38.5067 218.144 37.8733 218.144 37.02C218.144 36.1667 217.897 35.5467 217.404 35.16C216.91 34.76 216.137 34.56 215.084 34.56H211.344V39.52H215.084ZM223.132 32.9H228.072C230.352 32.9 232.119 33.5133 233.372 34.74C234.626 35.9667 235.252 37.7 235.252 39.94C235.252 42.18 234.626 43.92 233.372 45.16C232.119 46.3867 230.352 47 228.072 47H223.132V32.9ZM227.952 45.28C231.419 45.28 233.152 43.5 233.152 39.94C233.152 36.3933 231.419 34.62 227.952 34.62H225.192V45.28H227.952ZM238.054 47V32.9H247.214V34.56H240.074V39H246.814V40.68H240.074V45.34H247.214V47H238.054ZM261.193 47H258.913L256.513 42.48C256.247 42 255.927 41.6667 255.553 41.48C255.193 41.28 254.713 41.18 254.113 41.18H251.793V47H249.753V32.9H255.753C257.313 32.9 258.5 33.2467 259.313 33.94C260.14 34.6333 260.553 35.6467 260.553 36.98C260.553 38.06 260.247 38.9467 259.633 39.64C259.033 40.3333 258.173 40.7733 257.053 40.96C257.747 41.1733 258.32 41.6933 258.773 42.52L261.193 47ZM255.513 39.52C256.553 39.52 257.32 39.32 257.813 38.92C258.32 38.5067 258.573 37.8733 258.573 37.02C258.573 36.1667 258.327 35.5467 257.833 35.16C257.34 34.76 256.567 34.56 255.513 34.56H251.773V39.52H255.513Z" fill="white"/>
<defs>
<filter id="filter0_d_7_174" x="0" y="0" width="375" height="100" filterUnits="userSpaceOnUse" color-interpolation-filters="sRGB">
<feFlood flood-opacity="0" result="BackgroundImageFix"/>
<feColorMatrix in="SourceAlpha" type="matrix" values="0 0 0 0 0 0 0 0 0 0 0 0 0 0 0 0 0 0 127 0" result="hardAlpha"/>
<feOffset dy="10"/>
<feGaussianBlur stdDeviation="10"/>
<feColorMatrix type="matrix" values="0 0 0 0 0.188235 0 0 0 0 0.188235 0 0 0 0 0.188235 0 0 0 0.25 0"/>
<feBlend mode="normal" in2="BackgroundImageFix" result="effect1_dropShadow_7_174"/>
<feBlend mode="normal" in="SourceGraphic" in2="effect1_dropShadow_7_174" result="shape"/>
</filter>
</defs>
</svg>
