<svg width="269" height="397" viewBox="0 0 269 397" fill="none" xmlns="http://www.w3.org/2000/svg">
<path d="M124.085 67.0182C75.9921 66.2847 39.8297 87.9541 32.4822 95.9006C30.1444 99.1098 22.8894 107.82 27.0473 122.491C31.7884 139.219 37.378 139.912 23 155.958C6.87134 173.957 -15.1098 208.68 14.9483 252.233C45.0064 295.786 118.849 299.096 157.8 296.244C195.373 293.493 241.632 275.521 259.496 253.15C278.533 229.31 264.987 191.687 253.409 173.837C241.813 155.958 268.013 119.74 244.468 100.027C220.922 80.3133 184.201 67.9351 124.085 67.0182Z" fill="#F9F9F9"/>
<path d="M131.299 208.715C132.613 208.574 133.77 208.454 134.913 208.32C138.123 207.939 141.333 207.917 144.551 208.141C149.083 208.462 153.562 209.171 157.989 210.179C158.116 210.209 158.251 210.231 158.377 210.261C158.699 210.35 158.848 210.223 158.937 209.902C159.176 209.066 159.46 208.245 159.729 207.416C161.976 200.533 166.538 195.792 173.078 192.813C177.318 190.88 181.738 190.245 186.344 190.559C187.21 190.618 188.061 190.738 188.957 190.917C189.062 189.834 189.189 188.789 189.256 187.744C189.547 183.257 190.801 179.039 192.728 175C193.19 174.022 193.623 173.036 193.997 172.014C195.236 168.587 195.154 165.175 193.818 161.815C193.011 159.792 191.6 158.18 190.04 156.701C187.494 154.297 184.358 153.021 181.088 152.013C178.378 151.177 175.586 150.781 172.786 150.445C170.144 150.131 167.501 149.803 164.85 149.557C162.775 149.362 160.692 149.236 158.616 149.176C153.868 149.034 149.12 149.034 144.372 149.183C141.124 149.28 137.884 149.512 134.748 150.43C132.359 151.132 130.045 152.035 128.171 153.752C124.804 156.821 123.139 160.636 123.236 165.212C123.311 168.736 124.214 172.088 125.289 175.411C125.998 177.62 126.849 179.778 127.342 182.055C127.686 183.653 127.999 185.258 128.081 186.893C128.096 187.154 128.096 187.423 128.074 187.684C128.044 188.043 127.85 188.274 127.477 188.311C127.111 188.349 126.835 188.147 126.767 187.729C126.67 187.102 126.648 186.467 126.551 185.84C126.133 183.093 125.401 180.428 124.475 177.815C123.4 174.776 122.475 171.7 121.967 168.512C121.243 163.98 121.795 159.68 124.386 155.768C126.013 153.304 128.156 151.475 130.844 150.236C133.86 148.847 137.033 148.16 140.318 147.899C146.664 147.391 153.025 147.489 159.378 147.683C165.291 147.862 171.151 148.623 176.997 149.489C180.379 149.99 183.619 151.035 186.688 152.535C189.793 154.058 192.287 156.306 194.168 159.187C195.99 161.98 196.602 165.1 196.363 168.408C196.214 170.573 195.527 172.581 194.646 174.544C194.139 175.672 193.653 176.814 193.153 177.949C191.682 181.249 191.07 184.735 190.764 188.304C190.689 189.17 190.652 190.043 190.57 190.909C190.533 191.313 190.667 191.529 191.055 191.678C191.891 191.999 192.66 192.47 193.414 192.955C196.027 194.635 198.245 198.719 196.528 203.026C195.9 204.609 194.99 206.028 193.84 207.289C193.586 207.573 193.437 207.879 193.317 208.238C192.295 211.313 191.242 214.382 190.212 217.45C188.718 221.9 187.136 226.32 185.941 230.859C185.254 233.487 184.664 236.137 184.149 238.802C183.619 241.565 183.746 244.297 184.314 247.045C184.903 249.912 185.366 252.801 185.523 255.735C185.56 256.496 185.56 257.265 185.366 258.019C185.15 258.848 184.799 259.587 183.881 259.789C182.955 259.998 182.246 259.535 181.663 258.863C181.23 258.355 180.954 257.758 180.737 257.131C180.058 255.205 179.73 253.204 179.356 251.211C179.222 250.486 179.095 249.755 178.834 249.06C178.528 248.232 178.162 248.045 177.311 248.269C176.721 248.426 176.176 248.702 175.653 249.008C172.704 250.71 169.643 252.181 166.493 253.473C166.276 253.562 166.06 253.674 165.813 253.667C165.522 253.659 165.313 253.532 165.194 253.264C165.074 252.987 165.149 252.734 165.358 252.547C165.515 252.413 165.701 252.308 165.896 252.226C169.128 250.8 172.256 249.158 175.347 247.44C175.9 247.134 176.482 246.888 177.102 246.739C178.498 246.41 179.543 246.918 180.14 248.217C180.581 249.187 180.737 250.233 180.924 251.27C181.23 252.928 181.521 254.593 182.037 256.205C182.193 256.705 182.372 257.206 182.664 257.654C182.813 257.878 182.97 258.087 183.216 258.206C183.44 258.318 183.627 258.281 183.739 258.042C183.888 257.728 183.94 257.392 183.963 257.041C184.052 255.638 183.888 254.249 183.709 252.861C183.41 250.531 183.007 248.217 182.552 245.917C182.089 243.581 182.186 241.251 182.582 238.922C183.679 232.539 185.523 226.357 187.643 220.243C188.703 217.182 189.734 214.106 190.779 211.037C190.861 210.798 190.936 210.559 191.018 210.321C190.831 210.261 190.757 210.335 190.674 210.403C187.658 212.635 184.291 214.188 180.82 215.547C179.565 216.039 178.289 216.465 176.982 216.771C176.46 216.89 176.206 217.144 176.064 217.674C174.153 224.722 171.973 231.695 169.837 238.676C169.375 240.191 168.837 241.677 168.217 243.133C167.06 245.865 165.351 248.157 162.887 249.859C162.319 250.248 161.767 250.658 161.282 251.143C160.834 251.599 160.453 252.099 160.229 252.711C160.065 253.167 160.124 253.256 160.61 253.316C161.267 253.398 161.909 253.54 162.521 253.794C164.014 254.413 164.813 255.518 164.82 257.153C164.828 258.258 164.828 259.371 164.82 260.476C164.791 263.432 164.589 266.381 164.163 269.308C164.074 269.935 163.939 270.554 163.671 271.129C163.081 272.369 161.834 272.458 161.058 271.323C160.752 270.883 160.61 270.375 160.498 269.853C160.124 268.143 160.02 266.403 159.908 264.671C159.706 261.566 159.415 258.467 159.064 255.377C159.005 254.817 158.997 254.802 158.43 254.854C156.802 255.011 155.197 255.332 153.584 255.6C150.113 256.175 146.619 256.369 143.102 256.235C141.624 256.175 140.154 256.108 138.675 256.063C136.062 255.974 133.479 255.608 130.896 255.197C127.305 254.63 123.706 254.063 120.175 253.196C116.465 252.293 112.776 251.278 109.193 249.941C108.476 249.673 108.573 249.576 108.193 250.322C107.088 252.51 106.02 254.72 104.93 256.914C104.236 258.311 103.482 259.669 102.675 260.998C102.25 261.7 101.802 262.387 101.197 262.947C100.66 263.447 100.047 263.835 99.2709 263.499C98.4721 263.148 98.3003 262.447 98.3227 261.663C98.3451 260.729 98.5691 259.834 98.8677 258.96C99.8383 256.116 101.018 253.346 102.138 250.561C102.608 249.389 103.086 248.217 103.504 247.022C104.31 244.708 104.333 242.379 103.773 240.012C103.168 237.496 102.302 235.062 101.555 232.591C100.607 229.433 99.8084 226.238 99.353 222.968C99.1589 221.557 99.032 220.138 98.9872 218.712C98.92 216.651 98.4944 214.703 97.5836 212.836C96.7773 211.179 95.9785 209.514 95.5529 207.7C95.1572 205.99 95.0527 204.273 95.2767 202.519C95.7769 198.502 98.9275 196.262 102.205 195.926C102.698 195.874 103.108 195.732 103.504 195.449C107.603 192.567 112.127 190.715 117.084 189.946C119.227 189.61 121.385 189.476 123.55 189.722C127.424 190.17 130.112 192.253 131.747 195.747C132.904 198.204 133.166 200.802 132.912 203.474C132.71 205.251 132.255 206.968 131.299 208.715ZM176.788 215.166C177.057 215.203 177.229 215.136 177.408 215.091C178.737 214.748 180.013 214.255 181.282 213.732C185.202 212.12 188.965 210.246 191.973 207.133C193.25 205.804 194.318 204.348 195.034 202.653C196.363 199.495 195.273 195.986 192.407 194.105C191.003 193.179 189.48 192.5 187.823 192.246C185.202 191.85 182.567 191.917 179.939 192.291C177.079 192.694 174.436 193.717 171.913 195.075C167.448 197.472 164.059 200.891 162.043 205.602C160.856 208.379 160.035 211.261 159.393 214.203C158.4 218.764 157.422 223.326 156.085 227.798C155.526 229.672 154.846 231.501 153.958 233.24C151.949 237.16 148.829 239.669 144.491 240.587C142.834 240.938 141.146 241.057 139.459 241.08C134.405 241.139 129.403 240.676 124.446 239.691C121.9 239.183 119.436 238.414 117.151 237.175C114.188 235.562 111.97 233.285 111.015 229.97C110.432 227.97 110.074 225.909 109.977 223.819C109.82 220.369 109.604 216.92 109.641 213.456C109.641 213.284 109.708 213.09 109.521 212.911C109.305 212.911 109.171 213.09 108.999 213.195C108.439 213.546 107.834 213.807 107.17 213.912C105.482 214.165 103.967 213.695 102.63 212.71C97.8673 209.216 97.4343 202.437 100.271 198.398C100.368 198.263 100.548 198.159 100.473 197.868C98.7632 198.607 97.5388 199.749 97.0237 201.541C96.5011 203.355 96.5757 205.192 96.9565 207.021C97.3223 208.797 98.0913 210.418 98.8901 212.023C99.9577 214.173 100.443 216.435 100.503 218.809C100.54 220.257 100.689 221.706 100.906 223.139C101.384 226.297 102.168 229.388 103.101 232.442C103.87 234.965 104.781 237.444 105.318 240.027C105.617 241.453 105.781 242.886 105.624 244.35C105.438 246.104 104.87 247.739 104.236 249.359C103.086 252.278 101.914 255.182 100.757 258.102C100.413 258.96 100.122 259.834 99.9503 260.744C99.8831 261.11 99.786 261.484 99.9279 261.879C100.286 261.737 100.428 261.469 100.607 261.245C101.197 260.498 101.66 259.662 102.13 258.841C103.556 256.34 104.751 253.727 106.02 251.143C106.401 250.36 106.804 249.591 107.222 248.829C107.647 248.06 108.006 247.956 108.857 248.269C109.402 248.471 109.947 248.672 110.492 248.851C113.426 249.814 116.382 250.681 119.384 251.382C126.76 253.099 134.203 254.436 141.811 254.637C144.849 254.72 147.881 254.772 150.897 254.384C153.383 254.063 155.847 253.644 158.325 253.286C158.616 253.241 158.721 253.107 158.773 252.838C158.997 251.591 159.699 250.621 160.595 249.762C161.155 249.232 161.767 248.777 162.387 248.329C164.238 246.97 165.589 245.208 166.553 243.14C167.292 241.557 167.874 239.922 168.382 238.257C170.226 232.21 172.122 226.17 173.824 220.078C174.071 219.19 174.324 218.309 174.578 217.406C174.16 217.271 173.802 217.383 173.443 217.428C171.995 217.615 170.539 217.704 169.113 217.338C165.589 216.428 163.693 214.427 163.282 211.254C162.939 208.574 163.238 205.916 164.432 203.452C165.724 200.772 167.792 199.107 170.883 198.92C175.116 198.666 177.214 201.227 177.863 204.012C178.042 204.781 178.11 205.572 178.124 206.364C178.177 208.947 177.639 211.448 177.042 213.934C176.93 214.352 176.766 214.718 176.788 215.166ZM158.407 211.709C158.094 211.634 157.84 211.575 157.586 211.523C154.973 211.015 152.345 210.604 149.717 210.201C143.595 209.26 137.481 209.305 131.366 210.261C131 210.321 130.747 210.455 130.523 210.761C128.791 213.075 126.76 215.099 124.416 216.801C122.504 218.182 120.496 219.377 118.249 220.123C117.592 220.34 116.92 220.452 116.226 220.407C114.807 220.31 114.053 219.235 114.456 217.868C114.591 217.406 114.83 216.995 115.121 216.614C115.718 215.83 116.435 215.181 117.226 214.598C120.63 212.105 124.446 210.477 128.499 209.395C129.246 209.193 129.664 208.82 130.008 208.178C131.202 205.968 131.463 203.579 131.419 201.123C131.389 199.443 131.023 197.83 130.299 196.307C129 193.582 126.954 191.805 123.915 191.313C122.37 191.059 120.817 191.081 119.264 191.223C114.367 191.656 109.842 193.172 105.691 195.815C105.55 195.904 105.37 195.956 105.318 196.143C105.37 196.188 105.385 196.218 105.408 196.225C105.579 196.292 105.751 196.352 105.923 196.419C107.782 197.128 109.29 198.301 110.343 199.973C112.254 203.004 112.747 206.259 111.515 209.656C111.149 210.664 111.089 211.642 111.104 212.672C111.134 215.838 111.283 218.996 111.395 222.161C111.47 224.274 111.746 226.357 112.157 228.433C112.791 231.65 114.628 233.972 117.398 235.607C118.951 236.518 120.608 237.197 122.348 237.66C125.543 238.504 128.798 239.004 132.083 239.295C135.555 239.609 139.034 239.743 142.505 239.392C147.246 238.914 150.695 236.578 152.786 232.27C153.51 230.769 154.115 229.224 154.592 227.634C156.145 222.423 157.213 217.092 158.407 211.709ZM176.624 206.856C176.654 206.117 176.564 205.378 176.43 204.654C176.116 202.914 175.265 201.518 173.593 200.832C171.868 200.122 168.837 200.167 167.045 202.243C166.403 202.989 165.851 203.78 165.507 204.706C164.813 206.535 164.574 208.447 164.671 210.373C164.82 213.352 166.418 215.323 169.875 215.995C171.487 216.308 173.07 216.002 174.66 215.778C174.981 215.733 175.086 215.517 175.153 215.24C175.31 214.628 175.474 214.016 175.616 213.404C176.139 211.246 176.564 209.081 176.624 206.856ZM110.634 206.199C110.626 204.423 110.208 202.862 109.409 201.399C108.245 199.286 106.498 197.98 104.116 197.509C103.564 197.397 103.175 197.532 102.765 197.912C100.286 200.219 99.6442 203.094 100.256 206.296C100.66 208.409 101.742 210.164 103.489 211.478C104.251 212.045 105.117 212.381 106.042 212.456C107.647 212.59 108.752 211.754 109.514 210.418C110.261 209.074 110.574 207.61 110.634 206.199ZM128.231 211.112C128.134 211.037 128.029 211.06 127.932 211.089C124.319 212.172 120.922 213.703 117.883 215.965C117.331 216.375 116.838 216.846 116.405 217.383C116.203 217.63 116.032 217.898 115.92 218.197C115.763 218.645 115.882 218.846 116.353 218.906C116.562 218.929 116.771 218.906 116.98 218.876C117.667 218.787 118.309 218.533 118.936 218.257C122.489 216.674 125.491 214.359 128.051 211.44C128.126 211.343 128.223 211.254 128.231 211.112ZM162.297 270.248C162.581 269.681 162.611 269.106 162.693 268.539C163.066 265.978 163.171 263.402 163.275 260.819C163.327 259.58 163.335 258.34 163.342 257.109C163.342 256.69 163.335 256.257 162.976 255.944C162.439 255.466 161.834 255.1 161.117 254.958C160.58 254.854 160.528 254.891 160.595 255.451C160.968 258.803 161.252 262.163 161.483 265.522C161.565 266.754 161.662 267.994 161.909 269.211C161.976 269.554 161.998 269.935 162.297 270.248Z" fill="#303030"/>
<path d="M66.1677 202.937C66.0034 202.25 65.5405 201.802 64.9657 201.459C64.4655 201.153 63.8981 201.026 63.3232 200.914C62.0018 200.66 60.6579 200.578 59.3141 200.473C56.3726 200.242 53.4236 200.048 50.4821 199.809C49.2726 199.712 48.0706 199.547 46.906 199.182C46.0101 198.905 45.1963 198.487 44.4945 197.868C43.3448 196.86 42.9864 195.635 43.4568 194.157C44.0018 192.425 45.144 191.201 46.6447 190.275C48.8695 188.894 51.3108 188.102 53.8715 187.602C57.7015 186.856 61.5688 186.736 65.451 186.751C71.3639 186.773 77.1797 187.505 82.891 189.036C84.2946 189.409 85.6758 189.842 86.9599 190.544C87.5646 190.872 88.1469 191.238 88.6621 191.693C90.7749 193.545 91.081 196.501 89.3564 198.734C88.5352 199.794 87.475 200.57 86.3178 201.227C84.6007 202.198 82.7193 202.728 80.8081 203.116C76.9035 203.915 72.9466 204.348 68.9599 204.527C68.8778 204.527 68.8031 204.535 68.721 204.535C68.3925 204.512 68.2432 204.617 68.3029 204.99C68.3701 205.43 68.3701 205.886 68.4149 206.326C68.6314 208.462 68.4447 210.597 68.3104 212.724C68.161 214.987 67.9893 217.249 67.8699 219.511C67.6011 224.7 67.631 229.896 67.5862 235.092C67.5862 235.331 67.5936 235.57 67.5563 235.801C67.4817 236.212 67.1457 236.481 66.7799 236.451C66.429 236.428 66.1826 236.182 66.1154 235.779C66.093 235.652 66.093 235.518 66.093 235.383C66.1527 230.269 66.0706 225.148 66.3319 220.034C66.4738 217.294 66.7052 214.561 66.8695 211.821C66.9964 209.581 67.0785 207.342 66.8023 205.102C66.7575 204.766 66.7276 204.505 66.2722 204.49C63.9802 204.445 61.6882 204.415 59.4111 204.841C57.052 205.289 55.1706 206.52 53.6401 208.327C51.908 210.38 50.6463 212.725 49.4817 215.121C47.4958 219.197 45.8831 223.445 44.0018 227.566C43.1432 229.463 42.3294 231.381 41.4933 233.285C41.2992 233.733 41.0005 233.897 40.6422 233.778C40.3062 233.666 40.1196 233.293 40.2241 232.86C40.2987 232.554 40.4331 232.262 40.5451 231.971C42.1353 227.895 44.0092 223.938 45.689 219.892C46.794 217.234 47.9885 214.621 49.3473 212.09C50.161 210.574 51.0793 209.133 52.1395 207.782C54.3941 204.885 57.3581 203.355 61.0088 203.079C62.5094 202.967 64.0101 202.892 65.5107 202.952C65.7197 203.012 65.9288 203.049 66.1677 202.937ZM64.9657 188.267C59.9636 188.259 57.3133 188.476 53.6028 189.207C51.4153 189.64 49.3398 190.387 47.4286 191.559C46.3535 192.223 45.4651 193.067 45.0022 194.284C44.5169 195.546 44.7558 196.3 45.8831 197.061C46.7566 197.651 47.7496 197.912 48.7649 198.077C51.0345 198.442 53.3265 198.51 55.6185 198.704C58.0598 198.905 60.5161 199.002 62.9499 199.323C65.1523 199.615 66.9665 200.421 67.7654 202.698C67.8624 202.967 68.0565 203.049 68.3178 203.034C68.5791 203.019 68.8479 203.019 69.1092 203.012C71.7222 202.944 74.3128 202.623 76.9035 202.28C79.076 201.989 81.2262 201.593 83.3091 200.906C85.0113 200.346 86.5642 199.532 87.8184 198.226C88.8935 197.099 89.2519 195.785 88.7218 194.291C88.3858 193.351 87.6691 192.731 86.8479 192.223C85.6534 191.477 84.3394 191.007 82.9881 190.633C76.9781 188.976 70.8487 188.222 64.9657 188.267Z" fill="#303030"/>
<path d="M90.2747 232.673C90.2897 233.128 90.0956 233.427 89.7671 233.524C89.4236 233.621 89.1026 233.487 88.9085 233.128C88.8264 232.972 88.7741 232.785 88.7293 232.606C87.0047 225.999 85.0263 219.466 83.3764 212.836C82.809 210.559 82.264 208.275 81.719 205.998C81.6966 205.893 81.6667 205.789 81.6592 205.684C81.6294 205.259 81.8085 204.96 82.1445 204.893C82.5103 204.818 82.7642 204.997 82.906 205.311C83.0031 205.527 83.0553 205.759 83.1151 205.99C84.6082 211.455 85.9446 216.965 87.5049 222.415C88.4158 225.61 89.2594 228.821 90.1329 232.023C90.1851 232.262 90.2299 232.494 90.2747 232.673Z" fill="#303030"/>
<path d="M162.387 104.15C162.379 104.239 162.364 104.321 162.379 104.389C162.775 106.255 162.835 108.151 162.939 110.048C163.073 112.519 162.82 114.945 162.424 117.364C162.103 119.32 161.334 121.104 159.938 122.568C159.811 122.702 159.699 122.859 159.55 122.963C158.28 123.852 156.944 124.516 155.354 124.636C152.905 124.815 150.598 124.345 148.336 123.419C145.566 122.277 143.005 120.776 140.572 119.044C139.758 118.469 139.049 117.752 138.272 117.08C137.817 117.297 137.436 117.625 137.055 117.954C136.017 118.85 134.883 119.619 133.785 120.433C132.516 121.373 131.269 122.336 129.933 123.202C128.962 123.829 127.969 124.434 127.051 125.143C126.842 125.308 126.611 125.427 126.327 125.427C125.752 125.427 125.468 124.979 125.707 124.457C125.827 124.195 126.043 124.061 126.275 123.927C127.805 122.993 129.246 121.926 130.642 120.813C131.381 120.223 132.195 119.731 132.956 119.163C134.241 118.193 135.45 117.133 136.794 116.244C136.898 116.17 136.995 116.073 137.085 115.983C137.212 115.856 137.242 115.744 137.1 115.58C136.503 114.863 136.152 114.012 135.816 113.146C135.286 111.787 135.368 110.451 135.876 109.137C136.286 108.069 136.921 107.136 137.727 106.315C138.989 105.016 140.482 104.03 142.065 103.187C143.364 102.492 144.723 101.917 146.066 101.313C147.395 100.715 148.791 100.342 150.158 99.8792C150.897 99.6254 151.703 99.5507 152.502 99.7449C153.614 100.021 154.092 100.842 153.779 101.947C153.472 103.022 152.741 103.836 152.069 104.672C151.584 105.292 151.009 105.844 150.449 106.389C148.933 107.86 147.418 109.316 145.82 110.697C144.028 112.243 142.222 113.781 140.415 115.318C140.139 115.557 139.825 115.759 139.511 115.998C140.646 117.267 141.983 118.238 143.401 119.089C144.394 119.686 145.38 120.291 146.417 120.828C148.067 121.672 149.769 122.366 151.561 122.844C153.196 123.277 154.839 123.329 156.481 122.874C158.154 122.411 159.244 121.299 159.998 119.798C160.669 118.462 160.983 117.013 161.147 115.542C161.446 112.892 161.565 110.242 161.229 107.576C161.102 106.584 161.08 105.576 160.864 104.598C160.767 104.135 160.64 103.679 160.543 103.216C160.498 102.978 160.341 102.858 160.154 102.746C158.997 102.059 157.915 101.268 156.825 100.477C156.011 99.8792 155.272 99.1924 154.645 98.4234C153.286 96.7361 153.413 94.8174 155.085 93.2795C156.645 91.8386 158.467 91.2488 160.55 91.8909C162.222 92.406 163.417 93.4512 163.798 95.2281C163.984 96.1165 163.857 97.0049 163.604 97.8859C163.275 99.0431 162.685 100.066 162.103 101.096C161.707 101.798 161.7 101.798 162.409 102.238C164.313 103.418 166.321 104.426 168.292 105.479C170.061 106.419 171.853 107.315 173.6 108.293C176.915 110.137 180.207 112.034 183.515 113.885C186.688 115.662 189.883 117.394 193.056 119.178C194.639 120.074 196.192 121.022 197.737 121.97C201.709 124.419 205.755 126.749 209.921 128.854C212.885 130.355 215.939 131.669 219.127 132.624C220.62 133.072 220.582 133.206 220.672 131.512C220.754 129.951 221.165 128.451 222.173 127.256C223.546 125.621 225.838 125.427 227.302 127.421C229.504 130.414 227.264 133.662 224.89 134.356C224.091 134.588 223.307 134.744 222.486 134.737C222.105 134.73 221.971 134.871 221.986 135.245C222.038 136.641 222.068 138.037 222.105 139.433C222.113 139.62 222.143 139.799 222.143 139.985C222.165 142.934 222.165 145.891 222.217 148.84C222.285 152.506 222.292 156.171 222.337 159.829C222.352 161.121 222.344 162.413 222.374 163.697C222.419 165.802 222.382 167.915 222.509 170.02C222.606 171.708 222.538 173.395 222.658 175.075C222.785 176.762 222.703 178.449 222.815 180.129C222.919 181.637 222.822 183.13 222.815 184.631C222.807 186.766 222.68 188.901 222.673 191.029C222.673 192.925 222.509 194.822 222.523 196.71C222.546 198.637 222.367 200.555 222.367 202.474C222.367 203.9 222.21 205.311 222.18 206.729C222.105 209.552 221.814 212.359 221.59 215.166C221.426 217.264 221.045 219.347 220.605 221.415C220.351 222.609 220.09 222.452 221.426 222.818C223.673 223.43 225.838 224.252 227.809 225.513C228.653 226.051 229.459 226.648 230.251 227.26C231.46 228.201 232.64 229.172 233.722 230.254C234.581 231.105 235.394 232.024 235.85 233.173C236.186 234.024 235.969 234.368 235.081 234.599C233.73 234.95 232.348 235.137 230.967 235.338C227.279 235.868 223.569 236.033 219.866 236.301C219.291 236.346 218.708 236.354 218.126 236.369C215.834 236.436 213.542 236.54 211.25 236.593C209.481 236.63 207.726 236.488 205.964 236.451C203.127 236.391 200.365 235.809 197.573 235.45C197.155 235.398 196.744 235.286 196.363 235.092C196.02 234.92 195.886 234.599 195.975 234.233C196.065 233.883 196.304 233.696 196.662 233.688C196.871 233.688 197.088 233.711 197.289 233.756C200.611 234.54 204.001 234.853 207.398 235.002C211.086 235.159 214.774 235.01 218.462 234.778C218.992 234.749 219.515 234.719 220.045 234.711C222.18 234.696 224.308 234.48 226.428 234.278C228.683 234.062 230.952 233.965 233.185 233.532C233.483 233.472 233.789 233.405 234.155 233.323C233.819 232.71 233.461 232.195 233.02 231.747C230.698 229.336 228.093 227.305 225.099 225.79C223.636 225.051 222.09 224.528 220.508 224.11C220.037 223.99 219.925 224.17 219.784 224.535C219.239 225.939 218.604 227.29 217.693 228.507C216.648 229.888 215.409 231.038 213.968 231.994C212.691 232.837 211.258 233.173 209.809 233.36C208.324 233.554 206.883 233.143 205.681 232.285C204.509 231.441 203.881 230.239 204.232 228.709C204.419 227.902 204.718 227.148 205.225 226.491C206.024 225.461 206.95 224.61 208.107 223.953C210.757 222.437 213.617 221.922 216.618 221.997C217.171 222.012 217.723 222.102 218.268 222.154C218.88 222.214 218.888 222.214 219.044 221.586C219.373 220.28 219.574 218.958 219.724 217.615C219.91 215.86 220.231 214.113 220.314 212.351C220.433 209.828 220.739 207.312 220.747 204.781C220.747 203.467 220.948 202.146 220.926 200.832C220.896 198.622 221.15 196.412 221.06 194.202C221.038 193.545 221.127 192.888 221.15 192.223C221.217 189.693 221.299 187.162 221.329 184.631C221.359 182.705 221.404 180.778 221.292 178.86C221.202 177.172 221.277 175.485 221.142 173.805C221.015 172.17 221.083 170.535 221 168.908C220.821 165.429 220.881 161.95 220.821 158.478C220.791 156.739 220.874 154.999 220.806 153.26C220.672 149.781 220.747 146.301 220.65 142.822C220.575 140.239 220.657 137.656 220.56 135.08C220.545 134.61 220.396 134.446 219.963 134.356C216.611 133.647 213.512 132.258 210.429 130.81C207.323 129.347 204.344 127.659 201.388 125.927C198.521 124.248 195.699 122.501 192.825 120.836C190.406 119.44 187.942 118.118 185.501 116.759C183.522 115.654 181.544 114.55 179.573 113.43C175.795 111.279 172.017 109.122 168.15 107.129C166.366 106.21 164.611 105.247 162.842 104.321C162.693 104.239 162.573 104.127 162.387 104.15ZM138.496 114.826C138.645 114.721 138.742 114.676 138.817 114.609C140.146 113.452 141.52 112.347 142.871 111.205C144.379 109.928 145.828 108.577 147.306 107.278C148.478 106.248 149.583 105.158 150.606 103.993C151.18 103.343 151.733 102.664 152.129 101.888C152.39 101.38 152.285 101.201 151.725 101.231C151.039 101.268 150.359 101.387 149.71 101.604C147.686 102.283 145.73 103.104 143.797 104.023C141.818 104.956 140.042 106.158 138.526 107.726C137.72 108.569 137.13 109.547 137.063 110.794C136.995 112.317 137.473 113.624 138.496 114.826ZM218.365 223.789C216.267 223.423 214.304 223.415 212.318 223.923C210.825 224.304 209.376 224.782 208.144 225.715C207.092 226.514 206.144 227.432 205.793 228.798C205.516 229.881 205.949 230.799 206.965 231.247C209.705 232.471 212.064 231.538 214.244 229.896C215.252 229.134 216.051 228.134 216.76 227.074C217.439 226.058 217.895 224.953 218.365 223.789ZM162.394 96.3703C162.312 95.019 161.745 93.8992 160.438 93.3989C159.341 92.9809 158.325 93.175 157.295 93.5632C156.414 93.8992 155.832 94.5487 155.428 95.3923C155.182 95.9149 155.197 96.4226 155.503 96.9004C155.802 97.3633 156.108 97.8187 156.511 98.2069C157.579 99.2297 158.788 100.066 160.05 100.835C160.386 101.036 160.58 100.977 160.744 100.663C161.237 99.7374 161.812 98.849 162.095 97.8187C162.237 97.3409 162.372 96.8556 162.394 96.3703ZM222.904 133.109C223.083 133.087 223.375 133.057 223.658 133.027C224.898 132.9 225.749 132.206 226.324 131.153C227.055 129.824 226.488 128.189 225.151 127.615C224.808 127.465 224.502 127.473 224.158 127.607C223.487 127.876 223.158 128.443 222.882 129.048C222.397 130.116 222.195 131.258 222.113 132.423C222.068 133.094 222.105 133.124 222.904 133.109Z" fill="#303030"/>
<path d="M138.063 133.766C138.041 133.356 138.16 133.147 138.257 132.938C139.706 129.899 141.184 126.876 142.819 123.934C142.893 123.8 142.961 123.65 143.05 123.523C143.259 123.225 143.543 123.128 143.879 123.277C144.185 123.411 144.394 123.815 144.275 124.128C144.073 124.643 143.834 125.143 143.58 125.629C142.296 128.077 141.154 130.586 139.959 133.08C139.788 133.43 139.653 133.819 139.355 134.087C139.116 134.311 138.832 134.438 138.489 134.304C138.16 134.177 138.078 133.908 138.063 133.766Z" fill="#303030"/>
<path d="M150.426 135.932C150.65 132.886 150.874 129.966 151.479 127.1C151.509 126.973 151.516 126.838 151.561 126.711C151.711 126.271 152.017 126.062 152.375 126.136C152.741 126.219 152.92 126.525 152.86 126.995C152.778 127.592 152.629 128.19 152.592 128.794C152.442 131.161 152.069 133.505 151.964 135.879C151.957 136.036 151.964 136.2 151.92 136.35C151.808 136.738 151.509 136.887 151.136 136.895C150.785 136.902 150.494 136.641 150.426 136.268C150.404 136.118 150.426 135.961 150.426 135.932Z" fill="#303030"/>
<path d="M102.063 173.813C101.205 172.648 100.219 171.625 99.047 170.797C95.7845 168.49 92.2606 166.765 88.2888 166.026C85.3772 165.489 82.4804 165.302 79.5912 166.123C79.412 166.175 79.2328 166.228 79.0536 166.235C78.7401 166.243 78.4788 166.101 78.3668 165.802C78.2548 165.503 78.3295 165.227 78.5609 165.003C78.7401 164.832 78.9566 164.749 79.188 164.69C81.1665 164.16 83.1673 163.928 85.2204 164.092C90.5659 164.511 95.3738 166.347 99.7339 169.438C101.302 170.55 102.563 171.954 103.728 173.469C103.81 173.574 103.885 173.686 103.945 173.805C104.31 174.53 104.042 175.134 103.25 175.291C102.556 175.425 101.847 175.515 101.137 175.597C98.1362 175.941 95.1349 175.903 92.1337 175.627C89.3564 175.373 86.6613 174.761 84.108 173.649C80.7484 172.185 77.9114 170.065 75.8583 166.974C75.6866 166.713 75.5223 166.549 75.1714 166.571C73.7156 166.661 72.3046 166.967 70.9085 167.385C70.5725 167.489 70.5725 167.736 70.5501 167.997C70.4157 169.333 70.2739 170.67 70.1171 172.006C70.0499 172.611 69.9529 173.208 69.8409 173.805C69.7737 174.171 69.8633 174.321 70.2664 174.35C71.8716 174.462 73.4543 174.739 75.0221 175.119C75.6642 175.276 76.2913 175.47 76.896 175.739C79.0312 176.702 80.1884 178.3 80.1436 180.689C80.1213 182.145 79.8823 183.578 79.6136 185.004C79.1656 187.386 78.7401 189.775 78.0234 192.097C77.7695 192.903 77.4858 193.694 77.0453 194.426C76.2913 195.658 75.2088 196.434 73.7529 196.457C70.3261 196.509 66.8919 196.546 63.4875 196.009C62.8604 195.912 62.2556 195.74 61.6658 195.486C60.4862 194.986 59.7621 194.112 59.4933 192.858C59.2395 191.641 59.12 190.409 58.9483 189.185C58.5078 186.027 58.0972 182.861 57.9031 179.674C57.8807 179.308 57.8583 178.934 57.8807 178.569C57.9106 178.091 58.1569 177.822 58.5302 177.829C58.896 177.829 59.1499 178.083 59.1872 178.569C59.2992 180.069 59.4634 181.562 59.6575 183.056C60.0607 186.116 60.434 189.177 60.8894 192.223C61.0536 193.328 61.6509 193.978 62.6887 194.277C63.5547 194.53 64.4356 194.68 65.3315 194.754C67.855 194.978 70.3933 194.934 72.9242 194.986C73.0288 194.986 73.1333 194.978 73.2378 194.986C74.5891 195.016 75.4775 194.359 76.0151 193.157C76.6422 191.753 77.008 190.267 77.329 188.767C77.8143 186.497 78.2996 184.228 78.5534 181.921C78.5982 181.525 78.6356 181.129 78.6356 180.741C78.6505 178.964 77.889 177.807 76.254 177.098C75.2536 176.665 74.1934 176.471 73.1333 176.247C72.0955 176.03 71.0429 175.956 69.9977 175.814C69.5721 175.754 69.4527 175.933 69.3705 176.299C69.266 176.814 69.1242 177.322 68.9674 177.829C68.7583 178.486 68.4224 179.084 67.9595 179.606C67.31 180.353 66.5111 180.816 65.5033 180.898C64.57 180.98 63.6517 180.905 62.7708 180.622C61.9495 180.353 61.2552 179.883 60.8446 179.084C60.2772 177.986 60.5086 176.807 61.4568 176.015C62.0317 175.537 62.6961 175.216 63.3979 174.985C64.8089 174.522 66.2424 174.194 67.7355 174.201C68.0715 174.201 68.2731 174.134 68.3328 173.753C68.6016 171.984 68.8479 170.207 68.9823 168.415C68.9898 168.311 68.9748 168.206 68.9599 168.079C68.6165 168.012 68.3402 168.191 68.0491 168.281C65.9587 168.938 63.8458 169.475 61.6434 169.647C59.5978 169.804 57.5895 169.587 55.5812 169.259C52.6248 168.766 49.7878 167.915 47.0926 166.579C44.7708 165.429 42.77 163.861 40.9707 162.009C39.1117 160.098 37.417 158.038 35.894 155.85C35.6103 155.44 35.3266 155.021 35.1698 154.536C34.8861 153.67 35.2743 153.043 36.1851 152.983C40.0076 152.752 43.8301 152.64 47.6451 153.058C50.4373 153.364 53.1549 153.902 55.7679 154.992C59.9114 156.724 63.2561 159.374 65.6302 163.204C65.6974 163.316 65.7795 163.42 65.8392 163.54C66.0333 163.928 66.3021 164.048 66.7426 163.936C67.3548 163.786 67.9819 163.674 68.609 163.592C69.042 163.54 69.1764 163.338 69.1615 162.913C69.0943 161.338 68.7583 159.837 68.0043 158.433C67.2055 156.963 66.1528 155.678 65.0926 154.402C62.8006 151.632 60.755 148.698 58.896 145.622C56.7907 142.128 55.529 138.38 55.0437 134.334C54.7227 131.683 54.4539 129.041 54.439 126.368C54.439 126.107 54.4166 125.838 54.5062 125.584C54.7077 125.017 55.2453 124.8 55.7753 125.084C55.9097 125.158 56.0366 125.263 56.1561 125.36C59.9412 128.548 62.7857 132.415 64.6223 137.021C65.6974 139.709 66.3469 142.494 66.7724 145.346C66.8172 145.659 66.8322 145.973 67.0188 146.339C67.2577 145.301 67.4668 144.33 67.7057 143.367C69.0122 138.156 71.2071 133.378 74.6862 129.235C76.351 127.256 78.3071 125.629 80.5617 124.36C80.6961 124.285 80.838 124.203 80.9798 124.136C81.7189 123.807 82.2863 124.024 82.5551 124.785C82.8089 125.487 82.8761 126.226 82.9881 126.95C83.6974 131.698 83.0329 136.253 81.0022 140.605C80.0018 142.755 78.6505 144.659 77.0006 146.361C75.8658 147.541 74.6488 148.631 73.4394 149.736C72.3344 150.751 71.2146 151.759 70.2814 152.953C70.0872 153.2 69.923 153.476 69.7289 153.73C69.5497 153.976 69.5646 154.185 69.7289 154.447C70.4605 155.604 71.1698 156.776 71.894 157.948C71.9462 158.03 71.9835 158.142 72.1403 158.165C72.3568 158.082 72.424 157.836 72.5435 157.642C74.6787 154.163 77.4112 151.221 80.5767 148.661C83.8691 145.995 87.6692 144.442 91.7903 143.629C94.351 143.121 96.9491 142.852 99.5397 142.539C101.324 142.322 103.086 142.016 104.848 141.688C105.027 141.65 105.214 141.598 105.393 141.598C106.162 141.598 106.535 142.225 106.162 142.897C106.02 143.151 105.833 143.375 105.662 143.606C104.945 144.584 104.303 145.622 103.698 146.667C99.9504 153.155 94.4556 157.523 87.4676 160.106C82.906 161.793 78.1951 162.935 73.4767 164.055C72.7077 164.234 71.9313 164.399 71.1623 164.578C70.7218 164.682 70.4456 165.272 70.6397 165.675C70.7293 165.869 70.9085 165.802 71.0578 165.772C71.5431 165.653 72.0283 165.518 72.5136 165.414C73.4916 165.197 74.4921 165.115 75.4925 165.048C76.0748 165.003 76.5003 165.205 76.8064 165.727C78.0756 167.93 79.9197 169.565 82.04 170.909C84.7874 172.656 87.8259 173.574 91.0138 174C94.5078 174.462 98.0093 174.5 101.503 174.029C101.697 173.992 101.869 174.022 102.063 173.813ZM103.818 143.494C103.609 143.39 103.4 143.464 103.205 143.502C101.802 143.763 100.391 143.92 98.9798 144.107C96.5012 144.435 94.0001 144.674 91.5514 145.204C87.9753 145.98 84.6604 147.354 81.7712 149.639C78.5758 152.162 75.8508 155.111 73.738 158.605C73.5215 158.963 73.3125 159.337 73.0736 159.68C72.4838 160.539 71.767 160.531 71.2146 159.658C71.0877 159.456 70.9757 159.247 70.8488 159.046C70.0201 157.702 69.2137 156.335 68.3402 155.014C67.8998 154.35 67.8998 153.812 68.3253 153.14C69.1764 151.811 70.2291 150.684 71.3639 149.616C72.7077 148.347 74.0964 147.13 75.4029 145.831C80.4124 140.837 82.3311 134.767 81.5845 127.794C81.5099 127.122 81.4875 126.435 81.2411 125.785C80.935 125.785 80.7334 125.98 80.5169 126.114C78.8446 127.152 77.3664 128.413 76.0748 129.899C72.7227 133.766 70.6173 138.261 69.2959 143.166C68.6463 145.562 68.2955 148.019 67.8848 150.46C67.84 150.751 67.7803 151.035 67.6459 151.296C67.4891 151.602 67.2353 151.774 66.877 151.744C66.5559 151.722 66.3394 151.535 66.2349 151.236C66.1826 151.087 66.1453 150.93 66.1154 150.781C65.9587 149.848 65.787 148.914 65.6451 147.974C65.2942 145.652 64.9956 143.323 64.3759 141.053C62.9649 135.909 60.5236 131.37 56.5219 127.756C56.3801 127.63 56.283 127.383 55.9918 127.48C55.9918 127.846 55.9769 128.212 55.9918 128.578C56.1113 131.109 56.4174 133.625 56.8429 136.118C57.2536 138.53 58.0001 140.822 59.1648 142.979C60.3668 145.211 61.6882 147.369 63.1515 149.437C64.6372 151.528 66.317 153.454 67.8699 155.484C69.169 157.179 70.1768 159.016 70.4904 161.166C70.5576 161.606 70.58 162.054 70.6322 162.502C70.7069 163.122 70.7144 163.129 71.2967 163.002C71.8865 162.875 72.4763 162.734 73.0661 162.592C77.7845 161.472 82.5028 160.337 87.057 158.642C92.3129 156.679 96.7923 153.64 100.242 149.168C101.578 147.429 102.623 145.495 103.788 143.644C103.833 143.614 103.81 143.554 103.818 143.494ZM36.9093 154.402C36.9541 154.775 37.1258 154.947 37.2602 155.133C38.6563 157.119 40.2092 158.986 41.8741 160.748C44.2706 163.286 47.1001 165.145 50.385 166.332C52.6546 167.153 54.984 167.669 57.3656 167.975C59.5456 168.258 61.7256 168.251 63.8981 167.81C65.451 167.497 66.9591 167.034 68.4597 166.549C69.1391 166.332 69.1391 166.332 69.154 165.623C69.154 165.429 69.2361 165.205 69.0346 165.033C68.4149 165.138 67.7952 165.242 67.1756 165.362C65.6152 165.645 65.3913 165.548 64.5178 164.197C64.4207 164.04 64.3237 163.883 64.2191 163.734C63.3456 162.442 62.405 161.211 61.2478 160.15C58.6497 157.754 55.5738 156.246 52.1992 155.343C49.2577 154.559 46.2266 154.35 43.1955 154.253C41.1125 154.178 39.0371 154.357 36.9093 154.402ZM64.8463 179.39C66.093 179.539 66.862 178.837 67.3846 177.755C67.6011 177.299 67.7355 176.814 67.84 176.329C67.967 175.747 67.9147 175.679 67.3174 175.702C65.8541 175.761 64.458 176.105 63.1217 176.702C62.9052 176.799 62.7036 176.926 62.5169 177.068C61.9197 177.531 61.8823 178.158 62.4124 178.695C62.6812 178.964 63.0097 179.121 63.368 179.226C63.8384 179.352 64.3087 179.412 64.8463 179.39Z" fill="#303030"/>
<path d="M52.1596 32.396C50.8636 32.396 49.6996 32.288 48.6676 32.072C47.6356 31.856 46.4836 31.568 45.2116 31.208C44.3716 30.968 43.8076 30.836 43.5196 30.812L43.8436 24.152H46.7596L47.5516 28.796C47.8636 29.132 48.4156 29.432 49.2076 29.696C50.0236 29.96 50.9476 30.092 51.9796 30.092C53.5876 30.092 54.7876 29.744 55.5796 29.048C56.3956 28.328 56.8036 27.332 56.8036 26.06C56.8036 25.22 56.5636 24.5 56.0836 23.9C55.6036 23.276 54.9436 22.724 54.1036 22.244C53.2636 21.74 52.1116 21.164 50.6476 20.516C48.6556 19.604 46.9996 18.524 45.6796 17.276C44.3836 16.004 43.7356 14.288 43.7356 12.128C43.7356 10.784 44.0836 9.572 44.7796 8.492C45.4756 7.388 46.5076 6.524 47.8756 5.9C49.2676 5.252 50.9596 4.928 52.9516 4.928C54.1276 4.928 55.1596 5.012 56.0476 5.18C56.9596 5.348 57.9436 5.576 58.9996 5.864C59.6236 6.032 60.0916 6.14 60.4036 6.188L60.1876 12.488H57.3076L56.5516 8.06C56.3356 7.844 55.9036 7.64 55.2556 7.448C54.6076 7.232 53.8876 7.124 53.0956 7.124C51.6556 7.124 50.5636 7.46 49.8196 8.132C49.0996 8.78 48.7396 9.656 48.7396 10.76C48.7396 11.648 49.0036 12.416 49.5316 13.064C50.0836 13.712 50.7436 14.264 51.5116 14.72C52.2796 15.152 53.4916 15.776 55.1476 16.592C56.4916 17.24 57.6436 17.876 58.6036 18.5C59.5636 19.124 60.3916 19.94 61.0876 20.948C61.7836 21.932 62.1316 23.096 62.1316 24.44C62.1316 25.76 61.7956 27.02 61.1236 28.22C60.4756 29.42 59.3956 30.416 57.8836 31.208C56.3956 32 54.4876 32.396 52.1596 32.396ZM78.819 32.288C75.171 32.288 72.459 31.376 70.683 29.552C68.907 27.728 68.019 24.86 68.019 20.948V7.952L65.643 7.484V5.252H76.515V7.484L73.455 7.988V21.416C73.455 27.128 75.483 29.984 79.539 29.984C81.531 29.984 83.007 29.252 83.967 27.788C84.927 26.3 85.407 24.224 85.407 21.56V7.988L82.311 7.484V5.252H91.311V7.484L88.863 7.952V21.272C88.863 25.016 87.951 27.788 86.127 29.588C84.327 31.388 81.891 32.288 78.819 32.288ZM107.157 32.396C103.077 32.396 99.9569 31.184 97.7969 28.76C95.6369 26.312 94.5569 22.976 94.5569 18.752C94.5569 15.968 95.1209 13.544 96.2489 11.48C97.4009 9.392 98.9729 7.784 100.965 6.656C102.957 5.528 105.213 4.964 107.733 4.964C108.789 4.964 109.809 5.036 110.793 5.18C111.777 5.3 112.941 5.468 114.285 5.684C115.293 5.852 115.845 5.936 115.941 5.936L115.545 13.352H112.233L111.117 8.204C110.853 7.94 110.397 7.724 109.749 7.556C109.101 7.388 108.273 7.304 107.265 7.304C105.225 7.304 103.581 8.252 102.333 10.148C101.109 12.02 100.497 14.744 100.497 18.32C100.497 21.776 101.085 24.596 102.261 26.78C103.437 28.964 105.153 30.056 107.409 30.056C108.489 30.056 109.317 29.96 109.893 29.768C110.493 29.552 110.997 29.252 111.405 28.868L112.989 25.16L116.013 25.448L115.293 31.028C114.789 31.076 114.285 31.172 113.781 31.316C113.301 31.436 113.001 31.508 112.881 31.532C111.921 31.796 111.021 32 110.181 32.144C109.365 32.312 108.357 32.396 107.157 32.396ZM132.652 32.396C128.572 32.396 125.452 31.184 123.292 28.76C121.132 26.312 120.052 22.976 120.052 18.752C120.052 15.968 120.616 13.544 121.744 11.48C122.896 9.392 124.468 7.784 126.46 6.656C128.452 5.528 130.708 4.964 133.228 4.964C134.284 4.964 135.304 5.036 136.288 5.18C137.272 5.3 138.436 5.468 139.78 5.684C140.788 5.852 141.34 5.936 141.436 5.936L141.04 13.352H137.728L136.612 8.204C136.348 7.94 135.892 7.724 135.244 7.556C134.596 7.388 133.768 7.304 132.76 7.304C130.72 7.304 129.076 8.252 127.828 10.148C126.604 12.02 125.992 14.744 125.992 18.32C125.992 21.776 126.58 24.596 127.756 26.78C128.932 28.964 130.648 30.056 132.904 30.056C133.984 30.056 134.812 29.96 135.388 29.768C135.988 29.552 136.492 29.252 136.9 28.868L138.484 25.16L141.508 25.448L140.788 31.028C140.284 31.076 139.78 31.172 139.276 31.316C138.796 31.436 138.496 31.508 138.376 31.532C137.416 31.796 136.516 32 135.676 32.144C134.86 32.312 133.852 32.396 132.652 32.396ZM148.752 7.952L145.872 7.484V5.252H165.06L165.528 11.3H163.008L161.82 7.736L154.044 7.412V17.096L159.048 16.988L159.624 14.036H161.928V22.748H159.624L159.048 19.652L154.044 19.544V29.696L162.756 29.264L164.844 24.656L167.544 25.412L166.608 32H145.908V29.84L148.752 29.48V7.952ZM180.585 32.396C179.289 32.396 178.125 32.288 177.093 32.072C176.061 31.856 174.909 31.568 173.637 31.208C172.797 30.968 172.233 30.836 171.945 30.812L172.269 24.152H175.185L175.977 28.796C176.289 29.132 176.841 29.432 177.633 29.696C178.449 29.96 179.373 30.092 180.405 30.092C182.013 30.092 183.213 29.744 184.005 29.048C184.821 28.328 185.229 27.332 185.229 26.06C185.229 25.22 184.989 24.5 184.509 23.9C184.029 23.276 183.369 22.724 182.529 22.244C181.689 21.74 180.537 21.164 179.073 20.516C177.081 19.604 175.425 18.524 174.105 17.276C172.809 16.004 172.161 14.288 172.161 12.128C172.161 10.784 172.509 9.572 173.205 8.492C173.901 7.388 174.933 6.524 176.301 5.9C177.693 5.252 179.385 4.928 181.377 4.928C182.553 4.928 183.585 5.012 184.473 5.18C185.385 5.348 186.369 5.576 187.425 5.864C188.049 6.032 188.517 6.14 188.829 6.188L188.613 12.488H185.733L184.977 8.06C184.761 7.844 184.329 7.64 183.681 7.448C183.033 7.232 182.313 7.124 181.521 7.124C180.081 7.124 178.989 7.46 178.245 8.132C177.525 8.78 177.165 9.656 177.165 10.76C177.165 11.648 177.429 12.416 177.957 13.064C178.509 13.712 179.169 14.264 179.937 14.72C180.705 15.152 181.917 15.776 183.573 16.592C184.917 17.24 186.069 17.876 187.029 18.5C187.989 19.124 188.817 19.94 189.513 20.948C190.209 21.932 190.557 23.096 190.557 24.44C190.557 25.76 190.221 27.02 189.549 28.22C188.901 29.42 187.821 30.416 186.309 31.208C184.821 32 182.913 32.396 180.585 32.396ZM204.077 32.396C202.781 32.396 201.617 32.288 200.585 32.072C199.553 31.856 198.401 31.568 197.129 31.208C196.289 30.968 195.725 30.836 195.437 30.812L195.761 24.152H198.677L199.469 28.796C199.781 29.132 200.333 29.432 201.125 29.696C201.941 29.96 202.865 30.092 203.897 30.092C205.505 30.092 206.705 29.744 207.497 29.048C208.313 28.328 208.721 27.332 208.721 26.06C208.721 25.22 208.481 24.5 208.001 23.9C207.521 23.276 206.861 22.724 206.021 22.244C205.181 21.74 204.029 21.164 202.565 20.516C200.573 19.604 198.917 18.524 197.597 17.276C196.301 16.004 195.653 14.288 195.653 12.128C195.653 10.784 196.001 9.572 196.697 8.492C197.393 7.388 198.425 6.524 199.793 5.9C201.185 5.252 202.877 4.928 204.869 4.928C206.045 4.928 207.077 5.012 207.965 5.18C208.877 5.348 209.861 5.576 210.917 5.864C211.541 6.032 212.009 6.14 212.321 6.188L212.105 12.488H209.225L208.469 8.06C208.253 7.844 207.821 7.64 207.173 7.448C206.525 7.232 205.805 7.124 205.013 7.124C203.573 7.124 202.481 7.46 201.737 8.132C201.017 8.78 200.657 9.656 200.657 10.76C200.657 11.648 200.921 12.416 201.449 13.064C202.001 13.712 202.661 14.264 203.429 14.72C204.197 15.152 205.409 15.776 207.065 16.592C208.409 17.24 209.561 17.876 210.521 18.5C211.481 19.124 212.309 19.94 213.005 20.948C213.701 21.932 214.049 23.096 214.049 24.44C214.049 25.76 213.713 27.02 213.041 28.22C212.393 29.42 211.313 30.416 209.801 31.208C208.313 32 206.405 32.396 204.077 32.396ZM224.652 23H221.556L220.188 0.139998H225.984L224.652 23ZM220.188 29.624C220.188 28.76 220.512 28.04 221.16 27.464C221.808 26.888 222.576 26.6 223.464 26.6C224.352 26.6 225.048 26.876 225.552 27.428C226.08 27.956 226.344 28.592 226.344 29.336C226.344 30.248 226.02 30.98 225.372 31.532C224.748 32.06 223.944 32.324 222.96 32.324C222.216 32.324 221.568 32.072 221.016 31.568C220.464 31.064 220.188 30.416 220.188 29.624Z" fill="#303030"/>
<path d="M14.9883 353.31L10.0023 360.006V366H8.52626V359.988L3.54026 353.31H5.25026L9.28226 358.782L13.3143 353.31H14.9883ZM18.2897 366.126C17.4617 366.126 16.7297 365.94 16.0937 365.568C15.4697 365.196 14.9837 364.668 14.6357 363.984C14.2997 363.288 14.1317 362.484 14.1317 361.572C14.1317 360.66 14.2997 359.862 14.6357 359.178C14.9837 358.482 15.4697 357.948 16.0937 357.576C16.7297 357.204 17.4617 357.018 18.2897 357.018C19.1177 357.018 19.8497 357.204 20.4857 357.576C21.1217 357.948 21.6077 358.482 21.9437 359.178C22.2917 359.862 22.4657 360.66 22.4657 361.572C22.4657 362.484 22.2917 363.288 21.9437 363.984C21.6077 364.668 21.1217 365.196 20.4857 365.568C19.8497 365.94 19.1177 366.126 18.2897 366.126ZM18.2897 364.92C19.1537 364.92 19.8137 364.638 20.2697 364.074C20.7377 363.498 20.9717 362.664 20.9717 361.572C20.9717 360.504 20.7377 359.682 20.2697 359.106C19.8017 358.518 19.1417 358.224 18.2897 358.224C17.4377 358.224 16.7777 358.518 16.3097 359.106C15.8417 359.682 15.6077 360.504 15.6077 361.572C15.6077 362.652 15.8357 363.48 16.2917 364.056C16.7597 364.632 17.4257 364.92 18.2897 364.92ZM32.0181 357.234V366H30.5961V364.506C30.3201 365.034 29.9301 365.436 29.4261 365.712C28.9341 365.988 28.3761 366.126 27.7521 366.126C26.7081 366.126 25.9221 365.838 25.3941 365.262C24.8661 364.674 24.6021 363.81 24.6021 362.67V357.234H26.0601V362.634C26.0601 363.414 26.2161 363.99 26.5281 364.362C26.8401 364.722 27.3321 364.902 28.0041 364.902C28.7721 364.902 29.3901 364.656 29.8581 364.164C30.3261 363.66 30.5601 363 30.5601 362.184V357.234H32.0181ZM39.6959 358.278L38.7419 358.368C37.8419 358.452 37.1879 358.734 36.7799 359.214C36.3839 359.694 36.1859 360.288 36.1859 360.996V366H34.7279V357.234H36.1499V358.764C36.6419 357.744 37.6079 357.174 39.0479 357.054L39.5699 357.018L39.6959 358.278ZM49.3503 366.126C48.5223 366.126 47.7903 365.94 47.1543 365.568C46.5303 365.196 46.0443 364.668 45.6963 363.984C45.3603 363.288 45.1923 362.484 45.1923 361.572C45.1923 360.66 45.3603 359.862 45.6963 359.178C46.0443 358.482 46.5303 357.948 47.1543 357.576C47.7903 357.204 48.5223 357.018 49.3503 357.018C50.1783 357.018 50.9103 357.204 51.5463 357.576C52.1823 357.948 52.6683 358.482 53.0043 359.178C53.3523 359.862 53.5263 360.66 53.5263 361.572C53.5263 362.484 53.3523 363.288 53.0043 363.984C52.6683 364.668 52.1823 365.196 51.5463 365.568C50.9103 365.94 50.1783 366.126 49.3503 366.126ZM49.3503 364.92C50.2143 364.92 50.8743 364.638 51.3303 364.074C51.7983 363.498 52.0323 362.664 52.0323 361.572C52.0323 360.504 51.7983 359.682 51.3303 359.106C50.8623 358.518 50.2023 358.224 49.3503 358.224C48.4983 358.224 47.8383 358.518 47.3703 359.106C46.9023 359.682 46.6683 360.504 46.6683 361.572C46.6683 362.652 46.8963 363.48 47.3523 364.056C47.8203 364.632 48.4863 364.92 49.3503 364.92ZM60.6666 358.278L59.7126 358.368C58.8126 358.452 58.1586 358.734 57.7506 359.214C57.3546 359.694 57.1566 360.288 57.1566 360.996V366H55.6986V357.234H57.1206V358.764C57.6126 357.744 58.5786 357.174 60.0186 357.054L60.5406 357.018L60.6666 358.278ZM69.6446 353.31V366H68.1866V364.398C67.9226 364.95 67.5326 365.376 67.0166 365.676C66.5126 365.976 65.9186 366.126 65.2346 366.126C64.4666 366.126 63.7886 365.934 63.2006 365.55C62.6126 365.166 62.1566 364.632 61.8326 363.948C61.5086 363.252 61.3466 362.448 61.3466 361.536C61.3466 360.636 61.5086 359.844 61.8326 359.16C62.1566 358.476 62.6126 357.948 63.2006 357.576C63.7886 357.204 64.4666 357.018 65.2346 357.018C65.9186 357.018 66.5126 357.168 67.0166 357.468C67.5326 357.768 67.9226 358.194 68.1866 358.746V353.31H69.6446ZM65.5226 364.92C66.3746 364.92 67.0286 364.632 67.4846 364.056C67.9526 363.468 68.1866 362.64 68.1866 361.572C68.1866 360.504 67.9526 359.682 67.4846 359.106C67.0286 358.53 66.3746 358.242 65.5226 358.242C64.6706 358.242 64.0046 358.53 63.5246 359.106C63.0566 359.682 62.8226 360.492 62.8226 361.536C62.8226 362.604 63.0566 363.438 63.5246 364.038C64.0046 364.626 64.6706 364.92 65.5226 364.92ZM79.6891 361.842H73.2811C73.3291 362.862 73.6051 363.636 74.1091 364.164C74.6131 364.68 75.3271 364.938 76.2511 364.938C77.2711 364.938 78.2071 364.59 79.0591 363.894L79.5451 364.956C79.1611 365.316 78.6691 365.604 78.0691 365.82C77.4691 366.024 76.8571 366.126 76.2331 366.126C74.8651 366.126 73.7851 365.724 72.9931 364.92C72.2131 364.116 71.8231 363.006 71.8231 361.59C71.8231 360.69 71.9971 359.898 72.3451 359.214C72.6931 358.518 73.1791 357.978 73.8031 357.594C74.4391 357.21 75.1591 357.018 75.9631 357.018C77.1271 357.018 78.0391 357.402 78.6991 358.17C79.3591 358.926 79.6891 359.97 79.6891 361.302V361.842ZM75.9811 358.152C75.2131 358.152 74.5951 358.392 74.1271 358.872C73.6711 359.352 73.4011 360.03 73.3171 360.906H78.4111C78.3871 360.018 78.1651 359.34 77.7451 358.872C77.3251 358.392 76.7371 358.152 75.9811 358.152ZM86.8053 358.278L85.8513 358.368C84.9513 358.452 84.2973 358.734 83.8893 359.214C83.4933 359.694 83.2953 360.288 83.2953 360.996V366H81.8373V357.234H83.2593V358.764C83.7513 357.744 84.7173 357.174 86.1573 357.054L86.6793 357.018L86.8053 358.278ZM104.722 357.234H106.18L102.922 366H101.518L99.0516 359.214L96.5676 366H95.1816L91.9236 357.234H93.4356L95.9196 364.272L98.4576 357.234H99.7176L102.22 364.272L104.722 357.234ZM107.976 366V357.234H109.434V366H107.976ZM107.832 353.436H109.596V355.074H107.832V353.436ZM112.16 366V353.31H113.618V366H112.16ZM116.343 366V353.31H117.801V366H116.343ZM129.577 357.018C130.345 357.018 131.023 357.204 131.611 357.576C132.199 357.948 132.655 358.476 132.979 359.16C133.303 359.844 133.465 360.636 133.465 361.536C133.465 362.448 133.303 363.252 132.979 363.948C132.655 364.632 132.199 365.166 131.611 365.55C131.023 365.934 130.345 366.126 129.577 366.126C128.893 366.126 128.293 365.976 127.777 365.676C127.273 365.376 126.889 364.95 126.625 364.398V366H125.167V353.31H126.625V358.746C126.889 358.194 127.273 357.768 127.777 357.468C128.293 357.168 128.893 357.018 129.577 357.018ZM129.289 364.92C130.141 364.92 130.801 364.626 131.269 364.038C131.737 363.438 131.971 362.604 131.971 361.536C131.971 360.492 131.737 359.682 131.269 359.106C130.801 358.53 130.141 358.242 129.289 358.242C128.437 358.242 127.777 358.53 127.309 359.106C126.853 359.682 126.625 360.504 126.625 361.572C126.625 362.64 126.853 363.468 127.309 364.056C127.777 364.632 128.437 364.92 129.289 364.92ZM142.988 361.842H136.58C136.628 362.862 136.904 363.636 137.408 364.164C137.912 364.68 138.626 364.938 139.55 364.938C140.57 364.938 141.506 364.59 142.358 363.894L142.844 364.956C142.46 365.316 141.968 365.604 141.368 365.82C140.768 366.024 140.156 366.126 139.532 366.126C138.164 366.126 137.084 365.724 136.292 364.92C135.512 364.116 135.122 363.006 135.122 361.59C135.122 360.69 135.296 359.898 135.644 359.214C135.992 358.518 136.478 357.978 137.102 357.594C137.738 357.21 138.458 357.018 139.262 357.018C140.426 357.018 141.338 357.402 141.998 358.17C142.658 358.926 142.988 359.97 142.988 361.302V361.842ZM139.28 358.152C138.512 358.152 137.894 358.392 137.426 358.872C136.97 359.352 136.7 360.03 136.616 360.906H141.71C141.686 360.018 141.464 359.34 141.044 358.872C140.624 358.392 140.036 358.152 139.28 358.152ZM157.553 353.31V366H156.095V364.398C155.831 364.95 155.441 365.376 154.925 365.676C154.421 365.976 153.827 366.126 153.143 366.126C152.375 366.126 151.697 365.934 151.109 365.55C150.521 365.166 150.065 364.632 149.741 363.948C149.417 363.252 149.255 362.448 149.255 361.536C149.255 360.636 149.417 359.844 149.741 359.16C150.065 358.476 150.521 357.948 151.109 357.576C151.697 357.204 152.375 357.018 153.143 357.018C153.827 357.018 154.421 357.168 154.925 357.468C155.441 357.768 155.831 358.194 156.095 358.746V353.31H157.553ZM153.431 364.92C154.283 364.92 154.937 364.632 155.393 364.056C155.861 363.468 156.095 362.64 156.095 361.572C156.095 360.504 155.861 359.682 155.393 359.106C154.937 358.53 154.283 358.242 153.431 358.242C152.579 358.242 151.913 358.53 151.433 359.106C150.965 359.682 150.731 360.492 150.731 361.536C150.731 362.604 150.965 363.438 151.433 364.038C151.913 364.626 152.579 364.92 153.431 364.92ZM167.597 361.842H161.189C161.237 362.862 161.513 363.636 162.017 364.164C162.521 364.68 163.235 364.938 164.159 364.938C165.179 364.938 166.115 364.59 166.967 363.894L167.453 364.956C167.069 365.316 166.577 365.604 165.977 365.82C165.377 366.024 164.765 366.126 164.141 366.126C162.773 366.126 161.693 365.724 160.901 364.92C160.121 364.116 159.731 363.006 159.731 361.59C159.731 360.69 159.905 359.898 160.253 359.214C160.601 358.518 161.087 357.978 161.711 357.594C162.347 357.21 163.067 357.018 163.871 357.018C165.035 357.018 165.947 357.402 166.607 358.17C167.267 358.926 167.597 359.97 167.597 361.302V361.842ZM163.889 358.152C163.121 358.152 162.503 358.392 162.035 358.872C161.579 359.352 161.309 360.03 161.225 360.906H166.319C166.295 360.018 166.073 359.34 165.653 358.872C165.233 358.392 164.645 358.152 163.889 358.152ZM169.746 366V353.31H171.204V366H169.746ZM173.929 366V357.234H175.387V366H173.929ZM173.785 353.436H175.549V355.074H173.785V353.436ZM184.395 357.252H185.853L182.073 366H180.705L176.943 357.252H178.491L181.425 364.416L184.395 357.252ZM194.597 361.842H188.189C188.237 362.862 188.513 363.636 189.017 364.164C189.521 364.68 190.235 364.938 191.159 364.938C192.179 364.938 193.115 364.59 193.967 363.894L194.453 364.956C194.069 365.316 193.577 365.604 192.977 365.82C192.377 366.024 191.765 366.126 191.141 366.126C189.773 366.126 188.693 365.724 187.901 364.92C187.121 364.116 186.731 363.006 186.731 361.59C186.731 360.69 186.905 359.898 187.253 359.214C187.601 358.518 188.087 357.978 188.711 357.594C189.347 357.21 190.067 357.018 190.871 357.018C192.035 357.018 192.947 357.402 193.607 358.17C194.267 358.926 194.597 359.97 194.597 361.302V361.842ZM190.889 358.152C190.121 358.152 189.503 358.392 189.035 358.872C188.579 359.352 188.309 360.03 188.225 360.906H193.319C193.295 360.018 193.073 359.34 192.653 358.872C192.233 358.392 191.645 358.152 190.889 358.152ZM201.714 358.278L200.76 358.368C199.86 358.452 199.206 358.734 198.798 359.214C198.402 359.694 198.204 360.288 198.204 360.996V366H196.746V357.234H198.168V358.764C198.66 357.744 199.626 357.174 201.066 357.054L201.588 357.018L201.714 358.278ZM210.259 361.842H203.851C203.899 362.862 204.175 363.636 204.679 364.164C205.183 364.68 205.897 364.938 206.821 364.938C207.841 364.938 208.777 364.59 209.629 363.894L210.115 364.956C209.731 365.316 209.239 365.604 208.639 365.82C208.039 366.024 207.427 366.126 206.803 366.126C205.435 366.126 204.355 365.724 203.563 364.92C202.783 364.116 202.393 363.006 202.393 361.59C202.393 360.69 202.567 359.898 202.915 359.214C203.263 358.518 203.749 357.978 204.373 357.594C205.009 357.21 205.729 357.018 206.533 357.018C207.697 357.018 208.609 357.402 209.269 358.17C209.929 358.926 210.259 359.97 210.259 361.302V361.842ZM206.551 358.152C205.783 358.152 205.165 358.392 204.697 358.872C204.241 359.352 203.971 360.03 203.887 360.906H208.981C208.957 360.018 208.735 359.34 208.315 358.872C207.895 358.392 207.307 358.152 206.551 358.152ZM220.184 353.31V366H218.726V364.398C218.462 364.95 218.072 365.376 217.556 365.676C217.052 365.976 216.458 366.126 215.774 366.126C215.006 366.126 214.328 365.934 213.74 365.55C213.152 365.166 212.696 364.632 212.372 363.948C212.048 363.252 211.886 362.448 211.886 361.536C211.886 360.636 212.048 359.844 212.372 359.16C212.696 358.476 213.152 357.948 213.74 357.576C214.328 357.204 215.006 357.018 215.774 357.018C216.458 357.018 217.052 357.168 217.556 357.468C218.072 357.768 218.462 358.194 218.726 358.746V353.31H220.184ZM216.062 364.92C216.914 364.92 217.568 364.632 218.024 364.056C218.492 363.468 218.726 362.64 218.726 361.572C218.726 360.504 218.492 359.682 218.024 359.106C217.568 358.53 216.914 358.242 216.062 358.242C215.21 358.242 214.544 358.53 214.064 359.106C213.596 359.682 213.362 360.492 213.362 361.536C213.362 362.604 213.596 363.438 214.064 364.038C214.544 364.626 215.21 364.92 216.062 364.92ZM230.495 366.126C229.019 366.126 227.849 365.748 226.985 364.992L227.471 363.912C227.939 364.284 228.413 364.554 228.893 364.722C229.385 364.878 229.937 364.956 230.549 364.956C231.197 364.956 231.689 364.848 232.025 364.632C232.373 364.404 232.547 364.08 232.547 363.66C232.547 363.312 232.433 363.036 232.205 362.832C231.977 362.628 231.599 362.466 231.071 362.346L229.595 362.004C228.851 361.836 228.281 361.548 227.885 361.14C227.489 360.732 227.291 360.228 227.291 359.628C227.291 358.848 227.597 358.218 228.209 357.738C228.821 357.258 229.637 357.018 230.657 357.018C231.269 357.018 231.851 357.12 232.403 357.324C232.955 357.516 233.417 357.798 233.789 358.17L233.303 359.232C232.499 358.548 231.617 358.206 230.657 358.206C230.045 358.206 229.565 358.326 229.217 358.566C228.881 358.794 228.713 359.118 228.713 359.538C228.713 359.886 228.815 360.168 229.019 360.384C229.235 360.588 229.577 360.744 230.045 360.852L231.539 361.212C232.355 361.404 232.961 361.698 233.357 362.094C233.753 362.478 233.951 362.982 233.951 363.606C233.951 364.374 233.639 364.986 233.015 365.442C232.403 365.898 231.563 366.126 230.495 366.126ZM239.809 366.126C238.981 366.126 238.249 365.94 237.613 365.568C236.989 365.196 236.503 364.668 236.155 363.984C235.819 363.288 235.651 362.484 235.651 361.572C235.651 360.66 235.819 359.862 236.155 359.178C236.503 358.482 236.989 357.948 237.613 357.576C238.249 357.204 238.981 357.018 239.809 357.018C240.637 357.018 241.369 357.204 242.005 357.576C242.641 357.948 243.127 358.482 243.463 359.178C243.811 359.862 243.985 360.66 243.985 361.572C243.985 362.484 243.811 363.288 243.463 363.984C243.127 364.668 242.641 365.196 242.005 365.568C241.369 365.94 240.637 366.126 239.809 366.126ZM239.809 364.92C240.673 364.92 241.333 364.638 241.789 364.074C242.257 363.498 242.491 362.664 242.491 361.572C242.491 360.504 242.257 359.682 241.789 359.106C241.321 358.518 240.661 358.224 239.809 358.224C238.957 358.224 238.297 358.518 237.829 359.106C237.361 359.682 237.127 360.504 237.127 361.572C237.127 362.652 237.355 363.48 237.811 364.056C238.279 364.632 238.945 364.92 239.809 364.92ZM249.794 366.126C248.966 366.126 248.234 365.94 247.598 365.568C246.974 365.196 246.488 364.668 246.14 363.984C245.804 363.288 245.636 362.484 245.636 361.572C245.636 360.66 245.804 359.862 246.14 359.178C246.488 358.482 246.974 357.948 247.598 357.576C248.234 357.204 248.966 357.018 249.794 357.018C250.622 357.018 251.354 357.204 251.99 357.576C252.626 357.948 253.112 358.482 253.448 359.178C253.796 359.862 253.97 360.66 253.97 361.572C253.97 362.484 253.796 363.288 253.448 363.984C253.112 364.668 252.626 365.196 251.99 365.568C251.354 365.94 250.622 366.126 249.794 366.126ZM249.794 364.92C250.658 364.92 251.318 364.638 251.774 364.074C252.242 363.498 252.476 362.664 252.476 361.572C252.476 360.504 252.242 359.682 251.774 359.106C251.306 358.518 250.646 358.224 249.794 358.224C248.942 358.224 248.282 358.518 247.814 359.106C247.346 359.682 247.112 360.504 247.112 361.572C247.112 362.652 247.34 363.48 247.796 364.056C248.264 364.632 248.93 364.92 249.794 364.92ZM260.552 357.018C262.652 357.018 263.702 358.176 263.702 360.492V366H262.244V360.582C262.244 359.766 262.082 359.172 261.758 358.8C261.446 358.428 260.942 358.242 260.246 358.242C259.442 358.242 258.8 358.488 258.32 358.98C257.84 359.472 257.6 360.138 257.6 360.978V366H256.142V357.234H257.582V358.674C257.87 358.134 258.272 357.726 258.788 357.45C259.304 357.162 259.892 357.018 260.552 357.018ZM266.156 364.164H267.992V366H266.156V364.164ZM12.2344 393V381.57H7.8244V380.31H18.1564V381.57H13.7284V393H12.2344ZM24.1262 384.018C26.2262 384.018 27.2762 385.176 27.2762 387.492V393H25.8182V387.582C25.8182 386.766 25.6562 386.172 25.3322 385.8C25.0202 385.428 24.5162 385.242 23.8202 385.242C23.0162 385.242 22.3742 385.488 21.8942 385.98C21.4142 386.472 21.1742 387.138 21.1742 387.978V393H19.7162V380.31H21.1742V385.638C21.4622 385.11 21.8582 384.708 22.3622 384.432C22.8782 384.156 23.4662 384.018 24.1262 384.018ZM33.5107 384.018C34.6267 384.018 35.4547 384.306 35.9947 384.882C36.5467 385.446 36.8227 386.31 36.8227 387.474V393H35.4007V391.506C35.1727 392.022 34.8247 392.424 34.3567 392.712C33.8887 392.988 33.3487 393.126 32.7367 393.126C32.1727 393.126 31.6507 393.012 31.1707 392.784C30.7027 392.556 30.3307 392.238 30.0547 391.83C29.7787 391.422 29.6407 390.972 29.6407 390.48C29.6407 389.82 29.8087 389.31 30.1447 388.95C30.4807 388.578 31.0327 388.314 31.8007 388.158C32.5687 387.99 33.6367 387.906 35.0047 387.906H35.4007V387.312C35.4007 386.58 35.2507 386.052 34.9507 385.728C34.6507 385.392 34.1647 385.224 33.4927 385.224C32.4847 385.224 31.4827 385.536 30.4867 386.16L30.0007 385.098C30.4567 384.774 31.0027 384.516 31.6387 384.324C32.2867 384.12 32.9107 384.018 33.5107 384.018ZM32.9347 391.974C33.6547 391.974 34.2427 391.734 34.6987 391.254C35.1667 390.762 35.4007 390.132 35.4007 389.364V388.842H35.0767C34.0207 388.842 33.2167 388.89 32.6647 388.986C32.1127 389.07 31.7167 389.22 31.4767 389.436C31.2487 389.64 31.1347 389.946 31.1347 390.354C31.1347 390.822 31.3027 391.212 31.6387 391.524C31.9867 391.824 32.4187 391.974 32.9347 391.974ZM43.9016 384.018C46.0016 384.018 47.0516 385.176 47.0516 387.492V393H45.5936V387.582C45.5936 386.766 45.4316 386.172 45.1076 385.8C44.7956 385.428 44.2916 385.242 43.5956 385.242C42.7916 385.242 42.1496 385.488 41.6696 385.98C41.1896 386.472 40.9496 387.138 40.9496 387.978V393H39.4916V384.234H40.9316V385.674C41.2196 385.134 41.6216 384.726 42.1376 384.45C42.6536 384.162 43.2416 384.018 43.9016 384.018ZM57.5341 393H55.6441L51.1801 388.806V393H49.7221V380.31H51.1801V388.212L55.2661 384.252H57.1201L52.7641 388.446L57.5341 393ZM69.6447 384.252H71.1027L65.9187 396.24H64.4247L65.9007 392.892L62.1927 384.252H63.7407L66.6747 391.416L69.6447 384.252ZM76.1393 393.126C75.3113 393.126 74.5793 392.94 73.9433 392.568C73.3193 392.196 72.8333 391.668 72.4853 390.984C72.1493 390.288 71.9813 389.484 71.9813 388.572C71.9813 387.66 72.1493 386.862 72.4853 386.178C72.8333 385.482 73.3193 384.948 73.9433 384.576C74.5793 384.204 75.3113 384.018 76.1393 384.018C76.9673 384.018 77.6993 384.204 78.3353 384.576C78.9713 384.948 79.4573 385.482 79.7933 386.178C80.1413 386.862 80.3153 387.66 80.3153 388.572C80.3153 389.484 80.1413 390.288 79.7933 390.984C79.4573 391.668 78.9713 392.196 78.3353 392.568C77.6993 392.94 76.9673 393.126 76.1393 393.126ZM76.1393 391.92C77.0033 391.92 77.6633 391.638 78.1193 391.074C78.5873 390.498 78.8213 389.664 78.8213 388.572C78.8213 387.504 78.5873 386.682 78.1193 386.106C77.6513 385.518 76.9913 385.224 76.1393 385.224C75.2873 385.224 74.6273 385.518 74.1593 386.106C73.6913 386.682 73.4573 387.504 73.4573 388.572C73.4573 389.652 73.6853 390.48 74.1413 391.056C74.6093 391.632 75.2753 391.92 76.1393 391.92ZM89.8677 384.234V393H88.4457V391.506C88.1697 392.034 87.7797 392.436 87.2757 392.712C86.7837 392.988 86.2257 393.126 85.6017 393.126C84.5577 393.126 83.7717 392.838 83.2437 392.262C82.7157 391.674 82.4517 390.81 82.4517 389.67V384.234H83.9097V389.634C83.9097 390.414 84.0657 390.99 84.3777 391.362C84.6897 391.722 85.1817 391.902 85.8537 391.902C86.6217 391.902 87.2397 391.656 87.7077 391.164C88.1757 390.66 88.4097 390 88.4097 389.184V384.234H89.8677ZM99.1622 384.234H101.646V385.386H99.1622V393H97.7042V385.386H95.9942V384.234H97.7042V383.946C97.7042 382.782 97.9922 381.9 98.5682 381.3C99.1562 380.7 100.056 380.364 101.268 380.292L101.988 380.256L102.096 381.39L101.268 381.444C100.536 381.492 100.002 381.702 99.6662 382.074C99.3302 382.434 99.1622 382.992 99.1622 383.748V384.234ZM106.673 393.126C105.845 393.126 105.113 392.94 104.477 392.568C103.853 392.196 103.367 391.668 103.019 390.984C102.683 390.288 102.515 389.484 102.515 388.572C102.515 387.66 102.683 386.862 103.019 386.178C103.367 385.482 103.853 384.948 104.477 384.576C105.113 384.204 105.845 384.018 106.673 384.018C107.501 384.018 108.233 384.204 108.869 384.576C109.505 384.948 109.991 385.482 110.327 386.178C110.675 386.862 110.849 387.66 110.849 388.572C110.849 389.484 110.675 390.288 110.327 390.984C109.991 391.668 109.505 392.196 108.869 392.568C108.233 392.94 107.501 393.126 106.673 393.126ZM106.673 391.92C107.537 391.92 108.197 391.638 108.653 391.074C109.121 390.498 109.355 389.664 109.355 388.572C109.355 387.504 109.121 386.682 108.653 386.106C108.185 385.518 107.525 385.224 106.673 385.224C105.821 385.224 105.161 385.518 104.693 386.106C104.225 386.682 103.991 387.504 103.991 388.572C103.991 389.652 104.219 390.48 104.675 391.056C105.143 391.632 105.809 391.92 106.673 391.92ZM117.989 385.278L117.035 385.368C116.135 385.452 115.481 385.734 115.073 386.214C114.677 386.694 114.479 387.288 114.479 387.996V393H113.021V384.234H114.443V385.764C114.935 384.744 115.901 384.174 117.341 384.054L117.863 384.018L117.989 385.278ZM127.715 393.126C126.851 393.126 126.101 392.94 125.465 392.568C124.829 392.196 124.337 391.674 123.989 391.002C123.653 390.318 123.485 389.52 123.485 388.608C123.485 387.696 123.659 386.898 124.007 386.214C124.367 385.518 124.865 384.978 125.501 384.594C126.149 384.21 126.905 384.018 127.769 384.018C128.357 384.018 128.933 384.126 129.497 384.342C130.061 384.546 130.517 384.822 130.865 385.17L130.379 386.25C129.551 385.578 128.711 385.242 127.859 385.242C126.959 385.242 126.257 385.536 125.753 386.124C125.249 386.712 124.997 387.54 124.997 388.608C124.997 389.664 125.249 390.48 125.753 391.056C126.257 391.632 126.959 391.92 127.859 391.92C128.711 391.92 129.551 391.584 130.379 390.912L130.865 391.992C130.493 392.34 130.025 392.616 129.461 392.82C128.897 393.024 128.315 393.126 127.715 393.126ZM137.031 384.018C139.131 384.018 140.181 385.176 140.181 387.492V393H138.723V387.582C138.723 386.766 138.561 386.172 138.237 385.8C137.925 385.428 137.421 385.242 136.725 385.242C135.921 385.242 135.279 385.488 134.799 385.98C134.319 386.472 134.079 387.138 134.079 387.978V393H132.621V380.31H134.079V385.638C134.367 385.11 134.763 384.708 135.267 384.432C135.783 384.156 136.371 384.018 137.031 384.018ZM146.487 393.126C145.659 393.126 144.927 392.94 144.291 392.568C143.667 392.196 143.181 391.668 142.833 390.984C142.497 390.288 142.329 389.484 142.329 388.572C142.329 387.66 142.497 386.862 142.833 386.178C143.181 385.482 143.667 384.948 144.291 384.576C144.927 384.204 145.659 384.018 146.487 384.018C147.315 384.018 148.047 384.204 148.683 384.576C149.319 384.948 149.805 385.482 150.141 386.178C150.489 386.862 150.663 387.66 150.663 388.572C150.663 389.484 150.489 390.288 150.141 390.984C149.805 391.668 149.319 392.196 148.683 392.568C148.047 392.94 147.315 393.126 146.487 393.126ZM146.487 391.92C147.351 391.92 148.011 391.638 148.467 391.074C148.935 390.498 149.169 389.664 149.169 388.572C149.169 387.504 148.935 386.682 148.467 386.106C147.999 385.518 147.339 385.224 146.487 385.224C145.635 385.224 144.975 385.518 144.507 386.106C144.039 386.682 143.805 387.504 143.805 388.572C143.805 389.652 144.033 390.48 144.489 391.056C144.957 391.632 145.623 391.92 146.487 391.92ZM156.471 393.126C155.643 393.126 154.911 392.94 154.275 392.568C153.651 392.196 153.165 391.668 152.817 390.984C152.481 390.288 152.313 389.484 152.313 388.572C152.313 387.66 152.481 386.862 152.817 386.178C153.165 385.482 153.651 384.948 154.275 384.576C154.911 384.204 155.643 384.018 156.471 384.018C157.299 384.018 158.031 384.204 158.667 384.576C159.303 384.948 159.789 385.482 160.125 386.178C160.473 386.862 160.647 387.66 160.647 388.572C160.647 389.484 160.473 390.288 160.125 390.984C159.789 391.668 159.303 392.196 158.667 392.568C158.031 392.94 157.299 393.126 156.471 393.126ZM156.471 391.92C157.335 391.92 157.995 391.638 158.451 391.074C158.919 390.498 159.153 389.664 159.153 388.572C159.153 387.504 158.919 386.682 158.451 386.106C157.983 385.518 157.323 385.224 156.471 385.224C155.619 385.224 154.959 385.518 154.491 386.106C154.023 386.682 153.789 387.504 153.789 388.572C153.789 389.652 154.017 390.48 154.473 391.056C154.941 391.632 155.607 391.92 156.471 391.92ZM165.79 393.126C164.314 393.126 163.144 392.748 162.28 391.992L162.766 390.912C163.234 391.284 163.708 391.554 164.188 391.722C164.68 391.878 165.232 391.956 165.844 391.956C166.492 391.956 166.984 391.848 167.32 391.632C167.668 391.404 167.842 391.08 167.842 390.66C167.842 390.312 167.728 390.036 167.5 389.832C167.272 389.628 166.894 389.466 166.366 389.346L164.89 389.004C164.146 388.836 163.576 388.548 163.18 388.14C162.784 387.732 162.586 387.228 162.586 386.628C162.586 385.848 162.892 385.218 163.504 384.738C164.116 384.258 164.932 384.018 165.952 384.018C166.564 384.018 167.146 384.12 167.698 384.324C168.25 384.516 168.712 384.798 169.084 385.17L168.598 386.232C167.794 385.548 166.912 385.206 165.952 385.206C165.34 385.206 164.86 385.326 164.512 385.566C164.176 385.794 164.008 386.118 164.008 386.538C164.008 386.886 164.11 387.168 164.314 387.384C164.53 387.588 164.872 387.744 165.34 387.852L166.834 388.212C167.65 388.404 168.256 388.698 168.652 389.094C169.048 389.478 169.246 389.982 169.246 390.606C169.246 391.374 168.934 391.986 168.31 392.442C167.698 392.898 166.858 393.126 165.79 393.126ZM171.468 393V384.234H172.926V393H171.468ZM171.324 380.436H173.088V382.074H171.324V380.436ZM180.062 384.018C182.162 384.018 183.212 385.176 183.212 387.492V393H181.754V387.582C181.754 386.766 181.592 386.172 181.268 385.8C180.956 385.428 180.452 385.242 179.756 385.242C178.952 385.242 178.31 385.488 177.83 385.98C177.35 386.472 177.11 387.138 177.11 387.978V393H175.652V384.234H177.092V385.674C177.38 385.134 177.782 384.726 178.298 384.45C178.814 384.162 179.402 384.018 180.062 384.018ZM193.73 384.234V392.406C193.73 393.714 193.394 394.698 192.722 395.358C192.05 396.03 191.054 396.366 189.734 396.366C188.198 396.366 186.908 395.97 185.864 395.178L186.35 394.098C186.938 394.482 187.49 394.758 188.006 394.926C188.522 395.094 189.098 395.178 189.734 395.178C190.574 395.178 191.21 394.95 191.642 394.494C192.074 394.05 192.29 393.396 192.29 392.532V390.984C192.038 391.548 191.648 391.98 191.12 392.28C190.604 392.58 189.992 392.73 189.284 392.73C188.516 392.73 187.832 392.55 187.232 392.19C186.644 391.83 186.182 391.32 185.846 390.66C185.522 390 185.36 389.238 185.36 388.374C185.36 387.51 185.522 386.748 185.846 386.088C186.182 385.428 186.644 384.918 187.232 384.558C187.832 384.198 188.516 384.018 189.284 384.018C189.98 384.018 190.586 384.168 191.102 384.468C191.618 384.768 192.008 385.194 192.272 385.746V384.234H193.73ZM189.572 391.524C190.412 391.524 191.072 391.248 191.552 390.696C192.032 390.132 192.272 389.358 192.272 388.374C192.272 387.402 192.032 386.64 191.552 386.088C191.084 385.524 190.424 385.242 189.572 385.242C188.72 385.242 188.048 385.524 187.556 386.088C187.076 386.64 186.836 387.402 186.836 388.374C186.836 389.358 187.076 390.132 187.556 390.696C188.048 391.248 188.72 391.524 189.572 391.524ZM204.706 393.126C203.878 393.126 203.146 392.94 202.51 392.568C201.886 392.196 201.4 391.668 201.052 390.984C200.716 390.288 200.548 389.484 200.548 388.572C200.548 387.66 200.716 386.862 201.052 386.178C201.4 385.482 201.886 384.948 202.51 384.576C203.146 384.204 203.878 384.018 204.706 384.018C205.534 384.018 206.266 384.204 206.902 384.576C207.538 384.948 208.024 385.482 208.36 386.178C208.708 386.862 208.882 387.66 208.882 388.572C208.882 389.484 208.708 390.288 208.36 390.984C208.024 391.668 207.538 392.196 206.902 392.568C206.266 392.94 205.534 393.126 204.706 393.126ZM204.706 391.92C205.57 391.92 206.23 391.638 206.686 391.074C207.154 390.498 207.388 389.664 207.388 388.572C207.388 387.504 207.154 386.682 206.686 386.106C206.218 385.518 205.558 385.224 204.706 385.224C203.854 385.224 203.194 385.518 202.726 386.106C202.258 386.682 202.024 387.504 202.024 388.572C202.024 389.652 202.252 390.48 202.708 391.056C203.176 391.632 203.842 391.92 204.706 391.92ZM218.434 384.234V393H217.012V391.506C216.736 392.034 216.346 392.436 215.842 392.712C215.35 392.988 214.792 393.126 214.168 393.126C213.124 393.126 212.338 392.838 211.81 392.262C211.282 391.674 211.018 390.81 211.018 389.67V384.234H212.476V389.634C212.476 390.414 212.632 390.99 212.944 391.362C213.256 391.722 213.748 391.902 214.42 391.902C215.188 391.902 215.806 391.656 216.274 391.164C216.742 390.66 216.976 390 216.976 389.184V384.234H218.434ZM226.112 385.278L225.158 385.368C224.258 385.452 223.604 385.734 223.196 386.214C222.8 386.694 222.602 387.288 222.602 387.996V393H221.144V384.234H222.566V385.764C223.058 384.744 224.024 384.174 225.464 384.054L225.986 384.018L226.112 385.278ZM235.694 384.018C236.81 384.018 237.638 384.306 238.178 384.882C238.73 385.446 239.006 386.31 239.006 387.474V393H237.584V391.506C237.356 392.022 237.008 392.424 236.54 392.712C236.072 392.988 235.532 393.126 234.92 393.126C234.356 393.126 233.834 393.012 233.354 392.784C232.886 392.556 232.514 392.238 232.238 391.83C231.962 391.422 231.824 390.972 231.824 390.48C231.824 389.82 231.992 389.31 232.328 388.95C232.664 388.578 233.216 388.314 233.984 388.158C234.752 387.99 235.82 387.906 237.188 387.906H237.584V387.312C237.584 386.58 237.434 386.052 237.134 385.728C236.834 385.392 236.348 385.224 235.676 385.224C234.668 385.224 233.666 385.536 232.67 386.16L232.184 385.098C232.64 384.774 233.186 384.516 233.822 384.324C234.47 384.12 235.094 384.018 235.694 384.018ZM235.118 391.974C235.838 391.974 236.426 391.734 236.882 391.254C237.35 390.762 237.584 390.132 237.584 389.364V388.842H237.26C236.204 388.842 235.4 388.89 234.848 388.986C234.296 389.07 233.9 389.22 233.66 389.436C233.432 389.64 233.318 389.946 233.318 390.354C233.318 390.822 233.486 391.212 233.822 391.524C234.17 391.824 234.602 391.974 235.118 391.974ZM246.085 384.018C246.853 384.018 247.531 384.21 248.119 384.594C248.707 384.978 249.163 385.518 249.487 386.214C249.811 386.898 249.973 387.696 249.973 388.608C249.973 389.52 249.811 390.318 249.487 391.002C249.163 391.674 248.707 392.196 248.119 392.568C247.543 392.94 246.865 393.126 246.085 393.126C245.401 393.126 244.801 392.976 244.285 392.676C243.781 392.376 243.397 391.95 243.133 391.398V396.24H241.675V384.234H243.133V385.746C243.397 385.194 243.781 384.768 244.285 384.468C244.801 384.168 245.401 384.018 246.085 384.018ZM245.797 391.92C246.649 391.92 247.309 391.632 247.777 391.056C248.245 390.48 248.479 389.664 248.479 388.608C248.479 387.552 248.245 386.73 247.777 386.142C247.309 385.542 246.649 385.242 245.797 385.242C244.945 385.242 244.285 385.53 243.817 386.106C243.361 386.682 243.133 387.504 243.133 388.572C243.133 389.64 243.361 390.468 243.817 391.056C244.285 391.632 244.945 391.92 245.797 391.92ZM256.562 384.018C257.33 384.018 258.008 384.21 258.596 384.594C259.184 384.978 259.64 385.518 259.964 386.214C260.288 386.898 260.45 387.696 260.45 388.608C260.45 389.52 260.288 390.318 259.964 391.002C259.64 391.674 259.184 392.196 258.596 392.568C258.02 392.94 257.342 393.126 256.562 393.126C255.878 393.126 255.278 392.976 254.762 392.676C254.258 392.376 253.874 391.95 253.61 391.398V396.24H252.152V384.234H253.61V385.746C253.874 385.194 254.258 384.768 254.762 384.468C255.278 384.168 255.878 384.018 256.562 384.018ZM256.274 391.92C257.126 391.92 257.786 391.632 258.254 391.056C258.722 390.48 258.956 389.664 258.956 388.608C258.956 387.552 258.722 386.73 258.254 386.142C257.786 385.542 257.126 385.242 256.274 385.242C255.422 385.242 254.762 385.53 254.294 386.106C253.838 386.682 253.61 387.504 253.61 388.572C253.61 389.64 253.838 390.468 254.294 391.056C254.762 391.632 255.422 391.92 256.274 391.92ZM262.88 389.67L262.43 380.31H264.248L263.78 389.67H262.88ZM262.412 391.164H264.248V393H262.412V391.164Z" fill="#606060"/>
<path fill-rule="evenodd" clip-rule="evenodd" d="M115.167 297.001C115.167 285.495 124.495 276.168 136.001 276.168C147.507 276.168 156.834 285.495 156.834 297.001C156.834 308.505 147.507 317.834 136.001 317.834C124.495 317.834 115.167 308.505 115.167 297.001ZM135.333 305.111L146.499 291.612C147.318 290.624 147.11 289.214 146.037 288.46C144.959 287.706 143.427 287.9 142.61 288.887L133.361 300.067L129.369 295.374C128.538 294.393 126.998 294.222 125.937 294.989C124.874 295.754 124.688 297.169 125.519 298.146L131.464 305.136C131.928 305.68 132.637 306 133.388 306H133.405C134.163 305.995 134.874 305.667 135.333 305.111Z" fill="#27AE60"/>
</svg>
