<svg width="355" height="100" viewBox="0 0 355 100" fill="none" xmlns="http://www.w3.org/2000/svg">
<g filter="url(#filter0_d_7_310)">
<rect x="20" y="70" width="60" height="315" rx="8" transform="rotate(-90 20 70)" fill="#242424"/>
</g>
<path d="M111.836 45V33.858H107.552V32.31H118.01V33.858H113.708V45H111.836ZM123.452 37.53L122.354 37.638C121.49 37.722 120.866 37.986 120.482 38.43C120.11 38.874 119.924 39.438 119.924 40.122V45H118.106V36.216H119.87V37.746C120.338 36.714 121.292 36.144 122.732 36.036L123.326 36L123.452 37.53ZM128.317 36C129.493 36 130.363 36.294 130.927 36.882C131.503 37.47 131.791 38.364 131.791 39.564V45H130.045V43.542C129.817 44.058 129.475 44.454 129.019 44.73C128.575 44.994 128.053 45.126 127.453 45.126C126.877 45.126 126.349 45.012 125.869 44.784C125.389 44.544 125.011 44.214 124.735 43.794C124.471 43.374 124.339 42.906 124.339 42.39C124.339 41.754 124.501 41.256 124.825 40.896C125.161 40.524 125.707 40.26 126.463 40.104C127.231 39.948 128.281 39.87 129.613 39.87H130.027V39.348C130.027 38.676 129.883 38.19 129.595 37.89C129.319 37.59 128.863 37.44 128.227 37.44C127.231 37.44 126.235 37.746 125.239 38.358L124.699 37.08C125.167 36.756 125.731 36.498 126.391 36.306C127.063 36.102 127.705 36 128.317 36ZM127.777 43.776C128.437 43.776 128.977 43.554 129.397 43.11C129.817 42.654 130.027 42.072 130.027 41.364V40.896H129.703C128.767 40.896 128.047 40.938 127.543 41.022C127.039 41.106 126.679 41.25 126.463 41.454C126.247 41.646 126.139 41.928 126.139 42.3C126.139 42.72 126.289 43.074 126.589 43.362C126.901 43.638 127.297 43.776 127.777 43.776ZM138.13 45.126C137.242 45.126 136.468 44.94 135.808 44.568C135.16 44.196 134.656 43.674 134.296 43.002C133.948 42.318 133.774 41.52 133.774 40.608C133.774 39.696 133.954 38.892 134.314 38.196C134.686 37.5 135.202 36.96 135.862 36.576C136.534 36.192 137.314 36 138.202 36C138.814 36 139.402 36.102 139.966 36.306C140.542 36.51 141.01 36.786 141.37 37.134L140.812 38.43C140.02 37.782 139.198 37.458 138.346 37.458C137.506 37.458 136.846 37.734 136.366 38.286C135.898 38.826 135.664 39.594 135.664 40.59C135.664 41.574 135.898 42.336 136.366 42.876C136.834 43.404 137.494 43.668 138.346 43.668C139.198 43.668 140.02 43.344 140.812 42.696L141.37 44.01C140.986 44.358 140.506 44.634 139.93 44.838C139.354 45.03 138.754 45.126 138.13 45.126ZM151.259 45H148.955L144.797 40.86V45H142.979V32.31H144.797V40.176L148.649 36.234H150.899L146.741 40.446L151.259 45ZM163.252 36.234H165.07L159.832 48.24H157.996L159.526 44.784L155.836 36.234H157.744L160.48 42.948L163.252 36.234ZM170.068 45.126C169.204 45.126 168.442 44.94 167.782 44.568C167.134 44.196 166.63 43.668 166.27 42.984C165.922 42.288 165.748 41.484 165.748 40.572C165.748 39.648 165.922 38.844 166.27 38.16C166.63 37.464 167.134 36.93 167.782 36.558C168.442 36.186 169.204 36 170.068 36C170.932 36 171.688 36.186 172.336 36.558C172.996 36.93 173.5 37.464 173.848 38.16C174.208 38.844 174.388 39.648 174.388 40.572C174.388 41.484 174.208 42.288 173.848 42.984C173.5 43.668 172.996 44.196 172.336 44.568C171.688 44.94 170.932 45.126 170.068 45.126ZM170.068 43.686C170.872 43.686 171.484 43.422 171.904 42.894C172.336 42.366 172.552 41.592 172.552 40.572C172.552 39.564 172.336 38.796 171.904 38.268C171.472 37.728 170.86 37.458 170.068 37.458C169.276 37.458 168.664 37.728 168.232 38.268C167.8 38.796 167.584 39.564 167.584 40.572C167.584 41.592 167.794 42.366 168.214 42.894C168.646 43.422 169.264 43.686 170.068 43.686ZM184.116 36.216V45H182.352V43.578C182.076 44.082 181.692 44.466 181.2 44.73C180.72 44.994 180.18 45.126 179.58 45.126C177.444 45.126 176.376 43.95 176.376 41.598V36.216H178.194V41.58C178.194 42.288 178.338 42.81 178.626 43.146C178.914 43.482 179.358 43.65 179.958 43.65C180.666 43.65 181.23 43.422 181.65 42.966C182.082 42.51 182.298 41.904 182.298 41.148V36.216H184.116ZM192.006 37.53L190.908 37.638C190.044 37.722 189.42 37.986 189.036 38.43C188.664 38.874 188.478 39.438 188.478 40.122V45H186.66V36.216H188.424V37.746C188.892 36.714 189.846 36.144 191.286 36.036L191.88 36L192.006 37.53ZM201.814 45.126C200.95 45.126 200.188 44.94 199.528 44.568C198.88 44.196 198.376 43.668 198.016 42.984C197.668 42.288 197.494 41.484 197.494 40.572C197.494 39.648 197.668 38.844 198.016 38.16C198.376 37.464 198.88 36.93 199.528 36.558C200.188 36.186 200.95 36 201.814 36C202.678 36 203.434 36.186 204.082 36.558C204.742 36.93 205.246 37.464 205.594 38.16C205.954 38.844 206.134 39.648 206.134 40.572C206.134 41.484 205.954 42.288 205.594 42.984C205.246 43.668 204.742 44.196 204.082 44.568C203.434 44.94 202.678 45.126 201.814 45.126ZM201.814 43.686C202.618 43.686 203.23 43.422 203.65 42.894C204.082 42.366 204.298 41.592 204.298 40.572C204.298 39.564 204.082 38.796 203.65 38.268C203.218 37.728 202.606 37.458 201.814 37.458C201.022 37.458 200.41 37.728 199.978 38.268C199.546 38.796 199.33 39.564 199.33 40.572C199.33 41.592 199.54 42.366 199.96 42.894C200.392 43.422 201.01 43.686 201.814 43.686ZM213.504 37.53L212.406 37.638C211.542 37.722 210.918 37.986 210.534 38.43C210.162 38.874 209.976 39.438 209.976 40.122V45H208.158V36.216H209.922V37.746C210.39 36.714 211.344 36.144 212.784 36.036L213.378 36L213.504 37.53ZM222.674 32.31V45H220.874V43.488C220.61 44.016 220.226 44.424 219.722 44.712C219.218 44.988 218.636 45.126 217.976 45.126C217.22 45.126 216.542 44.934 215.942 44.55C215.354 44.166 214.892 43.626 214.556 42.93C214.232 42.234 214.07 41.436 214.07 40.536C214.07 39.624 214.232 38.826 214.556 38.142C214.892 37.458 215.354 36.93 215.942 36.558C216.53 36.186 217.208 36 217.976 36C218.636 36 219.212 36.144 219.704 36.432C220.208 36.708 220.592 37.104 220.856 37.62V32.31H222.674ZM218.408 43.686C219.2 43.686 219.806 43.416 220.226 42.876C220.658 42.336 220.874 41.568 220.874 40.572C220.874 39.576 220.658 38.808 220.226 38.268C219.806 37.728 219.2 37.458 218.408 37.458C217.616 37.458 216.998 37.728 216.554 38.268C216.122 38.796 215.906 39.552 215.906 40.536C215.906 41.52 216.128 42.294 216.572 42.858C217.016 43.41 217.628 43.686 218.408 43.686ZM232.733 40.914H226.523C226.655 42.774 227.579 43.704 229.295 43.704C230.303 43.704 231.215 43.374 232.031 42.714L232.589 43.992C232.181 44.34 231.677 44.616 231.077 44.82C230.477 45.024 229.865 45.126 229.241 45.126C227.837 45.126 226.727 44.724 225.911 43.92C225.107 43.116 224.705 42.006 224.705 40.59C224.705 39.69 224.879 38.892 225.227 38.196C225.587 37.5 226.085 36.96 226.721 36.576C227.369 36.192 228.101 36 228.917 36C230.105 36 231.035 36.384 231.707 37.152C232.391 37.92 232.733 38.982 232.733 40.338V40.914ZM228.953 37.332C228.257 37.332 227.699 37.554 227.279 37.998C226.871 38.43 226.625 39.054 226.541 39.87H231.167C231.131 39.054 230.921 38.43 230.537 37.998C230.165 37.554 229.637 37.332 228.953 37.332ZM240.083 37.53L238.985 37.638C238.121 37.722 237.497 37.986 237.113 38.43C236.741 38.874 236.555 39.438 236.555 40.122V45H234.737V36.216H236.501V37.746C236.969 36.714 237.923 36.144 239.363 36.036L239.957 36L240.083 37.53ZM244.336 45.126C242.812 45.126 241.594 44.754 240.682 44.01L241.24 42.696C242.14 43.392 243.19 43.74 244.39 43.74C244.978 43.74 245.428 43.644 245.74 43.452C246.052 43.248 246.208 42.966 246.208 42.606C246.208 42.294 246.1 42.048 245.884 41.868C245.68 41.688 245.32 41.538 244.804 41.418L243.346 41.094C242.566 40.914 241.978 40.62 241.582 40.212C241.186 39.804 240.988 39.288 240.988 38.664C240.988 37.872 241.306 37.23 241.942 36.738C242.59 36.246 243.436 36 244.48 36C245.104 36 245.698 36.102 246.262 36.306C246.826 36.498 247.312 36.774 247.72 37.134L247.162 38.412C246.298 37.728 245.404 37.386 244.48 37.386C243.928 37.386 243.49 37.494 243.166 37.71C242.854 37.926 242.698 38.22 242.698 38.592C242.698 38.892 242.794 39.138 242.986 39.33C243.19 39.51 243.508 39.648 243.94 39.744L245.434 40.086C246.286 40.278 246.91 40.578 247.306 40.986C247.702 41.382 247.9 41.904 247.9 42.552C247.9 43.344 247.576 43.974 246.928 44.442C246.292 44.898 245.428 45.126 244.336 45.126Z" fill="white"/>
<defs>
<filter id="filter0_d_7_310" x="0" y="0" width="355" height="100" filterUnits="userSpaceOnUse" color-interpolation-filters="sRGB">
<feFlood flood-opacity="0" result="BackgroundImageFix"/>
<feColorMatrix in="SourceAlpha" type="matrix" values="0 0 0 0 0 0 0 0 0 0 0 0 0 0 0 0 0 0 127 0" result="hardAlpha"/>
<feOffset dy="10"/>
<feGaussianBlur stdDeviation="10"/>
<feColorMatrix type="matrix" values="0 0 0 0 0.188235 0 0 0 0 0.188235 0 0 0 0 0.188235 0 0 0 0.25 0"/>
<feBlend mode="normal" in2="BackgroundImageFix" result="effect1_dropShadow_7_310"/>
<feBlend mode="normal" in="SourceGraphic" in2="effect1_dropShadow_7_310" result="shape"/>
</filter>
</defs>
</svg>
